<?xml version="1.0" encoding="utf-8"?>
<!-- Generator: Adobe Illustrator 21.1.0, SVG Export Plug-In . SVG Version: 6.00 Build 0)  -->
<svg version="1.1" id="Layer_1" xmlns="http://www.w3.org/2000/svg" xmlns:xlink="http://www.w3.org/1999/xlink" x="0px" y="0px"
	 viewBox="0 0 7.4 15.9" style="enable-background:new 0 0 7.4 15.9;" xml:space="preserve">
<style type="text/css">
	.st0{fill:#103B99;}
</style>
<path id="Facebook_3_" class="st0" d="M1.6,3.1c0,0.4,0,2.2,0,2.2H0V8h1.6v8H5V8h2.2c0,0,0.2-1.3,0.3-2.6c-0.3,0-2.5,0-2.5,0
	s0-1.5,0-1.8c0-0.2,0.3-0.6,0.7-0.6c0.3,0,1.1,0,1.8,0c0-0.3,0-1.6,0-2.9C6.6,0,5.4,0,5,0C1.5,0,1.6,2.7,1.6,3.1z"/>
</svg>
