<?xml version="1.0" encoding="utf-8"?>
<!-- Generator: Adobe Illustrator 21.1.0, SVG Export Plug-In . SVG Version: 6.00 Build 0)  -->
<svg version="1.1" id="Layer_1" xmlns="http://www.w3.org/2000/svg" xmlns:xlink="http://www.w3.org/1999/xlink" x="0px" y="0px"
	 viewBox="0 0 21.4 12.5" style="enable-background:new 0 0 21.4 12.5;" xml:space="preserve">
<style type="text/css">
	.st0{fill:#103B99;}
</style>
<path class="st0" d="M6.3,5.4v2.1h3.5c-0.1,0.9-1.1,2.7-3.5,2.7c-2.1,0-3.9-1.8-3.9-3.9c0-2.2,1.7-3.9,3.9-3.9c1.2,0,2,0.5,2.5,1
	l1.7-1.6C9.4,0.6,7.9,0,6.3,0C2.8,0,0,2.8,0,6.3s2.8,6.3,6.3,6.3c3.6,0,6-2.5,6-6.1c0-0.4,0-0.7-0.1-1C12.2,5.4,6.3,5.4,6.3,5.4z
	 M6.3,5.4l15.2,1.8h-2.7v2.7H17V7.1h-2.7V5.4H17V2.7h1.8v2.7h2.7v1.8L6.3,5.4z"/>
</svg>
