<svg id="Layer_1" data-name="Layer 1" xmlns="http://www.w3.org/2000/svg" viewBox="0 0 181.85 78.8"><defs><style>.cls-1{fill:#959db3;}.cls-2{fill:#f15b43;}</style></defs><title>ca-font</title><path class="cls-1" d="M146.3,294l3.3.7a2.16,2.16,0,0,1,1.6.9,2.41,2.41,0,0,1,.5,2.1,2.55,2.55,0,0,1-2.1,2.1l1.2,4.3-1.5-.3-1-4.1-1.7-.3-.7,3.8-1.3-.3,1.7-8.9Zm.5,4.2,2,.4a1.55,1.55,0,0,0,1.2-.2,1.05,1.05,0,0,0,.5-.9,1.31,1.31,0,0,0-.2-1.1,1.93,1.93,0,0,0-.9-.5l-2-.4Zm10.6-2.2,5.5.7-.2,1.3-4.2-.6-.3,2.6,3.6.5-.2,1.2-3.6-.5-.3,2.6,4.2.6-.2,1.3-5.5-.7Zm10.5,1.2,3.2.2a3.55,3.55,0,0,1,1,.2,2.36,2.36,0,0,1,.9.6,1.46,1.46,0,0,1,.6.9,2.74,2.74,0,0,1,.2,1.3,2.5,2.5,0,0,1-.8,1.8,2.47,2.47,0,0,1-2.1.7l-2-.1-.3,3.5-1.3-.1.6-9Zm1,4.3,2,.1a1.25,1.25,0,0,0,1.1-.4,1.28,1.28,0,0,0,.4-1,2,2,0,0,0-.1-.8,1.76,1.76,0,0,0-.4-.5,1.61,1.61,0,0,0-.9-.3l-1.9-.1-.2,3Zm9.9-3.6h1.3l-.1,5.8a2,2,0,0,0,.5,1.4,1.73,1.73,0,0,0,1.3.5,2.11,2.11,0,0,0,1.3-.5,2,2,0,0,0,.5-1.4l.1-5.8H185l-.1,6a2.79,2.79,0,0,1-.9,2.2,2.86,2.86,0,0,1-2.2.8,2.94,2.94,0,0,1-2.2-.9,3,3,0,0,1-.9-2.3l.1-5.8Zm11.8-.1,3.4-.2a3,3,0,0,1,2,.6,2.06,2.06,0,0,1,.7,1.7,2.15,2.15,0,0,1-.2,1.1,1.76,1.76,0,0,1-.4.5,2.09,2.09,0,0,1-.6.4,1.44,1.44,0,0,1,1.1.7,2.84,2.84,0,0,1,.4,1.3,2.88,2.88,0,0,1-.6,1.9,2.14,2.14,0,0,1-1.7.8l-3.7.2Zm1.3,1.2.1,2.6,1.9-.1a1.33,1.33,0,0,0,1-.4,1.61,1.61,0,0,0,.3-.9,1,1,0,0,0-.4-.9,1.61,1.61,0,0,0-1.1-.3Zm.2,3.8.1,2.7,2-.1a1.43,1.43,0,0,0,1.1-.5,1.69,1.69,0,0,0,.3-1,1,1,0,0,0-.4-.9,1.23,1.23,0,0,0-1.1-.3l-2,.1Zm9.7-5.7,1.3-.1.8,7.7,4.2-.5.1,1.3-5.5.6-.9-9Zm10.6-1.3,1.3-.2,1.4,8.9-1.3.2Zm13.9,3.9a2.82,2.82,0,0,1-.7,2.1,3.67,3.67,0,0,1-1.8,1.1,2.67,2.67,0,0,1-1.8-.2,2.73,2.73,0,0,1-1.2-.9l-.3-.3c-.1-.1-.1-.3-.2-.4a18.21,18.21,0,0,1-.5-2,12.64,12.64,0,0,1-.3-2.1,2.22,2.22,0,0,1,.1-.9,2.58,2.58,0,0,1,.8-1.3,3.54,3.54,0,0,1,1.6-.9,2.76,2.76,0,0,1,2.2.3,3.64,3.64,0,0,1,1.4,1.6l-1.4.3a2,2,0,0,0-.8-.8,1.38,1.38,0,0,0-1.1-.1c-.3.1-.6.2-.7.4a2.09,2.09,0,0,0-.4.6,1.88,1.88,0,0,0-.2.8,10.53,10.53,0,0,0,.3,1.8,4.91,4.91,0,0,0,.5,1.7,1.79,1.79,0,0,0,.5.7.86.86,0,0,0,.6.3,1.1,1.1,0,0,0,.8,0,2,2,0,0,0,1.4-1.6l1.2-.2Z" transform="translate(-98.57 -228.1)"/><circle class="cls-1" cx="37.63" cy="66.9" r="0.9"/><circle class="cls-1" cx="136.03" cy="66.9" r="0.9"/><path class="cls-2" d="M120,247.3c-.1,0-.2-.1-.4-.1a1.69,1.69,0,0,1-.5-.2q-.15,0-.3-.3l-.4-.7a11.76,11.76,0,0,0,.7-2c.1-.7.3-1.4.4-2.1a3.3,3.3,0,0,0,0-1.4c-.1-.5-.1-.9-.2-1.4a1.26,1.26,0,0,0-.7-1,2.36,2.36,0,0,0-1.2-.1,3.08,3.08,0,0,0-1.2.5,8.65,8.65,0,0,0-1,.7,10.59,10.59,0,0,0-1,1.2c-.2.4-.5.9-.7,1.3-.5.9-1,1.8-1.5,2.8a25.5,25.5,0,0,0-1.3,2.9,18,18,0,0,0-.8,2.1l-.9,2.1c-.3.7-.5,1.3-.8,2a16.55,16.55,0,0,0-.6,2.1c-.4,1.5-.8,2.9-1.2,4.4a29.71,29.71,0,0,0-1,4.5c-.1.6-.1,1.1-.2,1.7s-.1,1.2-.2,1.7a9.64,9.64,0,0,0,0,2.4,19.27,19.27,0,0,1,.1,2.4,2.35,2.35,0,0,0,.6,1.7,2.94,2.94,0,0,0,1.6,1,7.86,7.86,0,0,0,4.8-.6,11.78,11.78,0,0,0,1.9-1.1c.5-.5,1.1-.9,1.6-1.4.8-.7,1.6-1.4,2.4-2.2s1.5-1.6,2.2-2.4a20.89,20.89,0,0,0,2-2.2,21.28,21.28,0,0,0,1.6-2.5l1.5-2.4,1.5-2.4a1.38,1.38,0,0,1,.3-.4,3.55,3.55,0,0,1,.9-.4c.3-.1.7-.1,1-.2a4.33,4.33,0,0,0-.1.5c0,.1-.1.1-.1.2s-.1.1,0,.2a1.06,1.06,0,0,1-.1.8c-.1.2-.3.5-.4.7a3.51,3.51,0,0,1-.5.8c-.2.2-.3.5-.5.7-.7,1.1-1.4,2.2-2.1,3.4a19,19,0,0,1-2.2,3.3,47.24,47.24,0,0,1-6.8,6.6,30.75,30.75,0,0,1-8.1,4.9,8.74,8.74,0,0,1-4.5.5,4.29,4.29,0,0,1-2.1-1.1,6,6,0,0,1-1.8-2.1,10.67,10.67,0,0,1-.8-2.7,21.72,21.72,0,0,1-.3-4.4,33.66,33.66,0,0,1,.3-4.4c.2-1.5.4-2.9.7-4.3s.7-2.9,1-4.3c.3-1.1.6-2.2.8-3.3s.6-2.1,1-3.2a60.7,60.7,0,0,1,2.4-5.9,17,17,0,0,1,3.8-5.1,13,13,0,0,1,5-2.8,22.14,22.14,0,0,1,3-.7,10.86,10.86,0,0,1,3.1-.1,2.64,2.64,0,0,1,1.6.7,3.61,3.61,0,0,1,.8,1.5,2.2,2.2,0,0,1,.1.8,1.7,1.7,0,0,0,.1.7c0,.3.1.5.1.8v.8a1.7,1.7,0,0,1-.1.7,3.09,3.09,0,0,1-.2.8c-.1.5-.3,1.1-.4,1.6a4.71,4.71,0,0,1-.6,1.5c-.1.1-.1.2-.2.3s-.1.2-.2.3a2.4,2.4,0,0,1-.7,1.3Z" transform="translate(-98.57 -228.1)"/><path class="cls-2" d="M134,263.2l-.2.2-.2.2c-.3.3-.7.5-1,.8a2.84,2.84,0,0,1-1.3.4,2.92,2.92,0,0,0-.9.2,2.92,2.92,0,0,1-.9.2,4.68,4.68,0,0,1-1.7-.2,2.87,2.87,0,0,1-1.4-1.1,3.34,3.34,0,0,1-.5-1.2,7,7,0,0,1-.1-3.5,2.2,2.2,0,0,0,.1-.8c0-.2.1-.5.1-.8l.5-1.6c.1-.3.2-.6.3-1s.2-.6.3-1a8.79,8.79,0,0,1,1.9-3.4,3.92,3.92,0,0,0,.8-1,2.7,2.7,0,0,1,.8-.7,3.55,3.55,0,0,1,.9-.4l1.3-.5a5.16,5.16,0,0,1,1.1-.2c.4,0,.7-.1,1.1-.1a.75.75,0,0,0,.5-.1,1.41,1.41,0,0,1,.9-.1c.3,0,.6.1.9.1a1.08,1.08,0,0,1,.7.3,3.39,3.39,0,0,1,.6.6c.1.2.2.3.3.5s.2.3.3.5a1.19,1.19,0,0,1-.2,1.5.76.76,0,0,1-.5.2q-.15,0-.3-.3a2.22,2.22,0,0,0-.5-1.1,6.47,6.47,0,0,0-.8-.9l-.2-.2a3.67,3.67,0,0,0-1.8-.1,5.78,5.78,0,0,0-1.4.5,2.59,2.59,0,0,0-1.1,1,20,20,0,0,0-1,2.1,14.27,14.27,0,0,1-.8,2.2c-.1.4-.3.7-.4,1.1a4.87,4.87,0,0,1-.4,1.1,23.35,23.35,0,0,0-.7,2.5,5.3,5.3,0,0,0,.1,2.5,2.12,2.12,0,0,0,2.5,1.4,4.25,4.25,0,0,0,1.7-1.6c.5-.8.9-1.4,1.2-2,.1-.2.1-.4.2-.6a1.42,1.42,0,0,1,.2-.6,6.37,6.37,0,0,0,.2-.7,1.42,1.42,0,0,1,.2-.6c.1-.3.2-.6.3-1s.2-.6.3-1,.2-.7.3-1,.2-.7.3-1q.3-.9.9-.9a.9.9,0,0,1,.5-.1.9.9,0,0,0,.5-.1c.4,0,.7.1.8.5l.2.3a1.13,1.13,0,0,1-.1.8,1.1,1.1,0,0,0,0,.8v.8a13.66,13.66,0,0,1-.2,1.9,16.25,16.25,0,0,0-.4,1.9,11.14,11.14,0,0,0-.2,1.7,11.14,11.14,0,0,1-.2,1.7c-.1.2-.1.4-.2.6s-.1.4-.1.6c-.1.4-.1.8-.2,1.2a5,5,0,0,1-.2,1.2c0,.2-.1.3-.1.5v.5a1.76,1.76,0,0,1-.1.6v.9a.91.91,0,0,0,.3.7c.2.2.4.2.8,0a11,11,0,0,0,1-.8l.9-.9c.3-.4.6-.9,1-1.5a8.94,8.94,0,0,0,.9-1.6c.4-.9.9-1.9,1.5-3.1a32.61,32.61,0,0,1,1.5-3.2.6.6,0,0,0,.1-.4c0-.2.1-.2.3-.2s.2-.1.3-.1a.76.76,0,0,0,.4-.1c.2,0,.4.1.3.3s-.1.3-.1.5-.1.3-.1.5a5.9,5.9,0,0,1-.4.8,6.12,6.12,0,0,0-.5,1.2c-.2.4-.3.8-.5,1.2a2,2,0,0,0-.3.8c-.4.8-.7,1.7-1.2,2.6a22,22,0,0,1-1.5,2.6,13.65,13.65,0,0,1-1.9,2.3,6.08,6.08,0,0,1-2.4,1.5,4,4,0,0,1-1.6.1,3.39,3.39,0,0,1-1.5-.6,1,1,0,0,1-.5-.6,3.23,3.23,0,0,1-.6-1.8,11.48,11.48,0,0,1-.1-1.9c0-.5.1-1,.1-1.5a7.72,7.72,0,0,1,.2-1.5v-.4Z" transform="translate(-98.57 -228.1)"/><path class="cls-2" d="M162.2,257c0,.2-.1.5-.1.7a1.7,1.7,0,0,1-.1.7c-.1.5-.2.9-.3,1.3a6.12,6.12,0,0,1-.5,1.2c-.3.7-.6,1.3-.9,2s-.6,1.3-.9,2a8.64,8.64,0,0,1-1,1.6,14,14,0,0,0-1,1.6c-.5.9-1,1.8-1.4,2.7a17.36,17.36,0,0,1-1.5,2.6l-.3.6a2.09,2.09,0,0,1-.4.6c-.2.3-.5.5-.7.8l-.7.7a7.84,7.84,0,0,1-1.5,1,8.45,8.45,0,0,1-1.7.5,2,2,0,0,1-1-.2,4.93,4.93,0,0,1-1.8-1.7,13.32,13.32,0,0,1-1-2.4,12.86,12.86,0,0,1-.4-1.9c-.1-.6-.2-1.3-.3-1.9s-.1-.9-.2-1.3-.1-.8-.2-1.3c-.1-1.3-.1-2.6-.1-3.9s.1-2.6.2-3.9c.1-1,.1-2,.2-3.1a18.12,18.12,0,0,1,.5-3.1,29.92,29.92,0,0,1,.8-3.2,19.09,19.09,0,0,0,.6-3.3,10.76,10.76,0,0,1,.7-3.1c.4-1,.7-2,1.1-3s.6-1.8,1-2.8.7-1.9,1.1-2.8c.4-.7.7-1.5,1.1-2.2a6.14,6.14,0,0,1,1.7-1.9,15.22,15.22,0,0,1,3-1.7,11.4,11.4,0,0,1,3.3-.8h.5a.9.9,0,0,0,.5.1,1.58,1.58,0,0,1,1.6.6c.1.1.1.1.2.1s.1,0,.2.1.2.1.3.2a1.61,1.61,0,0,0,.4.7,2,2,0,0,1,.4.8,6.89,6.89,0,0,0,.3.8,6.89,6.89,0,0,0,.3.8,7.08,7.08,0,0,1,0,2.9,22.91,22.91,0,0,1-.7,2.8l-.9,2.7c-.3.9-.8,1.7-1.2,2.6a4.18,4.18,0,0,0-.4,1,3,3,0,0,1-.4,1,10.91,10.91,0,0,1-.6,1.1,10.54,10.54,0,0,0-.7,1.1l-.9,1.5c-.3.5-.7,1-1,1.5a7.55,7.55,0,0,1-1.1,1.4,7.41,7.41,0,0,1-1.3,1.2,4.62,4.62,0,0,0-.7.7l-.7.7c-.3.3-.6.5-.9.8s-.6.5-.9.7-.4.3-.6.4-.4.3-.6.4a.67.67,0,0,0-.4.7c-.1.6-.1,1.2-.2,1.8s-.1,1.2-.2,1.8-.1,1-.2,1.6a8.55,8.55,0,0,0,0,1.6,19.53,19.53,0,0,1,.3,3.4c0,1.1,0,2.3.1,3.4,0,.2.1.3.1.5s.1.3.2.5A5.1,5.1,0,0,0,152,274c.1,0,.2.1.3.1a.37.37,0,0,0,.3-.1c.2-.2.4-.3.6-.5s.4-.3.5-.6a5.39,5.39,0,0,0,.7-1.3,8.26,8.26,0,0,1,.7-1.3c1-1.9,1.9-3.7,2.9-5.6s1.8-3.8,2.8-5.7c.1-.2.1-.4.2-.6a1.42,1.42,0,0,0,.2-.6,1,1,0,0,1,.5-.6,2.65,2.65,0,0,0,.6-.5c-.2.3-.1.3-.1.3ZM150,255.8c.1,0,.1,0,.2.1a2.18,2.18,0,0,0,.5-.4,1,1,0,0,0,.5-.4,18.53,18.53,0,0,0,3.7-3.7c.5-.7,1-1.4,1.6-2.2a10.46,10.46,0,0,0,1.3-2.3c.2-.5.5-1,.7-1.5s.5-1,.7-1.5.5-1.1.7-1.7l.6-1.8a18.88,18.88,0,0,1,.6-1.8c.1-.3.1-.6.2-1a3.55,3.55,0,0,1,.2-1,7.25,7.25,0,0,0,0-2.4c-.1-.3-.1-.5-.2-.8s-.1-.5-.2-.7a1.88,1.88,0,0,0-.5-1.1.76.76,0,0,1-.2-.5.52.52,0,0,0-.2-.4l-.3-.3c-.1-.1-.2-.1-.3-.2s-.2-.1-.3-.2a.91.91,0,0,0-1.1.2c-.2.2-.4.4-.4.5a10.54,10.54,0,0,1-.7,1.1,6.73,6.73,0,0,1-.7,1.1,16.15,16.15,0,0,0-1.7,3.5c-.4,1.2-.8,2.5-1.2,3.7-.2.8-.5,1.6-.7,2.4l-.6,2.4a20,20,0,0,0-.4,2.4l-.3,2.4c-.1.4-.1.7-.2,1.1s-.1.7-.2,1.1l-.3.9a6.89,6.89,0,0,1-.3.8,2.92,2.92,0,0,0-.2.9c-.2.7-.2,1-.3,1.3Z" transform="translate(-98.57 -228.1)"/><path class="cls-2" d="M173.8,257.3a.86.86,0,0,1,.3.6.9.9,0,0,0-.1.5.37.37,0,0,1-.1.3,3,3,0,0,0-.4.8,6.89,6.89,0,0,0-.3.8,2.19,2.19,0,0,1-.3.5,1.38,1.38,0,0,0-.3.4c-.1.1-.1.3-.2.5a.31.31,0,0,0-.1.2c0,.1-.1.2-.1.3s-.1.3-.2.5-.1.3-.2.5-.1.2-.1.3a.37.37,0,0,0-.1.3c-.2.4-.3.8-.5,1.2a5.64,5.64,0,0,0-.4,1.2l-.1.1c-.1.2-.3.4-.4.6a2.09,2.09,0,0,1-.4.6,2,2,0,0,1-.8.8l-1,.7c-.2.2-.4.3-.6.5l-.6.3c-.1,0-.1,0-.2.1a1.7,1.7,0,0,1-.7.1c-.2,0-.4.1-.6.1-.4.1-.7.1-.8-.1a6.89,6.89,0,0,1-.8-.3c-.3-.1-.5-.2-.8-.3a3.59,3.59,0,0,1-1-.7,4.7,4.7,0,0,1-.6-.9,2.61,2.61,0,0,1-.3-1.1c-.1-.4-.1-.7-.2-1.1a4.87,4.87,0,0,1-.1-1.2v-3.8a33.14,33.14,0,0,1,.2-4.4,4.48,4.48,0,0,0,.1-1.1c0-.4.1-.7.1-1.1s.1-.7.1-1.1.1-.7.2-1.1l.3-.9c.1-.3.2-.6.3-1,0-.1.2-.2.4-.2s.4.1.6.1a1.42,1.42,0,0,1,.6.2,1,1,0,0,1,.5.4c.1.2.1.3.2.4s.1.2.2.4a4917165483562.2,4917165483562.2,0,0,0,.2.4c0,.2.1.5.1.7a1.7,1.7,0,0,0,.1.7,7.08,7.08,0,0,1,.1,1.4c0,.4-.1.9-.1,1.3a1.38,1.38,0,0,1-.1,1.1v.6c0,.3.1.5.1.7a1.7,1.7,0,0,1-.1.7,2.77,2.77,0,0,0-.1.9,3.75,3.75,0,0,1-.1,1v.7l-.1.1a1.39,1.39,0,0,1,0,.9,2.49,2.49,0,0,0-.1.8v.3a.9.9,0,0,1,.1.5v.5c0,.2-.1.3-.1.5v.5a7.57,7.57,0,0,1,.1,1.5,2.84,2.84,0,0,0,.4,1.2c0,.1.1.1.3.1a.75.75,0,0,0,.5-.1l.6-.3c.2-.1.3-.3.5-.4l.3-.3a1.38,1.38,0,0,0,.3-.4l1.2-1.5c.4-.5.7-1,1.1-1.6a1.61,1.61,0,0,1,.4-.7c.1-.2.3-.5.4-.7a2.51,2.51,0,0,0,.4-.7,5.94,5.94,0,0,0,.4-.8c.2-.4.3-.7.5-1.1a3.58,3.58,0,0,0,.4-1.1c0-.1.1-.3.2-.3s.1-.2.2-.4a1.71,1.71,0,0,1,1.2-.6Zm-12.3-12.9c.1,0,.2-.1.3-.1s.2-.1.3-.1.2-.1.2,0h.8a1.28,1.28,0,0,1,1.4.6c-.1.3-.1.6-.2,1s-.1.6-.2,1l-.5.5a.1.1,0,0,0-.1.1h-.6a.86.86,0,0,1-.6-.3c-.3-.3-.5-.5-.5-.7a1.67,1.67,0,0,1-.4-1.1v-.4A1.09,1.09,0,0,0,161.5,244.4Z" transform="translate(-98.57 -228.1)"/><path class="cls-2" d="M174.9,269.4a1.38,1.38,0,0,0,.4-.3c.1-.1.3-.1.4-.2a4.81,4.81,0,0,1,1.6-.8,3.7,3.7,0,0,0,1.1-.5c.4-.2.7-.5,1.1-.7a39523862445051.83,39523862445051.83,0,0,0,2.2-1.6,2.09,2.09,0,0,0,.6-.4c.2-.2.4-.3.5-.5l.7-.7c.2-.2.4-.5.7-.8l.3-.3a1.38,1.38,0,0,0,.3-.4c.2-.2.4-.5.6-.7a4.35,4.35,0,0,0,.6-.7,11.32,11.32,0,0,0,1-1.3,14.7,14.7,0,0,1,1-1.3.64.64,0,0,0,0-.6.86.86,0,0,1,.6-.3,2,2,0,0,0,.7-.1.91.91,0,0,1-.3.5.76.76,0,0,0-.2.4.52.52,0,0,0-.2.4v.2a.9.9,0,0,1-.1.5c-.1.1-.2.3-.3.4l-.6.8-.5.5a2.18,2.18,0,0,0-.4.5l-.3.3a1,1,0,0,1-.5.8l-.6.6a2.65,2.65,0,0,1-.6.5c-.2.2-.5.4-.7.6l-.6.6c0,.1,0,.1-.1.2a4.35,4.35,0,0,0-.7.6c-.2.2-.5.4-.7.6s-.5.3-.7.5-.5.3-.7.6a4.19,4.19,0,0,1-1.6,1.1,10.93,10.93,0,0,0-1.5.8c-.2.1-.3.2-.2.4l.2.3c.1.2.2.3.3.5s.2.3.3.4c.2.4.5.7.8,1.2a3.1,3.1,0,0,1,.6,1.3,2.49,2.49,0,0,1,.1.8,2.35,2.35,0,0,0,.2.8c.2.6.4,1.2.6,1.7a4.84,4.84,0,0,1,.3,1.8,8.24,8.24,0,0,1-1.3,4l-.6.6a.91.91,0,0,1-.7.3c-.1,0-.2.1-.3.1s-.2.1-.4.1a1.35,1.35,0,0,1-.9,0,3,3,0,0,1-.8-.4l-.4-.4c-.1-.1-.2-.3-.3-.4s-.2-.3-.3-.4a2.19,2.19,0,0,1-.3-.5c-.2-.4-.5-.9-.7-1.3s-.4-.9-.6-1.3c-.1-.2-.1-.4-.2-.4a2.77,2.77,0,0,1-.3-1.3,2.54,2.54,0,0,0-.2-.7,8.33,8.33,0,0,1-.4-1.5l-.3-1.5v-.6a13.79,13.79,0,0,0-.2-2.2c-.1-.5-.1-1-.2-1.5s-.1-1-.2-1.5V267a8.75,8.75,0,0,1-.2-1.6v-.6a1.27,1.27,0,0,0-.1-.6v-.6a7.57,7.57,0,0,0,.1-1.5c0-.5-.1-1-.1-1.5s0-.7.1-.8l.3-1.8c.1-.5.1-.9.2-1.3s.1-.9.2-1.3c.2-1.6.6-3.2,1-5,0-.2.1-.4.1-.6s.1-.4.1-.6a4.8,4.8,0,0,1,.5-1.7,4.87,4.87,0,0,0,.4-1.1c.1-.4.2-.7.3-1.1a11.76,11.76,0,0,1,.7-2c.2-.7.5-1.3.7-2a33.83,33.83,0,0,1,1.8-4.4c.7-1.4,1.5-2.8,2.3-4.1a4.81,4.81,0,0,1,.9-1.1,11.41,11.41,0,0,0,1.1-1.1,4.19,4.19,0,0,1,1.6-1.1,5.85,5.85,0,0,1,1.9-.4c.5,0,1-.1,1.5-.1H188l1.5.3a3.92,3.92,0,0,1,1.4.8,4.18,4.18,0,0,1,1.4,2.4,9,9,0,0,1,.2,2.8c-.1.5-.2,1.1-.3,1.6s-.3,1-.4,1.5l-.2.5c-.1.4-.2.9-.3,1.4,0,.1,0,.1-.1.2s-.1.1-.1.2a12.13,12.13,0,0,1-.5,1.4c0,.1-.1.3-.1.4v.4a.76.76,0,0,1-.1.4,7.66,7.66,0,0,1-.7,1.7c-.1.2-.3.5-.4.7a5.9,5.9,0,0,1-.4.8,25.16,25.16,0,0,1-1.5,2.4,1.38,1.38,0,0,0-.3.4c-.1.1-.2.3-.3.4a1.61,1.61,0,0,0-.4.7,2.51,2.51,0,0,1-.4.7c-.1.1-.2.3-.3.4a1.38,1.38,0,0,0-.3.4c-.3.2-.5.5-.8.7l-.8.8-.6.6-.6.6-.3.3c0,.1-.1.2-.2.3-.4.3-.7.6-1,.8s-.7.5-1,.8a6.35,6.35,0,0,1-1.2.7c-.1.1-.2.1-.3.2s-.2.1-.3.2-.1.1-.2.1a3.55,3.55,0,0,0-.9.4l-.9.3a1,1,0,0,0-.8.6c0,.1,0,.1-.1.1l-.1.1a1.27,1.27,0,0,0-.1.6,5.46,5.46,0,0,1,.1,1.8,11,11,0,0,0-.2,1.8,17.85,17.85,0,0,1-.2,2.3c-.1.7-.1,1.5-.2,2.2,0,.1,0,.1-.1.2v.2a1.09,1.09,0,0,1,.1.5,4.33,4.33,0,0,1-.1.5c.2-.5.3-.4.3-.2Zm.3,1.5c0,.3-.1.6-.1.9a2.77,2.77,0,0,0,.1.9c.1.5.2.9.3,1.4s.2.9.3,1.4c.1.3.2.6.3,1s.2.6.3,1a.76.76,0,0,1,.1.4v.4a4.33,4.33,0,0,0,.1.5c0,.2.1.3.2.5a1.45,1.45,0,0,1,.2.7c0,.1.1.2.1.3s.1.2.1.3a1.61,1.61,0,0,0,.4.7c.2.2.4.3.6.5a.35.35,0,0,0,.2.1.53.53,0,0,0,.7-.4c.1-.3.1-.6.2-.8v-.8a.75.75,0,0,0-.1-.5c-.1-.5-.3-1.1-.4-1.6a9.83,9.83,0,0,0-.5-1.6.37.37,0,0,1-.1-.3.37.37,0,0,0-.1-.3c0-.1-.1-.3-.1-.4s-.1-.2-.2-.4-.1-.2-.2-.3-.1-.2-.2-.3-.1-.2-.2-.3-.1-.2-.2-.3a4.23,4.23,0,0,1-.5-.7,5.94,5.94,0,0,1-.4-.8,2.09,2.09,0,0,0-.4-.6,2.65,2.65,0,0,0-.5-.6Zm1.1-13.7a.37.37,0,0,0,.3-.1,5.85,5.85,0,0,0,1.7-1,43.44,43.44,0,0,0,5.8-4.8,3,3,0,0,0,.7-1.1,9.22,9.22,0,0,0,.5-.8,9.38,9.38,0,0,0,.9-1.2c.2-.4.5-.8.7-1.2.5-.8.9-1.6,1.3-2.4a26,26,0,0,0,1-2.5,17,17,0,0,0,1-3.7,9.78,9.78,0,0,0-.1-3.8,7.62,7.62,0,0,0-.6-2,4,4,0,0,0-1.2-1.6.91.91,0,0,0-.7-.3,2.92,2.92,0,0,1-.9-.2c-.4-.1-.7,0-1.1.5a6.31,6.31,0,0,0-.7,1,1,1,0,0,1-.4.5c-.1.2-.3.4-.4.6s-.1.3-.2.5a.52.52,0,0,1-.2.4,10.34,10.34,0,0,0-1.1,2.1c-.3.8-.6,1.5-.9,2.2s-.5,1.2-.7,1.7-.3,1.1-.5,1.7a4.42,4.42,0,0,1-.6,1.6c-.2.5-.5,1.1-.7,1.6a42.09,42.09,0,0,0-1.2,4.8,28.52,28.52,0,0,1-1.3,4.8,2.54,2.54,0,0,0-.2.7,1.2,1.2,0,0,1-.2.8.35.35,0,0,1-.1.2c0,.1-.1.2-.1.3v.3c.2.1.2.2.2.4Zm15.7-24c0-.1.1-.1,0,0,.1-.1,0-.1,0,0,0-.1,0-.1-.1-.1h-.1l.2.1Z" transform="translate(-98.57 -228.1)"/><path class="cls-2" d="M194.5,250a1.28,1.28,0,0,1-.4,1l-.3.3a1,1,0,0,1-.5.6c-.1.2-.2.3-.3.5s-.2.3-.3.4a4.88,4.88,0,0,0-.3.7,1.88,1.88,0,0,0-.2.8c-.1.6-.3,1.1-.4,1.7a10.93,10.93,0,0,1-.5,1.7,6.15,6.15,0,0,0-.3,1.1,4.51,4.51,0,0,1-.3,1.1,3.58,3.58,0,0,1-.4,1.1,2,2,0,0,0-.3,1.1.77.77,0,0,1-.1.3,3.55,3.55,0,0,0-.4.9,1.7,1.7,0,0,0,0,1c0,.4.1.8.1,1.1s.1.7.1,1.1a.62.62,0,0,0,.4.6l.3.3.3.3a.78.78,0,0,0,.8.2c.5-.2.9-.3,1.3-.5a3.75,3.75,0,0,0,1.2-.7c.2-.1.4-.3.6-.4a2.65,2.65,0,0,0,.6-.5c.1-.1.3-.2.3-.3l.3-.3a6.73,6.73,0,0,0,1.1-1.4l.1-.1a4.05,4.05,0,0,1,.5-.9c0-.1.1-.1.1-.2s0-.1.1-.2c-.2-.1-.3-.2-.5-.3a2.19,2.19,0,0,0-.5-.3,7.81,7.81,0,0,1-2.3-2.1c-.1-.2-.3-.4-.4-.6l-.3-.6a3.86,3.86,0,0,1-.6-2,5,5,0,0,1,.2-2.1,5.64,5.64,0,0,1,.4-1.2,9.74,9.74,0,0,0,.5-1.1l.1-.1a1,1,0,0,0,.5-.4.6.6,0,0,1,.6-.3,1.49,1.49,0,0,0,.6-.1,1.64,1.64,0,0,1,1,.1,4.05,4.05,0,0,1,.9.5,7.46,7.46,0,0,1,1.2.7,2.19,2.19,0,0,1,.9,1,6.89,6.89,0,0,1,.4,1,3.59,3.59,0,0,1,.2,1.1c0,.2.1.3.1.5a.6.6,0,0,0,.1.4,3.4,3.4,0,0,1,.1,1v1a1.45,1.45,0,0,1-.2.7,1.45,1.45,0,0,0-.2.7,1.09,1.09,0,0,0-.1.5,1.27,1.27,0,0,1-.1.6c.1,0,.1,0,.2.1s.1.1.2.1h.5a.75.75,0,0,0,.5-.1,7.74,7.74,0,0,0,3-1.1,12.84,12.84,0,0,0,2.6-2,1.38,1.38,0,0,0,.3-.4c.1-.1.1-.1.1-.2a.1.1,0,0,1,.1-.1q.45-.15.6,0a.92.92,0,0,1,.6.4,2.51,2.51,0,0,1-.5.8c-.3.3-.6.7-.9,1a7,7,0,0,1-1,.8c-.4.2-.6.4-.8.5a6.11,6.11,0,0,0-1.4.7,6.11,6.11,0,0,1-1.4.7,5.64,5.64,0,0,1-1.2.4,2.85,2.85,0,0,1-1.3,0,.64.64,0,0,0-.6,0,1.27,1.27,0,0,1-.6.1c-.2,0-.4.2-.5.6-.1.2-.3.5-.4.7a6.89,6.89,0,0,0-.3.8,3.59,3.59,0,0,1-.7,1,3,3,0,0,0-.8.8,1.79,1.79,0,0,0-.5.7l-.6.6a3,3,0,0,1-.7.5,1.79,1.79,0,0,1-.7.5,8.79,8.79,0,0,1-1,.6,1.39,1.39,0,0,1-1.1.2,2.66,2.66,0,0,1-1.2-.3,10.91,10.91,0,0,1-1.1-.6,13.66,13.66,0,0,1-2.1-1.5,7.42,7.42,0,0,1-1.6-2,5.64,5.64,0,0,1-.4-1.2c-.1-.4-.1-.8-.2-1.3a7.08,7.08,0,0,1-.1-1.4V260a13.78,13.78,0,0,1,.6-2.6c.2-.6.5-1.3.7-1.9s.5-1.2.8-1.8a2.29,2.29,0,0,1,.7-1c.2-.2.3-.4.5-.6s.3-.4.5-.6a2.09,2.09,0,0,1,.6-.4c.2-.1.4-.3.6-.4l.9-.6.9-.6a1.88,1.88,0,0,1,.8-.2,4.79,4.79,0,0,1,1.6.7Zm3.7,10.9c.1-.1.2-.3.3-.4a.75.75,0,0,0,.1-.5.37.37,0,0,1,.1-.3,2.32,2.32,0,0,0,.4-1,1.7,1.7,0,0,0,0-1c0-.4-.1-.8-.1-1.3a2.77,2.77,0,0,0-.3-1.3c-.1-.2-.3-.4-.4-.6s-.2-.5-.3-.7v-.1a.1.1,0,0,1-.1-.1l-.1-.1c-.1,0-.2.1-.3.2s-.1.2-.1.3-.1.2-.1.3a8.45,8.45,0,0,0-.5,1.7.37.37,0,0,1-.1.3,2.8,2.8,0,0,0-.2,2,5,5,0,0,0,1,1.9l.4.4a.27.27,0,0,0,.3.3Z" transform="translate(-98.57 -228.1)"/><path class="cls-2" d="M210.3,273c0-.3.1-.7.1-1a3.4,3.4,0,0,1,.1-1c.1-.4.1-.8.2-1.2a5,5,0,0,1,.2-1.2c0-.2.1-.3.1-.4v-.4c.1-.6.2-1.1.3-1.6s.3-1,.5-1.5a2.92,2.92,0,0,0,.2-.9c.1-.3.1-.5.2-.8,0-.1.1-.2.1-.3a1.49,1.49,0,0,0-.9-1.6c-.3-.2-.7-.3-1-.5a9.29,9.29,0,0,1-1-.5,8.65,8.65,0,0,1-1-.7,6.07,6.07,0,0,1-1-.7,8.64,8.64,0,0,1-1.4-1.3,5.56,5.56,0,0,1-.9-1.7c0-.2-.1-.3-.1-.5s0-.3-.1-.4a8.66,8.66,0,0,1,.2-3.2l.3-.9c.1-.3.3-.6.4-.9.1-.1.1-.2.2-.3s.1-.2.2-.3a1.63,1.63,0,0,1,.3-.6,2.19,2.19,0,0,1,.3-.5,2.18,2.18,0,0,0,.4-.5c.2-.2.3-.3.3-.4a3,3,0,0,1,.7-.5,4.1,4.1,0,0,1,1.8,0c.3,0,.5.1.8.1s.5.1.7.2.4.2.7.4c.1.1.1.2.2.3s.2.1.2.2a2.65,2.65,0,0,1,.5.6,2,2,0,0,1,.1.7,1.27,1.27,0,0,0,.1.6v.3c0,.1-.1.2-.1.3a1,1,0,0,1-.1.3v.3a4.08,4.08,0,0,1-.2.7c-.1.2-.2.3-.2.5s-.2.3-.2.5a2.19,2.19,0,0,1-.3.5,1,1,0,0,1-.4.5,5,5,0,0,1-1.5,1.7l-.4.4c-.1.1-.2.3-.1.4l.9,1.2a2.73,2.73,0,0,0,1.2.9,9.29,9.29,0,0,1,1,.5c.3.1.6.3.9.4a8.94,8.94,0,0,1,1.6.9,2.18,2.18,0,0,1,.5.4,1,1,0,0,1,.4.5,2.19,2.19,0,0,0,.3.5,1.09,1.09,0,0,1,.1.5.1.1,0,0,0-.1.1.35.35,0,0,1,.1.2,2,2,0,0,1,.1.8,2.2,2.2,0,0,1-.1.8v.1a.88.88,0,0,1-.1.7,1.45,1.45,0,0,0-.2.7,1.69,1.69,0,0,1-.2.5,1.69,1.69,0,0,0-.2.5c0,.2-.1.4-.1.6a1.42,1.42,0,0,1-.2.6,5,5,0,0,0-.2,1.2,5,5,0,0,0-.2,1.2,6.75,6.75,0,0,0-.2,1.4,6.6,6.6,0,0,1-.1,1.4V274c0,.2.1.5.1.7s.1.4.2.6c.1.4.1.7.2,1a1.61,1.61,0,0,0,.3.9,3.59,3.59,0,0,0,.7,1,.91.91,0,0,0,1.1.2,1.38,1.38,0,0,0,.4-.3c.1-.1.2-.3.4-.4s.1-.2.2-.4.3-.5.4-.7a3,3,0,0,1,.5-.7.37.37,0,0,1,.1-.3l.6-1.2.6-1.2c0-.1.1-.1.1-.2s0-.1.1-.2c.1-.4.3-.8.4-1.1a3.7,3.7,0,0,1,.5-1.1c.1-.3.2-.5.3-.8a6.89,6.89,0,0,0,.3-.8c.1-.2.1-.4.2-.6s.1-.4.2-.6c.1-.4.2-.8.3-1.1s.3-.7.4-1.1.1-.6.2-.9.1-.6.2-.9.1-.3.2-.5a.9.9,0,0,0,.1-.5c.1-.2.1-.3.2-.5s.1-.3.2-.5a12.13,12.13,0,0,0,.5-1.4,10.41,10.41,0,0,0,.5-1.2,4.73,4.73,0,0,1,.7-1.2c.1-.1.2-.1.4-.1a.52.52,0,0,1,.4.2l.1.1a.9.9,0,0,0-.1.5v.8a.37.37,0,0,1-.1.3c0,.1-.1.2-.1.3a2.2,2.2,0,0,1-.1.8c-.1.2-.1.5-.2.7a3,3,0,0,1-.4.8l-.6,1.5a8.8,8.8,0,0,0-.5,1.5,5.09,5.09,0,0,1-.4,1.1c-.2.6-.5,1.2-.7,2s-.6,1.5-.8,2.2-.5,1.3-.7,1.7a4.12,4.12,0,0,0-.3.8c-.1.3-.2.5-.3.8a1.27,1.27,0,0,1-.4.7,9.29,9.29,0,0,0-.5,1,4.67,4.67,0,0,1-.5,1c0,.1-.1.2-.1.3s-.1.2-.2.3-.1.1-.1.2-.1.1-.1.2a1.38,1.38,0,0,1-.3.4,1.38,1.38,0,0,0-.3.4c-.2.1-.3.3-.5.5a1.76,1.76,0,0,0-.4.5c-.1.1-.2.1-.3.2s-.1.1-.2.2a6.89,6.89,0,0,1-.8.3.86.86,0,0,1-.6.3c-.1,0-.1.1-.2.1a.31.31,0,0,0-.2.1c-.3.4-.7.4-1.2.3a2.35,2.35,0,0,1-.8-.2,1.27,1.27,0,0,1-.6-.1,1.42,1.42,0,0,0-.6-.2,4.47,4.47,0,0,1-2.2-3c-.1-.4-.1-.8-.2-1.2a3.59,3.59,0,0,0-.2-1.1c0-.3-.1-.5-.1-.8a9.51,9.51,0,0,1-.1-1.4Zm-1.1-18.2a2.65,2.65,0,0,0,.6-.5c.2-.2.3-.4.5-.6s.1-.3.2-.4l.3-.3c.1-.2.3-.4.3-.6l.3-.6a1.85,1.85,0,0,0,.2-.7c0-.4.1-.7.1-1.1s.1-.7.2-1.1a.6.6,0,0,0-.1-.4,2.17,2.17,0,0,0-1.1-1h-.2c-.1,0-.2,0-.2.1a.37.37,0,0,1-.1.3l-.2.2a1.08,1.08,0,0,0-.3.7.76.76,0,0,1-.2.4,3,3,0,0,0-.4,1,4.25,4.25,0,0,0-.2,1.1v1.5a1.27,1.27,0,0,1-.1.6,2,2,0,0,0,.1.7c.1.3.3.5.3.7Z" transform="translate(-98.57 -228.1)"/><path class="cls-2" d="M243.1,256.3l-.9,3.6c-.3,1.2-.6,2.4-.8,3.6s-.4,2.5-.5,3.8-.2,2.5-.2,3.8c0,.2-.1.5-.1.7v.7a.76.76,0,0,1-.1.4v.2c0,.1.1.2.2.3l.2-.2c.1-.1.1-.1.1-.2a.35.35,0,0,0,.1-.2,13,13,0,0,1,1-1.5l.9-1.5a21.16,21.16,0,0,0,1.1-2.1c.4-.7.7-1.4,1.1-2.1a8.16,8.16,0,0,1,1.1-1.7l.6-.9a4.67,4.67,0,0,0,.5-1,5.9,5.9,0,0,0,.4-.8,3.51,3.51,0,0,1,.5-.8,13950769914821.51,13950769914821.51,0,0,1,.6-1c.1-.2.2-.3.3-.5a2.19,2.19,0,0,0,.3-.5c.1-.2.2-.3.2-.5a.76.76,0,0,0,.2-.4.59.59,0,0,1,.7-.1c-.1.1-.1.2-.2.3s-.1.2-.2.3a1.69,1.69,0,0,0-.2.5.75.75,0,0,1-.1.5v.3a5,5,0,0,1-.4,1.3,2.93,2.93,0,0,0-.3,1,3.55,3.55,0,0,1-.4.9c-.1.3-.3.5-.4.8s-.3.5-.4.7c-.4.7-.8,1.4-1.2,2.2s-.7,1.5-1.1,2.2-.8,1.6-1.2,2.5a15.76,15.76,0,0,1-1.5,2.4,8.36,8.36,0,0,1-2.3,1.8,4,4,0,0,1-2.8.5,1.73,1.73,0,0,1-1.3-1.2,1.42,1.42,0,0,1-.2-.6,1.45,1.45,0,0,1-.2-.7,20.68,20.68,0,0,1-.3-3.5v-1.4a41.67,41.67,0,0,1,.8-5.9c.1-.4.1-.8.2-1.2s.1-.8.2-1.2.1-1,.2-1.5a7.72,7.72,0,0,0,.2-1.5c.1-.4.1-.8.2-1.2s.1-.8.2-1.2.1-1,.2-1.4a6.15,6.15,0,0,0,.1-1.4v-.3a1.61,1.61,0,0,0-.7.4c-.1,0-.1.1-.2.3s-.1.2-.2.3-.1.2-.2.3-.1.1-.1.2-.1.1-.1.2a2.71,2.71,0,0,0-1,1.1c-.2.5-.5.9-.7,1.3a17,17,0,0,1-1,1.4l-1.1,1.4a10,10,0,0,0-.8,1.4c-.2.5-.5,1-.7,1.5a5.39,5.39,0,0,1-.7,1.3,7.54,7.54,0,0,0-.6,1.3.1.1,0,0,1-.1.1.86.86,0,0,0-.3.6c-.1.2-.1.5-.2.7s-.1.3-.2.5-.1.3-.2.4-.1.3-.2.5a.45.45,0,0,0,0,.5.37.37,0,0,1-.1.3l-.3.6-.3.6c-.1.2-.3.2-.5.2a.66.66,0,0,0-.6.1l-.2.2a1.27,1.27,0,0,0-.6.1c-.2.1-.3.2-.5.2a2.35,2.35,0,0,1-.8.2,3.09,3.09,0,0,1-.8-.2c-.2,0-.3-.2-.5-.5,0-.1-.1-.2-.1-.3a.37.37,0,0,0-.1-.3c0-.3-.1-.5-.1-.8v-.8a.75.75,0,0,0-.1-.5v-.4a6.15,6.15,0,0,1-.1-1.3v-1.3a.75.75,0,0,0-.1-.5c0-.3-.1-.6-.1-.9v-2.3c0-.5-.1-.9-.1-1.3v-1.8a1.09,1.09,0,0,0-.1-.5v-.4c.1-.7.1-1.4.2-2.2s.1-1.5.2-2.2c0-.4.1-.9.1-1.3a5.85,5.85,0,0,1,.2-1.3c0-.2.1-.4.1-.6a1.42,1.42,0,0,1,.2-.6c0-.2.2-.4.5-.5a3.08,3.08,0,0,1,1.9.3c.1,0,.1,0,.1.1l.3.3c.1.1.2.1.3.2s.1.2.1.3.1.2.1.3l.1.1a1.23,1.23,0,0,1,.7,1.1v1a3.4,3.4,0,0,0,.1,1,6.89,6.89,0,0,0,.3.8,2.2,2.2,0,0,1,.1.8c0,.4-.1.8-.1,1.1s-.1.7-.1,1-.1.8-.2,1.2a2.44,2.44,0,0,0,0,1.2.9.9,0,0,0,.1.5.75.75,0,0,1,.1.5,1.27,1.27,0,0,1-.1.6v2.6a1.27,1.27,0,0,0,.1.6c.1,0,.2,0,.2-.1s0-.1.1-.2l.6-1.2.6-1.2c.1-.1.1-.3.2-.4s.1-.2.2-.4a2.39,2.39,0,0,0,.3-.7c.1-.2.1-.4.2-.6l.3-.6a6.13,6.13,0,0,1,.4-.6l1.7-3.2a5.58,5.58,0,0,1,.5-.8c.2-.3.3-.5.5-.8a5.55,5.55,0,0,1,.6-.8c.2-.3.4-.5.6-.8a7.69,7.69,0,0,1,1.2-1.3,3.42,3.42,0,0,1,2.8-.9h1.3a1.5,1.5,0,0,1,1.1.4l.5.5.5.5a1.55,1.55,0,0,1,.3.6v.4a1.69,1.69,0,0,0,.2.5,5.62,5.62,0,0,1,.3,2,13.42,13.42,0,0,1-.1,2.1c0,.2-.1.5-.1.7a1.13,1.13,0,0,1-.1.8Z" transform="translate(-98.57 -228.1)"/><path class="cls-2" d="M261.8,257.3a.86.86,0,0,1,.3.6.9.9,0,0,0-.1.5.37.37,0,0,1-.1.3,3,3,0,0,0-.4.8,6.89,6.89,0,0,0-.3.8,2.19,2.19,0,0,1-.3.5,1.38,1.38,0,0,0-.3.4c-.1.1-.1.3-.2.5a.31.31,0,0,0-.1.2c0,.1-.1.2-.1.3s-.1.3-.2.5-.1.3-.2.5-.1.2-.1.3a.37.37,0,0,0-.1.3c-.2.4-.3.8-.5,1.2a5.64,5.64,0,0,0-.4,1.2l-.1.1c-.1.2-.3.4-.4.6a2.09,2.09,0,0,1-.4.6,2,2,0,0,1-.8.8l-1,.7c-.2.2-.4.3-.6.5l-.6.3c-.1,0-.1,0-.2.1a1.7,1.7,0,0,1-.7.1c-.2,0-.4.1-.6.1-.4.1-.7.1-.8-.1a6.89,6.89,0,0,1-.8-.3c-.3-.1-.5-.2-.8-.3a3.59,3.59,0,0,1-1-.7,4.7,4.7,0,0,1-.6-.9,2.61,2.61,0,0,1-.3-1.1c-.1-.4-.1-.7-.2-1.1a4.87,4.87,0,0,1-.1-1.2v-3.8a33.14,33.14,0,0,1,.2-4.4,4.48,4.48,0,0,0,.1-1.1c0-.4.1-.7.1-1.1s.1-.7.1-1.1.1-.7.2-1.1l.3-.9c.1-.3.2-.6.3-1,0-.1.2-.2.4-.2s.4.1.6.1a1.42,1.42,0,0,1,.6.2,1,1,0,0,1,.5.4c.1.2.1.3.2.4s.1.2.2.4a4917165483586.8,4917165483586.8,0,0,0,.2.4c0,.2.1.5.1.7a1.7,1.7,0,0,0,.1.7,7.08,7.08,0,0,1,.1,1.4c0,.4-.1.9-.1,1.3a1.38,1.38,0,0,1-.1,1.1v.6c0,.3.1.5.1.7a1.7,1.7,0,0,1-.1.7,2.77,2.77,0,0,0-.1.9,3.75,3.75,0,0,1-.1,1v.7l-.1.1a1.39,1.39,0,0,1,0,.9,2.49,2.49,0,0,0-.1.8v.3a.9.9,0,0,1,.1.5v.5c0,.2-.1.3-.1.5v.5a7.57,7.57,0,0,1,.1,1.5,2.84,2.84,0,0,0,.4,1.2c0,.1.1.1.3.1a.75.75,0,0,0,.5-.1l.6-.3c.2-.1.3-.3.5-.4l.3-.3a1.38,1.38,0,0,0,.3-.4l1.2-1.5c.4-.5.7-1,1.1-1.6a1.61,1.61,0,0,1,.4-.7c.1-.2.3-.5.4-.7s.3-.5.5-.7a5.94,5.94,0,0,0,.4-.8c.2-.4.3-.7.5-1.1a11.73,11.73,0,0,0,.5-1.1c0-.1.1-.3.2-.3s.1-.2.2-.4.4-.5,1-.6Zm-12.3-12.9c.1,0,.2-.1.3-.1s.2-.1.3-.1.2-.1.2,0h.8a1.28,1.28,0,0,1,1.4.6c-.1.3-.1.6-.2,1s-.1.6-.2,1l-.5.5a.1.1,0,0,0-.1.1h-.6a.86.86,0,0,1-.6-.3c-.3-.3-.5-.5-.5-.7a1.67,1.67,0,0,1-.4-1.1v-.4A1.09,1.09,0,0,0,249.5,244.4Z" transform="translate(-98.57 -228.1)"/><path class="cls-2" d="M267.6,263.2l-.2.2-.2.2c-.3.3-.7.5-1,.8a2.84,2.84,0,0,1-1.3.4,2.92,2.92,0,0,0-.9.2,2.92,2.92,0,0,1-.9.2,4.68,4.68,0,0,1-1.7-.2,2.87,2.87,0,0,1-1.4-1.1,3.34,3.34,0,0,1-.5-1.2,7,7,0,0,1-.1-3.5,2.2,2.2,0,0,0,.1-.8c0-.2.1-.5.1-.8l.5-1.6c.1-.3.2-.6.3-1s.2-.6.3-1a8.79,8.79,0,0,1,1.9-3.4,3.92,3.92,0,0,0,.8-1,2.7,2.7,0,0,1,.8-.7,3.55,3.55,0,0,1,.9-.4l1.3-.5a5.16,5.16,0,0,1,1.1-.2c.4,0,.7-.1,1.1-.1a.75.75,0,0,0,.5-.1,1.41,1.41,0,0,1,.9-.1c.3,0,.6.1.9.1a1.08,1.08,0,0,1,.7.3,3.39,3.39,0,0,1,.6.6c.1.2.2.3.3.5s.2.3.3.5a1.19,1.19,0,0,1-.2,1.5.76.76,0,0,1-.5.2q-.15,0-.3-.3a2.22,2.22,0,0,0-.5-1.1,6.47,6.47,0,0,0-.8-.9l-.2-.2a3.67,3.67,0,0,0-1.8-.1,5.78,5.78,0,0,0-1.4.5,2.59,2.59,0,0,0-1.1,1,20,20,0,0,0-1,2.1,14.27,14.27,0,0,1-.8,2.2c-.1.4-.3.7-.4,1.1a4.87,4.87,0,0,1-.4,1.1,23.35,23.35,0,0,0-.7,2.5,5.3,5.3,0,0,0,.1,2.5,2.12,2.12,0,0,0,2.5,1.4,4.25,4.25,0,0,0,1.7-1.6c.5-.8.9-1.4,1.2-2,.1-.2.1-.4.2-.6a1.42,1.42,0,0,1,.2-.6,6.37,6.37,0,0,0,.2-.7,1.42,1.42,0,0,1,.2-.6c.1-.3.2-.6.3-1s.2-.6.3-1,.2-.7.3-1,.2-.7.3-1q.3-.9.9-.9a.9.9,0,0,1,.5-.1.9.9,0,0,0,.5-.1c.4,0,.7.1.8.5l.2.3a1.13,1.13,0,0,1-.1.8,1.1,1.1,0,0,0,0,.8v.8a13.66,13.66,0,0,1-.2,1.9,16.25,16.25,0,0,0-.4,1.9,11.14,11.14,0,0,0-.2,1.7,11.14,11.14,0,0,1-.2,1.7c-.1.2-.1.4-.2.6s-.1.4-.1.6c-.1.4-.1.8-.2,1.2a5,5,0,0,1-.2,1.2c0,.2-.1.3-.1.5v.5a1.76,1.76,0,0,1-.1.6v.9a.91.91,0,0,0,.3.7c.2.2.4.2.8,0a11,11,0,0,0,1-.8l.9-.9c.3-.4.6-.9,1-1.5a8.94,8.94,0,0,0,.9-1.6c.4-.9.9-1.9,1.5-3.1a32.61,32.61,0,0,1,1.5-3.2.6.6,0,0,0,.1-.4c0-.2.1-.2.3-.2s.2-.1.3-.1a.76.76,0,0,0,.4-.1c.2,0,.4.1.3.3s-.1.3-.1.5-.1.3-.1.5a5.9,5.9,0,0,1-.4.8,6.12,6.12,0,0,0-.5,1.2c-.2.4-.3.8-.5,1.2a2,2,0,0,0-.3.8c-.4.8-.7,1.7-1.2,2.6a13.5,13.5,0,0,1-1.5,2.6,13.65,13.65,0,0,1-1.9,2.3,6.08,6.08,0,0,1-2.4,1.5,4,4,0,0,1-1.6.1,3.39,3.39,0,0,1-1.5-.6,1,1,0,0,1-.5-.6,3.23,3.23,0,0,1-.6-1.8,11.48,11.48,0,0,1-.1-1.9c0-.5.1-1,.1-1.5a7.72,7.72,0,0,1,.2-1.5v-.4Z" transform="translate(-98.57 -228.1)"/></svg>