<?xml version="1.0" encoding="utf-8"?>
<!-- Generator: Adobe Illustrator 21.1.0, SVG Export Plug-In . SVG Version: 6.00 Build 0)  -->
<svg version="1.1" id="Layer_1" xmlns="http://www.w3.org/2000/svg" xmlns:xlink="http://www.w3.org/1999/xlink" x="0px" y="0px"
	 viewBox="0 0 226.7 229.6" style="enable-background:new 0 0 226.7 229.6;" xml:space="preserve">
<style type="text/css">
	.st0{opacity:0.3;}
	.st1{fill:#224194;}
</style>
<g>
	<g class="st0">
		<path class="st1" d="M112,19.6c0,1,0.5,1,0.5,1.9c0,1,0.1,1,0.1,1.9c0,1,0,1,0,1.9c0,1-0.6,1-0.6,1.9c0,1-0.1,1,0.1,2
			c0.6,0,1-0.2,1.1-0.6c0.2,0,0.4-0.3,0.6-0.3c0.2,0,0.7,0.3,0.9,0.3c0.1-0.9-0.4-1-0.4-1.9c0-0.9,0-0.9,0-1.9
			c0-0.9,0.3-0.9,0.3-1.9c0-0.9-0.2-0.9-0.2-1.9c0-0.9,0-0.9,0-1.9c0-0.9-0.1-0.9-0.1-1.9c0-0.9,0-0.9-0.1-1.8c-0.2,0-0.1,0-0.3,0
			c-0.3-0.6,0.3-0.9,0.8-1c0.2-1-0.1-1.1-0.1-2.1s-0.6-1-0.6-2c0-1,0.4-1,0.4-2c0-1,0.2-1,0.2-2c0-1-0.1-1-0.1-2c0-1-0.1-1-0.1-2
			s0.2-1,0.2-2c0-0.6-0.7-0.7-1.3-0.7c-0.6,0-0.7,0.1-0.7,0.7c0,0.2-0.2,0.2-0.1,0.4c0.1,0-0.1,0.1,0.1,0.1c0.5,0.6,0.8,1.2,0.7,2.4
			c-0.3,0.2-0.9,0.4-1.2,0.5c-0.2,0.9,0.4,1,0.4,2s-0.3,1-0.3,1.9c0,1,0.4,1,0.4,1.9c0,1-0.4,1-0.4,1.9c0,1,0.1,1,0.1,1.9
			c0,1,0,1,0,1.9c0,1-0.3,1-0.3,1.9C112.1,18.6,112,18.6,112,19.6z"/>
		<path class="st1" d="M114.7,38.1c0-1-0.3-1-0.3-2c0-1-0.3-1-0.3-2c0-1,0.6-1,0.6-2c0-1-0.2-1-0.4-2c-0.4,0.2-0.6,0.4-0.4,1.1
			c-0.7-0.2-0.9-0.8-1.6-1c-0.3,0.9-0.3,0.9-0.3,1.9c0,0.9,0.1,0.9,0.1,1.9c0,0.9-0.1,0.9-0.1,1.9c0,0.9,0.1,0.9,0.1,1.9
			c0,0.9,0.1,0.9,0.1,1.9c0.1,0.1,0,0.2,0.2,0.2c-0.1,0.3,0.1,0.3,0,0.5c-0.1,1-0.1,1-0.1,2c0,1-0.2,1-0.2,2c0,1,0.5,1,0.5,2
			c0,1,0,1,0,2c0,1-0.4,1-0.4,2c0,1,0.2,1,0.2,2c0,0.6,0.3,1.3,0.9,1.3c0.6,0,1.1-0.8,1.1-1.3c0-1-0.4-1-0.4-2c0-1,0.2-1,0.2-2
			c0-1,0.3-1,0.3-2c0-1,0.2-1,0.2-2c0-1-0.3-1-0.3-2c0-1,0.3-1,0.3-2C114.8,39.1,114.7,39.1,114.7,38.1z"/>
		<path class="st1" d="M114.4,196.2c0-1,0.3-1,0.3-1.9c0-1-0.1-1-0.1-1.9c0-1,0.1-1,0.1-1.9c0-1-0.1-1-0.1-1.9c0-1-0.1-1-0.1-1.9
			c0-1,0.3-1,0.3-1.9c0-1-0.4-1-0.4-1.9c0-1,0.1-1,0.1-1.9c0-1,0.2-1,0.2-1.9s-0.5-1-0.5-1.9c0-0.6-0.1-1.3-0.7-1.3
			c-0.6,0-0.7,0.7-0.7,1.3c0,1-0.7,1-0.7,1.9c0,1,0.2,1,0.2,1.9c0,1-0.1,1-0.1,1.9c0,1,0.4,1,0.4,1.9c0,1,0,1,0,1.9
			c0,1-0.1,1-0.1,1.9c0,1,0.3,1,0.3,1.9c0,1-0.4,1-0.4,1.9c0,1,0.6,1,0.6,1.9c0,1-0.6,1-0.6,1.9c0,1,0.2,1,0.2,1.9
			c0,1,0.3,1,0.3,1.9c0,1-0.6,1-0.6,1.9c0,1,0.3,1,0.3,1.9c0,1,0.1,1,0.1,1.9c0,1,0,1,0,1.9s0.3,1,0.3,1.9c0,1-0.5,1-0.5,1.9
			c0,1,0.2,1,0.2,1.9c0,1-0.3,1-0.3,1.9s0.6,1,0.6,1.9c0,1-0.6,1-0.6,1.9c0,1,0.3,1,0.3,1.9c0,1,0,1,0,1.9c0,1-0.4,1-0.4,1.9
			c0,1,0.7,1,0.7,1.9c0,1-0.4,1-0.4,1.9c0,0.6,0.5,1.1,1.1,1.1c0.6,0,0.9-0.5,0.9-1.1c0-1,0.3-1,0.3-1.9c0-1-0.3-1-0.3-1.9
			c0-1,0.2-1,0.2-1.9c0-1,0.3-1,0.3-1.9c0-1-0.4-1-0.4-1.9c0-1,0-1,0-1.9c0-1,0-1,0-1.9c0-1-0.3-1-0.3-1.9c0-1,0.4-1,0.4-1.9
			c0-1-0.2-1-0.2-1.9c0-1,0.1-1,0.1-1.9c0-1-0.1-1-0.1-1.9c0-1-0.2-1-0.2-1.9c0-1,0.5-1,0.5-1.9c0-1-0.3-1-0.3-1.9
			c0-1,0.1-1,0.1-1.9S114.4,197.1,114.4,196.2z"/>
		<path class="st1" d="M96.8,25.5c0.2,1,0,1.1,0.3,2c0.4,0.2,0.7,0.3,0.9-0.3c1.5,0.6,0.2,0.8-0.6,1.3c-0.2,0.9-0.4,0.9-0.2,1.9
			c0.2,0.9,0,1.1,0.4,1.9c0.4-0.4,1-1.2,1.4-1.5c0.7,0,0.4,0.8,0.4,1.4c-0.1,0.5,0.2,1.2,0.4,1.5c-0.5,0-1.1,0-1.6,0
			c-0.2,0.4,0,0.4,0.2,0.8c0.5,0.2,1.2,0.2,0.8,1.1c0.6,0,0.9-0.2,1.4-0.4c0-1,0.1-1.1-0.1-2.1c-0.2-1-0.7-0.9-0.8-1.9
			c-0.2-1,0-1-0.2-2.1c-0.2-1,0.2-1.1,0-2.1c-0.2-1-0.8-0.9-0.9-1.9c-0.2-1,0-1-0.2-2.1c-0.1-0.6-0.6-1.2-1.2-1.1
			c-0.6,0.1-0.8,0.8-0.7,1.4C96.6,24.5,96.6,24.5,96.8,25.5z"/>
		<path class="st1" d="M98.7,39.4c0.2,1,0.9,0.8,1.1,1.8c0.2,1-0.1,1,0.1,2c0.2,1,0.2,1,0.4,1.9c0.2,1-0.3,1-0.1,2
			c0.2,1,0.2,1,0.3,1.9c0.2,1,0.5,0.9,0.7,1.9c0.2,1,0,1,0.1,2c0.2,1,0.6,0.9,0.7,1.9c0.2,1-0.1,1,0,2c0.2,1-0.1,1,0.1,2
			c0.2,1,0.3,1,0.5,1.9c0.1-0.1,0.5-0.5,0.6-0.6c1.1,0.7,0.6,1.5,0.1,1.6c-0.1,0.8,0.1,0.7,0.3,1.4c0.1,0.8,0,0.8,0.1,1.5
			c0.1,0.5,0.4,0.6,0.9,0.6c0.1,0,0.2,0.6,0.2,0.6c0.6-0.1,1-1,0.9-1.5c-0.2-1-0.2-1-0.4-2c-0.2-1-0.3-1-0.4-1.9
			c-0.2-1-0.4-0.9-0.6-1.9c-0.2-1,0-1-0.2-2c-0.2-1-0.3-1-0.5-1.9c-0.2-1-0.2-1-0.4-2c-0.2-1,0.5-1.1,0.3-2.1s-0.6-0.9-0.8-1.9
			c-0.2-1-0.2-1-0.3-2c-0.2-1-0.3-1-0.4-1.9c-0.2-1-0.1-1-0.2-2c-0.2-1-0.2-1-0.3-2c-0.2-1,0.1-1-0.1-2c-0.2-1-0.3-0.9-0.8-1.8
			c-0.5,0.3-1,0.4-1.8,0.4C98.6,38.4,98.6,38.4,98.7,39.4z"/>
		<path class="st1" d="M130,203.9c-0.2-0.9,0.4-1,0.2-2c-0.2-0.9-0.1-0.9-0.3-1.9c-0.2-0.9-0.7-0.8-0.9-1.8c-0.2-0.9,0.4-1,0.2-2
			c-0.2-0.9-0.3-0.9-0.5-1.8c-0.2-0.9-0.3-0.9-0.4-1.9c-0.2-0.9,0.1-1,0-1.9c-0.2-0.9-0.7-0.8-0.8-1.8c-0.2-0.9,0.4-1,0.3-2
			c-0.2-0.9-0.7-0.8-0.9-1.8c-0.2-0.9-0.1-1-0.3-1.9c-0.2-0.9,0.2-1,0.1-1.9c-0.2-0.9-0.5-0.9-0.7-1.8c-0.2-0.9,0.3-1,0.1-2
			c-0.2-0.9-0.9-0.8-1.1-1.7c-0.2-0.9,0.1-1-0.1-1.9c-0.2-0.9-0.2-0.9-0.4-1.9c-0.2-0.9,0.3-1,0.1-2c-0.2-0.9-0.1-0.9-0.3-1.9
			c-0.2-0.9-0.5-0.9-0.7-1.8c-0.2-0.9,0-1-0.1-1.9c-0.1-0.6-0.8-0.7-1.3-0.6c-0.6,0.1-1.1,0.4-1,1c0.2,0.9,0.1,1,0.2,1.9
			c0.2,0.9,0,1,0.2,1.9c0.2,0.9,0.4,0.9,0.6,1.8c0.2,0.9,0.5,0.9,0.7,1.8c0.2,0.9-0.3,1-0.1,1.9c0.2,0.9,0.1,0.9,0.3,1.9
			c0.2,0.9,0.2,0.9,0.4,1.9c0.2,0.9,0.3,0.9,0.5,1.8c0.2,0.9,0.1,0.9,0.3,1.9c0.2,0.9,0,1,0.1,1.9c0.2,0.9,0.4,0.9,0.6,1.8
			c0.2,0.9,0.4,0.9,0.5,1.8c0.2,0.9-0.1,1,0.1,1.9c0.2,0.9,0.4,0.9,0.5,1.8c0.2,0.9,0,1,0.1,1.9c0.2,0.9,0.2,0.9,0.3,1.9
			c0.2,0.9,0,1,0.2,1.9c0.2,0.9-0.1,1,0.1,1.9c0.2,0.9,0.6,0.9,0.8,1.8c0.2,0.9,0,1,0.1,1.9c0.2,0.9,0,1,0.2,1.9
			c0.2,0.9,0.2,0.9,0.3,1.9c0.1,0.5,0.8,0.7,1.3,0.7c0.1,0,0.2,0.4,0.2,0.4c0.6-0.1,0.8-0.9,0.7-1.4
			C130.3,204.8,130.1,204.9,130,203.9z"/>
		<path class="st1" d="M74,9.7c0.3,0.9,0.2,0.9,0.5,1.8c0.3,0.9,0.8,0.7,1.2,1.6c0.3,0.9,0.4,0.9,0.7,1.8c0.3,0.9,0.2,0.9,0.6,1.8
			c0.3,0.9,0,1,0.3,1.9c0.3,0.9,0.7,0.8,1,1.6c0.3,0.9,0,1,0.3,1.9c0.3,0.9,0.7,0.7,1.1,1.6c0.3,0.9,0.3,0.9,0.6,1.8
			c0.3,0.9,0.4,0.8,0.8,1.7c0.3,0.9-0.1,1,0.4,1.8c0.6,0.3,0.7,0.8,0.8,1.3c0.1,0.5,0.1,1-0.1,1.6c0.2,1,0.5,0.9,0.8,1.9
			c0.3,0.9,0.2,1,0.6,1.9c0.3,0.9,0.2,1,0.6,1.9c0.3,0.9,0.6,0.8,0.9,1.8c0.3,0.9,0.7,0.8,1,1.7c0.3,0.9-0.1,1.1,0.3,2
			c0.3,0.9,0.3,0.9,0.6,1.9c0.3,0.9,0.4,0.9,0.8,1.8c0.3,0.9,0.5,0.9,0.8,1.8c0.3,0.9,0.3,1,0.6,1.9c0.3,0.9,0.1,1,0.5,1.9
			c0.3,0.9,0.6,0.8,0.9,1.8c0.3,0.9,0.5,0.9,0.9,1.8c0.2,0.4,0.2,1.1,0.7,1.1c0.1,0,0.1-0.7,0.2-0.7c0.5-0.2,0.7-0.4,0.5-0.9
			c-0.3-0.9-0.2-1-0.6-1.9c-0.3-0.9,0.2-1.1-0.2-2.1c-0.3-0.9-0.9-0.7-1.3-1.7c-0.3-0.9-0.3-1-0.6-1.9c-0.3-0.9,0.1-1.1-0.3-2
			c-0.3-0.9-0.6-0.9-0.9-1.8c-0.3-0.9-0.3-1-0.6-1.9c-0.3-0.9-0.5-0.9-0.9-1.8c-0.3-0.9-0.5-0.9-0.8-1.8c-0.3-0.9-0.2-1-0.5-2
			c-0.3-0.9-0.2-1-0.7-1.9c-0.4,0-0.7,0-1.1,0.3c-1-0.5,0-0.7,0.8-1.1c0.1-0.9-0.1-1-0.5-1.8c-0.3-0.9-0.7-0.7-1.1-1.6
			c-0.3-0.9-0.1-1-0.4-1.9c-0.3-0.9-0.5-0.8-0.8-1.7c-0.3-0.9,0-1-0.3-1.9c-0.3-0.9-0.3-0.9-0.6-1.8c-0.3-0.9-0.7-0.7-1-1.6
			c-0.3-0.9-0.3-0.9-0.6-1.8c-0.3-0.9,0.2-1.1-0.1-2c-0.3-0.9-0.6-0.8-0.9-1.7c-0.3-0.9-0.3-0.9-0.6-1.8c-0.3-0.9-0.1-1-0.4-1.9
			c-0.3-0.9-0.4-0.9-0.8-1.7c-0.3-0.9-0.4-0.9-0.7-1.8c-0.3-0.9-0.1-1-0.4-1.9c-0.2-0.5-1.2-1-1.8-0.8c-0.5,0.2-0.4,0.9-0.2,1.5
			C74.1,8.7,73.6,8.9,74,9.7z"/>
		<path class="st1" d="M141.9,188.9c-0.1-0.9-0.6-0.9-0.9-1.8c-0.3-0.9-0.6-0.8-0.9-1.7c-0.3-0.9,0-1-0.4-1.9
			c-0.3-0.9-0.3-0.9-0.6-1.8c-0.3-0.9-0.2-0.9-0.5-1.8c-0.3-0.9-0.4-0.8-0.8-1.7c-0.3-0.9-0.6-0.8-0.9-1.7c-0.3-0.9,0.3-1.2-0.2-2
			c-0.3,0.1-0.9,0.6-1.1,0.9c-0.8-0.4-0.7-1.6-1-2.4c0.3-0.1,0.5-0.3,0.8-0.5c-0.3-0.2-0.5,0.1-0.8,0.2c-0.5,0.2-0.9,0.4-0.7,1
			c0.3,0.9,0.3,0.9,0.7,1.9c0.3,0.9,0.5,0.9,0.8,1.8c0.3,0.9,0.1,1,0.4,2c0.3,0.9,0.6,0.8,1,1.8c0.3,0.9,0.4,0.9,0.8,1.8
			c0.3,0.9-0.3,1.2,0,2.1c0.3,0.9,0.3,0.9,0.7,1.9c0.3,0.9,1,0.7,1.3,1.6c0.3,0.7,0.3,0.9,0.5,1.4c0,0,0,0,0-0.1
			C140.7,189.7,141.4,189.2,141.9,188.9z"/>
		<path class="st1" d="M139.8,190.3c0,0,0.4,0,0.4,0c-0.1-0.2-0.1-0.3-0.2-0.5C140,190.1,139.8,190.1,139.8,190.3z"/>
		<path class="st1" d="M151.5,215.4c-0.2-1.2-0.7-1-1.1-2.1c-0.4-1.1,0.1-1.4-0.6-2.3c-0.5,0.7-1.4,1.2-2.1,1.4
			c0.1,1.4,0.5,1.4,1,2.6c0.1,0,0.3-0.1,0.4-0.1c0,0.8,0.2,1.3,0.6,1.7C150.6,216.6,151.1,216,151.5,215.4z"/>
		<path class="st1" d="M153,221.4c0-0.4,0-0.7,0-1.2c0.1,0,0.1-0.1,0.1-0.1c-0.2-0.7-0.4-0.7-0.7-1.4c-0.3-0.7-0.1-0.8-0.6-1.4
			c-0.4,0.4-0.8,0.8-0.9,1.5c-0.1,0.5,0.5,1.1,0.7,1.8c-0.1,0-0.7,0.1-0.8,0.1c0.2,0.7,0.2,0.7,0.5,1.4c0.2,0.4,0.8,0.8,1.2,0.8
			c0.1,0,0.2-0.4,0.3-0.5c0.5-0.2,0.6-0.4,0.6-0.8C153,221.6,153.2,221.4,153,221.4z"/>
		<path class="st1" d="M149.1,209.1c-0.3-0.8-0.4-0.8-0.7-1.7c-0.3-0.8-0.5-0.8-0.8-1.6c-0.3-0.8-0.4-0.8-0.8-1.6
			c-0.3-0.8,0.1-1-0.2-1.9c-0.3-0.8-0.9-0.7-1.1-1.5c-0.2-0.9,0.2-1-0.2-1.8c0,0-0.5,0.2-0.5,0.2c0,0,0,0,0,0
			c-0.3-0.7,0.2-0.9-0.1-1.6c-0.3-0.7,0-0.9-0.5-1.5c-0.4,0.2-1.1,0.2-1.6,0.3c0-0.5-0.4-0.9-0.4-1.4c0.4,0,0.9,0.3,1.3,0.3
			c0,0-0.2-0.1-0.1-0.1c-0.1-0.4,0.4-0.7,0.1-1.1c-0.5-0.1-1.3,0.3-1.7,0.1c-0.5-0.2-0.9-0.7-1.3-1c0.2,1,0.5,0.9,0.8,1.9
			c0.3,0.9,0.3,0.9,0.7,1.9c0.3,0.9,0.2,1,0.6,1.9c0.3,0.9,0.6,0.8,1,1.8c0.3,0.9,0,1.1,0.3,2c0.3,0.9,0.9,0.8,1.2,1.7
			c0.3,0.9,0.1,1,0.4,2c0.3,0.9,0.6,0.8,1,1.8c0.3,0.9,0,1,0.6,1.8c0.9,0.2,1.2,0.6,2,1C149.4,209.9,149.4,209.9,149.1,209.1z"/>
		<path class="st1" d="M66.9,36.6c0.5,0.8,0.8,0.6,1.3,1.5c0.5,0.8,0.4,0.9,0.9,1.7c0.5,0.8,0.2,1,0.7,1.8c0.5,0.8,0.5,0.8,0.9,1.7
			c0.5,0.8,1,0.5,1.5,1.4c0.5,0.8,0.2,1,0.7,1.8c0.5,0.8,0.3,0.9,0.8,1.7c0.5,0.8,0.6,0.7,1.1,1.6c0.5,0.8,0.2,1,0.7,1.8
			c0.5,0.8,0.5,0.8,0.9,1.7c0.5,0.8,0.9,0.6,1.4,1.4c0.5,0.8,0,1.1,0.5,1.9c0.5,0.8,0.9,0.6,1.4,1.4c0.5,0.8,0.5,0.8,1,1.6
			c0.5,0.8,0.1,1,0.6,1.9c0.5,0.8,0.4,0.9,0.9,1.7c0.5,0.8,0.5,0.8,1,1.6c0.5,0.8,0.9,0.6,1.4,1.4c0.5,0.8,0.1,1,0.6,1.9
			c0.5,0.8,0.8,0.6,1.3,1.5c0.5,0.8,0.1,1.1,0.6,1.9c0.2,0.3,0.8,0.3,1.1,0.3c0.2,0,0.3-0.1,0.4-0.2c0.5-0.3,0.7-0.8,0.4-1.3
			c-0.5-0.8-0.6-0.7-1.1-1.6c-0.5-0.8-0.6-0.8-1.1-1.6c-0.5-0.8-0.1-1-0.6-1.8c-0.5-0.8-0.7-0.7-1.2-1.5c-0.5-0.8-0.2-1-0.6-1.8
			c-0.5-0.8-0.4-0.8-0.9-1.7c-0.5-0.8-0.7-0.7-1.1-1.5c-0.5-0.8-0.3-0.9-0.7-1.8c-0.5-0.8-0.6-0.8-1-1.6c-0.5-0.8-0.8-0.6-1.3-1.5
			c-0.5-0.8-0.2-1-0.6-1.8c-0.5-0.8-0.8-0.6-1.3-1.4c-0.5-0.8,0.1-1.2-0.4-2c-0.5-0.8-0.6-0.8-1.1-1.6c-0.5-0.8-0.8-0.7-1.2-1.5
			c-0.5-0.8-0.1-1-0.6-1.9c-0.5-0.8-0.9-0.6-1.4-1.4c-0.5-0.8-0.3-0.9-0.8-1.8c-0.5-0.8-0.8-0.7-1.3-1.5c-0.5-0.8-0.1-1.1-0.6-1.9
			c-0.5-0.8-0.3-0.9-0.8-1.7c-0.5-0.8-0.7-0.7-1.2-1.5c-0.3-0.5-0.9-0.7-1.4-0.5C66,33.6,65.7,34.5,66,35
			C66.4,35.8,66.4,35.8,66.9,36.6z"/>
		<path class="st1" d="M159.6,192.8c-0.5-0.8-0.7-0.7-1.1-1.5c-0.5-0.8,0-1.1-0.5-1.9c-0.5-0.8-0.8-0.6-1.3-1.4
			c-0.5-0.8-0.1-1-0.5-1.9c-0.5-0.8-0.5-0.8-0.9-1.6c-0.5-0.8-1-0.5-1.4-1.3c-0.5-0.8-0.1-1-0.6-1.8c-0.5-0.8-0.6-0.7-1.1-1.6
			s-0.5-0.7-1.1-1.4c-0.6,0.1-0.9-0.1-1.2,0c0-0.7,0.2-1.2,0.2-1.9c0.2,0-0.1,0,0.1,0c-0.4-0.9-0.6-0.7-1.1-1.6
			c-0.5-0.8-0.1-1-0.6-1.9c-0.5-0.8-0.6-0.8-1.1-1.6c-0.5-0.8-0.7-0.7-1.2-1.5c-0.5-0.8-0.3-1-0.7-1.8c-0.5-0.8-0.4-0.9-0.9-1.7
			c-0.5-0.8-0.3-0.9-0.8-1.8c-0.5-0.8-0.6-0.7-1.1-1.6c-0.5-0.8-0.6-0.8-1.1-1.6c-0.2-0.3-0.3-0.5-0.4-0.6c-0.2,0-0.4,0.1-0.6,0.1
			c0.1,0,0.1,0.1,0.1,0.2c-0.4,0-0.7-0.1-0.9-0.2c-0.3,0-0.6,0-0.9-0.1c0.4,0.7,0.6,0.7,1.1,1.5c0.5,0.8,0.2,1,0.7,1.8
			c0.5,0.8,0.5,0.8,1,1.7c0.5,0.8,0.5,0.8,1,1.6c0.5,0.8,0.3,1,0.8,1.8c0.2,0,0.8-0.3,1-0.3c0,0.3-0.1,0.6-0.1,0.9
			c0.4,0.9,0.1,1.1,0.6,1.9c0.5,0.8,0.5,0.8,1,1.7c0.5,0.8,0.4,0.9,0.9,1.7c0.5,0.8,0.9,0.6,1.4,1.4c0.5,0.8,0,1.1,0.5,2
			c0.5,0.8,0.8,0.7,1.2,1.5c0.5,0.8,0.8,0.6,1.3,1.5c0.5,0.8,0.3,0.9,0.8,1.8c0.5,0.8,0.4,0.9,0.9,1.8c0.5,0.8,0.6,0.8,1,1.7
			c0.5,0.8,0.4,0.9,0.9,1.7c0.5,0.8,0.6,0.8,1.1,1.6c0.5,0.8,0.6,0.8,1.1,1.6c0.5,0.8,0.1,1,0.6,1.9c0.5,0.8,0.7,0.7,1.2,1.5
			c0.1,0.1,0,0.4,0.1,0.5c0.5-0.3,1.1-0.5,1.7-0.6c0-0.2,0-0.7-0.1-0.9C160.3,193.5,160.1,193.6,159.6,192.8z"/>
		<path class="st1" d="M40.5,29.6c0.6,0.7,1,0.4,1.6,1.1c0.6,0.7,0.4,0.9,1,1.6c0.6,0.7,0.5,0.9,1.1,1.6c0.6,0.7,0.7,0.7,1.3,1.4
			c0.6,0.7,0.9,0.5,1.5,1.2c0.6,0.7,0.5,0.8,1.1,1.5c0.6,0.7,0.5,0.8,1.1,1.6c0.6,0.7,0.4,0.9,1.1,1.6c0.6,0.7,0.9,0.5,1.5,1.2
			c0.6,0.7,0.4,0.9,1,1.6c0.6,0.7,0.7,0.7,1.3,1.4c0.6,0.7,0.4,0.9,1.1,1.6c0.6,0.7,0.8,0.6,1.4,1.3c0.6,0.7,0.3,1,0.9,1.7
			c0.6,0.7,0.8,0.6,1.4,1.3c0.6,0.7,0.7,0.6,1.4,1.3c0.6,0.7,0.8,0.6,1.4,1.3c0.6,0.7,0.2,1.1,0.8,1.8c0.6,0.7,0.9,0.5,1.6,1.2
			c0.6,0.7,0.3,1,0.9,1.7c0.6,0.7,0.6,0.7,1.2,1.5c0.6,0.7,1,0.4,1.7,1.1c0.6,0.7,0.3,1,0.9,1.7c0.6,0.7,0.7,0.6,1.3,1.4
			c0.6,0.7,0.9,0.5,1.5,1.3c0.6,0.7,0.3,1,0.9,1.7c0.2,0.2,0.6,0.3,0.8,0.3c0.2,0,0.3-0.2,0.5-0.4c0.4-0.4,0.7-0.9,0.3-1.3
			c-0.6-0.7-0.9-0.4-1.6-1.2c-0.6-0.7-0.4-0.9-1-1.6c-0.6-0.7-0.8-0.6-1.4-1.3c-0.6-0.7-0.4-0.9-1-1.6c-0.6-0.7-0.7-0.7-1.3-1.4
			c-0.6-0.7-0.5-0.8-1.1-1.5c-0.6-0.7-0.4-0.9-1-1.6c-0.6-0.7-0.8-0.6-1.4-1.3c-0.6-0.7-0.6-0.7-1.2-1.5c-0.6-0.7-0.7-0.7-1.3-1.4
			c-0.6-0.7-0.5-0.9-1.1-1.6c-0.6-0.7-0.5-0.8-1.2-1.5c-0.6-0.7-0.9-0.5-1.5-1.2c-0.6-0.7-0.6-0.7-1.2-1.5c-0.6-0.7-0.2-1-0.8-1.8
			c-0.6-0.7-1-0.4-1.6-1.1c-0.6-0.7-0.5-0.8-1.1-1.5c-0.6-0.7-0.4-0.9-1-1.6c-0.6-0.7-0.5-0.8-1.1-1.5c-0.6-0.7-0.7-0.7-1.3-1.4
			c-0.6-0.7-0.9-0.5-1.5-1.2c-0.6-0.7-0.6-0.7-1.2-1.4c-0.6-0.7-0.3-1-0.9-1.7c-0.6-0.7-0.6-0.7-1.2-1.5c-0.6-0.7-0.8-0.6-1.4-1.3
			c-0.6-0.7-0.7-0.7-1.3-1.4c-0.6-0.7-0.5-0.8-1.1-1.5c-0.4-0.4-1-0.8-1.5-0.4c-0.4,0.4-0.1,1,0.2,1.4
			C40.2,28.6,39.9,28.8,40.5,29.6z"/>
		<path class="st1" d="M186.2,199.8c-0.6-0.7-0.5-0.8-1.1-1.6c-0.6-0.7-0.5-0.8-1.1-1.5c-0.6-0.7-0.6-0.8-1.2-1.5
			c-0.6-0.7-1-0.4-1.6-1.1c-0.6-0.7-0.5-0.9-1.1-1.6c-0.6-0.7-0.8-0.6-1.4-1.3c-0.6-0.7-0.2-1-0.9-1.8c-0.6-0.7-0.8-0.5-1.5-1.3
			c-0.6-0.7-0.3-1-0.9-1.7c-0.6-0.7-0.7-0.7-1.3-1.4c-0.6-0.7-0.8-0.6-1.4-1.3c-0.6-0.7-0.5-0.9-1.1-1.6c-0.6-0.7-0.9-0.5-1.5-1.2
			c-0.6-0.7-0.2-1.1-0.8-1.8c-0.6-0.7-0.6-0.8-1.2-1.5c-0.6-0.7-0.6-0.7-1.3-1.4c-0.6-0.7-0.8-0.6-1.4-1.3c-0.6-0.7-0.6-0.8-1.2-1.5
			c-0.6-0.7-0.4-0.9-1.1-1.6c-0.6-0.7-0.6-0.8-1.3-1.5c-0.3-0.1-0.5-0.1-0.7-0.4c0-0.2-0.4-0.1-0.3-0.2c-0.6-0.8-0.8-0.6-1.5-1.4
			c-0.7-0.8-0.5-0.9-1.2-1.7c-0.7-0.8-0.7-0.8-1.3-1.5c-0.7-0.8-0.5-0.9-1.1-1.7c-0.7-0.8-0.6-0.8-1.3-1.6c-0.4-0.4-1.1-0.4-1.5,0
			c-0.4,0.4-0.5,1-0.1,1.4c0.6,0.7,0.8,0.6,1.4,1.3c0.6,0.7,0.4,0.9,1,1.7c0.6,0.7,0.9,0.5,1.6,1.2c0.6,0.7,0.4,0.9,1,1.6
			c0.6,0.7,0.8,0.6,1.4,1.3c0.6,0.7,0.4,0.9,1.1,1.6c0.6,0.7,0.7,0.7,1.3,1.4c0.6,0.7,0.5,0.8,1.1,1.5c0.6,0.7,0.4,0.9,1,1.7
			c0.6,0.7,0.8,0.6,1.4,1.3c0.1,0,0.2,0,0.3,0c0.3,0.7,0.9,0.9,1.7,1.2c0.2,0,0.5,0.1,0.7,0.1c0,0.5,0.5,0.4,1,0.5
			c0,0.6-0.5,1.3-0.4,1.8c0.1,0.6,0.6,0.9,1.4,1c-0.1,0.1,0,0.2-0.2,0.3c0.7,0.9,0.6,1,1.4,1.9c0.7,0.9,0.6,1,1.5,1.7
			c0.1-0.6,0.7-0.2,1.4-0.2c-0.1,0.4-0.4,0.2-0.4,0.7c-0.3,0-0.4,0-0.7,0c0.5,0.8,0.6,0.7,1.2,1.4c0.6,0.7,0.7,0.6,1.3,1.3
			c0.6,0.7,0.6,0.7,1.2,1.4c0.6,0.7,0.3,1,0.8,1.7c0.6,0.7,0.6,0.7,1.2,1.4c0.6,0.7,0.9,0.5,1.5,1.2c0.6,0.7,0.4,0.9,1,1.6
			c0.6,0.7,0.7,0.6,1.3,1.4c0.6,0.7,0.7,0.7,1.3,1.4c0.6,0.7,0.4,0.9,1,1.6c0.6,0.7,0.7,0.6,1.3,1.4c0.2,0.2,0.5,0.6,0.8,0.6
			c0.2,0,0.5-0.3,0.7-0.4c0.4-0.4,0.7-1.2,0.3-1.7C187.1,200.3,186.8,200.5,186.2,199.8z"/>
		<path class="st1" d="M63.2,71.5c-0.4-0.9-0.7-0.5-1.4-1.1c-0.7-0.6-0.5-0.9-1.2-1.5c-0.7-0.6-0.6-0.8-1.3-1.4
			c-0.7-0.6-0.9-0.4-1.6-1c-0.7-0.6-0.6-0.8-1.3-1.4c-0.7-0.6-0.7-0.7-1.4-1.3c-0.7-0.6-0.7-0.7-1.4-1.3c-0.7-0.6-0.8-0.6-1.5-1.2
			c-0.7-0.6-0.9-0.4-1.6-1c-0.7-0.6-0.9-0.4-1.6-1c-0.7-0.6-0.6-0.8-1.3-1.4c-0.7-0.6-0.9-0.4-1.7-1c-0.7-0.6-0.6-0.7-1.4-1.3
			c-0.7-0.6-0.5-0.8-1.3-1.5c-0.4-0.4-1.4-0.4-1.8,0.1c-0.4,0.4-0.3,1.5,0.2,1.9c0.8,0.6,0.8,0.6,1.5,1.2c0.8,0.6,0.9,0.5,1.7,1.1
			c0.8,0.6,0.5,0.9,1.3,1.5c0.8,0.6,0.9,0.5,1.6,1.1c0.8,0.6,0.7,0.7,1.5,1.3c0.8,0.6,1.1,0.2,1.9,0.8c0.8,0.6,0.7,0.7,1.4,1.4
			c0.8,0.6,0.4,1,1.2,1.7c0.8,0.6,1.1,0.2,1.9,0.8c0.8,0.6,0.8,0.6,1.5,1.3c0.8,0.6,0.7,0.7,1.4,1.4c0.8,0.6,0.5,1,1.2,1.6
			c0.8,0.6,1,0.4,1.8,1c0-0.2-0.3-0.4-0.3-0.5C61.6,71.3,62.4,71.5,63.2,71.5z"/>
		<path class="st1" d="M74.5,82.6c0.3,0,0.6,0.2,0.8,0c0.4-0.4,0.1-0.9-0.3-1.3c-0.7-0.6-0.5-0.8-1.2-1.4c-0.7-0.6-0.5-0.8-1.2-1.4
			c-0.7-0.6-0.8-0.5-1.4-1.1c-0.7-0.6-0.8-0.4-1.5-1c-0.7-0.6-0.8-0.5-1.4-1.1c-0.7-0.6-0.5-0.9-1.2-1.4c-0.7-0.6-0.8-0.4-1.5-1
			c-0.7-0.6-0.7-0.4-1.6-0.8c-0.7,0.3-1.6,0.2-2,0.8c0.5,0.8,0.8,0.7,1.6,1.3s1,0.4,1.7,1c0.8,0.6,0.6,0.8,1.4,1.5
			c0.8,0.6,0.8,0.5,1.6,1.2c0.8,0.6,0.5,1.2,1.4,1.5c0.5-0.8,1.3-1.7,2.1-0.9c0,0.2,0,0.7,0,0.9c-0.7,0-0.7,0.1-1.1,0.4
			c0.7,0.9,0.8,0.6,1.7,1.4c0.8,0.7,0.8,0.7,1.7,1.4C74.1,82.7,74.2,82.6,74.5,82.6z"/>
		<path class="st1" d="M154.8,150.4c0.7,0.6,0.8,0.5,1.5,1.1c0.7,0.6,0.6,0.7,1.4,1.3c0.7,0.6,0.7,0.7,1.4,1.3
			c0.7,0.6,0.5,0.8,1.3,1.4c0.7,0.6,0.8,0.5,1.6,1.1c0.7,0.6,0.5,0.8,1.3,1.4c0.7,0.6,1,0.3,1.7,0.9c0.7,0.6,0.5,0.9,1.2,1.5
			c0.7,0.6,1.1,0.2,1.8,0.8c0.7,0.6,0.4,1,1.1,1.6c0.7,0.6,1,0.3,1.7,0.9c0.7,0.6,0.7,0.6,1.4,1.3c0.7,0.6,0.5,0.9,1.2,1.5
			s0.9,0.4,1.6,1s0.4,1,1.1,1.6c0.7,0.6,1.1,0.1,1.8,0.8c0.7,0.6,0.8,0.6,1.5,1.2c0.7,0.6,0.5,0.9,1.2,1.5c0.7,0.6,0.5,0.8,1.3,1.5
			c0.7,0.6,0.8,0.5,1.5,1.2c0.2,0.2,0.6,0.1,0.8,0.1c0.3,0,0.5-0.2,0.7-0.4c0.4-0.4,0.5-1.3,0.1-1.6c-0.7-0.6-0.8-0.4-1.5-1
			c-0.7-0.6-0.8-0.3-1.6-0.8c-0.6,0-1-0.5-1.6-0.5c-0.1-0.6,0.1-0.9,0.4-1.1c-0.6-0.7-0.9-0.5-1.6-1.1c-0.7-0.6-0.7-0.7-1.4-1.3
			c-0.7-0.6-0.5-0.9-1.3-1.5c-0.7-0.6-1-0.3-1.7-0.9c-0.7-0.6-0.6-0.7-1.4-1.4c-0.7-0.6-0.8-0.6-1.5-1.2c-0.7-0.6-0.9-0.5-1.6-1.1
			c-0.7-0.6-0.5-0.9-1.2-1.5c-0.7-0.6-0.7-0.7-1.4-1.3c-0.7-0.6-0.7-0.6-1.4-1.3c-0.7-0.6-1.1-0.2-1.9-0.8c-0.7-0.6-0.5-0.9-1.2-1.5
			c-0.7-0.6-0.6-0.8-1.3-1.4c-0.7-0.6-1-0.3-1.8-0.9c-0.7-0.6-0.7-0.7-1.4-1.3c-0.7-0.6-0.7-0.6-1.4-1.3c-0.7-0.6-0.8-0.5-1.5-1.1
			c-0.5-0.4-0.6-0.7-0.8-1c-0.2,0.6-0.4,1.3-0.7,2C154.5,150.2,154.7,150.3,154.8,150.4z"/>
		<path class="st1" d="M42.4,74.7c0-0.1,0.1-0.1,0.1-0.2c0,0-0.1,0-0.1-0.1C42.5,74.4,42.3,74.7,42.4,74.7z"/>
		<path class="st1" d="M14.2,58.6c0.9,0.5,0.9,0.4,1.7,0.9c0.9,0.5,1,0.2,1.9,0.7c0.9,0.5,0.7,0.7,1.6,1.2c0.9,0.5,0.8,0.5,1.7,1
			c0.9,0.5,0.7,0.7,1.6,1.2c0.9,0.5,0.9,0.4,1.8,0.9c0.9,0.5,0.8,0.5,1.7,1c0.9,0.5,0.8,0.6,1.6,1.1c0.9,0.5,1,0.2,1.9,0.7
			c0.9,0.5,0.8,0.6,1.6,1.1c0.9,0.5,0.9,0.3,1.8,0.8c0.9,0.5,0.8,0.6,1.6,1.1c0.9,0.5,0.8,0.5,1.7,1c0.9,0.5,1,0.3,1.8,0.8
			c0.9,0.5,0.8,0.5,1.7,0.9c0.5-0.2,1.3-0.3,1.9-0.1c0.6,0.2,1,0.8,0.7,1.5c0.7,0.4,0.7,0.5,1.5,0.9c0.8,0.5,0.8,0.5,1.7,1
			c0.8,0.5,0.8,0.6,1.6,1c0.8,0.5,0.9,0.3,1.7,0.8c0.8,0.5,0.7,0.7,1.5,1.2c0.8,0.5,0.6,0.8,1.5,1.3s1,0.2,1.8,0.7
			c0.8,0.5,0.9,0.4,1.7,0.9c0.8,0.5,0.9,0.3,1.7,0.8c0.8,0.5,0.8,0.6,1.6,1.1c0.2,0.1,0.3,0.5,0.4,0.5c0.4,0,0.8-0.4,1-0.7
			c0.3-0.5,0.2-1.5-0.3-1.7c-0.8-0.5-1.1-0.1-1.9-0.5c-0.8-0.5-0.9-0.4-1.7-0.8c-0.8-0.5-0.8-0.5-1.6-1c-0.8-0.5-0.5-1-1.4-1.5
			c-0.8-0.5-0.9-0.4-1.7-0.9c-0.8-0.5-1-0.2-1.8-0.7c-0.8-0.5-0.6-0.8-1.5-1.3c-0.8-0.5-0.9-0.4-1.7-0.8c-0.8-0.5-1-0.1-1.9-0.6
			c-0.8-0.5-0.7-0.6-1.6-1.1c-0.8-0.5-0.9-0.3-1.8-0.8c-0.8-0.5-0.8-0.6-1.6-1.1c-0.8-0.5-0.6-0.8-1.4-1.3c-0.8-0.5-0.9-0.3-1.7-0.8
			c-0.8-0.5-0.8-0.5-1.6-1c-0.8-0.5-0.7-0.6-1.6-1.1c-0.8-0.5-0.9-0.4-1.7-0.9c-0.8-0.5-0.9-0.3-1.8-0.8c-0.8-0.5-0.8-0.6-1.6-1.1
			c-0.8-0.5-0.7-0.7-1.5-1.2c-0.8-0.5-1-0.1-1.9-0.6c-0.8-0.5-0.7-0.6-1.6-1.1c-0.8-0.5-0.8-0.4-1.7-0.9c-0.8-0.5-0.9-0.3-1.7-0.8
			c-0.8-0.5-0.6-0.8-1.5-1.3c-0.8-0.5-0.8-0.5-1.6-1c-0.8-0.5-0.8-0.5-1.6-1c-0.5-0.3-1,0.2-1.3,0.7C13.8,57.8,13.7,58.3,14.2,58.6z
			"/>
		<path class="st1" d="M212.7,170.5c-0.8-0.5-0.8-0.5-1.6-1c-0.8-0.5-0.7-0.6-1.6-1.1c0,0-0.2,0.3-0.2,0.3c0,0-0.1,0.1-0.1,0.1
			c-0.8-0.5-0.6-0.9-1.4-1.4c-0.8-0.5-0.8-0.4-1.7-0.9c-0.8-0.5-1-0.1-1.8-0.6c-0.8-0.5-0.6-0.8-1.4-1.3c-0.8-0.5-0.9-0.3-1.7-0.8
			c-0.8-0.5-0.7-0.7-1.5-1.2c-0.8-0.5-0.9-0.4-1.7-0.8c-0.8-0.5-0.8-0.4-1.7-0.9c-0.8-0.5-1-0.1-1.9-0.6c-0.8-0.5-0.8-0.6-1.6-1.1
			c-0.8-0.5-0.7-0.6-1.5-1.1c-0.8-0.5-1-0.2-1.8-0.6c-0.8-0.5-0.6-0.8-1.4-1.3c-0.8-0.5-1-0.2-1.8-0.6c-0.8-0.5-0.6-0.9-1.4-1.4
			s-1-0.2-1.8-0.7c-0.8-0.5-1-0.2-1.8-0.7c-0.8-0.5-0.6-0.9-1.4-1.3c-0.8-0.5-0.9-0.3-1.7-0.8c-0.8-0.5-1-0.2-1.8-0.7
			c-0.8-0.5-0.6-0.9-1.4-1.4c-0.8-0.5-0.8-0.7-1.7-1c-1,0.3-2.2,0.2-1.5-0.6c-0.6-0.9-1-0.5-1.9-1c-1-0.6-0.8-0.8-1.8-1.3
			c-0.5-0.3-1.2,0-1.5,0.5c-0.3,0.5-0.1,1.2,0.4,1.5c0.5,0.3,0.5,0.4,1,0.7c0.2-0.1,0.4-0.1,0.7,0c0.9,0.3,1.2,0.7,1.4,1.2
			c0.6,0.5,0.9,0.1,1.5,0.4s0.3,1,1,1.4c0.1,0,0.3-0.2,0.3-0.2c0,0.1-0.1,0.2-0.1,0.3c0.8,0.5,1,0.3,1.8,0.8c0.9,0.5,1,0.3,1.8,0.7
			c0.9,0.5,0.7,0.7,1.6,1.2c0.9,0.5,1,0.3,1.8,0.8c0.9,0.5,0.7,0.7,1.6,1.2c0.9,0.5,0.7,0.7,1.6,1.2c0.9,0.5,1.1,0,2,0.5
			c0.9,0.5,0.8,0.5,1.7,1c0.9,0.5,0.7,0.8,1.5,1.3c0.9,0.5,0.7,0.7,1.6,1.2c0.9,0.5,1.2,0,2,0.4c0.9,0.5,0.8,0.6,1.6,1.1
			c0.9,0.5,0.8,0.7,1.6,1.2c0.9,0.5,1.1,0.1,1.9,0.6c0.9,0.5,0.6,0.9,1.5,1.3c0.9,0.5,0.9,0.4,1.7,0.9c0.9,0.5,0.9,0.3,1.8,0.8
			c0.9,0.5,0.7,0.7,1.6,1.2c0.9,0.5,1,0.2,1.9,0.7c0.9,0.5,0.7,0.8,1.5,1.3c0.9,0.5,0.9,0.5,1.7,0.9c0.9,0.5,0.9,0.4,1.8,0.7
			c0.4-0.3,0.7-0.3,0.8-0.9c1.1-0.1,1.1,0.8,1.4,1.4c0,0,0.3,0.1,0.4,0.1C213.5,171.8,213.2,170.8,212.7,170.5z"/>
		<path class="st1" d="M56.5,94.3c-0.1-0.3-0.3-0.5-0.4-0.8c-0.2-0.5,0.1-0.7,0.5-0.8c-0.7-0.3-0.8-0.4-1.6-0.7
			c-0.9-0.3-1.2,0.3-2.1,0c-0.9-0.3-0.7-0.9-1.6-1.2c-0.9-0.3-1-0.2-1.9-0.6c-0.9-0.3-0.9-0.4-1.8-0.7c-0.9-0.3-1.1,0.1-2-0.2
			c-0.9-0.3-0.9-0.5-1.8-0.8c-0.9-0.3-0.9-0.4-1.8-0.7c-0.9-0.3-1-0.2-1.9-0.5c-0.9-0.3-0.8-0.6-1.8-0.9c-0.9-0.3-0.8-0.7-1.7-1
			c-0.9-0.3-1-0.1-1.9-0.4c-0.9-0.3-1,0-2-0.4c-0.9-0.3-0.9-0.3-1.9-0.6c-0.9-0.3-0.8-0.7-1.7-1.1c0,0-0.1,0.1-0.2,0.1c0,0,0,0,0,0
			c-1.1-0.4-1.1-0.4-2.2-0.8c-0.5-0.2-1,0.1-1.2,0.6c-0.2,0.5-0.1,1.2,0.4,1.4c0.9,0.3,0.9,0.4,1.7,0.7c0.9,0.3,0.8,0.4,1.7,0.7
			c0.9,0.3,0.9,0.2,1.8,0.5c0.9,0.3,1.1-0.2,2,0.1c0.9,0.3,0.8,0.6,1.6,1c0.9,0.3,0.8,0.5,1.7,0.8c0.9,0.3,1-0.1,1.9,0.2
			c0.9,0.3,0.7,0.8,1.6,1.1c0.9,0.3,0.8,0.5,1.7,0.8c0.9,0.3,1,0,1.9,0.3c0.9,0.3,0.8,0.7,1.7,0.9c0.2-0.2,0.5-0.4,0.9-0.2
			c0,0.1,0,0.3,0,0.4c0.8,0.4,0.9,0.1,1.8,0.4c0.9,0.3,0.8,0.6,1.6,0.9c0.9,0.3,0.9,0.1,1.8,0.4c0.9,0.3,0.9,0.1,1.8,0.4
			c0.9,0.3,0.7,0.8,1.6,1.1c0.7,0.3,0.9,0.3,1.4,0.5C56.4,94.9,56.6,94.6,56.5,94.3z"/>
		<path class="st1" d="M169.6,136.2c0.2,0.2,0.3,0.3,0.5,0.4c0-0.1,0-0.1,0-0.2c-0.1,0-0.1-0.1-0.2-0.1
			C169.8,136.3,169.7,136.2,169.6,136.2z"/>
		<path class="st1" d="M197.1,146.3c-0.6-0.2-1-1.3-0.3-1.6c0.3-0.1,0.8-0.2,1.4-0.2c-0.2-0.3-0.3-0.6-0.8-0.8c-0.9-0.3-1.1,0.4-2,0
			c-0.9-0.3-0.9-0.4-1.8-0.7c-0.9-0.3-0.9-0.3-1.8-0.7c-0.9-0.3-0.9-0.3-1.8-0.7c-0.9-0.3-0.9-0.4-1.8-0.7c-0.9-0.3-0.9-0.3-1.8-0.6
			c-0.9-0.3-0.8-0.5-1.7-0.8c-0.9-0.3-0.9-0.2-1.8-0.5c-0.9-0.3-0.9-0.3-1.8-0.6c-0.9-0.3-0.7-0.7-1.6-1.1c-0.9-0.3-0.8-0.5-1.7-0.8
			c-0.9-0.3-0.9-0.3-1.8-0.7c-0.9-0.3-1.1,0.1-2-0.2c-0.9-0.3-0.8-0.6-1.7-0.9c-0.9-0.3-1-0.1-1.9-0.5c-0.9-0.3-0.9-0.4-1.8-0.7
			c0.2,0.2,0.5,0.4,0.7,0.6c0.4,0.5,0.6,1.5,0.7,2.1c0.7,0.3,0.7,0.5,1.5,0.8c0.9,0.3,1.1-0.3,2,0.1c0.9,0.3,0.8,0.5,1.7,0.8
			c0.9,0.3,0.8,0.6,1.7,1c0.9,0.3,1,0.2,1.8,0.5c0.9,0.3,0.9,0.3,1.8,0.6c0.9,0.3,0.9,0.3,1.8,0.6c0.9,0.3,0.9,0.4,1.8,0.7
			c0.9,0.3,1,0,1.9,0.3c0.9,0.3,0.7,0.7,1.6,1c0.9,0.3,0.8,0.6,1.7,0.9c0.9,0.3,0.9,0.3,1.8,0.6c0.9,0.3,0.9,0.2,1.8,0.6
			c0.9,0.3,0.9,0.4,1.8,0.7c0.9,0.3,0.9,0.4,1.8,0.7c0.9,0.3,1.1-0.3,2,0c0.9,0.3,0.7,0.9,1.6,1.2c0.1,0,0.3,0.1,0.4,0.1
			c0.4,0,0.7-0.5,0.9-0.9c0.2-0.5-0.1-0.9-0.6-1c-0.9-0.3-0.9-0.2-1.8-0.5c-0.1,0-0.2-0.1-0.3-0.1c-0.1,0.2-0.2,0.4-0.2,0.5
			C198,146.1,197.5,146.4,197.1,146.3z"/>
		<path class="st1" d="M168.8,133.7c-0.4-0.3-0.8-0.4-1.1-0.5c-0.3-0.1-0.6-0.1-0.8,0.1C167.8,133.6,167.8,133.3,168.8,133.7
			C168.7,133.7,168.7,133.7,168.8,133.7z"/>
		<path class="st1" d="M168.3,134.9c-0.6-0.4-1.2-0.5-1.9-0.7c0.1-0.5,0.3-0.8,0.5-0.9c0,0,0,0,0,0c-0.9-0.3-0.8-0.7-1.7-1
			c-0.9-0.3-1,0.1-1.9-0.3c-0.9-0.3-0.8-0.7-1.7-1c-0.5-0.2-0.9,0.2-1.1,0.8c-0.2,0.5-0.1,1,0.4,1.2c1,0.4,1.1,0.1,2.2,0.5
			c1,0.4,0.8,1,1.9,1.3c1,0.4,1.2,0,2.2,0.4c0,0,0,0,0,0c0.3,0,0.4,0.5,0.7,0.5c0.1,0.1,0.3-0.1,0.4,0c0.8,0.3,0.8,0.4,1.5,0.6
			C169.2,135.8,168.8,135.1,168.3,134.9z"/>
		<path class="st1" d="M198.3,144.5c0.1,0.2,0.2,0.3,0.4,0.4c0.1-0.1,0.1-0.3,0.1-0.4C198.7,144.5,198.5,144.5,198.3,144.5z"/>
		<path class="st1" d="M0.4,94.9c0.6,0.3,1.3-0.3,2-0.1c0.7,0.2,1.2,1,1.3,1.7c0.8,0.4,0.9,0.1,1.8,0.3c0.9,0.2,0.8,0.2,1.7,0.3
			C8,97.2,8,97.3,8.8,97.4c0.9,0.2,0.9,0.1,1.7,0c0.2-0.5,0.7-0.5,1.7-0.3c-0.2-0.4-0.6-0.7-0.8-1.2c-1-0.4-0.9-0.4-1.9-0.6
			c-1-0.2-1.1,0.1-2.1-0.1c-1-0.2-0.9-0.8-1.9-1c-1-0.2-1.1,0.1-2.1-0.1c-1-0.2-1-0.4-2-0.6c-0.6-0.1-1.3,0.5-1.4,1
			c-0.1,0.3,0.2,0.6,0.4,0.8C0.3,95.2,0.3,95.3,0.4,94.9z"/>
		<path class="st1" d="M46,101.6c-0.5-0.1-0.6-0.3-1.4-0.4c-0.9-0.2-1,0.2-1.9,0c-0.9-0.2-0.9-0.5-1.8-0.7c-0.9-0.2-1,0-1.9-0.2
			c-0.9-0.2-0.9-0.2-1.9-0.4s-0.9-0.3-1.8-0.5c-0.9-0.2-1,0.2-1.9,0.1c-0.9-0.2-0.9-0.5-1.8-0.7c-0.9-0.2-1,0-1.9-0.2
			c-0.9-0.2-1,0.3-2,0.1c-0.9-0.2-0.9-0.4-1.8-0.6c-0.9-0.2-0.9-0.5-1.8-0.6c-0.9-0.2-0.9-0.2-1.9-0.4c-0.9-0.2-1,0.3-2,0.1
			c-0.9-0.2-0.9-0.2-1.9-0.3c-0.9-0.2-0.9-0.7-1.8-0.8c-0.6,0.1-1.3,0.2-2,0.5c-0.5,0.2-1,0.7-1.5,1.2c0,0-0.2,0.1-0.1,0.1
			c1.1,0.2,1.1,0.1,2.2,0.2c0-0.1,0.2-0.1,0.2-0.2c0-0.3-0.2-0.6-0.2-0.9c1.1-0.2,1.2,0.4,2,0.6c-0.1,0.6-1.1-0.2-1.3,0.4
			c0.9,0.5,0.9,0.4,1.9,0.6c1,0.2,1.1-0.1,2.1,0.1c1,0.2,0.9,0.8,1.9,1c1,0.2,1.1-0.1,2.1,0.1c1,0.2,1,0.4,2,0.6c1,0.2,1,0.1,2,0.3
			c1,0.2,1,0.3,2.1,0.1c-0.2-0.7,1.8-0.4,1,0.5c0.7,0.7,1.2,0.1,2.1,0.3c0.9,0.2,0.9,0.2,1.9,0.4c0.9,0.2,1-0.1,1.9,0.1
			c0.9,0.2,0.9,0.4,1.9,0.5c0.9,0.2,1-0.1,2,0c0.9,0.2,0.9,0.5,1.8,0.7c0.9,0.2,1-0.1,1.9,0.1c0.9,0.2,1,0.2,1.9,0.3
			c0.9,0.2,0.9,0.5,1.8,0.7c0.8,0.1,1-0.1,1.5-0.1C47.7,103.5,46.2,103.2,46,101.6z"/>
		<path class="st1" d="M225.8,133.1c-0.9-0.2-0.9-0.2-1.9-0.3c-0.9-0.2-0.9-0.2-1.9-0.3c-0.9-0.2-1,0.2-1.9,0.1
			c-0.9-0.2-0.9-0.5-1.8-0.6c-0.9-0.2-0.9-0.3-1.8-0.4c-0.9-0.2-0.9-0.1-1.9-0.3c0,0.1-0.1,0.6-0.1,0.7c-0.8,0-1.5-0.4-2.3-0.4
			c-0.1-0.2-0.2-0.3-0.2-0.5c-1-0.3-1-0.5-2-0.6c-1-0.2-1.1-0.5-2.1-0.3c0.1,0.7-0.7,1.5-1.5,1.5c-0.8,0-1.9-0.9-2-1.2
			c1,0.1,1.6-0.4,2.2-0.7c-0.8-0.4-1.1,0.4-1.9,0.2c-0.9-0.2-0.9-0.2-1.8-0.3c-0.9-0.2-0.8-0.6-1.7-0.7c-0.9-0.2-1,0.3-1.8,0.2
			c0,0.1,0-0.4,0-0.4c-1,0.2-1.4,0.5-1.6,0.1c-0.9-0.3-0.9-0.3-1.9-0.5c-1-0.2-1-0.2-2-0.4c-1-0.2-1-0.2-2-0.3
			c-1-0.2-0.9-0.7-1.9-0.9c-1-0.2-1.1,0.4-2.1,0.2c-1-0.2-0.9-0.5-1.9-0.6c-1-0.2-1-0.3-1.9-0.5c-1-0.2-1,0.1-2-0.1
			c-1-0.2-1,0.1-2-0.1c-1-0.2-0.9-0.2-1.9-0.3c0,0.2-0.1-0.2-0.1,0c-0.5,0-1,0.5-1.5,0.5c0-0.3,0.2-1,0.2-1.3
			c-0.8-0.3-0.9,0.3-1.8,0.2c-0.6-0.1-0.9,0.1-1,0.7c-0.1,0.6,0,1.4,0.6,1.5c0.9,0.2,0.9,0.1,1.8,0.3c0.9,0.2,0.9-0.1,1.8,0
			c0.9,0.2,0.9,0.3,1.8,0.5c0.9,0.2,0.9,0.3,1.8,0.5c0.9,0.2,1-0.4,1.9-0.2c0.9,0.2,0.9,0.7,1.8,0.5c-0.1-0.7,0.4-1.3,1.2-1.2
			c0,0.5-0.2,1.3-0.4,1.6c0.8,0.3,0.9,0.3,1.8,0.5c0.9,0.2,1-0.3,1.9-0.1c0.9,0.2,0.9,0.1,1.8,0.2c0.9,0.2,0.9,0.1,1.8,0.3
			c0.9,0.2,0.9,0.3,1.8,0.5c0.9,0.2,0.8,0.7,1.7,0.7c0.1-0.2,0.1-0.9,0-1.2c0.5-0.1,0.9,0.4,1,1c0.2,0.2,0.2,0.3,0.5,0.4
			c0,0,0.2,0,0.1,0c1.2-0.8,1.5-0.1,1.3,0.3c0.9,0.4,1.1-0.3,2.1-0.1c1,0.2,0.9,0.6,1.9,0.7c1,0.2,1-0.3,2-0.1
			c1,0.2,0.9,0.3,1.9,0.5c1,0.2,1,0.3,1.9,0.4c0,0,0.1,0.2,0.1,0.2c0.4,0,0.6-0.2,1-0.2c0,0.2,0.1,0.3,0.1,0.4c0.9,0.2,1-0.1,1.8,0
			c0.9,0.2,0.9,0.4,1.7,0.5c0.9,0.2,0.9-0.2,1.8,0c0.9,0.2,0.8,0.5,1.7,0.7c0.9,0.2,0.9-0.1,1.8,0.1c0.9,0.2,0.9,0.1,1.8,0.3
			c0.9,0.2,0.8,0.5,1.7,0.7c0.9,0.2,1-0.2,1.9-0.1c0.1,0,0.1-0.2,0.2-0.2c0.5,0,0.9,0,1-0.5C226.8,134,226.4,133.2,225.8,133.1z"/>
		<path class="st1" d="M51,113.5c-0.9,0-0.9,0.3-1.9,0.3c-0.9,0-0.9-0.4-1.9-0.4c-0.9,0-0.9,0.2-1.9,0.2c-0.9,0-0.9,0.1-1.9,0.1
			c-0.9,0-0.9,0.3-1.9,0.3s-0.9,0-1.9,0c-0.9,0-0.9-0.6-1.9-0.6c-0.9,0-0.9,0-1.9,0c-0.9,0-0.9,0.2-1.9,0.2c-0.9,0-0.9,0.1-1.9,0.1
			c-0.9,0-0.9,0.2-1.9,0.2c-0.9,0-0.9,0-1.9,0c-0.9,0-0.9-0.4-1.9-0.4c-0.9,0-0.9,0.4-1.9,0.4c-0.9,0-0.9,0-1.9,0
			c-0.9,0-0.9-0.1-1.9-0.1c-0.6,0-1,0.4-1,0.9c0,0.6,0.4,1.3,1,1.3c1,0,1,0,1.9,0c1,0,1-0.5,1.9-0.5c1,0,1,0.6,1.9,0.6
			c1,0,1,0.1,1.9,0.1c1,0,1-0.3,1.9-0.3c1,0,1-0.3,1.9-0.3c1,0,1,0.2,1.9,0.2c1,0,1-0.1,1.9-0.1c1,0,1-0.2,1.9-0.2
			c1,0,1,0.2,1.9,0.2c1,0,1,0.2,1.9,0.2c1,0,1-0.1,1.9-0.1c1,0,1-0.4,1.9-0.4c1,0,1,0.4,1.9,0.4c1,0,1,0.3,1.9,0.3c1,0,1,0,1.9,0
			c0.8,0,0.9,0,1.6,0c-0.1-0.8-0.3-1.5-0.5-2.3C51.9,113.6,51.7,113.5,51,113.5z"/>
		<path class="st1" d="M189.7,113.7c-0.8-0.3-0.8-0.2-1.6-0.2c-0.8,0-0.8,0.1-1.6,0.3c-0.3,0.5-0.9,0.7-1.7,0.8
			c-0.6,0.1-1.2-0.2-1.9-0.2c-0.1-0.3-0.1-0.2,0-0.3c-0.9-0.1-0.9-0.5-1.8-0.5c-0.9,0-1.1-0.4-1.9,0c0.2,0.8,0.3,1.8,0.1,2.5
			c0.6,0.3,0.8,0.2,1.3,0.1c0.2,0,0.3-0.1,0.5-0.2c0.2-0.1,0.4-0.2,0.5-0.2c0,0,0,0,0,0c-0.1,0.1-0.1,0.2-0.1,0.3
			c0.7-0.1,0.8-0.5,1.6-0.5c0.9,0,0.9,0.6,1.8,0.6c0.9,0,0.9-0.5,1.8-0.5s0.9,0.5,1.7,0.1C188.4,114.6,188.9,114,189.7,113.7z"/>
		<path class="st1" d="M195.2,115.7c0.9,0,0.9-0.1,1.8-0.1c0.9,0,0.9-0.2,1.8-0.2c0.9,0,0.9,0.1,1.8,0.1c0.9,0,0.9,0.2,1.8,0.2
			c0.9,0,0.9-0.3,1.8-0.3c0.9,0,0.9,0,1.8,0c0.6,0,1-0.3,1-0.9c0-0.6-0.5-1.4-1-1.4c-1,0-1,0.3-2,0.3c-1,0-1,0.2-2,0.2c-1,0-1,0-2,0
			c-1,0-1-0.2-2-0.2c-1,0-1,0.3-2,0.3c-1,0-1-0.7-2-0.7c-1,0-1,0.5-2,0.5c-1,0-1-0.2-1.9,0.2c-0.4,1-0.7,1.3-0.5,2.1
			c0.9,0.3,1,0,1.9,0c0.9,0,0.9-0.3,1.8-0.3C194.2,115.7,194.2,115.7,195.2,115.7z"/>
		<path class="st1" d="M177.9,113.7c0,0-0.1,0-0.1,0C177.8,113.7,177.8,113.8,177.9,113.7C177.8,113.8,177.9,113.8,177.9,113.7z"/>
		<path class="st1" d="M15.8,132.9c1-0.2,1-0.1,1.9-0.2c1-0.2,0.9-0.2,1.9-0.4c1-0.2,0.9-0.2,1.9-0.4c1-0.2,0.9-0.3,1.9-0.5
			c1-0.2,0.9-0.2,1.9-0.4c1-0.2,1.1,0.4,2,0.2c1-0.2,0.9-0.5,1.9-0.6c1-0.2,0.9-0.5,1.8-0.7c1-0.2,1,0,1.9-0.2c1-0.2,1,0,1.9-0.2
			c1-0.2,0.9-0.3,1.9-0.4c1-0.2,1,0.1,2-0.1c1-0.2,0.9-0.4,1.9-0.6c1-0.2,0.9-0.3,1.9-0.5c1-0.2,1,0.1,2-0.1c1-0.2,0.9-0.3,1.9-0.5
			c1-0.2,1,0,1.9-0.1c1-0.2,0.9-0.4,1.9-0.5s1-0.1,1.9-0.3c0.6-0.1,0.7-0.5,0.6-1c-0.1-0.6-0.4-0.7-0.9-0.6
			c-0.9,0.2-0.9,0.2-1.9,0.3c-0.9,0.2-1-0.1-1.9,0.1c-0.9,0.2-1,0-1.9,0.2c-0.9,0.2-0.9,0.5-1.8,0.7c-0.9,0.2-1-0.4-2-0.2
			c-0.9,0.2-0.8,0.8-1.8,1c-0.9,0.2-1-0.1-1.9,0.1c-0.9,0.2-1,0-1.9,0.2c-0.9,0.2-1,0-1.9,0.1c-0.9,0.2-0.9,0.5-1.8,0.7
			c-0.9,0.2-1-0.2-2,0c-0.9,0.2-0.8,0.7-1.8,0.9c-0.9,0.2-0.9,0.3-1.9,0.4c-0.9,0.2-1,0.1-1.9,0.2c-0.9,0.2-1-0.3-2-0.2
			c-0.9,0.2-0.9,0.5-1.8,0.7c-0.9,0.2-0.9,0.3-1.9,0.5c-0.9,0.2-1,0-1.9,0.1c-0.9,0.2-1,0.1-1.9,0.2c0,0-0.2,0-0.1,0.1
			c-0.1,0.9-1,0.9-1.1,1.8c-0.2,0-0.5,0.1-0.7,0.1c-0.1-0.3-0.2-0.8-0.7-0.8c0-0.4,0-0.3,0.2-0.6c-1,0.1-1.1-0.2-2.1,0
			c-1,0.2-1,0.4-2,0.5c-1,0.2-1,0.2-2,0.4c-1,0.2-0.9,0.4-1.9,0.7c0,0.2-0.1,0.2-0.1,0.5c-0.3-0.2-0.6-0.7-0.8-0.9
			c-0.9,0.1-0.8,0.8-1.6,0.9c-0.8,0.1-0.9-0.3-1.8-0.2c-0.4,0.1-0.7,0.6-0.8,1c0.2,0.1,0.1,0.3,0.3,0.2c-0.1,0.3-0.3,0.1-0.5,0.2
			c0.1,0.4,0.8,0.4,1.2,0.4c0.1,0,0.1,0.2,0.1,0.1c0.9-0.2,0.9-0.2,1.8-0.5c0-0.1,0-0.2,0-0.3c0.6,0,1,0.4,1.2,0.5
			c1-0.1,0.9-0.5,1.8-0.7c1-0.2,1,0.3,2,0.1c1-0.2,0.9-0.5,1.8-0.7c1-0.2,0.9-0.2,1.9-0.4c1-0.2,1-0.2,1.9-0.4
			C14.8,132.7,14.9,133.1,15.8,132.9z"/>
		<path class="st1" d="M183.5,103.4c0.3-0.1,0.5-0.2,1-0.3c0.9-0.2,1,0.1,1.9-0.1c0.9-0.2,0.9-0.7,1.8-0.8c0.9-0.2,0.9-0.2,1.9-0.4
			c0.9-0.2,1,0,1.9-0.2c0.9-0.2,1,0.2,1.9,0.1c0.9-0.2,1,0,1.9-0.2c0.9-0.2,0.8-0.7,1.8-0.9c0.9-0.2,1,0.5,2,0.3
			c0.9-0.2,0.9-0.5,1.8-0.7c0.9-0.2,0.9-0.3,1.8-0.5c0.9-0.2,1,0.3,2,0.1c0.9-0.2,0.8-0.7,1.8-0.8c0.9-0.2,0.9-0.2,1.9-0.4
			c0.9-0.2,0.9-0.2,1.9-0.3c0.9-0.2,1,0.1,1.9-0.1c0.9-0.2,1,0,1.9-0.2c0.9-0.2,0.9-0.5,1.8-0.7c0.9-0.2,1,0.4,2,0.2
			c0.9-0.2,0.8-0.8,1.8-1c0.9-0.2,1,0.1,1.9-0.1c0.9-0.2,1,0,1.9-0.2s1,0,1.9-0.1c0.6-0.1,0.8-0.9,0.7-1.5c-0.1-0.6-0.6-1.1-1.2-1
			c-1,0.2-0.9,0.4-1.9,0.6c-1,0.2-0.9,0.3-1.9,0.4c-1,0.2-1-0.2-2-0.1c-1,0.2-1,0.1-1.9,0.3c-1,0.2-1,0.1-1.9,0.2
			c-1,0.2-0.9,0.7-1.8,0.8c-1,0.2-1,0.1-1.9,0.2c-1,0.2-1,0.1-1.9,0.2c-1,0.2-1,0-1.9,0.2c-1,0.2-0.9,0.5-1.8,0.7
			c-1,0.2-1,0-1.9,0.2c-1,0.2-0.9,0.3-1.9,0.4c-1,0.2-1-0.3-2-0.2c-1,0.2-0.9,0.7-1.8,0.8c-1,0.2-1-0.1-2,0c-1,0.2-1,0.1-1.9,0.3
			c-1,0.2-1,0-1.9,0.2c-1,0.2-0.8,0.8-1.8,1c-1,0.2-1-0.2-2-0.1c-1,0.2-1,0.1-1.9,0.3c-0.2,0-0.3,0.1-0.4,0.1
			c-0.1,0.3-0.2,0.6-0.4,0.9C185.8,102.3,184.4,102.6,183.5,103.4z"/>
		<path class="st1" d="M54.3,135.4c-0.6,0.1-0.8-0.2-1.5,0.1c-0.9,0.3-1,0.1-1.9,0.4c-0.9,0.3-0.8,0.7-1.7,1
			c-0.9,0.3-0.9,0.2-1.8,0.5c-0.9,0.3-0.8,0.5-1.7,0.8c-0.9,0.3-0.9,0.4-1.8,0.7c-0.9,0.3-1,0.1-1.9,0.4c-0.9,0.3-0.9,0.3-1.8,0.6
			c-0.9,0.3-0.9,0.4-1.8,0.7c-0.9,0.3-0.7,0.8-1.6,1.1c-0.9,0.3-1.1-0.3-2,0c-0.9,0.3-0.8,0.6-1.7,0.9c-0.9,0.3-0.9,0.2-1.8,0.5
			c-0.9,0.3-0.9,0.3-1.8,0.6c-0.9,0.3-0.9,0.3-1.8,0.6c-0.9,0.3-0.9,0.4-1.8,0.7c-0.5,0.2-1.1,1.1-0.9,1.7c0.2,0.4,0.9,0.3,1.3,0.3
			c0.1,0,0.3,0.5,0.5,0.4c0.9-0.3,0.8-0.6,1.7-0.9c0.9-0.3,1-0.1,1.9-0.4c0.9-0.3,0.8-0.5,1.7-0.9c0.9-0.3,0.8-0.5,1.7-0.8
			c0.9-0.3,1,0.1,1.9-0.2c0.9-0.3,0.8-0.6,1.7-0.9c0.9-0.3,0.8-0.5,1.7-0.8c0.9-0.3,1.1,0.1,1.9-0.2c0.9-0.3,0.8-0.7,1.7-1
			c0.9-0.3,0.8-0.5,1.7-0.8c0.9-0.3,1.1,0.2,2-0.2c0.9-0.3,0.7-0.8,1.6-1.1c0.9-0.3,0.9-0.2,1.8-0.5c0.9-0.3,1-0.2,1.8-0.5
			c0.5-0.2,0.7-0.3,0.9-0.5c-0.1,0-0.1,0-0.2,0c-0.4-0.3-0.7-0.7-0.6-1c0.1-0.3,0.4-0.6,0.9-0.7c0.1,0.2,0.4,0.3,0.8,0.3
			c0,0,0,0.1,0,0.1c0,0.3,0,0.6,0,0.9c0.4-0.1,0.6-0.2,0.8-0.3C54.1,136.6,54.2,136,54.3,135.4z"/>
		<path class="st1" d="M197.7,84.7c1.3-0.4,1.5,0.1,2.7-0.5c0.1-0.6,0.8-1.1,1.4-1.6c-0.3-0.4-1.2-1-1.6-0.8
			c-0.9,0.3-0.8,0.5-1.7,0.8c-0.9,0.3-0.8,0.5-1.7,0.8c-0.9,0.3-1,0-1.9,0.4c-0.9,0.3-0.7,0.7-1.6,1.1c-0.9,0.3-1,0.1-1.9,0.4
			c-0.9,0.3-0.8,0.5-1.7,0.9s-0.8,0.5-1.7,0.8c-0.9,0.3-1.1-0.2-2,0.1c-0.9,0.3-0.8,0.5-1.7,0.8c-0.9,0.3-0.8,0.6-1.7,1
			c-0.9,0.3-0.9,0.3-1.8,0.6c-0.9,0.3-1,0-1.9,0.4s-1,0.1-1.7,0.8c0.5,0.6,1,0.9,1.9,1.2c0.9-0.3,1,0,1.9-0.3c0.9-0.3,1-0.2,1.9-0.6
			c0.9-0.3,0.9-0.4,1.8-0.7c0.9-0.3,0.9-0.3,1.9-0.6c0.9-0.3,0.9-0.4,1.8-0.8c0.9-0.3,0.9-0.4,1.8-0.8c0.9-0.3,0.8-0.7,1.7-1
			c0.9-0.3,1-0.2,1.9-0.5c0.9-0.3,1.1,0.1,2-0.4c0-0.5,0.4-1.2,0.9-1.7c0.5-0.4,0.9-0.6,1.5-0.7C198.6,84.5,198.2,84.4,197.7,84.7z
			 M180,91.3c-0.2,0.2-0.6,0.3-0.9,0.1c-0.1,0-0.2-0.1-0.2-0.2c0.3,0,0.5-0.1,0.7-0.2c0.2-0.1,0.3-0.1,0.6-0.1
			C180.1,91.1,180.1,91.3,180,91.3z"/>
		<path class="st1" d="M179.1,91.7C179.1,91.7,179.1,91.7,179.1,91.7C179,91.7,179,91.7,179.1,91.7C179,91.7,179.1,91.7,179.1,91.7z
			"/>
		<path class="st1" d="M179,91.7C179,91.7,179,91.7,179,91.7C179,91.7,179,91.7,179,91.7z"/>
		<path class="st1" d="M176,91c-0.1,0-0.1,0-0.1,0c0.1,0.1,0.2,0.2,0.3,0.3C176.1,91.2,176,91.2,176,91z"/>
		<path class="st1" d="M176.6,92.9c0.8-0.3,0.9-0.2,1.6-0.8c-0.5-0.3-1.2-0.9-2-0.5C176.5,92,176.6,92.4,176.6,92.9z"/>
		<path class="st1" d="M51.8,150.5c0.1-0.6,0.3-1.3,0.5-1.9c-0.1,0-0.1,0.1-0.2,0.1c-0.8,0.5-0.9,0.3-1.7,0.8
			c-0.8,0.5-0.8,0.5-1.6,1c-0.8,0.5-0.8,0.5-1.7,0.9c-0.8,0.5-0.8,0.5-1.6,1c-0.8,0.5-0.6,0.9-1.4,1.3c-0.8,0.5-0.8,0.5-1.6,1
			c-0.8,0.5-0.9,0.3-1.7,0.8c-0.8,0.5-1,0.2-1.8,0.7c-0.8,0.5-0.7,0.7-1.5,1.2c-0.8,0.5-0.7,0.7-1.5,1.2c-0.8,0.5-0.9,0.3-1.8,0.8
			c-0.8,0.5-1,0.2-1.8,0.7c-0.8,0.5-0.8,0.6-1.6,1c-0.8,0.5-0.6,0.9-1.4,1.4c-0.8,0.5-0.9,0.3-1.8,0.8c-0.8,0.5-0.7,0.7-1.5,1.2
			c-0.8,0.5-1,0.1-1.9,0.6c-0.8,0.5-0.8,0.5-1.7,0.9c-0.8,0.5-0.6,0.8-1.5,1.3c-0.8,0.5-0.9,0.4-1.7,0.9c-0.8,0.5-0.8,0.5-1.6,1
			c-0.8,0.5-0.9,0.3-1.8,0.8c-0.8,0.5-0.7,0.6-1.6,1.1c-0.5,0.3-0.7,0.7-0.4,1.2c0.2,0.3,0.5,0.4,0.8,0.4c0.2,0,0.3-0.1,0.4-0.2
			c0.8-0.5,1.1,0,1.9-0.5c0.8-0.5,0.6-0.8,1.5-1.3c0.8-0.5,0.9-0.4,1.7-0.9c0.8-0.5,0.8-0.5,1.6-1c0.8-0.5,1-0.2,1.8-0.6
			c0.8-0.5,0.5-1,1.4-1.4c0.8-0.5,0.9-0.3,1.8-0.8c0.8-0.5,0.9-0.3,1.8-0.8c0.8-0.5,0.6-0.9,1.4-1.4c0.8-0.5,0.8-0.5,1.6-1
			c0.8-0.5,0.9-0.4,1.7-0.9c0.8-0.5,0.9-0.3,1.7-0.8c0.8-0.5,0.8-0.5,1.6-1c0.8-0.5,0.9-0.3,1.8-0.8c0.8-0.5,0.8-0.6,1.6-1
			c0.8-0.5,0.9-0.3,1.7-0.8c0.8-0.5,0.6-0.9,1.4-1.4c0.8-0.5,0.9-0.3,1.8-0.8c0.8-0.5,0.8-0.5,1.7-0.9c0.8-0.5,0.8-0.5,1.7-0.9
			c0.8-0.5,0.7-0.7,1.5-1.2c0.8-0.5,0.9-0.3,1.8-0.8c0.1-0.1,0.2-0.1,0.3-0.2C51.8,151,51.8,150.8,51.8,150.5z"/>
		<path class="st1" d="M167.5,84.5C167.5,84.5,167.5,84.5,167.5,84.5c0.3,0,0.5,0,0.7-0.1c0.8-0.5,0.8-0.4,1.6-0.8
			c0.8-0.5,0.6-0.8,1.4-1.2c0.8-0.5,0.7-0.6,1.5-1c0.8-0.5,1.1,0.1,1.9-0.4c0.8-0.5,0.8-0.5,1.6-0.9c0.8-0.5,0.7-0.6,1.4-1.2
			c-0.2-0.3-0.6-0.5-1-0.6c0-0.4,0.3-0.5,0.3-0.9c-0.9,0.3-0.8,0.2-1.6,0.7c-0.8,0.5-0.9,0.2-1.7,0.7c-0.8,0.5-0.7,0.7-1.5,1.1
			c-0.8,0.5-0.7,0.6-1.5,1.1c-0.8,0.5-1,0.2-1.7,0.6c-0.6,0.4-0.7,0.6-1.1,0.9c0,0.4,0.1,0.7,0.1,1.1
			C167.6,83.9,167.6,84.2,167.5,84.5z"/>
		<path class="st1" d="M185.2,72.3c-0.8,0.5-0.9,0.3-1.8,0.8c-0.8,0.5-0.9,0.4-1.7,0.8c-0.8,0.5-0.8,0.5-1.6,1
			c-0.8,0.5-1.3,0-1.9,0.8c0.6,0.4,1.4,1.2,1.7,1.8c1-0.2,0.8-0.7,1.7-1.2c0.9-0.5,1.1-0.1,2-0.6c0.9-0.5,0.7-0.8,1.6-1.3
			c0.2-0.3,0.3-0.6,0.4-1c0.1,0.2,0.2,0.5,0.2,0.7c0.9-0.4,0.9-0.4,1.7-0.9c0.8-0.5,0.6-0.8,1.5-1.3c0.8-0.5,0.9-0.4,1.7-0.9
			c0.8-0.5,1.1-0.1,1.9-0.6c0.8-0.5,0.6-0.9,1.4-1.4c0.8-0.5,0.7-0.6,1.6-1.1c0.8-0.5,0.9-0.3,1.8-0.8c0.8-0.5,0.7-0.6,1.6-1.1
			c0.8-0.5,0.9-0.3,1.8-0.8c0.8-0.5,1-0.3,1.8-0.8c0.8-0.5,0.7-0.7,1.5-1.2c0.8-0.5,0.7-0.7,1.6-1.1c0.8-0.5,1-0.2,1.8-0.7
			c0.8-0.5,0.7-0.7,1.6-1.2c0.8-0.5,1-0.2,1.8-0.7c0.8-0.5,0.9-0.4,1.7-0.9c0.5-0.3,0.6-1,0.3-1.5c-0.3-0.5-0.8-0.6-1.3-0.3
			c-0.8,0.5-0.9,0.3-1.7,0.8c-0.8,0.5-0.9,0.3-1.7,0.8c-0.8,0.5-0.8,0.6-1.6,1.1c-0.8,0.5-1,0.2-1.8,0.7c-0.8,0.5-0.6,0.9-1.4,1.4
			c-0.8,0.5-0.9,0.4-1.7,0.8c-0.8,0.5-0.7,0.7-1.5,1.2c-0.8,0.5-1,0.2-1.8,0.6c-0.8,0.5-0.8,0.6-1.6,1.1c-0.8,0.5-1,0.1-1.9,0.6
			c-0.8,0.5-0.6,0.9-1.4,1.4c-0.8,0.5-0.9,0.3-1.8,0.8c-0.8,0.5-0.9,0.4-1.7,0.9c-0.8,0.5-0.8,0.5-1.7,0.9c-0.8,0.5-0.7,0.6-1.6,1.1
			C185.9,71.6,186,71.8,185.2,72.3z"/>
		<path class="st1" d="M52.3,164.7c-0.1,0.1-0.2,0.2-0.3,0.3c-0.7,0.6-0.8,0.5-1.6,1.1c-0.7,0.6-0.8,0.5-1.6,1.1
			c-0.7,0.6-0.6,0.7-1.4,1.3c-0.7,0.6-0.9,0.4-1.7,1c-0.7,0.6-0.4,1-1.1,1.6c-0.7,0.6-0.8,0.5-1.5,1.1c-0.7,0.6-0.6,0.8-1.3,1.4
			c-0.4,0.4-0.7,0.8-0.4,1.3c0.2,0.2,0.5,0.1,0.8,0.1c0.2,0,0.4,0.1,0.6-0.1c0.7-0.6,0.8-0.5,1.5-1.2c0.7-0.6,0.6-0.7,1.4-1.3
			c0.7-0.6,0.7-0.6,1.4-1.3c0.7-0.6,0.8-0.6,1.5-1.2c0.7-0.6,0.7-0.6,1.4-1.2c0.7-0.6,1-0.2,1.8-0.8c0.7-0.6,0.6-0.7,1.4-1.3
			c0.5-0.4,0.6-0.5,0.9-0.7c0,0-0.1,0-0.1,0C53.6,165.6,52.9,165.2,52.3,164.7z"/>
		<path class="st1" d="M169.2,69.1c-0.3,0.2-0.5,0.5-0.7,0.8c0.2-0.1,0.4-0.2,0.7-0.4c0.7-0.6,0.8-0.6,1.5-1.2
			c0.7-0.6,0.8-0.5,1.5-1.2c0.7-0.6,0.5-0.9,1.2-1.5c0.7-0.6,0.5-0.9,1.2-1.5c0.7-0.6,0.8-0.5,1.5-1.1s0.6-0.7,1.4-1.3
			c0.7-0.6,1.1-0.2,1.8-0.8c0.7-0.6,0.5-0.9,1.2-1.5c0.7-0.6,0.7-0.6,1.5-1.2c0.7-0.6,0.9-0.4,1.7-1c0.7-0.6,0.9-0.5,1.6-1.1
			c0.4-0.4,0.3-1.2-0.1-1.7c-0.4-0.4-1-0.5-1.4-0.2c-0.7,0.6-0.9,0.4-1.7,1c-0.7,0.6-0.3,1.1-1.1,1.7c-0.7,0.6-0.7,0.6-1.4,1.2
			c-0.7,0.6-0.8,0.5-1.6,1.1c-0.7,0.6-0.9,0.4-1.6,1.1c-0.7,0.6-0.8,0.5-1.5,1.1c-0.7,0.6-0.5,0.9-1.2,1.5c-0.7,0.6-0.7,0.6-1.4,1.2
			c-0.1,0.1-0.2,0.2-0.3,0.2C171.8,66.2,170.9,67.7,169.2,69.1z"/>
		<path class="st1" d="M66.7,172c0.6-0.7,0.5-0.8,1.2-1.5c0.6-0.7,0.7-0.7,1.3-1.4c0.6-0.7,0.3-1,0.9-1.7c0.6-0.7,0.9-0.5,1.5-1.2
			c0.6-0.7,0.4-0.9,1-1.6c0.6-0.7,0.5-0.8,1.1-1.5c0.4-0.4,0.4-0.7-0.1-1.1c-0.4-0.4-0.9-0.5-1.2,0c-0.6,0.7-0.9,0.5-1.5,1.2
			c-0.6,0.7-0.2,1.1-0.8,1.8c-0.6,0.7-0.7,0.6-1.4,1.3c-0.6,0.7-0.8,0.6-1.4,1.3c-0.6,0.7-0.7,0.7-1.3,1.4c-0.6,0.7-0.4,0.9-1,1.7
			c-0.6,0.7-0.5,0.8-1.1,1.5c-0.6,0.7-1,0.4-1.6,1.1c-0.6,0.7-0.5,0.8-1.2,1.5c-0.6,0.7-0.7,0.7-1.3,1.4c-0.6,0.7-0.7,0.7-1.3,1.4
			c-0.6,0.7-0.6,0.8-1.2,1.5c-0.6,0.7-0.5,0.8-1.1,1.5c-0.6,0.7-0.2,1.1-0.8,1.8c-0.6,0.7-0.9,0.5-1.5,1.2c-0.6,0.7-0.9,0.5-1.5,1.2
			c-0.6,0.7-0.4,0.9-1,1.6c-0.6,0.7-0.5,0.8-1.1,1.6c-0.6,0.7-0.8,0.6-1.4,1.3c-0.6,0.7-0.5,0.9-1.1,1.6c-0.6,0.7-0.6,0.7-1.2,1.5
			c-0.6,0.7-0.8,0.6-1.4,1.3c-0.6,0.7-0.3,1-0.9,1.7c-0.6,0.7-0.6,0.7-1.2,1.4c-0.6,0.7-0.9,0.5-1.5,1.2c-0.6,0.7-0.3,1-0.9,1.7
			c-0.6,0.7-0.9,0.5-1.5,1.2c-0.4,0.4-0.2,0.9,0.3,1.3c0.2,0.2,0.3,0.7,0.5,0.7c0.3,0,0.7-0.4,0.9-0.6c0.6-0.7,0.5-0.8,1.1-1.6
			c0.6-0.7,0.7-0.7,1.3-1.4c0.6-0.7,0.5-0.8,1.1-1.5c0.6-0.7,0.4-0.9,1-1.6c0.6-0.7,1.1-0.3,1.7-1.1c0.6-0.7,0.2-1,0.9-1.8
			c0.6-0.7,0.7-0.7,1.3-1.4c0.6-0.7,0.9-0.5,1.5-1.2c0.6-0.7,0.1-1.2,0.7-1.9c0.6-0.7,1-0.4,1.6-1.1c0.6-0.7,0.7-0.6,1.4-1.3
			c0.6-0.7,0.3-1,0.9-1.7c0.6-0.7,0.5-0.8,1.1-1.5c0.6-0.7,0.6-0.7,1.2-1.4c0.6-0.7,0.5-0.8,1.1-1.5c0.6-0.7,0.6-0.8,1.2-1.5
			c0.6-0.7,0.6-0.7,1.2-1.5c0.6-0.7,1.1-0.3,1.7-1c0.6-0.7,0.2-1,0.8-1.8c0.6-0.7,0.6-0.7,1.3-1.4C65.9,172.5,66.1,172.7,66.7,172z"
			/>
		<path class="st1" d="M161.7,58.3c0.2-0.1,0.4-0.2,0.7-0.3c0.3-0.3,0.4-0.5,0.9-1c0.6-0.7,0.5-0.8,1.2-1.6c0.6-0.7,0.9-0.5,1.6-1.2
			c0.6-0.7,0.3-1,1-1.7c0.6-0.7,0.5-0.8,1.1-1.6c0.6-0.7,0.9-0.5,1.5-1.3c0.6-0.7,0.3-1,0.9-1.8c0.6-0.7,0.7-0.7,1.3-1.5
			c0.6-0.7,0.8-0.6,1.4-1.4c0.6-0.7,0.4-0.9,1-1.7c0.6-0.7,1.1-0.4,1.7-1.1c0.6-0.7,0.5-0.8,1.1-1.6c0.6-0.7,0.8-0.6,1.4-1.3
			c0.6-0.7,0.2-1.1,0.9-1.8c0.6-0.7,0.6-0.8,1.2-1.5c0.6-0.7,0.8-0.6,1.5-1.3c0.6-0.7,0.5-0.8,1.1-1.6c0.6-0.7,0.5-0.9,1-1.6
			c0,0,0.1,0.1,0.2,0.1c-0.1-0.5-0.9-1.1-1.4-1.7c-0.9,0.5-0.8,0.8-1.4,1.5c-0.7,0.8-0.6,0.8-1.3,1.6c-0.7,0.8-0.2,1.2-0.9,1.9
			c-0.7,0.8-0.7,0.8-1.3,1.6c-0.7,0.8-1.2,0.4-1.8,1.2c-0.1,0.3,0.2,0.9,0.2,1.2c-0.1,0-0.4-0.2-0.5-0.2c-0.6,0.7-0.4,0.9-1.1,1.6
			c-0.6,0.7-0.7,0.6-1.3,1.4c-0.6,0.7-0.5,0.8-1.2,1.5c-0.6,0.7-0.7,0.7-1.3,1.4c-0.6,0.7-0.6,0.7-1.2,1.5c-0.6,0.7-0.8,0.6-1.4,1.3
			c-0.6,0.7-0.7,0.6-1.3,1.4c-0.6,0.7-0.4,0.9-1,1.6c-0.6,0.7-0.4,0.9-1,1.6c-0.6,0.7-0.7,0.6-1.3,1.3c-0.6,0.7-0.9,0.5-1.5,1.2
			c-0.6,0.7-0.2,1.1-0.8,1.8c-0.6,0.7-0.7,0.6-1.4,1.3c-0.6,0.7-0.8,0.6-1.4,1.3c-0.5,0.6-0.6,0.7-0.9,1c0.2-0.1,0.5-0.2,0.7-0.3
			C159.6,58.9,160.6,58.7,161.7,58.3z"/>
		<path class="st1" d="M184.3,31.5C184.3,31.5,184.3,31.5,184.3,31.5C184.4,31.5,184.4,31.5,184.3,31.5z"/>
		<path class="st1" d="M184.6,28c0.5,0.5,0.9,0.8,1.4,1.2c0.8-0.5,1-0.2,1.2-1.1c-0.8-0.2-1.2-0.8-1.9-1c-0.9,0.6-0.8,0.9-1.4,1.8
			C184.2,29,184.3,28.7,184.6,28z"/>
		<path class="st1" d="M71.7,188.2c-0.1,0.1-0.1,0.2-0.1,0.2c0.1,0,0.2,0.1,0.4,0.1C72,188.5,71.7,188.2,71.7,188.2z"/>
		<path class="st1" d="M70.5,186.5c-0.7,0.6-0.4,0.9-0.8,1.6c-0.4,0.8-0.2,0.9-0.7,1.7c-0.4,0.8-0.9,0.5-1.3,1.3
			c-0.4,0.8-0.2,0.9-0.7,1.7c-0.4,0.8-0.6,0.7-1,1.5c-0.3,0.5,0.2,0.9,0.7,1.2c0.2,0.1,0.2,0.7,0.3,0.7c0.4,0,0.8-0.3,1-0.7
			c0.5-0.9,0.4-0.9,0.9-1.8c0.5-0.9,0.7-0.8,1.3-1.6c0.5-0.9,0.1-1.1,0.6-2c0.5-0.8,0.4-0.9,0.7-1.6c-0.1,0-0.2-0.1-0.4-0.1
			C71.3,187.5,70.9,186.9,70.5,186.5z"/>
		<path class="st1" d="M75.8,182.5c0.5-0.8,0-1.1,0.5-1.9c0.5-0.8,0.4-0.9,0.9-1.7c0.5-0.8,0.8-0.6,1.3-1.5c0.5-0.8,0.3-0.9,0.8-1.8
			c0.5-0.8,0.5-0.8,1-1.6c0.5-0.8,0.7-0.7,1.2-1.5c0.5-0.8,0.2-1,0.6-1.8c0.5-0.8,0.6-0.8,1.1-1.6c0.5-0.8,0.6-0.7,1.1-1.6
			c0.5-0.8,0.4-0.9,0.9-1.7c0.5-0.8,0.2-1,0.7-1.8c0.5-0.8,0.9-0.6,1.4-1.4c0.5-0.8,0.2-1,0.7-1.8c0.5-0.8,0.6-0.8,1.1-1.6
			c0.3-0.5-0.1-1.3-0.6-1.6c-0.5-0.3-1.1-0.1-1.4,0.4c-0.5,0.9-0.7,0.7-1.2,1.6c-0.5,0.9-0.2,1-0.7,1.9c-0.5,0.9-0.6,0.8-1.1,1.6
			c-0.5,0.8-0.2,1-0.7,1.8c-0.5,0.9-0.4,0.9-0.9,1.8c-0.5,0.8-0.7,0.7-1.2,1.6c-0.5,0.9-0.8,0.7-1.3,1.5c-0.5,0.9-0.5,0.8-1,1.7
			c-0.5,0.9,0,1.1-0.5,2c-0.5,0.9-0.8,0.7-1.3,1.5c-0.5,0.9-0.7,0.8-1.1,1.6c-0.5,0.9-0.5,0.8-1,1.7c-0.5,0.9-0.3,1-0.8,1.8
			c-0.5,0.9-0.2,1-0.7,1.9c-0.5,0.9-1.2,0.6-1.3,1.6c0.7,0,1.4-0.1,2.1,0.1C75,183.1,75.3,183.3,75.8,182.5z"/>
		<path class="st1" d="M143.1,65.6C143.1,65.6,143.1,65.6,143.1,65.6c0.1-0.4,0.1-0.7,0.4-1.3c0.5-0.8,0.3-0.9,0.8-1.8
			c0.5-0.8,0.6-0.8,1.1-1.6c0.5-0.8,0.4-0.9,0.9-1.7c0.5-0.8,1-0.5,1.5-1.4c0.5-0.8,0.5-0.8,1-1.7c0.5-0.8,0.4-0.9,0.8-1.7
			c0.5-0.8,0.3-0.9,0.8-1.8c0.5-0.8,0.4-0.9,0.9-1.7c0.5-0.8,0.7-0.7,1.2-1.5c0.5-0.8,0.2-1,0.7-1.8c0.5-0.8,0.6-0.8,1.1-1.6
			c0.5-0.8,0.2-1,0.7-1.8c0.5-0.8,0.4-0.9,0.9-1.7c0.5-0.8,0.7-0.7,1.2-1.5c0.5-0.8,0.8-0.7,1.3-1.5c0.5-0.8,0.5-0.8,1-1.7
			c0,0-0.3-0.1-0.4-0.1c0.2-0.4,0-1.1,0-1.7c-0.1-0.7-0.1-1.2,0.6-1.2c0.4,0.1,0.7-0.2,1,0c0.1,0,0.2,0.2,0.3,0.1
			c0.3-0.5,0.1-1.4-0.4-1.7c-0.5-0.3-1.5,0-1.8,0.5c-0.5,0.8,0,1.1-0.5,1.9c-0.5,0.8-0.9,0.6-1.4,1.4c-0.5,0.8-0.6,0.8-1.1,1.6
			c-0.5,0.8-0.3,0.9-0.8,1.7c-0.5,0.8-0.6,0.8-1.1,1.6c-0.5,0.8-0.4,0.8-0.9,1.7c-0.5,0.8-0.4,0.8-0.9,1.7c-0.5,0.8-0.5,0.8-1,1.6
			c-0.5,0.8-0.3,0.9-0.8,1.7c-0.5,0.8-0.6,0.7-1.1,1.6c-0.5,0.8-0.1,1-0.6,1.9c-0.5,0.8-0.7,0.7-1.2,1.5c-0.5,0.8-0.6,0.8-1,1.6
			c-0.5,0.8-0.1,1.1-0.5,1.9c-0.5,0.8-0.6,0.7-1.1,1.6c-0.5,0.8-0.5,0.8-0.9,1.7c-0.5,0.8-0.6,0.8-1,1.6c-0.5,0.8-0.6,0.7-1.1,1.5
			c-0.5,0.8-0.3,0.9-0.8,1.7c-0.1,0.1-0.1,0.2-0.2,0.4C141.5,65.3,142.3,65.4,143.1,65.6z"/>
		<path class="st1" d="M92.4,172.5c-0.5-0.2-1.4-0.1-1.6,0.4c-0.3,0.9,0.3,1.1,0,2c-0.3,0.9-1,0.6-1.3,1.5c-0.3,0.9,0.1,1.1-0.2,1.9
			c-0.3,0.9-0.3,0.9-0.7,1.8c-0.3,0.9-0.7,0.8-1,1.6c-0.3,0.9-0.4,0.9-0.7,1.8c-0.3,0.9,0.3,1.1,0,2c-0.3,0.9-0.9,0.7-1.2,1.6
			c-0.3,0.9-0.2,0.9-0.5,1.8c-0.3,0.9-0.1,1-0.4,1.9c-0.3,0.9-0.2,1-0.5,1.9c-0.3,0.9-0.9,0.7-1.3,1.6c-0.3,0.9-0.1,1-0.5,1.9
			c-0.3,0.9,0.1,1-0.3,1.9c-0.3,0.9-0.5,0.8-0.9,1.7c-0.3,0.9-0.2,0.9-0.6,1.8c-0.3,0.9-0.1,1-0.4,1.9c-0.3,0.9-0.9,0.7-1.3,1.6
			c-0.3,0.9-0.3,0.9-0.6,1.8c-0.3,0.9,0.1,1-0.2,1.9c-0.3,0.9-0.3,0.9-0.6,1.8c-0.3,0.9-0.6,0.8-1,1.7c-0.3,0.9-0.5,0.8-0.9,1.7
			c-0.3,0.9,0.3,1.1-0.1,2c-0.3,0.9-0.7,0.8-1,1.6c-0.3,0.9,0,1-0.3,1.9c-0.3,0.9-0.4,0.9-0.7,1.8c-0.2,0.5,0,0.9,0.5,1.1
			c0.1,0,0.2-0.2,0.3-0.2c0.4,0,1,0.1,1.2-0.3c0.3-0.9-0.1-1.1,0.2-1.9c0.3-0.9,0.9-0.7,1.2-1.6c0.3-0.9,0.3-0.9,0.6-1.8
			c0.3-0.9,0.3-0.9,0.6-1.8c0.3-0.9,0.2-0.9,0.5-1.8c0.3-0.9,0.2-0.9,0.6-1.8c0.3-0.9,0.1-1,0.5-1.9c0.3-0.9,0.2-0.9,0.6-1.8
			c0.3-0.9,0.8-0.7,1.1-1.6c0.3-0.9-0.2-1.1,0.2-2c0.3-0.9,0.5-0.8,0.8-1.7c0.3-0.9,0.2-0.9,0.5-1.8c0.3-0.9,0.7-0.8,1-1.7
			c0.3-0.9,0.6-0.8,0.9-1.7c0.3-0.9,0-1,0.3-1.9c0.3-0.9,0.4-0.9,0.7-1.8c0.3-0.9,0.4-0.9,0.7-1.8c0.3-0.9,0.4-0.9,0.7-1.8
			c0.3-0.9,0-1,0.3-1.9c0.3-0.9,0.7-0.8,1-1.7c0.3-0.9,0.4-0.9,0.8-1.7c0.3-0.9,0.3-0.9,0.7-1.8c0.3-0.9-0.2-1.1,0.1-2
			c0.3-0.9,0.8-0.7,1.1-1.6c0.3-0.9,0.4-0.9,0.8-1.8c0.3-0.9,0.2-0.9,0.5-1.8c0.3-0.9,0.5-0.8,0.8-1.7
			C93.5,173.3,92.9,172.7,92.4,172.5z"/>
		<path class="st1" d="M134.3,57.1c0.1,0,0.3,0.1,0.5,0.1c0.4,0,1-0.6,1.1-1c0.3-0.9,0.2-0.9,0.6-1.8c0.3-0.9,0.3-0.9,0.6-1.8
			c0.3-0.9,0.3-0.9,0.6-1.8c0.3-0.9,0.1-1,0.4-1.9c0.3-0.9,0.7-0.8,1-1.7c0.3-0.9,0-1,0.3-1.9c0.3-0.9,0.2-0.9,0.5-1.8
			c0.3-0.9,0.7-0.8,1-1.7c0.3-0.9,0.1-1,0.4-1.9c0.3-0.9,1.1-0.8,0.9-1.7c-1.1-0.3-1.2-1-0.6-1.7c0.3,0,0.7,0.2,1,0.2
			c0.5-0.8,0.8-0.7,1.1-1.6c0.3-0.9-0.2-1.1,0.2-2c0.3-0.9,0.8-0.7,1.2-1.6c0.3-0.9,0.2-0.9,0.5-1.8c0.3-0.9,0.4-0.9,0.7-1.8
			c0.3-0.9,0.2-0.9,0.5-1.8c0.3-0.9,0.2-0.9,0.2-1.8c-0.7,0.2-0.8,0.6-1.1,1.2c-0.2,0.5-0.2,1.1-0.1,1.9c-0.7,0.1-1.3-0.1-1.6-0.3
			c-0.5,0.8-0.5,0.8-0.8,1.7c-0.3,0.9,0.1,1-0.3,1.9c-0.3,0.9-0.6,0.8-1,1.7c-0.3,0.9-0.2,1-0.5,1.9c-0.3,0.9-0.5,0.8-0.8,1.7
			c-0.3,0.9,0,1-0.3,1.9c-0.3,0.9-0.8,0.7-1.2,1.6c-0.3,0.9-0.1,1-0.4,1.9c-0.3,0.9-0.4,0.9-0.7,1.8c-0.3,0.9,0,1-0.3,1.9
			c-0.3,0.9-0.5,0.8-0.9,1.7c-0.3,0.9-0.7,0.7-1.1,1.6c-0.3,0.9,0.3,1.1,0,2c-0.3,0.9-1,0.6-1.3,1.5c-0.3,0.9,0.1,1.1-0.2,2
			c-0.3,0.9-0.3,0.9-0.7,1.8C133.7,56.1,133.8,56.9,134.3,57.1z"/>
		<path class="st1" d="M148.2,22.2c0.5-0.7,0.3-0.9,0.6-1.7c0.3-0.8,0.1-0.9,0.4-1.7c0.3-0.8,0.5-0.8,0.7-1.6c0,0,0.1,0,0.2,0
			c0-0.5,0-0.9,0-1.4c0.2,0-0.1-0.3,0.2-0.3c0.4-0.9,0.4-0.9,0.8-1.9c0.4-1,0.3-1,0.7-1.9c0.4-1,0.9-0.7,1.3-1.7
			c0.4-1-0.3-1.2,0.1-2.2c0.2-0.5,0.2-0.9-0.3-1.1c-0.5-0.2-1.1-0.1-1.3,0.5c-0.3,0.9-0.3,1-0.6,1.9c-0.3,0.9-0.6,0.8-1,1.8
			s-0.1,1-0.5,2c-0.3,0.9-0.2,1-0.6,1.9c-0.3,0.9-0.6,0.9-0.9,1.8c-0.3,0.9,0.2,1.1-0.2,2.1c-0.3,0.9-0.8,0.8-1.1,1.7
			c-0.3,0.9-0.3,1-0.6,1.9c-0.3,0.9-0.7,0.9-0.8,1.9c0.5-0.3,1.2-0.7,1.6-1.1C147.2,22.7,147.6,22.2,148.2,22.2z"/>
		<path class="st1" d="M150,17.1L150,17.1C150.1,17.1,150.1,17.1,150,17.1z"/>
		<path class="st1" d="M104.8,163.8c-0.6-0.1-1,0.2-1.1,0.8c-0.2,0.9-0.3,0.9-0.4,1.9c-0.2,0.9-0.3,0.9-0.4,1.9
			c-0.2,0.9,0,1-0.2,1.9c-0.2,0.9-0.4,0.9-0.6,1.8c-0.2,0.9,0,1-0.2,1.9c-0.2,0.9-0.3,0.9-0.5,1.8c-0.2,0.9,0.2,1,0,1.9
			c-0.2,0.9-0.4,0.9-0.6,1.8c-0.2,0.9,0.2,1,0.1,1.9c-0.2,0.9-0.9,0.8-1,1.7c-0.2,0.9,0.6,1.1,0.4,2c-0.2,0.9-0.9,0.8-1.1,1.7
			c-0.2,0.9,0.5,1,0.3,2c-0.2,0.9-0.4,0.9-0.6,1.8c-0.2,0.9,0.1,1-0.1,1.9c-0.2,0.9-0.2,0.9-0.4,1.9c-0.2,0.9-0.6,0.9-0.8,1.8
			c-0.2,0.9,0.4,1,0.2,2c-0.2,0.9-0.1,1-0.3,1.9c-0.2,0.9-0.5,0.9-0.7,1.8c-0.2,0.9,0,1-0.2,1.9c-0.2,0.9-0.7,0.8-0.9,1.8
			c-0.1,0.6,0.7,0.9,1.2,1c0.1,0,0.1,0.1,0.1,0.1c0.5,0,1-0.1,1-0.6c0.2-0.9,0.1-0.9,0.3-1.9c0.2-0.9-0.2-1,0-1.9
			c0.2-0.9,0.4-0.9,0.5-1.8c0.2-0.9,0.7-0.9,0.8-1.8c0.2-0.9,0-1,0.1-1.9c0.2-0.9-0.2-1,0-1.9c0.2-0.9,0.8-0.8,0.9-1.8
			c0.2-0.9-0.3-1-0.1-2c0.2-0.9,0.2-0.9,0.3-1.9c0.2-0.9,0.3-0.9,0.5-1.8c0.2-0.9,0.4-0.9,0.6-1.8c0.2-0.9,0.1-1,0.3-1.9
			c0.2-0.9-0.2-1-0.1-1.9c0.2-0.9,0.5-0.9,0.7-1.8c0.2-0.9,0.2-0.9,0.4-1.9c0.2-0.9-0.4-1-0.2-2c0.2-0.9,0.3-0.9,0.4-1.9
			c0.2-0.9,0.1-0.9,0.3-1.9c0.2-0.9,0.8-0.8,1-1.8c0.2-0.9-0.5-1.1-0.4-2c0.2-0.9,0.4-0.9,0.5-1.8c0.2-0.9,0.3-0.9,0.5-1.8
			C105.7,164.3,105.3,163.9,104.8,163.8z"/>
		<path class="st1" d="M121.4,64.4c-0.1,0.6,0.1,1,0.7,1.1c0.1,0,0.1,0.4,0.2,0.4c0.5,0,0.9-0.6,1-1.2c0.2-1,0.4-0.9,0.5-1.9
			c0.2-1,0.2-1,0.4-1.9c0.2-1-0.2-1,0-2c0.2-1,0.4-0.9,0.6-1.9c0.2-1-0.3-1-0.1-2c0.2-1,0.1-1,0.3-1.9c0.2-1,0.8-0.8,1-1.8
			c0.2-1-0.3-1-0.1-2c0.2-1,0.1-1,0.3-1.9c0.2-1,0.7-0.9,0.9-1.8c0.2-1,0.1-1,0.3-1.9c0.2-1-0.3-1.1-0.2-2c0.2-1,0.3-0.9,0.4-1.9
			c0.2-1,0.2-1,0.4-1.9c0.2-1,0.4-0.9,0.6-1.9c-0.1,0,0-0.2,0-0.2c0-0.3-0.2-0.3,0-0.4c0.2-0.8,0.3-0.8,0.5-1.6
			c0.1-0.8,0-0.8,0.1-1.6c0.1-0.8,0.4-0.8,0.3-1.6c-0.5-0.3-1-0.8-0.7-1.4c0.3-0.1,0.6,0,0.8,0c0.3-0.9,0-0.9,0.2-1.9
			c0.2-0.9,0.5-0.9,0.6-1.8c0.2-0.9,0-1,0.1-1.9c0.1-0.6-0.1-0.8-0.7-0.9c-0.6-0.1-1.2,0-1.3,0.6c-0.2,1-0.4,0.9-0.5,1.9
			c-0.2,1,0.1,1-0.1,2c-0.2,1-0.4,0.9-0.6,1.9c-0.2,1,0.1,1,0,2c-0.2,1,0,1-0.2,2c-0.2,1-0.1,1-0.3,2c-0.2,1-0.3,1-0.5,1.9
			c-0.2,1-0.4,0.9-0.3,1.9c0.5,0.7,0.5,1.4,1,2.1c-0.7-0.6-1.2-0.3-1.8-0.1c-0.3,0.6,0.2,0.8,0.2,1.4c0,0.3-0.2,0.7-0.3,1.1
			c-0.2,0.9,0,1-0.1,1.9c-0.2,1-0.2,1-0.3,1.9c-0.2,1-0.2,0.9-0.4,1.9c-0.2,1-0.1,1-0.3,1.9c-0.2,1-0.3,0.9-0.4,1.9
			c-0.2,1-0.3,0.9-0.4,1.9c-0.2,1,0,1-0.2,1.9c-0.2,1-0.4,0.9-0.6,1.9c-0.2,1,0,1-0.2,1.9c-0.2,1-0.3,0.9-0.5,1.9
			C121.2,63.4,121.6,63.4,121.4,64.4z"/>
		<path class="st1" d="M57.4,118c0,0,0,0.1,0,0.1C57.5,118.1,57.5,118.1,57.4,118C57.5,118,57.5,118,57.4,118z"/>
		<path class="st1" d="M58.9,121.2c-0.2,0-0.2,0.1-0.3,0.1c0,0.1,0,0.1,0,0.2c0.2,0,0.2-0.1,0.3-0.1
			C58.9,121.4,58.9,121.3,58.9,121.2z"/>
		<path class="st1" d="M57.6,115.9c-0.1,0-0.1,0-0.1,0.1c-0.1,0-0.2,0-0.2,0.1c0,0-0.1,0-0.1,0c0,0,0,0,0,0c0,0.3,0.1,0.6,0.1,0.9
			C57.5,116.7,57.7,116.4,57.6,115.9z"/>
		<path class="st1" d="M58.6,104.5c0,0.1,0,0.1,0,0.1C58.6,104.6,58.7,104.6,58.6,104.5C58.7,104.5,58.7,104.4,58.6,104.5
			C58.6,104.4,58.6,104.5,58.6,104.5z"/>
		<path class="st1" d="M59.7,109.7c0,0.3,0.1,0.5,0.4,0.4c0,0,0,0,0,0c0,0,0,0,0,0C60.1,109.8,60,109.6,59.7,109.7z"/>
		<path class="st1" d="M56.8,113.4c0.1,0.5,0.1,0.9,0.2,1.4c0,0,0,0,0.1,0c0,0.1,0,0.1,0.1,0.1c0,0.1,0,0.1,0,0.2
			c-0.1,0-0.1,0-0.1,0.1c0,0.1,0,0.2,0,0.3c0.1,0,0.1,0.1,0,0.1c0,0.1,0,0.2,0,0.3c0.2,0,0.4,0,0.5-0.1c-0.2-0.3,0.2-0.7-0.2-1
			c0.2-0.2,0.3-0.4,0.4-0.6c-0.1-0.2-0.3-0.3-0.5-0.5c-0.1,0.1-0.2,0.1-0.4,0c0-0.1,0-0.1,0-0.2c0,0,0,0,0,0
			c-0.1-0.1-0.1-0.1-0.2-0.2c0.2-0.2,0.3-0.3,0.5-0.4c0,0,0-0.1,0-0.1c-0.2-0.2-0.5-0.2-0.8-0.3C56.6,112.8,56.7,113.1,56.8,113.4z"
			/>
		<path class="st1" d="M58.8,133.9c0.1-0.1,0.1-0.2,0.2-0.3c0.3,0,0.4,0.2,0.5,0.3c-0.2-0.2-0.5-0.4-0.7-0.5
			C58.8,133.6,58.8,133.7,58.8,133.9z"/>
		<path class="st1" d="M57.9,118.7c0,0,0-0.1,0-0.1c-0.1-0.2-0.1-0.3-0.3-0.4c-0.1,0-0.1,0.1-0.2,0.1c0.1,0.5,0.1,1,0.2,1.5
			c0,0,0,0,0,0c0,0,0-0.1,0-0.1c0.3,0-0.1-0.6,0.3-0.4C58.1,118.9,57.9,119,57.9,118.7z"/>
		<path class="st1" d="M99.2,87.3C99.2,87.3,99.2,87.3,99.2,87.3C99.2,87.3,99.2,87.3,99.2,87.3C99.2,87.3,99.2,87.2,99.2,87.3
			C99.2,87.2,99.2,87.2,99.2,87.3z"/>
		<path class="st1" d="M52.2,100c-0.2,0.1-0.3,0.2-0.5,0.3C52,100.3,52.1,100.1,52.2,100z"/>
		<path class="st1" d="M57.4,108.7c0,0-0.1,0-0.1-0.1C57.3,108.6,57.3,108.7,57.4,108.7C57.3,108.7,57.4,108.7,57.4,108.7z"/>
		<polygon class="st1" points="149.4,79.6 149.2,79.6 149.2,80 149.4,79.9 		"/>
		<path class="st1" d="M149.2,78C149.2,78,149.2,78,149.2,78C149.2,78,149.2,78,149.2,78z"/>
		<path class="st1" d="M149.1,79v-0.2c0-0.1,0-0.2-0.1-0.2c-0.1,0-0.2,0.1-0.3,0.3C148.9,79,149,79,149.1,79z"/>
		<path class="st1" d="M149.2,81.2c-0.1,0-0.2,0.2-0.2,0.5c0.1,0,0.2-0.2,0.4-0.4C149.4,81.3,149.3,81.3,149.2,81.2z"/>
		<path class="st1" d="M148.8,79.5c0,0,0.1,0.1,0.1,0.2c0,0.1,0,0.1-0.1,0.2l-0.1,0.3l0.4-0.5L148.8,79.5z"/>
		<path class="st1" d="M164.5,64.7v-0.6c0,0-0.1,0.1-0.2,0.2c-0.1,0.1-0.1,0.2-0.2,0.3C164.3,64.5,164.5,64.5,164.5,64.7z"/>
		<path class="st1" d="M165,64.5C165.1,64.5,165.1,64.6,165,64.5C165.1,64.5,165.1,64.5,165,64.5z"/>
	</g>
	<g>
		<g>
			<path class="st1" d="M91.2,119.4c-0.6-0.3-1.1-0.7-1.5-1c-0.2-0.2-0.2-0.3-0.2-0.5c0-0.3-0.1-0.6-0.1-0.9c0-0.3,0-0.6,0-0.9
				c0-0.5,0.1-1,0.1-1.4c0-0.5,0-0.9,0-1.4c0-0.6,0.1-1.1,0.1-1.7c0-0.6,0-1.1,0-1.7c0-0.4,0-0.8,0-1.2c0-0.4-0.1-0.8-0.1-1.2
				c0-0.3,0-0.9,0.1-1.9c0-1,0.1-2.1,0.1-3.2c0-1.1,0.1-2.2,0.1-3.2c0-1,0.1-1.6,0.1-1.9c0-0.1,0.1-0.3,0.1-0.6
				c-0.1-1.1-0.2-2.2-0.1-3.3c0.1-1.1,0.1-2.2,0.2-3.3c0-0.4,0.1-0.9,0-1.4c0-0.5,0-1,0-1.5c0-1.1,0-2.1,0-3.2
				c0-1.1,0.1-2.2,0.2-3.3c0-0.3,0.1-0.6,0.1-0.9c0-0.3,0-0.6,0-0.9c-0.2-0.1-0.5-0.2-0.9-0.2c-0.5-0.1-1-0.2-1.5-0.2
				c-0.5-0.1-1-0.2-1.5-0.2c-0.3,0-0.5-0.1-0.5-0.2c-0.1-0.1,0-0.3,0.2-0.6c0.2-0.4,0.5-0.8,0.9-1c0.4-0.2,0.8-0.4,1.3-0.6
				c0.4-0.1,0.9-0.2,1.3-0.3c0.4-0.1,0.9-0.2,1.3-0.4c0-1.4,0.1-2.9,0.1-4.3c0-1.4,0-2.9,0.1-4.3c-0.2-0.1-0.5-0.2-0.7-0.2
				c-0.2-0.1-0.5-0.1-0.8-0.2c-2.4-0.5-4.8-1-7.2-1.5c-0.7-0.2-1.5-0.1-2.1,0.3c-0.7,0.4-1.3,0.9-1.7,1.5c-0.4,0.6-0.7,1.3-0.7,2.1
				s0.1,1.5,0.6,2.1c0.2,0.4,0.5,0.8,0.8,1.2c0.3,0.4,0.7,0.7,1.1,1c0.8,0.6,1.7,0.9,2.6,1c0.3,0.1,0.6,0.2,0.9,0.2
				c0.3,0.1,0.6,0.2,1,0.2c0.2,0.1,0.4,0.3,0.4,0.5c0,0.2-0.1,0.4-0.3,0.5c-0.1,0.1-0.2,0.1-0.3,0.2c-0.1,0-0.3,0.1-0.4,0.1
				c-0.7,0.1-1.5,0.2-2.3,0.3c-0.8,0.1-1.6-0.1-2.2-0.4c-1-0.6-1.9-1.2-2.7-2c-0.8-0.8-1.3-1.8-1.5-3c-0.1-0.5-0.1-1,0-1.5
				c0.1-0.5,0.2-1,0.4-1.4c0.7-1.6,1.7-2.8,3-3.9c1.3-1,2.7-1.8,4.2-2.4c0.5-0.2,1.1-0.3,1.7-0.4c0.6-0.1,1.1-0.1,1.7-0.2h3.9
				c2.3,0,4.6,0.3,6.9,0.7c0.7,0.1,1.4,0.3,2.1,0.5c0.7,0.2,1.4,0.4,2.1,0.5c1.5,0.4,3.1,0.5,4.8,0.4c0.5,0,1,0,1.5-0.1
				c0.5-0.1,1-0.2,1.5-0.3c0.7-0.1,1.3-0.4,1.8-0.9c0.5-0.4,1-1,1.3-1.5c0.1-0.2,0.3-0.4,0.4-0.7c0.2-0.3,0.5-0.4,0.8-0.3
				c0,0.3,0,0.7,0,1c0.1,0.3,0.1,0.7,0,1.1c-0.1,0.6-0.3,1.1-0.6,1.5c-0.3,0.4-0.6,0.8-1,1.3c-0.2,0.2-0.3,0.4-0.5,0.6
				c-0.1,0.2-0.3,0.3-0.5,0.5c-0.5,0.4-1.1,0.7-1.7,1c-3.8,1.3-7.5,1.8-11.3,1.5h-0.7c0,0-0.1,0-0.2,0.1c0,0.5,0,1,0,1.5
				c0,0.5,0,1,0,1.6c0,0.3,0,0.7-0.1,1c0,0.4-0.1,0.7-0.1,1.1c0,0.3-0.1,0.6-0.1,0.9c0,0.3,0,0.6,0,0.9c0,0.3,0,0.5,0.1,0.6
				c0.1,0.1,0.3,0.2,0.6,0.3c0.4,0.1,0.9,0.2,1.3,0.3c0.4,0.1,0.9,0.2,1.3,0.3c0.2,0.1,0.5,0.1,0.7,0.2c0.2,0,0.5,0.1,0.7,0.1
				c0.2,0,0.5,0.1,0.8,0.1s0.5,0,0.8,0c0.3,0,0.6,0.1,0.9,0.1c0.3,0,0.6,0,0.9,0c0,0.3,0.1,0.5,0.1,0.8c0,0.2,0.1,0.5,0.1,0.7
				c0,0.5-0.2,0.8-0.7,0.9c-0.7,0.2-1.5,0.3-2.3,0.4c-0.8,0.1-1.6,0.1-2.4,0.2c-0.8,0-1.5,0.1-2.4,0.1c-0.3,0-0.5,0-0.6,0.1
				c-0.1,0.1-0.1,0.3-0.1,0.7c0,0.5,0.1,1,0.1,1.5c0,0.5,0.1,1,0.1,1.6c0,0.6,0.1,1.1,0.1,1.7c0,0.6,0,1.1,0,1.7
				c-0.1,1.2-0.2,2.3-0.4,3.4c-0.1,0.7-0.3,1.4-0.4,2c-0.1,0.6-0.3,1.3-0.4,2c-0.1,0.3-0.1,0.7-0.2,1c0,0.3-0.1,0.7-0.1,1
				c0,0.2-0.1,0.4-0.1,0.5c0,0.1-0.1,0.3-0.1,0.5c0,0.1-0.1,0.2-0.1,0.3c0,0.1-0.1,0.2-0.1,0.3c0,0.2,0,0.7,0,1.6
				c0,0.9-0.1,1.8-0.1,2.9c-0.1,1-0.1,2-0.2,2.9c-0.1,0.9-0.2,1.4-0.3,1.5c0,0.7-0.1,1.3-0.4,1.8c-0.1,0.2-0.1,0.4-0.1,0.7
				c0,0.3,0,0.5-0.2,0.7c-0.1,0.1-0.1,0.2,0.1,0.3c0.2,0.4,0.2,0.8,0,1.2v0.2c0.2,0.5,0.2,1,0.1,1.4c-0.2,0.5-0.3,0.9-0.3,1.4
				c0,0.3-0.1,0.6-0.2,0.9c-0.1,0.3-0.2,0.6-0.2,0.9c-0.2,0.5-0.5,1.1-0.9,1.7c-0.1,0.2-0.3,0.4-0.5,0.6c-0.2,0.2-0.4,0.4-0.5,0.6
				c-0.1,0.1-0.2,0.2-0.3,0.4C91.5,119,91.4,119.2,91.2,119.4z"/>
			<path class="st1" d="M107.5,107.3c0-0.4,0.1-0.8,0.1-1.2c0-0.4,0-0.8,0.1-1.2c0.1-0.5,0.1-1,0.2-1.4c0-0.5,0.1-0.9,0.2-1.4
				c0-0.2,0.1-0.4,0.1-0.5c0-0.1,0-0.3,0-0.5c0.1-0.7,0.2-1.3,0.4-1.9c0.2-0.6,0.4-1.2,0.5-1.7c0.1-0.4,0.2-0.7,0.3-1
				c0.1-0.3,0.1-0.6,0.2-1c0-0.1,0.1-0.2,0.1-0.4c0.1-0.8-0.2-1.4-1-1.8c-0.4-0.2-0.8-0.4-1.2-0.6c-0.4-0.2-0.8-0.4-1.2-0.6
				c-0.4-0.3-0.8-0.5-1.2-0.8c-0.4-0.2-0.8-0.5-1.1-0.8c-0.6-0.5-1.2-1-1.6-1.5c-0.5-0.6-0.8-1.2-1-2c0-0.2-0.1-0.4-0.1-0.6
				c0-0.2-0.1-0.4-0.1-0.5c-0.1-1.2-0.1-2.5,0.2-3.7c0.1-0.3,0.2-0.7,0.3-1c0.1-0.3,0.3-0.7,0.5-1c0.1-0.1,0.1-0.2,0.2-0.4
				c0-0.1,0.1-0.2,0.2-0.4c0.2-0.3,0.3-0.6,0.3-0.7c0.1-0.2,0.2-0.5,0.4-0.6c0.2-0.2,0.3-0.3,0.5-0.6c0.2-0.2,0.3-0.4,0.4-0.5
				c0.3-0.3,0.6-0.5,0.9-0.6c0.3-0.1,0.7-0.1,1-0.1c0.3,0,0.7,0,1,0.1c0.3,0,0.6,0.1,0.9,0.2c0.3,0.1,0.5,0.1,0.8,0.2
				c0.2,0,0.5,0.2,0.8,0.4c0.1,0.1,0.2,0.2,0.3,0.3c0.1,0.1,0.2,0.2,0.3,0.2c0.3,0.2,0.5,0.4,0.6,0.7c0.1,0.3,0.2,0.6,0.1,0.8
				c0,0.3,0,0.5,0.1,0.7c0,0.1,0,0.2,0,0.4c0,0.1-0.1,0.2-0.1,0.4c0,0.2-0.1,0.3-0.1,0.4c0,0.1,0,0.2,0,0.3c0,0.2-0.1,0.4-0.2,0.9
				c-0.1,0.2-0.2,0.4-0.3,0.6c-0.1,0.2-0.2,0.4-0.3,0.6c-0.1,0.2-0.2,0.4-0.3,0.6c-0.1,0.2-0.3,0.4-0.4,0.6c-0.5,0.8-1,1.5-1.7,2
				l-0.4,0.4c-0.2,0.2-0.2,0.3-0.1,0.5c0.3,0.5,0.7,0.9,1,1.4c0.4,0.4,0.8,0.8,1.3,1c0.4,0.2,0.8,0.4,1.1,0.5
				c0.3,0.1,0.7,0.3,1.1,0.5c0.6,0.2,1.2,0.6,1.9,1c0.2,0.2,0.4,0.3,0.6,0.5c0.2,0.2,0.4,0.4,0.5,0.6c0.1,0.2,0.2,0.4,0.3,0.6
				c0.1,0.2,0.1,0.4,0.1,0.6c-0.1,0-0.1,0.1-0.1,0.1c0,0,0.1,0.1,0.1,0.2c0.1,0.3,0.1,0.6,0.1,0.9c0,0.3,0,0.6-0.1,0.9v0.1
				c0.1,0.3,0.1,0.6-0.1,0.8c-0.1,0.2-0.2,0.5-0.2,0.8c0,0.2-0.1,0.3-0.2,0.6c-0.1,0.2-0.2,0.4-0.3,0.6c0,0.2-0.1,0.4-0.1,0.6
				c0,0.2-0.1,0.4-0.2,0.6c-0.1,0.5-0.2,1-0.3,1.4c-0.1,0.5-0.2,0.9-0.3,1.4c-0.2,0.5-0.3,1.1-0.3,1.6c0,0.6-0.1,1.1-0.1,1.6
				c0,0.2,0,0.5,0,0.7c0,0.2,0,0.5,0,0.7c0,0.3,0.1,0.5,0.2,0.8c0.1,0.2,0.1,0.5,0.2,0.7c0.1,0.4,0.1,0.8,0.2,1.2
				c0,0.3,0.2,0.7,0.4,1.1c0.2,0.4,0.5,0.8,0.9,1.2c0.4,0.4,0.8,0.4,1.2,0.2c0.2-0.1,0.4-0.3,0.5-0.4s0.3-0.3,0.4-0.5
				c0.1-0.1,0.2-0.2,0.2-0.4c0.2-0.3,0.3-0.6,0.5-0.9c0.2-0.3,0.3-0.6,0.6-0.9c0-0.1,0-0.2,0.1-0.4c0.2-0.5,0.5-0.9,0.7-1.4
				c0.2-0.5,0.4-1,0.6-1.4c0-0.1,0.1-0.2,0.1-0.2c0-0.1,0-0.1,0.1-0.2c0.2-0.4,0.3-0.9,0.5-1.3c0.2-0.4,0.3-0.9,0.6-1.3
				c0.1-0.3,0.2-0.6,0.3-0.9c0.1-0.3,0.3-0.6,0.3-0.9c0.1-0.2,0.2-0.5,0.2-0.7c0.1-0.2,0.2-0.4,0.2-0.7c0.1-0.4,0.3-0.9,0.4-1.3
				c0.1-0.4,0.3-0.8,0.5-1.3c0.1-0.3,0.2-0.7,0.2-1c0.1-0.4,0.1-0.7,0.2-1c0.1-0.2,0.2-0.4,0.2-0.6c0.1-0.2,0.1-0.4,0.2-0.6
				c0.1-0.2,0.1-0.4,0.2-0.6c0-0.2,0.1-0.4,0.2-0.6c0.2-0.6,0.4-1.1,0.6-1.6s0.4-1,0.6-1.4c0.2-0.5,0.5-1,0.8-1.3
				c0.1-0.1,0.2-0.2,0.4-0.2s0.3,0.1,0.4,0.2l0.1,0.1c-0.1,0.2-0.1,0.4-0.1,0.6c0,0.2,0,0.4,0,0.5c0,0.1,0,0.2,0,0.3
				c0,0.1,0,0.3-0.1,0.3c0,0.1-0.1,0.2-0.1,0.3c0,0.3,0,0.6-0.1,0.9c-0.1,0.3-0.2,0.5-0.2,0.8c-0.1,0.3-0.3,0.6-0.4,0.9
				c-0.2,0.6-0.4,1.2-0.6,1.8c-0.2,0.6-0.4,1.1-0.6,1.7c0,0.2-0.2,0.6-0.4,1.3c-0.2,0.7-0.5,1.4-0.9,2.3c-0.3,0.9-0.7,1.7-1,2.6
				c-0.3,0.9-0.6,1.5-0.8,2c-0.2,0.3-0.3,0.6-0.4,0.9c-0.1,0.3-0.2,0.6-0.3,0.9c0,0.2-0.2,0.5-0.4,0.9c-0.2,0.4-0.4,0.7-0.6,1.1
				c-0.2,0.4-0.3,0.8-0.6,1.2c0,0.1-0.1,0.2-0.1,0.3c0,0.1-0.1,0.2-0.2,0.3c0,0.1-0.1,0.2-0.1,0.2c0,0.1-0.1,0.2-0.2,0.2
				c-0.1,0.2-0.3,0.4-0.4,0.5c-0.1,0.1-0.3,0.3-0.4,0.4c-0.2,0.2-0.4,0.3-0.5,0.5c-0.1,0.2-0.3,0.4-0.5,0.5
				c-0.1,0.1-0.2,0.1-0.3,0.2c-0.1,0-0.2,0.1-0.2,0.2c-0.2,0.1-0.6,0.2-0.9,0.4c-0.2,0.2-0.4,0.3-0.7,0.3c-0.1,0-0.1,0.1-0.2,0.1
				c0,0-0.1,0-0.2,0.1c-0.4,0.4-0.8,0.5-1.3,0.3c-0.3,0-0.6-0.1-0.9-0.2c-0.2,0-0.5-0.1-0.7-0.2c-0.2-0.1-0.4-0.2-0.6-0.3
				c-1.3-0.8-2.2-1.9-2.6-3.4c-0.1-0.5-0.1-0.9-0.2-1.3c0-0.5-0.1-0.9-0.2-1.3c0-0.3-0.1-0.6-0.1-0.9
				C107.5,107.9,107.5,107.6,107.5,107.3z M106.4,86.2c0.2-0.1,0.4-0.3,0.6-0.5c0.2-0.2,0.4-0.4,0.5-0.6c0.1-0.2,0.2-0.3,0.2-0.5
				c0.1-0.2,0.2-0.3,0.3-0.4c0.2-0.2,0.3-0.4,0.4-0.6c0.1-0.2,0.2-0.5,0.3-0.7c0.2-0.3,0.2-0.6,0.2-0.9c0-0.4,0.1-0.8,0.2-1.3
				c0.1-0.4,0.1-0.9,0.2-1.3c0-0.2,0-0.3-0.1-0.4c-0.3-0.5-0.7-0.9-1.3-1.2h-0.2c-0.1,0-0.2,0-0.2,0.1c0,0.1-0.1,0.2-0.2,0.3
				c-0.1,0.1-0.2,0.2-0.2,0.3c-0.2,0.3-0.3,0.6-0.3,0.8c0,0.2-0.1,0.3-0.2,0.5c-0.2,0.3-0.4,0.7-0.5,1.1c-0.1,0.4-0.2,0.8-0.2,1.3
				c0,0.1-0.1,0.1,0,0.2c0,0,0,0.1,0,0.2v0.6c0,0.2,0,0.4,0,0.6c0,0.2,0,0.5-0.1,0.7c0,0.2,0,0.5,0.1,0.8
				C106.2,85.6,106.3,85.9,106.4,86.2z"/>
			<path class="st1" d="M139.5,89c0,0.1,0.2,0.2,0.4,0.4c-0.1,0.2-0.2,0.4-0.2,0.5c-0.5,0.6-0.8,1.2-1.2,2c-0.1,0.1-0.1,0.2-0.1,0.2
				c0,0.4-0.1,0.7-0.3,0.9c-0.2,0.3-0.3,0.6-0.4,0.9c-0.2,0.2-0.4,0.4-0.5,0.7c-0.1,0.3-0.3,0.6-0.5,0.8c-0.4,0.6-0.9,1.2-1.2,1.8
				c-0.4,0.6-0.7,1.2-1.1,1.8c-0.4,0.6-0.8,1.2-1.3,1.7c-0.5,0.6-1,1.1-1.6,1.5c-0.5,0.4-1,0.7-1.5,1.1c-0.5,0.4-1,0.7-1.5,1
				c-0.5,0.3-1.1,0.6-1.6,0.7c-0.6,0.2-1.2,0.3-1.8,0.2c-0.4,0-0.9-0.1-1.3-0.3c-0.5-0.1-0.9-0.3-1.3-0.4l-0.2-0.1
				c-0.4-0.2-0.7-0.5-1-0.8s-0.6-0.6-0.9-0.9c-0.7-1.1-1.1-2.4-1.2-3.8c0-0.8-0.1-1.6,0-2.4c0-0.8,0.1-1.5,0.2-2.4
				c0.1-0.5,0.1-1,0.2-1.5c0-0.5,0.1-1,0.1-1.5c0-0.1,0-0.2,0-0.3c0-0.1,0.1-0.2,0.1-0.3c0.1-0.5,0.2-1,0.3-1.5
				c0.1-0.5,0.2-1,0.3-1.5c0.2-0.7,0.4-1.3,0.6-1.9c0.2-0.6,0.5-1.2,0.7-1.8c0-0.1,0.1-0.2,0.1-0.2c0-0.1,0.1-0.2,0.1-0.2
				c0.2-0.2,0.4-0.4,0.5-0.6c0.1-0.2,0.2-0.4,0.3-0.6c0,0,0-0.1,0-0.1c0,0,0-0.1,0-0.1c0.1-0.5,0.3-0.8,0.6-1.2
				c0.3-0.3,0.6-0.7,0.9-1c0.1-0.1,0.3-0.2,0.4-0.3c0.5-0.3,1.1-0.5,1.6-0.7c0.5-0.2,1.1-0.3,1.7-0.4c0.3-0.1,0.7-0.2,1-0.2
				s0.7-0.1,1,0c0.3,0,0.6,0,1,0.1c0.1,0,0.1,0,0.2,0c0,0,0.1,0,0.2,0c1,0,1.6,0.5,2,1.2c0.3,0.8,0.5,1.7,0.4,2.7
				c-0.1,1-0.4,2-0.8,3c-0.4,1-0.9,1.6-1.4,2.1c-0.2,0.1-0.3,0.2-0.5,0.3c-0.2,0.1-0.3,0.2-0.4,0.4c-0.1,0.1-0.2,0.2-0.3,0.2
				c-0.2,0.1-0.3,0.2-0.5,0.2c-0.1,0.1-0.3,0.2-0.5,0.2c-0.4,0.1-0.7,0.2-1.1,0.4c-0.3,0.1-0.7,0.2-1,0.3c-0.6,0.1-0.9,0.2-1,0.2
				s-0.2,0.3-0.3,0.8c0,0.2-0.1,0.3-0.1,0.4c0,0.1,0,0.2,0,0.4c0,0.8-0.1,1.7-0.2,2.6c-0.1,1-0.3,2-0.4,2.9c-0.1,1-0.1,1.9-0.1,2.9
				c0.1,0.9,0.3,1.7,0.8,2.4c0.3,0.4,0.7,0.7,1.2,0.9c0.2,0.1,0.4,0.1,0.8,0.1c0.7-0.2,1.2-0.5,1.6-0.8c0.4-0.2,0.7-0.5,1.1-0.7
				c0.3-0.2,0.7-0.5,1-0.7c0.3-0.2,0.6-0.5,0.8-0.8c0.4-0.5,0.7-1,1.1-1.4c0.3-0.5,0.7-1,0.9-1.6c0.1-0.1,0.2-0.2,0.2-0.3
				c0.1-0.1,0.1-0.2,0.2-0.3c0.5-0.6,0.9-1.2,1.3-1.8c0.4-0.7,0.8-1.3,1.2-1.9c0.2-0.2,0.3-0.4,0.3-0.6c0.2-0.5,0.4-0.9,0.7-1.4
				c0.3-0.4,0.6-0.9,0.9-1.3C139,89.1,139.2,89,139.5,89z M132,81.9c-0.3-0.3-0.5-0.7-0.6-1.1c0-0.1-0.1-0.2-0.2-0.3
				c-0.3-0.3-0.7-0.6-1-0.7c-0.3-0.2-0.7-0.2-1.2-0.1c-0.7,0.1-1.2,0.5-1.4,1.1c-0.1,0.3-0.3,0.7-0.4,1c-0.1,0.3-0.2,0.7-0.3,1.1
				c0,0.2-0.1,0.4-0.2,0.6c-0.2,0.3-0.3,0.7-0.3,1c0,0.4-0.1,0.7-0.2,1c0,0.3-0.1,0.6-0.1,0.8c0,0.2-0.1,0.5-0.2,0.7
				c-0.1,0.2-0.1,0.4-0.2,0.5c0,0.1,0,0.3,0.1,0.5c1.1-0.1,2-0.4,2.9-0.8c0.7-0.3,1.1-0.7,1.5-1.2c0.3-0.4,0.5-0.7,0.8-1.1
				c0.2-0.4,0.5-0.8,0.7-1.2c0.1-0.2,0.1-0.4,0.1-0.5c0-0.2,0-0.5,0.1-0.9c0-0.1,0.1-0.2,0.1-0.3C132,82.1,132,82,132,81.9z"/>
			<path class="st1" d="M153.5,89c0,0.1,0.2,0.2,0.4,0.4c-0.1,0.2-0.2,0.4-0.2,0.5c-0.5,0.6-0.8,1.2-1.2,2c-0.1,0.1-0.1,0.2-0.1,0.2
				c0,0.4-0.1,0.7-0.3,0.9c-0.2,0.3-0.3,0.6-0.4,0.9c-0.2,0.2-0.4,0.4-0.5,0.7c-0.1,0.3-0.3,0.6-0.5,0.8c-0.4,0.6-0.9,1.2-1.2,1.8
				c-0.4,0.6-0.7,1.2-1.1,1.8c-0.4,0.6-0.8,1.2-1.3,1.7c-0.5,0.6-1,1.1-1.6,1.5c-0.5,0.4-1,0.7-1.5,1.1c-0.5,0.4-1,0.7-1.5,1
				c-0.5,0.3-1.1,0.6-1.6,0.7c-0.6,0.2-1.2,0.3-1.8,0.2c-0.4,0-0.9-0.1-1.3-0.3c-0.5-0.1-0.9-0.3-1.3-0.4l-0.2-0.1
				c-0.4-0.2-0.7-0.5-1-0.8c-0.3-0.3-0.6-0.6-0.9-0.9c-0.7-1.1-1.1-2.4-1.2-3.8c0-0.8-0.1-1.6,0-2.4s0.1-1.5,0.2-2.4
				c0.1-0.5,0.1-1,0.2-1.5c0-0.5,0.1-1,0.1-1.5c0-0.1,0-0.2,0-0.3c0-0.1,0.1-0.2,0.1-0.3c0.1-0.5,0.2-1,0.3-1.5
				c0.1-0.5,0.2-1,0.3-1.5c0.2-0.7,0.4-1.3,0.6-1.9c0.2-0.6,0.5-1.2,0.7-1.8c0-0.1,0.1-0.2,0.1-0.2s0.1-0.2,0.1-0.2
				c0.2-0.2,0.4-0.4,0.5-0.6c0.1-0.2,0.2-0.4,0.3-0.6c0,0,0-0.1,0-0.1c0,0,0-0.1,0-0.1c0.1-0.5,0.3-0.8,0.6-1.2
				c0.3-0.3,0.6-0.7,0.9-1c0.1-0.1,0.3-0.2,0.4-0.3c0.5-0.3,1.1-0.5,1.6-0.7c0.5-0.2,1.1-0.3,1.7-0.4c0.3-0.1,0.7-0.2,1-0.2
				c0.3-0.1,0.7-0.1,1,0c0.3,0,0.6,0,1,0.1c0.1,0,0.1,0,0.2,0c0,0,0.1,0,0.2,0c1,0,1.6,0.5,2,1.2c0.3,0.8,0.5,1.7,0.4,2.7
				c-0.1,1-0.4,2-0.8,3c-0.4,1-0.9,1.6-1.4,2.1c-0.2,0.1-0.3,0.2-0.5,0.3c-0.2,0.1-0.3,0.2-0.4,0.4c-0.1,0.1-0.2,0.2-0.3,0.2
				c-0.2,0.1-0.3,0.2-0.5,0.2c-0.1,0.1-0.3,0.2-0.5,0.2c-0.4,0.1-0.7,0.2-1.1,0.4c-0.3,0.1-0.7,0.2-1,0.3c-0.6,0.1-0.9,0.2-1,0.2
				c-0.1,0.1-0.2,0.3-0.3,0.8c0,0.2-0.1,0.3-0.1,0.4c0,0.1,0,0.2,0,0.4c0,0.8-0.1,1.7-0.2,2.6c-0.1,1-0.3,2-0.4,2.9
				c-0.1,1-0.1,1.9-0.1,2.9c0.1,0.9,0.3,1.7,0.8,2.4c0.3,0.4,0.7,0.7,1.2,0.9c0.2,0.1,0.4,0.1,0.8,0.1c0.7-0.2,1.2-0.5,1.6-0.8
				c0.4-0.2,0.7-0.5,1.1-0.7c0.3-0.2,0.7-0.5,1-0.7c0.3-0.2,0.6-0.5,0.8-0.8c0.4-0.5,0.7-1,1.1-1.4c0.3-0.5,0.7-1,0.9-1.6
				c0.1-0.1,0.2-0.2,0.2-0.3c0.1-0.1,0.1-0.2,0.2-0.3c0.5-0.6,0.9-1.2,1.3-1.8c0.4-0.7,0.8-1.3,1.2-1.9c0.2-0.2,0.3-0.4,0.3-0.6
				c0.2-0.5,0.4-0.9,0.7-1.4c0.3-0.4,0.6-0.9,0.9-1.3C153,89.1,153.2,89,153.5,89z M146,81.9c-0.3-0.3-0.5-0.7-0.6-1.1
				c0-0.1-0.1-0.2-0.2-0.3c-0.3-0.3-0.7-0.6-1-0.7c-0.3-0.2-0.7-0.2-1.2-0.1c-0.7,0.1-1.2,0.5-1.4,1.1c-0.1,0.3-0.3,0.7-0.4,1
				c-0.1,0.3-0.2,0.7-0.3,1.1c0,0.2-0.1,0.4-0.2,0.6c-0.2,0.3-0.3,0.7-0.3,1c0,0.4-0.1,0.7-0.2,1c0,0.3-0.1,0.6-0.1,0.8
				c0,0.2-0.1,0.5-0.2,0.7c-0.1,0.2-0.1,0.4-0.2,0.5c0,0.1,0,0.3,0.1,0.5c1.1-0.1,2-0.4,2.9-0.8c0.7-0.3,1.1-0.7,1.5-1.2
				c0.3-0.4,0.5-0.7,0.8-1.1c0.2-0.4,0.5-0.8,0.7-1.2c0.1-0.2,0.1-0.4,0.1-0.5c0-0.2,0-0.5,0.1-0.9c0-0.1,0.1-0.2,0.1-0.3
				C145.9,82.1,146,82,146,81.9z"/>
			<path class="st1" d="M73.6,123.9c-0.1,0-0.3-0.1-0.4-0.1c-0.2,0-0.3-0.1-0.6-0.2c-0.1,0-0.2-0.2-0.3-0.4l-0.4-0.9
				c0.4-0.7,0.6-1.4,0.8-2.3c0.2-0.8,0.3-1.6,0.4-2.5c0.1-0.6,0.1-1.1,0-1.7c-0.1-0.5-0.2-1.1-0.3-1.6c-0.1-0.6-0.4-0.9-0.8-1.1
				c-0.4-0.2-0.9-0.2-1.3-0.1s-1,0.3-1.4,0.5c-0.5,0.3-0.8,0.5-1.1,0.8c-0.5,0.4-0.8,0.9-1.1,1.4c-0.3,0.5-0.6,1-0.9,1.6
				c-0.6,1.1-1.1,2.1-1.7,3.2c-0.6,1.1-1.1,2.2-1.5,3.3c-0.3,0.8-0.7,1.6-1,2.5c-0.3,0.8-0.7,1.7-1,2.5c-0.3,0.8-0.6,1.6-0.9,2.4
				c-0.3,0.8-0.5,1.6-0.7,2.4c-0.4,1.7-0.9,3.4-1.4,5.1c-0.5,1.7-0.9,3.4-1.2,5.2c-0.1,0.7-0.2,1.3-0.2,2c-0.1,0.7-0.2,1.3-0.2,2
				c-0.1,0.9-0.1,1.9,0,2.8s0.1,1.8,0.1,2.8c0,0.8,0.2,1.4,0.6,2c0.4,0.6,1,0.9,1.8,1.1c2,0.3,3.9,0.1,5.6-0.7
				c0.8-0.3,1.5-0.8,2.1-1.3c0.6-0.6,1.2-1.1,1.9-1.6c1-0.8,1.9-1.7,2.7-2.6c0.8-0.9,1.7-1.8,2.5-2.8c0.8-0.8,1.6-1.7,2.3-2.5
				c0.7-0.9,1.3-1.8,1.9-2.8c0.6-0.9,1.1-1.9,1.7-2.8c0.6-0.9,1.1-1.9,1.7-2.8c0.1-0.2,0.2-0.4,0.4-0.5c0.3-0.2,0.7-0.3,1-0.4
				c0.4-0.1,0.8-0.2,1.2-0.2c0,0.2-0.1,0.3-0.1,0.6c0,0.1-0.1,0.2-0.2,0.2c-0.1,0.1-0.1,0.1,0,0.2c0.1,0.4,0,0.7-0.1,1
				c-0.2,0.3-0.3,0.6-0.5,0.9c-0.2,0.3-0.3,0.6-0.5,0.9c-0.2,0.3-0.4,0.5-0.6,0.8c-0.9,1.3-1.7,2.6-2.4,4c-0.7,1.4-1.6,2.6-2.6,3.8
				c-2.4,2.7-5,5.3-7.8,7.7c-2.9,2.4-6,4.3-9.4,5.7c-1.7,0.7-3.5,0.8-5.2,0.6c-0.9-0.2-1.7-0.6-2.5-1.2c-0.9-0.7-1.6-1.5-2.1-2.5
				c-0.4-1-0.7-2-0.9-3.1c-0.3-1.7-0.4-3.4-0.4-5.1c0-1.7,0.2-3.4,0.4-5.1c0.2-1.7,0.5-3.4,0.9-5c0.4-1.7,0.8-3.3,1.2-5
				c0.3-1.3,0.6-2.6,0.9-3.8c0.3-1.2,0.7-2.5,1.1-3.7c0.8-2.4,1.7-4.6,2.8-6.8c1-2.2,2.5-4.2,4.4-5.9c1.6-1.5,3.6-2.6,5.8-3.2
				c1.1-0.3,2.2-0.6,3.5-0.9c1.2-0.2,2.4-0.3,3.6-0.1c0.8,0.1,1.4,0.4,1.9,0.9c0.4,0.5,0.7,1.1,0.9,1.8c0.1,0.3,0.1,0.6,0.2,0.9
				c0,0.3,0.1,0.6,0.1,0.9c0,0.3,0.1,0.6,0.1,0.9c0,0.3,0,0.6,0,0.9c0,0.3,0,0.6-0.1,0.8c0,0.3-0.1,0.6-0.2,0.9
				c-0.2,0.6-0.3,1.2-0.4,1.8c-0.1,0.6-0.4,1.2-0.7,1.7c-0.1,0.1-0.1,0.2-0.2,0.3c0,0.1-0.1,0.2-0.2,0.3
				C74.3,122.9,74,123.4,73.6,123.9z"/>
			<path class="st1" d="M83.9,133.4c0,0.3-0.1,0.6-0.4,0.9c-0.1,0.1-0.2,0.2-0.2,0.3c-0.1,0.3-0.2,0.5-0.4,0.6
				c-0.1,0.2-0.1,0.3-0.2,0.4c-0.1,0.1-0.2,0.2-0.2,0.3c-0.1,0.2-0.2,0.4-0.3,0.6c-0.1,0.2-0.1,0.4-0.2,0.7c-0.1,0.5-0.3,1-0.4,1.5
				c-0.1,0.5-0.3,1-0.4,1.5c-0.1,0.3-0.2,0.7-0.3,1c-0.1,0.3-0.2,0.7-0.3,1c-0.1,0.3-0.2,0.7-0.3,1c-0.1,0.3-0.2,0.6-0.3,1
				c0,0,0,0.1-0.1,0.2c-0.2,0.2-0.3,0.5-0.3,0.8c0,0.3-0.1,0.6,0,0.9c0,0.3,0.1,0.7,0.1,1c0,0.3,0.1,0.6,0.1,1
				c0,0.2,0.1,0.4,0.3,0.6c0.1,0.1,0.2,0.2,0.3,0.3c0.1,0.1,0.2,0.2,0.3,0.3c0.2,0.2,0.5,0.2,0.7,0.1c0.4-0.2,0.8-0.3,1.2-0.4
				c0.4-0.1,0.7-0.3,1.1-0.6c0.2-0.1,0.3-0.2,0.5-0.4c0.2-0.1,0.4-0.2,0.5-0.4c0.1-0.1,0.2-0.1,0.3-0.2c0.1-0.1,0.2-0.2,0.3-0.3
				c0.4-0.4,0.7-0.8,1-1.2c0,0,0-0.1,0-0.1c0.1-0.3,0.2-0.5,0.4-0.8c0-0.1,0-0.1,0-0.2c0,0,0-0.1,0-0.2c-0.2-0.1-0.3-0.1-0.4-0.2
				c-0.1-0.1-0.3-0.2-0.4-0.3c-0.8-0.6-1.5-1.2-2.1-1.9c-0.1-0.2-0.2-0.3-0.4-0.5c-0.1-0.2-0.2-0.3-0.3-0.5
				c-0.3-0.6-0.5-1.2-0.5-1.8c0-0.6,0-1.2,0.2-1.8c0.1-0.4,0.2-0.7,0.3-1.1c0.2-0.3,0.3-0.7,0.5-1l0-0.1c0.2-0.1,0.3-0.2,0.5-0.3
				c0.1-0.2,0.3-0.2,0.5-0.3c0.1,0,0.3,0,0.6-0.1c0.3-0.1,0.6,0,0.9,0.1c0.2,0.1,0.5,0.3,0.8,0.4c0.3,0.2,0.7,0.4,1.1,0.6
				c0.4,0.2,0.6,0.5,0.8,0.9c0.2,0.3,0.3,0.6,0.4,0.9c0.1,0.3,0.1,0.6,0.1,0.9c0,0.2,0.1,0.3,0.1,0.4c0,0.1,0,0.2,0.1,0.3
				c0.1,0.3,0.1,0.6,0.1,0.9c0,0.3,0,0.6,0,0.9c0,0.2-0.1,0.5-0.2,0.7c-0.1,0.2-0.2,0.4-0.2,0.6c-0.1,0.2-0.1,0.3-0.1,0.5
				c0,0.2,0,0.3-0.1,0.5c0.1,0,0.1,0,0.2,0c0,0,0.1,0,0.2,0c0.2,0,0.3,0,0.5,0c0.2,0,0.3,0,0.5-0.1c0.9-0.2,1.8-0.5,2.7-1
				c0.9-0.5,1.6-1.1,2.3-1.7c0.1-0.1,0.2-0.2,0.2-0.3c0.1-0.1,0.1-0.1,0.1-0.2c0,0,0.1-0.1,0.1-0.1c0.2-0.1,0.4-0.1,0.5,0
				c0.3,0.1,0.5,0.2,0.6,0.4c-0.1,0.2-0.2,0.4-0.5,0.7c-0.3,0.3-0.5,0.6-0.8,0.9c-0.3,0.3-0.6,0.5-0.9,0.7c-0.3,0.2-0.5,0.4-0.7,0.4
				c-0.4,0.2-0.8,0.4-1.2,0.6c-0.4,0.2-0.8,0.4-1.2,0.6c-0.4,0.2-0.7,0.3-1.1,0.3c-0.3,0.1-0.7,0.1-1.1,0c-0.2-0.1-0.3-0.1-0.5,0
				c-0.2,0-0.3,0.1-0.5,0.1c-0.2,0-0.3,0.2-0.5,0.5c-0.1,0.2-0.2,0.4-0.3,0.7c-0.1,0.2-0.2,0.5-0.3,0.7c-0.2,0.3-0.4,0.6-0.7,0.8
				c-0.3,0.2-0.5,0.5-0.7,0.7c-0.2,0.2-0.3,0.4-0.5,0.6c-0.2,0.2-0.3,0.4-0.5,0.5c-0.2,0.2-0.4,0.3-0.6,0.5
				c-0.2,0.2-0.4,0.3-0.6,0.5c-0.3,0.2-0.6,0.3-0.8,0.5c-0.3,0.2-0.6,0.2-0.9,0.2c-0.3,0-0.7-0.1-1-0.3c-0.3-0.2-0.7-0.3-1-0.5
				c-0.6-0.3-1.2-0.8-1.8-1.3c-0.6-0.5-1.1-1.1-1.4-1.7c-0.2-0.3-0.3-0.7-0.4-1.1c-0.1-0.4-0.1-0.7-0.2-1.1
				c-0.1-0.4-0.1-0.9-0.1-1.3c0-0.4,0-0.8,0-1.3c0.1-0.7,0.3-1.5,0.5-2.3c0.2-0.6,0.4-1.1,0.6-1.6c0.2-0.5,0.5-1.1,0.7-1.6
				c0.1-0.3,0.3-0.6,0.6-0.9c0.2-0.2,0.3-0.3,0.4-0.5c0.1-0.2,0.3-0.4,0.4-0.6c0.2-0.2,0.3-0.3,0.5-0.4c0.2-0.1,0.3-0.2,0.5-0.4
				c0.3-0.2,0.5-0.4,0.8-0.5c0.3-0.2,0.5-0.3,0.8-0.5c0.2-0.1,0.4-0.2,0.7-0.1C83.1,133,83.5,133.2,83.9,133.4z M87.2,143.1
				c0.1-0.1,0.2-0.2,0.3-0.4c0.1-0.1,0.1-0.2,0.1-0.4c0-0.1,0-0.2,0-0.3c0.2-0.2,0.3-0.5,0.4-0.8c0-0.3,0.1-0.6,0-0.9
				c0-0.3-0.1-0.7-0.1-1.1c0-0.4-0.1-0.8-0.3-1.1c-0.1-0.2-0.2-0.4-0.3-0.6c-0.1-0.2-0.2-0.4-0.3-0.7v0c-0.1,0-0.1-0.1-0.1-0.1
				c0,0-0.1,0-0.1,0c-0.1,0-0.2,0.1-0.2,0.2c0,0.1-0.1,0.1-0.1,0.2c0,0.1-0.1,0.2-0.1,0.2c-0.2,0.5-0.4,1-0.5,1.5
				c0,0.1,0,0.2-0.1,0.3c-0.3,0.6-0.3,1.2-0.1,1.8c0.2,0.6,0.5,1.2,0.8,1.6c0.1,0.1,0.2,0.2,0.4,0.4C86.9,143,87,143,87.2,143.1z"/>
			<path class="st1" d="M108.6,138.9c-0.3,1.1-0.5,2.1-0.8,3.2c-0.3,1-0.5,2.1-0.7,3.2c-0.2,1.1-0.4,2.2-0.4,3.3
				c-0.1,1.1-0.1,2.2-0.2,3.3c0,0.2-0.1,0.4-0.1,0.6c0,0.2,0,0.4,0,0.6c0,0.1,0,0.2-0.1,0.3c0,0.1,0,0.2,0,0.2c0,0,0.1,0.1,0.2,0.3
				l0.1-0.1c0.1-0.1,0.1-0.1,0.1-0.1c0,0,0.1-0.1,0.1-0.1c0.3-0.4,0.6-0.9,0.8-1.3c0.3-0.4,0.5-0.9,0.8-1.3c0.3-0.6,0.7-1.2,1-1.8
				c0.3-0.6,0.6-1.2,0.9-1.8c0.3-0.5,0.6-1,0.9-1.5c0.2-0.2,0.4-0.5,0.5-0.8c0.2-0.3,0.3-0.6,0.5-0.9c0.2-0.2,0.3-0.5,0.4-0.7
				c0.1-0.2,0.2-0.5,0.4-0.7c0.1-0.2,0.2-0.3,0.3-0.5c0.1-0.2,0.2-0.3,0.3-0.5c0.1-0.2,0.1-0.3,0.2-0.4c0.1-0.1,0.2-0.3,0.2-0.4
				c0.1-0.2,0.1-0.3,0.2-0.4c0.1-0.1,0.1-0.2,0.2-0.4c0.2-0.2,0.4-0.2,0.6-0.1c-0.1,0.1-0.1,0.2-0.1,0.3s-0.1,0.2-0.1,0.3
				c-0.1,0.2-0.1,0.3-0.2,0.5c0,0.2,0,0.3-0.1,0.5v0.2c-0.1,0.4-0.2,0.8-0.3,1.1c-0.1,0.3-0.2,0.6-0.3,0.8c-0.1,0.3-0.2,0.5-0.4,0.8
				c-0.1,0.2-0.2,0.5-0.4,0.7c-0.1,0.2-0.2,0.4-0.4,0.7c-0.4,0.6-0.7,1.3-1,1.9c-0.3,0.7-0.6,1.3-1,1.9c-0.4,0.7-0.7,1.4-1.1,2.2
				s-0.8,1.4-1.3,2.1c-0.5,0.6-1.2,1.2-2,1.6c-0.8,0.5-1.6,0.6-2.5,0.4c-0.5-0.1-0.9-0.5-1.2-1c-0.1-0.2-0.1-0.4-0.2-0.6
				c-0.1-0.2-0.1-0.4-0.2-0.6c-0.2-1-0.3-2.1-0.3-3.1v-1.2c0.1-1.7,0.3-3.4,0.7-5.2c0.1-0.3,0.1-0.7,0.2-1.1
				c0.1-0.4,0.1-0.7,0.2-1.1c0.1-0.4,0.1-0.9,0.2-1.4c0.1-0.5,0.1-0.9,0.2-1.4c0.1-0.3,0.1-0.7,0.2-1.1c0.1-0.4,0.1-0.7,0.2-1.1
				c0.1-0.4,0.1-0.8,0.2-1.2c0.1-0.4,0.1-0.8,0.1-1.2v-0.2c-0.3,0.1-0.5,0.2-0.6,0.3c-0.1,0-0.1,0.1-0.2,0.2
				c-0.1,0.1-0.1,0.1-0.1,0.2c0,0.1-0.1,0.2-0.1,0.2c-0.1,0.1-0.1,0.1-0.1,0.2c0,0-0.1,0.1-0.1,0.2c-0.3,0.2-0.6,0.5-0.8,1
				c-0.2,0.4-0.4,0.8-0.7,1.1c-0.3,0.4-0.6,0.9-0.9,1.3c-0.3,0.4-0.6,0.8-0.9,1.3c-0.3,0.4-0.5,0.8-0.7,1.2
				c-0.2,0.4-0.4,0.8-0.7,1.3c-0.2,0.4-0.4,0.8-0.6,1.2c-0.2,0.4-0.4,0.8-0.6,1.2c0,0,0,0,0,0c-0.2,0.2-0.3,0.3-0.3,0.5
				c0,0.2-0.1,0.4-0.2,0.6c0,0.2-0.1,0.3-0.1,0.4c-0.1,0.1-0.1,0.3-0.2,0.4c-0.1,0.2-0.1,0.3-0.2,0.4c-0.1,0.1-0.1,0.3,0,0.4
				c0,0.1,0,0.2-0.1,0.3c-0.1,0.2-0.1,0.3-0.2,0.5c-0.1,0.2-0.2,0.4-0.3,0.5c-0.1,0.2-0.2,0.2-0.4,0.2c-0.2-0.1-0.4,0-0.6,0.1
				c-0.1,0.1-0.2,0.1-0.2,0.1c-0.2,0-0.4,0-0.5,0.1s-0.3,0.1-0.4,0.2c-0.3,0.1-0.5,0.2-0.7,0.1c-0.2,0-0.5-0.1-0.7-0.1
				c-0.2,0-0.3-0.2-0.4-0.5c0-0.1,0-0.2,0-0.3c0-0.1,0-0.2,0-0.3c0-0.2-0.1-0.5-0.1-0.7c0-0.2,0-0.4,0-0.7c0-0.2,0-0.4,0-0.5
				c0-0.1,0-0.1,0-0.2c0-0.1,0-0.1,0-0.2c-0.1-0.4-0.1-0.8-0.1-1.2c0-0.4,0-0.8,0-1.2c0-0.2,0-0.3,0-0.4c0-0.2,0-0.5,0-0.8
				c0-0.3,0-0.6,0-0.8v-1.1c0-0.4,0-0.8,0-1.2c0-0.4,0-0.8,0-1.2c0-0.2,0-0.3,0-0.4c0-0.1,0-0.2,0-0.4v-0.3c0.1-0.6,0.1-1.3,0.1-1.9
				c0-0.7,0.1-1.3,0.1-2c0-0.4,0.1-0.8,0.1-1.1c0-0.4,0.1-0.8,0.1-1.1c0-0.2,0.1-0.3,0.1-0.5c0-0.2,0.1-0.3,0.1-0.5
				c0-0.2,0.2-0.4,0.5-0.4c0.6-0.1,1.2,0,1.7,0.2c0.1,0,0.1,0,0.1,0.1c0.1,0.1,0.1,0.2,0.3,0.3c0.1,0.1,0.2,0.1,0.3,0.2
				c0,0.1,0.1,0.2,0.1,0.3c0,0.1,0.1,0.2,0.1,0.3l0.1,0.1c0.4,0.2,0.6,0.5,0.7,1c0,0.3,0,0.6,0,0.9c0,0.3,0,0.6,0.1,0.9
				c0.1,0.3,0.1,0.5,0.2,0.7c0.1,0.2,0.1,0.5,0,0.7c0,0.3-0.1,0.7-0.1,1c0,0.3-0.1,0.6-0.1,0.9c-0.1,0.4-0.1,0.7-0.2,1.1
				c0,0.4-0.1,0.7,0,1.1c0,0.2,0,0.3,0.1,0.4c0,0.1,0.1,0.3,0.1,0.4c0,0.2,0,0.3,0,0.5c0,0.2,0,0.3,0,0.5c0,0.4,0,0.9,0,1.3
				c0,0.2,0,0.4,0,0.5s0,0.3,0,0.5c0.1,0,0.1,0,0.2-0.1c0,0,0-0.1,0.1-0.2c0.2-0.3,0.4-0.7,0.5-1.1c0.2-0.4,0.4-0.7,0.5-1.1
				c0.1-0.1,0.1-0.2,0.2-0.3c0-0.1,0.1-0.2,0.2-0.3c0.1-0.1,0.2-0.3,0.3-0.7c0.1-0.2,0.1-0.3,0.2-0.5c0.1-0.2,0.2-0.4,0.3-0.5
				c0.1-0.1,0.2-0.3,0.3-0.6l1.5-2.8c0.2-0.3,0.3-0.5,0.4-0.7c0.1-0.2,0.3-0.5,0.4-0.7c0.2-0.2,0.3-0.5,0.5-0.7
				c0.2-0.2,0.3-0.5,0.5-0.7c0.4-0.5,0.7-0.8,1-1.1c0.7-0.6,1.5-0.9,2.4-0.8h1.1c0.3,0,0.7,0.1,1,0.3c0.2,0.2,0.3,0.3,0.4,0.4
				c0.1,0.1,0.3,0.3,0.4,0.4c0.2,0.3,0.3,0.4,0.2,0.6c0,0.2,0,0.3,0,0.4c0,0.1,0.1,0.2,0.1,0.4c0.2,0.5,0.2,1,0.3,1.7
				c0,0.7,0,1.3-0.1,1.8c0,0.2-0.1,0.4-0.1,0.7C108.7,138.5,108.7,138.7,108.6,138.9z"/>
			<path class="st1" d="M118,147.6c-0.3-0.4-0.7-0.8-1-1.1c-0.4-0.4-0.8-0.8-1.2-1.1c-0.4-0.4-0.8-0.8-1.2-1.1
				c-0.7-0.7-1.4-1.3-1.9-2c-0.4-0.5-0.8-1.1-1.2-1.6c-0.4-0.5-0.8-1.1-1.1-1.7c-0.4-0.9-0.7-1.9-0.8-2.9c0-0.3,0-0.7,0.1-1
				c0.2-1.1,0.7-2.1,1.5-2.9c0.3-0.4,0.8-0.7,1.4-0.9c0.3-0.1,0.7-0.1,1-0.2c0.3,0,0.6,0,0.9,0.2c0.2,0.1,0.4,0.1,0.5,0.1
				c0.3,0.1,0.6,0.2,0.8,0.3c0.2,0.1,0.5,0.3,0.7,0.4c0.4,0.3,0.4,0.5,0,0.7c-0.2,0.1-0.4,0.1-0.7,0.2c-0.2,0.1-0.5,0.2-0.7,0.2
				c-0.2,0.1-0.3,0.1-0.5,0.2c-0.2,0.2-0.3,0.4-0.5,0.5c-0.2,0.2-0.3,0.4-0.3,0.6c0,0.1-0.1,0.2-0.1,0.3c0,0.1-0.1,0.2-0.1,0.3
				c-0.2,0.3-0.2,0.7-0.1,1.2c0.1,0.2,0.1,0.3,0.2,0.4c0,0.1,0.1,0.3,0.3,0.4c0,0,0,0.1,0,0.1c0.1,0.3,0.3,0.5,0.5,0.7
				c0.2,0.2,0.4,0.5,0.6,0.7c0.1,0.1,0.1,0.1,0.2,0.2c0.1,0.1,0.2,0.1,0.2,0.2c0.4,0.4,0.9,0.8,1.3,1.1c0.5,0.4,0.9,0.8,1.3,1.2
				c0.2,0.3,0.5,0.5,0.7,0.7c0.2,0.2,0.5,0.5,0.7,0.7c0.2,0.2,0.3,0.3,0.4,0.5c0.1,0.2,0.3,0.4,0.4,0.5c0.1,0.1,0.2,0.2,0.3,0.3
				c0.1,0.1,0.2,0.2,0.3,0.3c0.2-0.1,0.5-0.3,0.7-0.5c0.1-0.1,0.2-0.2,0.3-0.3c0.2-0.2,0.5-0.3,0.6-0.5c0.2-0.2,0.4-0.4,0.5-0.6
				c0.2-0.2,0.3-0.3,0.5-0.4c0.2-0.1,0.3-0.3,0.5-0.4c0.3-0.2,0.5-0.5,0.8-0.7c0.3-0.2,0.5-0.5,0.7-0.8c0.1-0.1,0.1-0.1,0.2-0.2
				c0,0,0.1-0.1,0.2-0.2c0.2-0.2,0.3-0.2,0.6-0.1c0.1,0.1,0.2,0.1,0.4,0.1c0.1,0,0.3,0,0.4,0.1c0.2,0.1,0.3,0.3,0.1,0.5l-0.1,0.1
				c-0.1,0.1-0.1,0.2-0.2,0.4c0,0.1-0.1,0.2-0.3,0.3c-0.1,0-0.2,0.1-0.3,0.2s-0.2,0.2-0.3,0.3c-0.2,0.1-0.3,0.2-0.4,0.4
				c-0.1,0.2-0.2,0.3-0.3,0.4c-0.1,0.1-0.1,0.1-0.2,0.2c-0.1,0.1-0.1,0.1-0.2,0.2c-0.1,0.1-0.2,0.3-0.4,0.5
				c-0.1,0.2-0.3,0.4-0.6,0.7c-0.1,0.1-0.2,0.1-0.3,0.2c-0.1,0.1-0.1,0.2-0.2,0.4c0,0,0,0.1-0.1,0.1c0,0-0.1,0.1-0.1,0.1
				c-0.2,0.1-0.2,0.2-0.3,0.2c-0.2,0.2-0.3,0.3-0.4,0.4c-0.1,0.1-0.3,0.3-0.4,0.4c-0.2,0.1-0.2,0.3,0,0.5c0.1,0.1,0.1,0.2,0.2,0.3
				c0.1,0.1,0.1,0.2,0.2,0.3c0.1,0.1,0.1,0.1,0.1,0.2c0,0.1,0.1,0.1,0.1,0.2c0.2,0.3,0.4,0.6,0.5,0.9c0.1,0.3,0.2,0.7,0.4,1
				c0.1,0.4,0.1,0.7,0.1,1c0,0.3,0,0.6,0.1,0.9c0.2,0.4,0.4,0.9,0.4,1.5c0,0.5,0,1.1,0,1.6c-0.1,0.5-0.1,1.1-0.3,1.6
				c-0.1,0.5-0.2,1-0.3,1.5c-0.3,1-0.8,1.8-1.4,2.4c-0.6,0.6-1.3,1.2-2,1.8c-0.4,0.4-1,0.7-1.8,0.8c-0.7,0.1-1.4,0.2-2,0.1
				c-0.7-0.1-1.3-0.3-1.8-0.6c-0.5-0.3-1-0.7-1.5-1.2c-0.1-0.1-0.2-0.2-0.3-0.2c-0.1-0.1-0.2-0.1-0.3-0.2c-0.1-0.1-0.2-0.2-0.2-0.3
				c-0.1-0.2-0.2-0.3-0.4-0.4c-0.1-0.1-0.2-0.3-0.3-0.5c-0.2-1.2-0.1-2.4,0.3-3.7c0.4-1.3,1-2.4,1.8-3.4c0.1-0.1,0.2-0.3,0.3-0.4
				c0.1-0.1,0.2-0.3,0.3-0.4c0.2-0.2,0.3-0.3,0.4-0.5c0.1-0.2,0.2-0.3,0.4-0.5c0.3-0.3,0.7-0.7,1-1c0.3-0.3,0.6-0.7,1-1.1
				c0.1-0.1,0.1-0.1,0.2-0.2C117.9,147.7,117.9,147.7,118,147.6z M118.9,148.9c-0.2,0.1-0.4,0.2-0.6,0.4c-0.2,0.2-0.3,0.3-0.5,0.5
				c-0.1,0.2-0.2,0.3-0.3,0.4c-0.1,0.1-0.2,0.2-0.4,0.4c-0.1,0.1-0.2,0.2-0.3,0.3c-0.1,0.1-0.2,0.2-0.3,0.3c0,0.1-0.1,0.2-0.3,0.3
				c-0.3,0.3-0.6,0.5-0.9,0.8c-0.3,0.3-0.5,0.6-0.7,0.9c-0.1,0.2-0.2,0.3-0.4,0.4c-0.1,0.1-0.2,0.3-0.3,0.5v0
				c-0.1,0.1-0.2,0.3-0.2,0.4c0,0.2-0.1,0.3-0.1,0.5c-0.1,0.2-0.1,0.4-0.1,0.5s-0.1,0.4-0.1,0.5c-0.1,0.3-0.1,0.7-0.1,1.1
				c0,0.4,0,0.7,0,1.1c0,0.3,0.1,0.4,0.3,0.6c0.2,0.1,0.4,0.2,0.7,0.1c0.2,0,0.3,0,0.5-0.1c0.1,0,0.1,0,0.2,0c0.1,0,0.1,0,0.2,0
				c0.6-0.1,1.1-0.3,1.5-0.6c0.2-0.2,0.5-0.3,0.7-0.5c0.2-0.2,0.5-0.3,0.7-0.5c0.2-0.1,0.4-0.2,0.6-0.3c0.2-0.1,0.4-0.1,0.5-0.2
				c0.1-0.1,0.3-0.2,0.4-0.3c0.1-0.1,0.2-0.2,0.3-0.4c0.2-0.7,0.4-1.3,0.3-2c0-0.5,0-1-0.1-1.5c0-0.5-0.1-1-0.3-1.5
				c0-0.1,0-0.1,0-0.2c0-0.1,0-0.1,0-0.2c-0.1-0.6-0.4-1.1-0.7-1.6L118.9,148.9z"/>
			<path class="st1" d="M137.1,154.6l0.2-0.2c0.1-0.2,0.3-0.4,0.4-0.5c0.1-0.2,0.2-0.3,0.4-0.5c0.1-0.2,0.2-0.3,0.3-0.5
				c0.1-0.2,0.2-0.3,0.3-0.5c0.1-0.2,0.2-0.3,0.3-0.4c0.1-0.1,0.2-0.3,0.3-0.4c0.1-0.2,0.2-0.4,0.4-0.6c0.1-0.2,0.1-0.3,0.2-0.4
				c0.1-0.1,0.2-0.3,0.3-0.4c0.3-0.5,0.6-1,0.9-1.5c0.3-0.5,0.6-0.9,0.9-1.4c0.4-0.7,0.9-1.5,1.3-2.3c0.4-0.8,0.9-1.5,1.4-2.2
				c0-0.1,0-0.1,0-0.1c0,0,0-0.1,0-0.1c0.1-0.1,0.1-0.2,0.2-0.3c0-0.1,0.1-0.2,0.2-0.4c0.1-0.2,0.3-0.5,0.4-0.7
				c0.1-0.2,0.2-0.5,0.3-0.8c0.4-0.1,0.7-0.1,1-0.1c0,0.2,0,0.3-0.1,0.4c-0.2,0.2-0.2,0.4-0.1,0.7c0,0.2,0,0.3-0.1,0.4
				c0,0.1,0,0.1,0,0.2c0,0.1,0,0.1,0,0.1s0,0.1,0,0.1c-0.1,0.2-0.1,0.3-0.1,0.5c0.1,0.1,0,0.2-0.1,0.3c0,0.1-0.1,0.1-0.1,0.2
				c0,0.1-0.1,0.1-0.1,0.2c-0.1,0.3-0.2,0.5-0.3,0.7c-0.1,0.2-0.3,0.4-0.4,0.6l-0.1,0.2c-0.2,0.4-0.4,0.7-0.6,1.1
				c-0.2,0.3-0.4,0.7-0.7,1.1c-0.1,0.2-0.1,0.3-0.2,0.4c-0.1,0.1-0.2,0.2-0.2,0.3c-0.1,0.2-0.1,0.3-0.2,0.4
				c-0.1,0.1-0.1,0.3-0.2,0.4c-0.4,0.8-0.9,1.7-1.3,2.5c-0.5,0.8-0.9,1.6-1.4,2.4c0,0.1-0.1,0.1-0.1,0.1c0,0-0.1,0-0.1,0.1
				c-0.1,0.1-0.2,0.2-0.3,0.3c-0.2,0.2-0.4,0.4-0.5,0.5c-0.2,0.2-0.3,0.4-0.5,0.5c-0.1,0.1-0.2,0.1-0.3,0.2
				c-0.1,0.1-0.2,0.2-0.3,0.2c-0.2,0.2-0.3,0.3-0.4,0.5c-0.1,0.2-0.3,0.3-0.4,0.5c-0.2,0.2-0.3,0.2-0.6,0.3c-0.2,0-0.3,0.1-0.5,0.1
				c-0.2,0-0.3,0-0.5-0.1c-0.1,0-0.2,0-0.4,0c-0.2,0.1-0.5,0-0.7,0c-0.2-0.1-0.4-0.2-0.6-0.4c-0.6-0.5-0.9-1.1-1.1-1.8
				c-0.2-0.9-0.3-1.7-0.2-2.5c0-0.2,0-0.5,0-0.6c0-0.4,0.1-0.9,0.1-1.3c0-0.4,0-0.8,0.1-1.2c0-0.2,0-0.4,0-0.6s0-0.4,0-0.6
				c0-0.2,0-0.5,0.1-0.8v-0.3c-0.1,0.1-0.2,0.1-0.2,0.1c-0.1,0.1-0.2,0.2-0.3,0.4c-0.1,0.1-0.2,0.3-0.3,0.4l-0.1,0.1
				c-0.2,0.2-0.3,0.4-0.5,0.6c-0.1,0.2-0.3,0.5-0.4,0.7c-0.1,0.1-0.1,0.2-0.2,0.3s-0.2,0.2-0.2,0.3c-0.1,0.1-0.1,0.1-0.2,0.2
				c-0.1,0.1-0.1,0.1-0.2,0.2c-0.2,0.2-0.3,0.4-0.5,0.6c-0.2,0.2-0.4,0.3-0.6,0.5c-0.2,0.2-0.3,0.3-0.5,0.4
				c-0.2,0.1-0.4,0.2-0.6,0.3c-0.1,0.1-0.1,0.1-0.2,0.1c-0.2,0-0.3,0-0.5,0c-0.2,0-0.3,0-0.5,0c-0.1,0.1-0.2,0.1-0.3,0
				c-0.1-0.1-0.3-0.1-0.4-0.1s-0.3,0-0.4,0c-0.2,0-0.3,0-0.4-0.1s-0.3-0.1-0.4-0.2c-0.2-0.1-0.3-0.2-0.5-0.3
				c-0.2-0.1-0.3-0.2-0.3-0.4c0-0.1-0.1-0.1-0.1-0.1c0,0-0.1-0.1-0.1-0.1c-0.2-0.3-0.4-0.6-0.5-1c-0.1-0.3-0.2-0.7-0.4-1
				c-0.1-0.3-0.2-0.7-0.2-1.1c0-0.4-0.1-0.7-0.2-1.1v-0.4v-1.4c0-0.7,0.1-1.2,0.2-1.7c0-0.2,0.1-0.3,0.1-0.5c0-0.2,0-0.3,0-0.5
				c0-0.2,0-0.5,0-0.7c0-0.2,0.1-0.5,0.1-0.7c0-0.1,0-0.2,0.1-0.4c0-0.1,0.1-0.2,0.1-0.3c0-0.2,0.1-0.3,0.1-0.4
				c0-0.1,0.1-0.3,0.1-0.4c0.2-1.1,0.4-2.1,0.7-3l0.1-0.7l0.3-1.3c0.1-0.2,0.1-0.3,0.1-0.4c0-0.1,0.1-0.2,0.1-0.4
				c0.1-0.2,0.1-0.3,0.2-0.4c0.1-0.1,0.1-0.2,0.2-0.4c0-0.2,0.2-0.3,0.4-0.3c0.2,0,0.3,0,0.5,0c0.2,0,0.3,0.1,0.5,0.1
				c0,0.1,0.1,0.1,0.1,0.2c0,0.1,0.1,0.1,0.1,0.2c0,0,0,0.1,0,0.1c0,0,0,0.1,0,0.1c-0.1,0.2-0.1,0.3,0,0.6c0,0,0,0.1,0,0.1
				c0.2,0.2,0.2,0.3,0.3,0.5c0,0.2,0,0.3,0,0.5c0,0.2,0,0.4-0.1,0.5c0,0.2-0.1,0.4,0,0.5c0,0.1,0,0.2,0.1,0.3
				c0.1,0.1,0.1,0.2,0.1,0.4c0.1,0.3,0.1,0.7,0,1c0,0.3,0,0.7,0,1c0.1,0.8,0.2,1.6,0.2,2.5c0,0.8,0,1.6,0,2.5c0,0.4-0.1,0.9-0.2,1.3
				c-0.1,0.4-0.1,0.9-0.1,1.3c0,0.2,0.1,0.4,0.1,0.6c0,0.2,0,0.4,0,0.6c0,0.2,0,0.4,0,0.6c0,0.2,0,0.4,0,0.5
				c0.1,0.2,0.1,0.3,0.2,0.5c0,0.2,0.1,0.3,0.1,0.5v0.2c0,0.2,0.1,0.3,0.1,0.4c0,0.1,0.1,0.2,0.2,0.3c0,0,0.1,0.1,0.1,0.1
				c0,0,0.1,0.1,0.1,0.1c0.1,0,0.1-0.1,0.1-0.1c0,0,0.1,0,0.1-0.1c0.3-0.3,0.6-0.6,0.9-0.9c0.4-0.5,0.9-1.1,1.3-1.6
				c0.4-0.5,0.8-1.1,1.2-1.6c0.1-0.1,0.1-0.2,0.2-0.3c0.1-0.1,0.1-0.2,0.2-0.3c0.2-0.3,0.5-0.7,0.7-1.1c0.2-0.4,0.4-0.7,0.6-1.1
				c0.1-0.2,0.2-0.3,0.2-0.6c0.1-0.3,0.1-0.6,0.1-0.9c0-0.3,0.1-0.6,0.1-0.9c0.1-0.3,0.1-0.7,0.2-1.1c0.1-0.4,0.2-0.7,0.3-1.1
				c0.1-0.3,0.2-0.7,0.3-1c0.1-0.3,0.1-0.7,0.2-1l0.4-1.7c0.1-0.2,0.2-0.4,0.2-0.7c0.5-0.2,0.9-0.2,1.3,0c0.1,0,0.2,0.1,0.3,0.1
				c0.1,0,0.2,0.1,0.3,0.1c0.3,0.1,0.5,0.3,0.5,0.6c0,0.4,0.1,0.7,0.2,1c0,0.1,0,0.2,0,0.3c0,0.3,0.1,0.6,0.1,0.9c0,0.3,0,0.6,0,0.9
				c0,0.4,0,0.7,0.1,1.1c0.1,0.3,0.2,0.7,0.2,1c0.1,0.5,0.1,1,0,1.5c-0.1,0.5-0.1,1-0.2,1.5c0,0.2-0.1,0.5-0.1,0.8s-0.1,0.5-0.1,0.8
				c-0.1,0.2-0.1,0.5-0.3,0.7c-0.1,0.2-0.2,0.5-0.2,0.7c-0.1,0.3-0.1,0.7-0.1,1.1c0,0.4,0,0.7-0.1,1.1c-0.1,0.7-0.1,1.5-0.1,2.2
				c0,0.2,0,0.3,0,0.5c0,0.2,0,0.4,0,0.5c0,0.2-0.1,0.5-0.2,0.7c-0.1,0.2-0.1,0.4-0.1,0.7c0,0.2,0,0.4,0,0.6c0,0.2,0,0.4,0,0.5
				C136.9,154,137,154.3,137.1,154.6z"/>
			<path class="st1" d="M156.9,139.6c0,0.2,0,0.4,0,0.7c0,0.2,0,0.4-0.1,0.7c-0.1,0.4-0.2,0.8-0.3,1.1c-0.1,0.4-0.3,0.7-0.5,1.1
				c-0.3,0.6-0.6,1.2-0.8,1.8c-0.3,0.6-0.5,1.2-0.8,1.8c-0.2,0.5-0.5,1-0.8,1.4c-0.3,0.5-0.6,0.9-0.8,1.4c-0.4,0.8-0.8,1.6-1.2,2.4
				c-0.4,0.8-0.8,1.5-1.4,2.3c-0.1,0.2-0.2,0.3-0.3,0.5c-0.1,0.2-0.2,0.3-0.3,0.5c-0.2,0.2-0.4,0.5-0.6,0.7
				c-0.2,0.2-0.4,0.4-0.7,0.7c-0.4,0.3-0.8,0.6-1.3,0.8c-0.5,0.2-0.9,0.4-1.5,0.4c-0.3,0-0.6,0-0.9-0.2c-0.7-0.4-1.2-0.9-1.6-1.5
				c-0.3-0.6-0.6-1.3-0.8-2.1c-0.2-0.6-0.3-1.1-0.4-1.7c-0.1-0.6-0.2-1.1-0.3-1.6c-0.1-0.4-0.1-0.8-0.2-1.2
				c-0.1-0.4-0.1-0.7-0.1-1.1c-0.1-1.2-0.1-2.3,0-3.4c0.1-1.1,0.1-2.3,0.2-3.4c0.1-0.9,0.1-1.8,0.2-2.7c0-0.9,0.2-1.8,0.4-2.7
				c0.2-1,0.4-1.9,0.7-2.9c0.2-0.9,0.4-1.9,0.5-2.9c0.1-0.9,0.3-1.8,0.6-2.7c0.3-0.9,0.7-1.8,1-2.7c0.3-0.8,0.6-1.6,0.9-2.5
				s0.6-1.6,1-2.5c0.3-0.7,0.6-1.3,1-2c0.4-0.7,0.8-1.2,1.5-1.6c0.9-0.6,1.8-1.1,2.6-1.5c0.9-0.4,1.8-0.6,2.9-0.7c0.2,0,0.3,0,0.4,0
				c0.1,0,0.3,0.1,0.4,0.1c0.6-0.1,1.1,0.1,1.4,0.6c0.1,0.1,0.1,0.1,0.2,0.1c0,0,0.1,0,0.2,0.1c0.1,0.1,0.2,0.1,0.2,0.1
				c0.1,0.3,0.2,0.5,0.3,0.7c0.2,0.2,0.3,0.4,0.3,0.7c0.1,0.3,0.1,0.5,0.2,0.7c0.1,0.3,0.2,0.5,0.2,0.7c0.2,0.9,0.2,1.7,0,2.6
				c-0.2,0.9-0.4,1.7-0.7,2.5c-0.3,0.8-0.5,1.6-0.8,2.4c-0.3,0.8-0.7,1.5-1.1,2.3c-0.2,0.3-0.3,0.6-0.4,0.9
				c-0.1,0.3-0.2,0.6-0.4,0.9c-0.2,0.3-0.3,0.7-0.6,1c-0.2,0.3-0.4,0.6-0.6,1c-0.3,0.4-0.5,0.9-0.8,1.3s-0.6,0.9-0.9,1.3
				c-0.3,0.4-0.6,0.9-1,1.2c-0.4,0.4-0.7,0.8-1.1,1.1c-0.2,0.2-0.4,0.4-0.6,0.6c-0.2,0.2-0.4,0.4-0.6,0.6c-0.3,0.3-0.5,0.5-0.8,0.7
				c-0.3,0.2-0.5,0.4-0.8,0.7c-0.2,0.1-0.3,0.2-0.5,0.3c-0.2,0.1-0.4,0.2-0.5,0.4c-0.3,0.1-0.4,0.3-0.4,0.7
				c-0.1,0.5-0.1,1.1-0.2,1.6c0,0.5-0.1,1.1-0.2,1.6c-0.1,0.4-0.1,0.9-0.2,1.4c0,0.5,0,0.9,0,1.4c0.2,1,0.2,2,0.2,3s0,2,0.1,3
				c0,0.2,0.1,0.3,0.1,0.4c0,0.1,0.1,0.3,0.2,0.4c0.3,0.7,0.8,1.2,1.5,1.6c0.1,0,0.1,0,0.2,0c0.1,0,0.2,0,0.2-0.1
				c0.2-0.2,0.3-0.3,0.5-0.4c0.2-0.1,0.3-0.3,0.4-0.5c0.3-0.4,0.5-0.7,0.7-1.1c0.2-0.4,0.4-0.8,0.6-1.2c0.9-1.7,1.7-3.3,2.5-5
				c0.8-1.7,1.6-3.3,2.4-5c0.1-0.2,0.1-0.3,0.2-0.5c0.1-0.2,0.1-0.4,0.2-0.6c0.1-0.2,0.2-0.4,0.4-0.5s0.4-0.2,0.5-0.4
				C156.8,139.6,156.8,139.6,156.9,139.6z M146.1,138.6c0.1,0,0.1,0,0.1,0c0.2-0.1,0.3-0.2,0.5-0.3c0.2-0.1,0.3-0.2,0.5-0.3
				c1.3-1,2.4-2.1,3.3-3.2c0.5-0.6,0.9-1.3,1.4-1.9c0.5-0.7,0.8-1.3,1.2-2.1c0.2-0.4,0.4-0.9,0.7-1.3c0.2-0.4,0.4-0.8,0.6-1.3
				c0.2-0.5,0.4-1,0.6-1.5c0.2-0.5,0.3-1,0.5-1.6c0.2-0.6,0.4-1.1,0.5-1.6c0.1-0.3,0.1-0.6,0.1-0.9c0-0.3,0.1-0.6,0.1-0.9
				c0.1-0.3,0.1-0.7,0.1-1.1c0-0.4,0-0.7-0.1-1.1c-0.1-0.2-0.1-0.5-0.2-0.7c-0.1-0.2-0.1-0.4-0.2-0.7c-0.1-0.4-0.2-0.7-0.5-0.9
				c-0.1-0.1-0.2-0.3-0.2-0.4c0-0.2-0.1-0.3-0.2-0.4c-0.1-0.1-0.2-0.2-0.3-0.2c-0.1-0.1-0.2-0.1-0.3-0.1c-0.1,0-0.2-0.1-0.3-0.1
				c-0.4-0.2-0.7-0.1-0.9,0.2c-0.2,0.2-0.3,0.3-0.4,0.4c-0.2,0.3-0.4,0.7-0.6,1s-0.4,0.6-0.6,1c-0.6,1-1.1,2-1.5,3.1
				c-0.4,1.1-0.7,2.2-1.1,3.3c-0.2,0.7-0.4,1.4-0.6,2.1c-0.2,0.7-0.4,1.4-0.5,2.1c-0.2,0.7-0.3,1.4-0.4,2.2
				c-0.1,0.7-0.2,1.4-0.3,2.2c-0.1,0.3-0.1,0.6-0.2,0.9c0,0.3-0.1,0.6-0.2,0.9c-0.1,0.3-0.1,0.5-0.3,0.8c-0.1,0.3-0.2,0.5-0.3,0.7
				c-0.1,0.3-0.1,0.5-0.2,0.8S146.2,138.3,146.1,138.6z"/>
			<path class="st1" d="M153.8,130.3c-0.1,0-0.2-0.1-0.3-0.1c-0.1,0-0.2-0.1-0.3-0.2c-0.2-0.1-0.5-0.1-0.7-0.2
				c-0.2-0.1-0.5-0.1-0.7-0.2c-0.2-0.1-0.3-0.1-0.5-0.1c-0.2,0-0.4-0.1-0.5-0.1c-0.2-0.1-0.3-0.2-0.5-0.2c-0.7-0.3-1.3-0.4-1.9-0.4
				c-0.1,0-0.3-0.1-0.4-0.1c-0.1,0-0.3-0.1-0.4-0.2c-0.3-0.1-0.5-0.1-0.7-0.1c-0.2,0-0.4,0-0.7,0c-0.2,0-0.3,0-0.4,0
				c-0.1,0-0.3,0-0.4,0c-0.1,0-0.2,0-0.3,0c-0.1,0-0.2,0-0.3,0c-0.2-0.1-0.2-0.1,0-0.2c0.1-0.1,0.1-0.1,0.1-0.1
				c0.2-0.1,0.3-0.1,0.5-0.2c0.2-0.1,0.3-0.2,0.5-0.2c0.3-0.2,0.6-0.2,0.8-0.3c0.3,0,0.5-0.1,0.8-0.1c0.3,0,0.6,0,0.9,0
				c0.3,0,0.6,0,0.9,0.1c0.2,0,0.4,0,0.6,0c0.2,0,0.4,0,0.6,0.1c0.1,0,0.2,0,0.4,0s0.2,0,0.3,0c0.3,0.1,0.7,0.1,1,0c0.5,0,1,0,1.5,0
				c0.2,0.1,0.4,0.1,0.5,0c0.1-0.1,0.1-0.1,0.1-0.2c0-0.1,0-0.1,0-0.2c0.1-0.4,0.1-0.7,0.2-1.1c0.1-0.4,0.1-0.7,0.2-1.1
				c0-0.4,0.2-0.8,0.4-1.3l0-0.1c0.4,0,0.6,0.1,0.8,0.3c0.1,0.1,0.1,0.2,0.1,0.3c0,0.1,0.1,0.1,0.1,0.2c0.2,0.3,0.2,0.6,0,0.8
				c0,0.1,0,0.1,0,0.3c0,0.1,0,0.2,0,0.3c0,0.2,0.1,0.4,0.1,0.7c0,0.2,0.1,0.4,0.1,0.7v0.2c0,0.1,0,0.1,0,0.2c0,0.1,0,0.1,0,0.2
				c0,0.3,0.2,0.5,0.5,0.7c0.2,0.1,0.5,0.2,0.8,0.3c0.3,0.1,0.6,0.2,0.8,0.3c0.1,0.1,0.2,0.1,0.3,0.1c0.7,0.1,1.4,0,2-0.2
				c0.4-0.2,0.9-0.3,1.3-0.5c0.4-0.2,0.9-0.3,1.3-0.5c0.1-0.1,0.2-0.1,0.3-0.1c0.1,0,0.2-0.1,0.3-0.1c0.3-0.1,0.6-0.1,0.8,0.1
				c0,0.2,0,0.3,0,0.4c-0.1,0.1-0.1,0.2,0,0.3c-0.1,0.2-0.3,0.3-0.4,0.4s-0.2,0.2-0.4,0.3c0,0-0.1,0.1-0.2,0.1
				c-0.2,0.1-0.3,0.1-0.5,0.2c-0.2,0.1-0.4,0.2-0.5,0.3h-0.1c-0.2,0.1-0.3,0.1-0.4,0.1c-0.1,0-0.2,0.1-0.3,0.2c-0.1,0-0.1,0-0.1,0
				c0,0-0.1,0-0.1,0c-0.1,0-0.1,0.1-0.2,0.1c-0.1,0-0.1,0.1-0.2,0.1c-0.1,0-0.1,0.1-0.2,0.1c0,0-0.1,0-0.2,0c-0.2,0-0.3,0.1-0.4,0.2
				c0,0.1,0,0.1,0,0.1c-0.1,0.1-0.1,0.2-0.2,0.2c0,0-0.1,0-0.3-0.1c-0.1,0-0.1,0.1-0.2,0.1c-0.1,0-0.2,0.1-0.3,0.1
				c-0.1,0.1-0.2,0.1-0.4,0.1l0,0c-0.2,0.1-0.3,0.1-0.5,0.1s-0.3,0-0.5,0c-0.2,0-0.3,0-0.5,0c-0.2,0-0.3,0-0.5,0h-0.3h-0.4
				c0,0.2,0,0.3,0,0.5s0,0.4,0,0.5c0,0.3,0,0.6,0,1c0,0.3,0,0.7,0,1v0.6v0.2c-0.1,0.2-0.1,0.4,0,0.7c0.1,1.4,0.1,2.8,0.1,4.1
				c0,1.4-0.1,2.8-0.1,4.2s-0.1,2.8-0.2,4.2c-0.1,1.4-0.1,2.8-0.1,4.2v0.5c0,0.1,0,0.2,0,0.3c0,0.1,0,0.2,0,0.3v0.2
				c0,0.1,0,0.2,0,0.3c0,0.1,0,0.2,0,0.3c-0.1,0.2,0,0.4,0,0.5c0.1,0.2,0.2,0.3,0.4,0.4c0.2,0,0.3,0,0.5-0.1
				c0.1-0.1,0.2-0.2,0.3-0.2c0.1-0.1,0.2-0.2,0.3-0.3c0.2-0.2,0.3-0.4,0.4-0.6c0.1-0.2,0.3-0.4,0.4-0.6c0.5-0.7,1-1.4,1.4-2
				c0.5-0.7,0.9-1.3,1.3-2c0.1-0.2,0.1-0.3,0.2-0.3c0.2-0.2,0.3-0.5,0.5-0.7c0.2-0.2,0.3-0.5,0.5-0.7c0.2-0.2,0.3-0.5,0.5-0.7
				c0.2-0.3,0.3-0.5,0.5-0.7c0.1-0.2,0.2-0.4,0.4-0.6c0.1-0.2,0.3-0.4,0.4-0.6c0.2-0.4,0.5-0.8,0.8-1.2c0.3-0.4,0.5-0.7,0.8-1.1
				c0-0.1,0-0.1,0-0.1s0-0.1,0-0.1c0.1-0.2,0.2-0.3,0.3-0.4c0.1-0.1,0.2-0.3,0.3-0.4c0.2-0.2,0.4-0.6,0.6-1c0.1-0.1,0.1-0.3,0.2-0.4
				c0.1-0.1,0.1-0.2,0.2-0.4c0.1-0.1,0.3-0.2,0.5-0.1c0.4,0.1,0.5,0.4,0.3,0.7l-0.1,0.1c0,0.1-0.1,0.1-0.1,0.1c0,0,0,0.1,0,0.1
				c-0.1,0.2-0.1,0.3-0.2,0.5c-0.1,0.1-0.1,0.2-0.2,0.4c-0.1,0.1-0.1,0.2-0.2,0.4c-0.3,0.5-0.6,1.1-0.9,1.6
				c-0.3,0.6-0.6,1.1-0.9,1.6c-0.6,0.9-1.2,1.7-1.8,2.6c-0.6,0.9-1.1,1.8-1.5,2.7c-0.3,0.4-0.5,0.9-0.7,1.3
				c-0.2,0.4-0.5,0.9-0.7,1.3c-0.3,0.4-0.6,0.8-1,1.1c-0.4,0.3-0.8,0.6-1.1,0.9c-0.3,0.3-0.5,0.6-0.8,0.7c-0.1,0-0.1,0-0.1,0
				c0,0,0,0-0.1,0c-0.2,0.1-0.4,0.2-0.6,0.2c-0.3,0-0.6,0-0.9,0c-0.3,0-0.6-0.1-1-0.2c-1.1-0.2-1.8-0.8-2.2-1.9
				c-0.2-0.3-0.3-0.7-0.3-1c0-0.3-0.1-0.7-0.1-1c0-0.2-0.1-0.3-0.1-0.4c0-0.1,0-0.3-0.1-0.4c0-0.2,0-0.3,0-0.5
				c0-0.2-0.1-0.4-0.1-0.6c0-0.2,0-0.4,0-0.6v-0.7v-1.4c0-0.2,0-0.5,0-0.7c0-0.2,0-0.5,0-0.7c0-0.2,0-0.3,0-0.4c0-0.1,0-0.2,0-0.4
				c0-0.2,0-0.4,0-0.6c0-0.2,0-0.4,0-0.6l0.1-2.5c0-0.1,0-0.3,0-0.6c0-0.5,0.1-1,0.1-1.5c0.1-0.5,0.1-1,0.2-1.4c0-0.3,0.1-0.6,0.1-1
				c0-0.3,0-0.7,0.1-1c0.1-0.5,0.2-1.1,0.2-1.6c0-0.6,0.1-1.1,0.3-1.6c0.1-0.2,0.1-0.5,0.1-0.8c0-0.3,0-0.5,0.1-0.8
				c0-0.1,0-0.2,0-0.3C153.7,130.6,153.7,130.4,153.8,130.3z"/>
			<path class="st1" d="M171.2,147.6c-0.3-0.4-0.7-0.8-1-1.1c-0.4-0.4-0.8-0.8-1.2-1.1c-0.4-0.4-0.8-0.8-1.2-1.1
				c-0.7-0.7-1.4-1.3-1.9-2c-0.4-0.5-0.8-1.1-1.2-1.6c-0.4-0.5-0.8-1.1-1.1-1.7c-0.4-0.9-0.7-1.9-0.8-2.9c0-0.3,0-0.7,0.1-1
				c0.2-1.1,0.7-2.1,1.4-2.9c0.3-0.4,0.8-0.7,1.4-0.9c0.3-0.1,0.7-0.1,1-0.2c0.3,0,0.6,0,0.9,0.2c0.2,0.1,0.4,0.1,0.5,0.1
				c0.3,0.1,0.6,0.2,0.8,0.3c0.2,0.1,0.5,0.3,0.7,0.4c0.4,0.3,0.4,0.5,0,0.7c-0.2,0.1-0.4,0.1-0.7,0.2c-0.2,0.1-0.5,0.2-0.7,0.2
				c-0.2,0.1-0.3,0.1-0.5,0.2c-0.2,0.2-0.3,0.4-0.5,0.5c-0.2,0.2-0.3,0.4-0.3,0.6c0,0.1-0.1,0.2-0.1,0.3c0,0.1-0.1,0.2-0.1,0.3
				c-0.2,0.3-0.2,0.7-0.1,1.2c0.1,0.2,0.1,0.3,0.2,0.4c0,0.1,0.1,0.3,0.3,0.4c0,0,0,0.1,0,0.1c0.1,0.3,0.3,0.5,0.5,0.7
				c0.2,0.2,0.4,0.5,0.6,0.7c0.1,0.1,0.1,0.1,0.2,0.2c0.1,0.1,0.2,0.1,0.2,0.2c0.4,0.4,0.9,0.8,1.3,1.1c0.5,0.4,0.9,0.8,1.3,1.2
				c0.2,0.3,0.5,0.5,0.7,0.7c0.2,0.2,0.5,0.5,0.7,0.7c0.2,0.2,0.3,0.3,0.4,0.5c0.1,0.2,0.3,0.4,0.4,0.5c0.1,0.1,0.2,0.2,0.3,0.3
				c0.1,0.1,0.2,0.2,0.3,0.3c0.2-0.1,0.5-0.3,0.7-0.5c0.1-0.1,0.2-0.2,0.3-0.3c0.2-0.2,0.5-0.3,0.6-0.5c0.2-0.2,0.4-0.4,0.5-0.6
				c0.2-0.2,0.3-0.3,0.5-0.4c0.2-0.1,0.3-0.3,0.5-0.4c0.3-0.2,0.5-0.5,0.8-0.7c0.3-0.2,0.5-0.5,0.7-0.8c0.1-0.1,0.1-0.1,0.2-0.2
				c0,0,0.1-0.1,0.2-0.2c0.2-0.2,0.3-0.2,0.6-0.1c0.1,0.1,0.2,0.1,0.4,0.1c0.1,0,0.3,0,0.4,0.1c0.2,0.1,0.3,0.3,0.1,0.5l-0.1,0.1
				c-0.1,0.1-0.1,0.2-0.2,0.4c0,0.1-0.1,0.2-0.3,0.3c-0.1,0-0.2,0.1-0.3,0.2c-0.1,0.1-0.2,0.2-0.3,0.3c-0.2,0.1-0.3,0.2-0.4,0.4
				c-0.1,0.2-0.2,0.3-0.3,0.4c-0.1,0.1-0.1,0.1-0.2,0.2c-0.1,0.1-0.1,0.1-0.2,0.2c-0.1,0.1-0.2,0.3-0.4,0.5
				c-0.1,0.2-0.3,0.4-0.6,0.7c-0.1,0.1-0.2,0.1-0.3,0.2c-0.1,0.1-0.1,0.2-0.2,0.4c0,0,0,0.1-0.1,0.1c0,0-0.1,0.1-0.1,0.1
				c-0.2,0.1-0.2,0.2-0.3,0.2c-0.2,0.2-0.3,0.3-0.4,0.4c-0.1,0.1-0.3,0.3-0.4,0.4c-0.2,0.1-0.2,0.3,0,0.5c0.1,0.1,0.1,0.2,0.2,0.3
				c0.1,0.1,0.1,0.2,0.2,0.3c0.1,0.1,0.1,0.1,0.1,0.2c0,0.1,0.1,0.1,0.1,0.2c0.2,0.3,0.4,0.6,0.5,0.9c0.1,0.3,0.2,0.7,0.4,1
				c0.1,0.4,0.1,0.7,0.1,1c0,0.3,0,0.6,0.1,0.9c0.2,0.4,0.4,0.9,0.4,1.5c0,0.5,0,1.1,0,1.6c-0.1,0.5-0.1,1.1-0.3,1.6
				c-0.1,0.5-0.2,1-0.3,1.5c-0.3,1-0.8,1.8-1.4,2.4c-0.6,0.6-1.3,1.2-2,1.8c-0.4,0.4-1,0.7-1.8,0.8c-0.7,0.1-1.4,0.2-2,0.1
				c-0.7-0.1-1.3-0.3-1.8-0.6c-0.5-0.3-1-0.7-1.5-1.2c-0.1-0.1-0.2-0.2-0.3-0.2c-0.1-0.1-0.2-0.1-0.3-0.2c-0.1-0.1-0.2-0.2-0.2-0.3
				c-0.1-0.2-0.2-0.3-0.4-0.4c-0.1-0.1-0.2-0.3-0.3-0.5c-0.2-1.2-0.1-2.4,0.3-3.7c0.4-1.3,1-2.4,1.8-3.4c0.1-0.1,0.2-0.3,0.3-0.4
				c0.1-0.1,0.2-0.3,0.3-0.4c0.2-0.2,0.3-0.3,0.4-0.5c0.1-0.2,0.2-0.3,0.4-0.5c0.3-0.3,0.7-0.7,1-1c0.3-0.3,0.6-0.7,1-1.1
				c0.1-0.1,0.1-0.1,0.2-0.2C171,147.7,171.1,147.7,171.2,147.6z M172.1,148.9c-0.2,0.1-0.4,0.2-0.6,0.4c-0.2,0.2-0.3,0.3-0.5,0.5
				c-0.1,0.2-0.2,0.3-0.3,0.4c-0.1,0.1-0.2,0.2-0.4,0.4c-0.1,0.1-0.2,0.2-0.3,0.3c-0.1,0.1-0.2,0.2-0.3,0.3c0,0.1-0.1,0.2-0.3,0.3
				c-0.3,0.3-0.6,0.5-0.9,0.8c-0.3,0.3-0.5,0.6-0.7,0.9c-0.1,0.2-0.2,0.3-0.4,0.4c-0.1,0.1-0.2,0.3-0.3,0.5v0
				c-0.1,0.1-0.2,0.3-0.2,0.4c0,0.2-0.1,0.3-0.1,0.5c-0.1,0.2-0.1,0.4-0.1,0.5c0,0.2-0.1,0.4-0.1,0.5c-0.1,0.3-0.1,0.7-0.1,1.1
				c0,0.4,0,0.7,0,1.1c0,0.3,0.1,0.4,0.3,0.6c0.2,0.1,0.4,0.2,0.7,0.1c0.2,0,0.3,0,0.5-0.1c0.1,0,0.1,0,0.2,0c0.1,0,0.1,0,0.2,0
				c0.6-0.1,1.1-0.3,1.5-0.6c0.2-0.2,0.5-0.3,0.7-0.5c0.2-0.2,0.5-0.3,0.7-0.5c0.2-0.1,0.4-0.2,0.6-0.3c0.2-0.1,0.4-0.1,0.5-0.2
				c0.1-0.1,0.3-0.2,0.4-0.3c0.1-0.1,0.2-0.2,0.3-0.4c0.2-0.7,0.4-1.3,0.3-2c0-0.5,0-1-0.1-1.5c0-0.5-0.1-1-0.3-1.5
				c0-0.1,0-0.1,0-0.2c0-0.1,0-0.1,0-0.2c-0.1-0.6-0.4-1.1-0.7-1.6L172.1,148.9z"/>
		</g>
	</g>
</g>
</svg>
