<?xml version="1.0" encoding="utf-8"?>
<!-- Generator: Adobe Illustrator 21.1.0, SVG Export Plug-In . SVG Version: 6.00 Build 0)  -->
<svg version="1.1" id="Layer_1" xmlns="http://www.w3.org/2000/svg" xmlns:xlink="http://www.w3.org/1999/xlink" x="0px" y="0px"
	 viewBox="0 0 147.4 116.9" style="enable-background:new 0 0 147.4 116.9;" xml:space="preserve">
<style type="text/css">
	.st0{fill:#FF593E;}
</style>
<g>
	<g>
		<path class="st0" d="M144.3,49.4c0.3-0.2,0.6-0.2,0.7-0.4c0.1-0.2,0.2-0.4,0.2-0.4c0,0,0-0.1,0-0.1c0-0.2-0.1-0.3-0.2-0.4
			c0,0-0.2-0.1-0.4-0.1c-0.2,0-0.4,0.2-0.8,0.3c-0.6,0.3-1.5,0.8-2.6,1.3c-2.2,1.1-5.1,2.5-7.9,4c-2.9,1.5-5.8,2.9-7.9,4
			c-2.2,1.1-3.6,1.8-3.6,1.8c-0.1,0-0.1,0.1,0,0.2c0,0.1,0.1,0.1,0.2,0.1c0,0,1.5-0.7,3.7-1.7c2.2-1,5.1-2.4,8.1-3.7
			c2.9-1.4,5.8-2.8,8-3.8C142.7,50.1,143.6,49.7,144.3,49.4z"/>
		<path class="st0" d="M103.5,38.8c0.2-0.2,0.4-0.5,0.6-0.7c0.2-0.3,0.4-0.5,0.5-0.8c0.1-0.1,0.1-0.2,0.2-0.3c0,0,0.1,0,0-0.1
			c0-0.1-0.1-0.1-0.1-0.1c0,0.1-0.1,0-0.2,0c-0.1-0.1-0.1-0.1-0.1-0.2c0,0-0.1-0.1-0.2-0.1c-0.1,0-0.1,0-0.1,0
			c0,0.1-0.1,0.2-0.2,0.3c-0.1,0.2-0.3,0.5-0.5,0.8c-0.2,0.3-0.3,0.6-0.4,0.8c-0.1,0.2-0.2,0.4-0.2,0.4c0,0,0,0.1,0.1,0.2
			c0.1,0.1,0.2,0.1,0.2,0C103.2,39.1,103.3,39,103.5,38.8z"/>
		<path class="st0" d="M55.9,12.8c0.7,2.3,1.7,5.4,2.6,8.5c1,3.1,1.9,6.2,2.7,8.5c0.7,2.3,1.2,3.9,1.2,3.9c0,0.1,0.1,0.1,0.2,0.1
			c0.1,0,0.2-0.1,0.1-0.2c0,0-0.4-1.6-1.1-3.9c-0.6-2.3-1.5-5.5-2.4-8.6c-0.9-3.1-1.8-6.2-2.4-8.6c-0.3-1.2-0.6-2.1-0.8-2.8
			C56,9.3,56,9,55.9,8.9c-0.1-0.2-0.3-0.2-0.3-0.2c0,0-0.1,0-0.1,0c-0.2,0-0.3,0.1-0.4,0.2c0,0-0.1,0.1-0.2,0.4
			c0,0.2,0.1,0.5,0.2,0.8C55.2,10.6,55.5,11.6,55.9,12.8z"/>
		<path class="st0" d="M123.6,50.2c0-0.1-0.1-0.2-0.2-0.3c0,0,0,0-0.1,0c0,0-0.1-0.1-0.1-0.1c-0.1,0-0.1,0-0.2,0.1
			c-0.1,0.1-0.3,0.2-0.6,0.4c-0.2,0.2-0.5,0.4-0.8,0.6c-0.3,0.2-0.6,0.4-1,0.7c-0.6,0.5-1.3,0.9-1.8,1.3c-0.5,0.4-0.8,0.6-0.8,0.6
			c0,0,0,0.1,0,0.2c0,0.1,0.1,0.1,0.2,0.1c0,0,0.4-0.2,0.9-0.5c0.5-0.3,1.2-0.7,1.9-1.1c0.3-0.2,0.7-0.4,1-0.6
			c0.3-0.2,0.6-0.4,0.9-0.6c0.3-0.2,0.5-0.3,0.6-0.4c0.1-0.1,0.1-0.1,0.1-0.1C123.7,50.4,123.7,50.3,123.6,50.2
			C123.7,50.2,123.6,50.2,123.6,50.2z"/>
		<path class="st0" d="M133.4,62.9c0,0-0.1-0.1-0.1-0.1c-0.1-0.1-0.1,0-0.2,0c-0.2,0.1-0.4,0.1-0.6,0.2c-0.3,0.1-0.6,0.2-0.9,0.3
			c-0.3,0.1-0.7,0.2-1,0.4c-0.7,0.3-1.4,0.5-1.9,0.7c-0.5,0.2-0.9,0.4-0.9,0.4c-0.1,0-0.1,0.1,0,0.2c0,0.1,0.1,0.2,0.2,0.2
			c0,0,0.4-0.1,0.9-0.2c0.5-0.1,1.3-0.3,2-0.5c0.4-0.1,0.7-0.2,1.1-0.3c0.3-0.1,0.6-0.2,0.9-0.3c0.3-0.1,0.5-0.1,0.6-0.2
			c0.1,0,0.1,0,0.2-0.1c0,0,0-0.1,0-0.1c0,0,0-0.1,0-0.1C133.6,63.2,133.5,63.1,133.4,62.9C133.5,63,133.4,62.9,133.4,62.9z"/>
		<path class="st0" d="M37.9,47.9c0.3,0.2,0.5,0.4,0.8,0.5c0.2,0.1,0.4,0.2,0.4,0.2c0,0,0.1,0,0.2,0c0.1-0.1,0.1-0.2,0.1-0.2
			c0,0-0.1-0.1-0.3-0.3c-0.2-0.2-0.4-0.5-0.6-0.7c-0.2-0.2-0.5-0.5-0.7-0.7c-0.1-0.1-0.2-0.2-0.2-0.2c0,0,0-0.1-0.1,0
			c-0.1,0-0.1,0.1-0.1,0.1c0,0,0,0.1,0,0.2c-0.1,0.1-0.2,0.1-0.2,0.1c0,0-0.1,0.1-0.1,0.2c0,0.1,0,0.1,0,0.1c0.1,0,0.1,0.1,0.2,0.2
			C37.3,47.5,37.6,47.7,37.9,47.9z"/>
		<path class="st0" d="M126.8,65C126.7,64.9,126.7,65,126.8,65c-0.2,0-0.3,0-0.4,0.1c-0.2,0.1-0.6,0.2-0.9,0.3
			c-0.3,0.1-0.6,0.3-0.9,0.4c-0.2,0.1-0.4,0.2-0.4,0.2c0,0-0.1,0.1,0,0.2c0,0.1,0.1,0.2,0.2,0.2c0,0,0.2,0,0.4-0.1
			c0.3,0,0.6-0.1,0.9-0.2c0.3-0.1,0.7-0.2,0.9-0.2c0.1,0,0.2-0.1,0.3-0.1c0,0,0.1,0,0.1-0.1c0-0.1,0-0.2,0-0.2c-0.1,0-0.1,0-0.2-0.1
			c0-0.1,0-0.2,0-0.2C126.9,65.1,126.8,65,126.8,65z"/>
		<path class="st0" d="M12.2,81c0.1,0,0.3,0,0.5,0c0.4,0,0.9,0,1.4-0.1c0.5,0,1-0.1,1.4-0.1c0.4,0,0.6-0.1,0.6-0.1
			c0.1,0,0.1-0.1,0.1-0.2c0-0.1,0-0.2-0.1-0.2c0,0-0.3,0-0.6-0.1c-0.4-0.1-0.9-0.1-1.4-0.1c-0.5,0-1-0.1-1.4-0.1c-0.2,0-0.3,0-0.5,0
			c-0.1,0-0.1,0-0.1,0.1c0,0,0,0.1,0,0.2c0,0,0,0.1,0,0.1c0,0.1,0,0.3,0,0.5c0,0,0,0,0,0.1c0,0.1,0,0.1,0,0.2
			C12.1,81,12.2,81,12.2,81z"/>
		<path class="st0" d="M17.3,81c0.2,0,0.4,0,0.7,0c0.3,0,0.6,0,1,0c0.3,0,0.7,0,1.1,0c0.7,0,1.5,0,2.1-0.1c0.6,0,0.9-0.1,0.9-0.1
			c0.1,0,0.1-0.1,0.1-0.2c0-0.1,0-0.2-0.1-0.2c0,0-0.4,0-0.9-0.1c-0.6-0.1-1.3-0.1-2-0.2c-0.4,0-0.7,0-1.1-0.1c-0.3,0-0.7,0-1,0
			c-0.3,0-0.5,0-0.7,0c-0.1,0-0.1,0-0.2,0c0,0,0,0.1-0.1,0.1c0,0,0,0.1,0,0.1c0,0.1,0,0.3,0,0.4c0,0,0,0,0,0.1c0,0,0,0.1,0,0.1
			C17.2,81,17.2,80.9,17.3,81z"/>
		<path class="st0" d="M134.4,80.1c1,0,1.9,0,2.8,0c0.9,0,1.7,0,2.5,0c0.7,0,1.3,0,1.7,0c0.2,0,0.4,0,0.5-0.1
			c0.1-0.1,0.2-0.2,0.2-0.2c0-0.1,0-0.3,0-0.5c0,0-0.1-0.1-0.2-0.2c-0.1-0.1-0.3,0-0.5,0c-0.4,0-1,0-1.7,0.1c-0.7,0-1.6,0.1-2.5,0.1
			c-0.9,0-1.9,0.1-2.8,0.1c-1.9,0.1-3.9,0.2-5.3,0.3c-1.4,0.1-2.4,0.2-2.4,0.2c-0.1,0-0.1,0.1-0.1,0.2c0,0.1,0.1,0.2,0.1,0.2
			c0,0,1,0,2.4,0C130.6,80.1,132.5,80.1,134.4,80.1z"/>
		<path class="st0" d="M36.5,46c0,0-0.3-0.3-0.6-0.7c-0.4-0.4-0.9-0.9-1.5-1.4c-0.3-0.3-0.5-0.5-0.8-0.8c-0.3-0.2-0.5-0.5-0.7-0.6
			c-0.2-0.2-0.4-0.3-0.5-0.5c-0.1,0-0.1-0.1-0.2-0.1c0,0-0.1,0-0.1,0.1c0,0-0.1,0-0.1,0c-0.1,0.1-0.2,0.2-0.3,0.3c0,0,0,0,0,0.1
			c0,0,0,0.1-0.1,0.1c0,0.1,0.1,0.1,0.1,0.2c0.1,0.1,0.3,0.3,0.5,0.4c0.2,0.2,0.5,0.4,0.7,0.6c0.3,0.2,0.6,0.5,0.8,0.7
			c0.6,0.5,1.2,0.9,1.6,1.3c0.4,0.3,0.8,0.6,0.8,0.6c0,0,0.1,0,0.2-0.1C36.5,46.1,36.5,46,36.5,46z"/>
		<path class="st0" d="M19,63.3c-0.9-0.3-1.7-0.5-2.4-0.8c-0.7-0.2-1.3-0.4-1.7-0.5c-0.2-0.1-0.3-0.1-0.5-0.1
			c-0.1,0-0.2,0.2-0.2,0.2c-0.1,0.1-0.2,0.3-0.1,0.4c0,0,0,0.2,0.1,0.3c0.1,0.1,0.3,0.1,0.5,0.2c0.4,0.1,1,0.3,1.7,0.5
			c0.7,0.2,1.5,0.4,2.4,0.7c0.9,0.2,1.8,0.5,2.7,0.8c1.9,0.5,3.7,1,5.1,1.4c1.4,0.4,2.3,0.6,2.3,0.6c0.1,0,0.1,0,0.2-0.1
			c0-0.1,0-0.2,0-0.2c0,0-0.9-0.3-2.3-0.8c-1.4-0.5-3.2-1.1-5-1.7C20.8,63.9,19.8,63.6,19,63.3z"/>
		<path class="st0" d="M24,80.8c0,0,0,0.1,0,0.2c0,0.1,0,0,0.1,0c0.1,0,0.2,0,0.3,0c0.3,0,0.6,0,0.9,0c0.3,0,0.7,0,0.9-0.1
			c0.3,0,0.4-0.1,0.4-0.1c0,0,0.1-0.1,0.1-0.1c0-0.1,0-0.2-0.1-0.2c0,0-0.2,0-0.4-0.1c-0.3,0-0.6-0.1-0.9-0.1
			c-0.3,0-0.7-0.1-0.9-0.1c-0.1,0-0.2,0-0.3,0c0,0-0.1,0-0.1,0c0,0.1,0,0.2,0,0.2c0.1,0,0.1,0.1,0.1,0.2
			C24.1,80.7,24.1,80.8,24,80.8z"/>
		<path class="st0" d="M26.4,58.3c0.3,0.1,0.6,0.3,0.9,0.4c0.3,0.2,0.7,0.3,1.1,0.5c0.7,0.3,1.5,0.6,2,0.8c0.6,0.2,0.9,0.4,0.9,0.4
			c0.1,0,0.1,0,0.2-0.1c0-0.1,0-0.2,0-0.2c0,0-0.3-0.2-0.9-0.5c-0.5-0.3-1.2-0.7-1.9-1c-0.4-0.2-0.7-0.4-1-0.5
			c-0.3-0.2-0.6-0.3-0.9-0.5c-0.3-0.1-0.5-0.2-0.6-0.3c-0.1,0-0.1-0.1-0.2,0c0,0-0.1,0.1-0.1,0.1c0,0,0,0.1,0,0.1
			c-0.1,0.1-0.1,0.2-0.2,0.4c0,0,0,0,0,0.1c0,0,0,0.1,0,0.1c0,0.1,0.1,0.1,0.2,0.1C25.9,58,26.2,58.2,26.4,58.3z"/>
		<path class="st0" d="M97.1,9.4c0.1,0,0.3,0,0.3,0c0,0,0.2-0.6,0.5-1.4c0.3-0.8,0.7-2,1-3.1c0.2-0.6,0.3-1.1,0.5-1.7
			c0.2-0.5,0.3-1,0.4-1.5c0.1-0.4,0.2-0.8,0.3-1c0-0.1,0.1-0.2,0-0.3c0,0-0.1-0.1-0.2-0.1c0,0-0.1-0.1-0.1-0.1
			C99.8,0.1,99.6,0,99.4,0c0,0-0.1,0-0.1,0c-0.1,0-0.1,0-0.2,0c-0.1,0-0.1,0.2-0.1,0.3c-0.1,0.3-0.2,0.6-0.3,1
			c-0.1,0.4-0.2,0.9-0.4,1.5C98.2,3.4,98,4,97.9,4.5c-0.3,1.2-0.5,2.3-0.7,3.2c-0.2,0.9-0.3,1.5-0.3,1.5C96.9,9.3,97,9.3,97.1,9.4z"
			/>
		<path class="st0" d="M83.6,32c0,0,0.2-1,0.4-2.4c0.2-1.4,0.5-3.3,0.8-5.2c0.1-1,0.3-1.9,0.4-2.8c0.1-0.9,0.3-1.7,0.4-2.4
			c0.1-0.7,0.2-1.3,0.3-1.7c0-0.2,0.1-0.4,0-0.5c-0.1-0.1-0.2-0.2-0.2-0.2c-0.1-0.1-0.3-0.1-0.5-0.1c0,0-0.2,0-0.2,0.1
			c-0.1,0.1-0.1,0.3-0.1,0.5c0,0.4-0.1,1-0.2,1.7c-0.1,0.7-0.2,1.6-0.3,2.5c-0.1,0.9-0.2,1.9-0.3,2.8c-0.2,1.9-0.4,3.8-0.6,5.3
			C83.3,31,83.2,32,83.2,32c0,0.1,0.1,0.1,0.2,0.1C83.5,32.1,83.6,32.1,83.6,32z"/>
		<path class="st0" d="M92.7,25.1c0.1,0,0.2,0,0.2,0c0,0,0.3-0.8,0.7-2.1c0.4-1.3,0.9-2.9,1.5-4.6c0.3-0.8,0.5-1.7,0.7-2.5
			c0.2-0.8,0.5-1.5,0.6-2.2c0.2-0.6,0.3-1.2,0.5-1.5c0-0.2,0.1-0.3,0.1-0.4c-0.1-0.1-0.2-0.2-0.2-0.2c-0.1-0.1-0.3-0.1-0.5-0.1
			c0,0-0.2,0-0.3,0.1c-0.1,0.1-0.1,0.2-0.2,0.4c-0.1,0.4-0.2,0.9-0.4,1.5c-0.2,0.6-0.4,1.4-0.6,2.2c-0.2,0.8-0.4,1.6-0.7,2.5
			c-0.4,1.7-0.9,3.4-1.2,4.7c-0.3,1.3-0.5,2.1-0.5,2.1C92.5,25,92.6,25.1,92.7,25.1z"/>
		<path class="st0" d="M75.7,13.3c0,2,0.1,4.7,0.2,7.4c0.1,2.7,0.1,5.4,0.2,7.4c0.1,2,0.1,3.4,0.1,3.4c0,0.1,0.1,0.1,0.2,0.1
			c0.1,0,0.2,0,0.2-0.1c0,0,0-1.3,0.1-3.4c0.1-2,0.1-4.7,0.1-7.4c0-2.7,0-5.4,0-7.4c0-1,0-1.9,0-2.4c0-0.3,0-0.5-0.1-0.7
			c-0.1-0.2-0.3-0.2-0.3-0.2c0,0,0,0,0,0c-0.1-0.1-0.3-0.1-0.5,0c0,0-0.2,0.1-0.2,0.3c-0.1,0.2,0,0.4,0,0.7
			C75.7,11.4,75.7,12.3,75.7,13.3z"/>
		<path class="st0" d="M90.5,33.5c0,0,0.1-0.4,0.3-0.9c0.2-0.6,0.5-1.3,0.7-2.1c0.1-0.4,0.2-0.8,0.4-1.1c0.1-0.4,0.2-0.7,0.3-1
			c0.1-0.3,0.2-0.5,0.2-0.7c0-0.1,0.1-0.1,0-0.2c0,0-0.1-0.1-0.1-0.1c0,0-0.1,0-0.1,0c-0.1-0.1-0.2-0.1-0.4-0.1c0,0,0,0-0.1,0
			c0,0-0.1,0-0.1,0c-0.1,0-0.1,0.1-0.1,0.2c0,0.2-0.1,0.4-0.2,0.7c-0.1,0.3-0.2,0.6-0.3,1c-0.1,0.4-0.2,0.7-0.3,1.1
			c-0.2,0.8-0.4,1.6-0.5,2.1c-0.1,0.6-0.2,1-0.2,1c0,0.1,0,0.1,0.1,0.1C90.4,33.5,90.5,33.5,90.5,33.5z"/>
		<path class="st0" d="M66.8,18.2c0.1,0.4,0.2,0.9,0.3,1.4c0.1,0.5,0.2,1,0.4,1.4c0.1,0.4,0.2,0.6,0.2,0.6c0,0.1,0.1,0.1,0.2,0.1
			c0.1,0,0.2-0.1,0.2-0.1c0,0,0-0.3,0-0.6c0-0.4,0-0.9-0.1-1.4c0-0.5-0.1-1-0.2-1.4c0-0.2,0-0.3-0.1-0.5c0-0.1,0-0.1-0.1-0.1
			c0,0-0.1,0-0.2,0c0,0-0.1,0-0.1,0c-0.1,0-0.3,0-0.4,0.1c0,0,0,0-0.1,0c-0.1,0-0.1,0-0.1,0.1c-0.1,0,0,0.1,0,0.1
			C66.7,17.9,66.7,18.1,66.8,18.2z"/>
		<path class="st0" d="M68.8,29.4c0,0-0.1,0-0.2,0.1c-0.1,0,0,0.1,0,0.1c0,0.1,0,0.2,0,0.3c0,0.3,0.1,0.6,0.2,0.9
			c0.1,0.3,0.2,0.7,0.2,0.9c0.1,0.2,0.1,0.4,0.1,0.4c0,0,0.1,0.1,0.2,0.1c0.1,0,0.2-0.1,0.2-0.1c0,0,0-0.2,0-0.4c0-0.3,0-0.6,0-0.9
			c0-0.3,0-0.7-0.1-0.9c0-0.1,0-0.2,0-0.3c0,0,0-0.1-0.1-0.1c-0.1,0-0.2,0-0.2,0c0,0.1-0.1,0.1-0.2,0.1
			C68.9,29.5,68.8,29.5,68.8,29.4z"/>
		<path class="st0" d="M67.7,22.6c0,0-0.1,0-0.1,0.1c-0.1,0.1,0,0.1,0,0.2c0,0.2,0.1,0.4,0.1,0.7c0,0.3,0.1,0.6,0.2,0.9
			c0.1,0.3,0.1,0.7,0.2,1.1c0.2,0.7,0.3,1.5,0.4,2c0.1,0.5,0.2,0.9,0.2,0.9c0,0.1,0.1,0.1,0.2,0.1c0.1,0,0.2-0.1,0.2-0.1
			c0,0,0-0.4-0.1-0.9c0-0.6-0.1-1.3-0.2-2c0-0.4-0.1-0.7-0.1-1.1c0-0.3-0.1-0.7-0.1-0.9c0-0.3-0.1-0.5-0.1-0.7c0-0.1,0-0.1-0.1-0.2
			c0,0-0.1,0-0.1,0c0,0-0.1,0-0.1,0C68,22.5,67.9,22.5,67.7,22.6C67.7,22.5,67.7,22.5,67.7,22.6z"/>
		<path class="st0" d="M146.3,68.9c-0.6,0.1-1.4,0.3-2.4,0.5c-2,0.4-4.6,0.9-7.3,1.4c-2.7,0.5-5.3,1-7.3,1.4c-2,0.4-3.3,0.7-3.3,0.7
			c-0.1,0-0.1,0.1-0.1,0.2c0,0.1,0.1,0.2,0.1,0.2c0,0,1.3-0.2,3.3-0.5c2-0.3,4.7-0.7,7.3-1.1c2.7-0.4,5.3-0.9,7.3-1.2
			c1-0.2,1.8-0.3,2.4-0.4c0.3-0.1,0.5,0,0.7-0.2c0.1-0.1,0.2-0.3,0.2-0.3c0,0,0,0,0,0c0-0.1,0-0.3-0.1-0.5c0,0-0.1-0.1-0.3-0.2
			C146.8,68.7,146.6,68.8,146.3,68.9z"/>
		<path class="st0" d="M125.4,48.8c0.1,0.1,0.2,0.1,0.2,0.1c0,0,0.7-0.5,1.9-1.1c1.1-0.7,2.6-1.6,4.1-2.6c0.7-0.5,1.5-1,2.2-1.4
			c0.7-0.4,1.3-0.9,1.9-1.2c0.6-0.4,1-0.7,1.3-0.9c0.2-0.1,0.3-0.2,0.3-0.3c0-0.1,0-0.3,0-0.3c0-0.2-0.2-0.3-0.3-0.4
			c0,0-0.1-0.1-0.3-0.1c-0.1,0-0.2,0.1-0.4,0.2c-0.3,0.2-0.8,0.5-1.3,0.9s-1.2,0.8-1.8,1.3c-0.7,0.5-1.4,1-2.1,1.5
			c-1.4,1-2.9,2-3.9,2.8c-1.1,0.8-1.8,1.3-1.8,1.3C125.3,48.6,125.3,48.7,125.4,48.8z"/>
		<path class="st0" d="M119.3,42.5c-1.4,1.3-2.8,2.6-3.8,3.7c-1,1-1.7,1.7-1.7,1.7c0,0,0,0.1,0,0.2c0.1,0.1,0.2,0.1,0.2,0.1
			c0,0,0.7-0.6,1.8-1.6c1.1-0.9,2.6-2.2,4-3.5c0.7-0.6,1.5-1.3,2.1-1.9c0.7-0.6,1.3-1.2,1.9-1.6c0.5-0.5,1-0.9,1.3-1.2
			c0.1-0.1,0.3-0.2,0.3-0.4c0-0.1,0-0.3,0-0.3c0-0.1-0.2-0.3-0.3-0.3c0,0-0.1-0.1-0.3-0.1c-0.1,0-0.2,0.2-0.4,0.3
			c-0.3,0.3-0.7,0.7-1.3,1.2c-0.5,0.5-1.1,1.1-1.8,1.7C120.7,41.2,120,41.9,119.3,42.5z"/>
		<path class="st0" d="M96.8,35.7c0,0.1,0,0.1,0.1,0.2c0.1,0,0.2,0,0.2,0c0,0,0.7-1.5,1.7-3.7c1-2.2,2.4-5.1,3.7-8.1
			c1.3-2.9,2.7-5.9,3.7-8.1c0.5-1.1,0.9-2,1.2-2.7c0.1-0.3,0.3-0.6,0.3-0.8c0-0.2-0.1-0.4-0.1-0.4c0,0,0,0-0.1-0.1
			c-0.1-0.1-0.3-0.2-0.4-0.2c0,0-0.2,0-0.4,0.2c-0.2,0.1-0.2,0.4-0.4,0.7c-0.3,0.7-0.7,1.6-1.1,2.7c-0.9,2.2-2.2,5.2-3.5,8.2
			c-1.2,3-2.5,6-3.4,8.2C97.4,34.2,96.8,35.7,96.8,35.7z"/>
		<path class="st0" d="M139.2,39.8c0,0,0.5-0.3,1.3-0.7c0.8-0.4,1.8-1.1,2.8-1.7c0.5-0.3,1-0.6,1.5-0.9c0.5-0.3,0.9-0.6,1.3-0.8
			c0.4-0.2,0.7-0.4,0.9-0.6c0.1-0.1,0.2-0.1,0.2-0.2c0-0.1,0-0.1,0-0.2c0-0.1,0-0.1,0-0.1c-0.1-0.2-0.2-0.4-0.3-0.5c0,0,0,0-0.1-0.1
			c-0.1,0-0.1-0.1-0.2-0.1c-0.1-0.1-0.2,0.1-0.3,0.1c-0.2,0.2-0.5,0.4-0.9,0.6c-0.4,0.3-0.8,0.6-1.2,0.9c-0.5,0.3-0.9,0.7-1.4,1
			c-0.9,0.7-1.9,1.4-2.6,2c-0.7,0.6-1.2,0.9-1.2,0.9c0,0,0,0.2,0,0.3C139,39.8,139.1,39.9,139.2,39.8z"/>
		<path class="st0" d="M107.7,30.8c-0.1,0.1-0.2,0.3-0.3,0.6c-0.1,0.2-0.3,0.5-0.5,0.8c-0.2,0.3-0.4,0.6-0.5,1
			c-0.4,0.7-0.7,1.3-1,1.8c-0.3,0.5-0.4,0.8-0.4,0.8c0,0,0,0.1,0.1,0.2c0.1,0.1,0.2,0.1,0.2,0c0,0,0.2-0.3,0.6-0.7
			c0.3-0.4,0.8-1.1,1.2-1.7c0.2-0.3,0.4-0.6,0.6-0.9c0.2-0.3,0.4-0.6,0.5-0.8c0.2-0.2,0.3-0.4,0.4-0.6c0-0.1,0.1-0.1,0.1-0.2
			c0,0-0.1-0.1-0.1-0.1c0,0-0.1-0.1-0.1-0.1c-0.1-0.1-0.2-0.2-0.3-0.2c0,0,0,0-0.1,0c0,0-0.1,0-0.1,0
			C107.7,30.6,107.7,30.7,107.7,30.8z"/>
		<path class="st0" d="M108.9,30.1c0,0,0.2-0.2,0.4-0.5c0.2-0.3,0.5-0.7,0.8-1.1c0.3-0.4,0.6-0.8,0.8-1.2c0.1-0.2,0.2-0.3,0.2-0.4
			c0-0.1,0.1-0.1,0-0.1c0,0-0.1-0.1-0.1-0.1c0,0-0.1,0-0.1,0c-0.1-0.1-0.2-0.2-0.4-0.2c0,0,0,0-0.1,0c0,0-0.1,0-0.1-0.1
			c-0.1,0-0.1,0-0.1,0.1c-0.1,0.1-0.1,0.2-0.2,0.4c-0.2,0.3-0.4,0.8-0.7,1.2c-0.2,0.5-0.5,0.9-0.6,1.3c-0.2,0.3-0.3,0.6-0.3,0.6
			c0,0,0,0.1,0.1,0.2C108.7,30.1,108.8,30.1,108.9,30.1z"/>
		<path class="st0" d="M108.6,43c0,0,0,0.1,0.1,0.2c0.1,0.1,0.2,0.1,0.2,0c0,0,0.9-1,2.2-2.5c1.3-1.5,3.1-3.6,4.9-5.6
			c1.8-2.1,3.5-4.1,4.8-5.6c0.7-0.8,1.2-1.4,1.6-1.9c0.2-0.2,0.4-0.4,0.4-0.6c0-0.2,0-0.3,0-0.3c0,0,0,0,0,0
			c-0.1-0.1-0.2-0.3-0.4-0.3c0,0-0.2,0-0.3,0c-0.2,0.1-0.3,0.3-0.5,0.5c-0.4,0.5-0.9,1.1-1.5,1.9c-1.3,1.6-3,3.7-4.7,5.8
			c-1.7,2.1-3.4,4.2-4.6,5.8C109.5,42,108.6,43,108.6,43z"/>
		<path class="st0" d="M138.2,61.3C138.2,61.3,138.2,61.3,138.2,61.3c-0.1-0.1-0.1-0.2-0.1-0.2c-0.1-0.1-0.1,0-0.1,0
			c-0.1,0-0.3,0.1-0.4,0.2c-0.4,0.1-0.8,0.3-1.3,0.5c-0.5,0.2-0.9,0.4-1.3,0.6c-0.3,0.2-0.6,0.3-0.6,0.3c0,0-0.1,0.1,0,0.2
			c0,0.1,0.1,0.2,0.2,0.2c0,0,0.3,0,0.6-0.1c0.4-0.1,0.9-0.2,1.4-0.3c0.5-0.1,1-0.3,1.3-0.4c0.2-0.1,0.3-0.1,0.4-0.1
			c0,0,0.1,0,0.1-0.1c0,0,0-0.1,0-0.2c0,0,0-0.1,0-0.1C138.3,61.6,138.3,61.5,138.2,61.3z"/>
		<path class="st0" d="M53.4,31.3c0.1,0.3,0.3,0.6,0.4,0.9c0.2,0.3,0.3,0.7,0.5,1.1c0.4,0.7,0.7,1.4,1,2c0.3,0.5,0.5,0.9,0.5,0.9
			c0,0,0.1,0.1,0.2,0c0.1,0,0.1-0.1,0.1-0.2c0,0-0.1-0.4-0.3-0.9c-0.2-0.6-0.5-1.3-0.8-2.1c-0.1-0.4-0.3-0.7-0.4-1.1
			c-0.1-0.3-0.3-0.7-0.4-0.9c-0.1-0.3-0.2-0.5-0.3-0.7c0-0.1,0-0.2-0.1-0.2c0,0-0.1,0-0.1,0c0,0-0.1,0-0.1,0c-0.1,0-0.2,0.1-0.4,0.2
			c0,0,0,0-0.1,0c0,0-0.1,0.1-0.1,0.1c-0.1,0.1,0,0.1,0,0.2C53.2,30.8,53.3,31,53.4,31.3z"/>
		<path class="st0" d="M0.3,46.3c0.2,0.1,0.6,0.3,1,0.4c0.4,0.2,0.9,0.4,1.4,0.6c0.5,0.2,1.1,0.5,1.6,0.7c1.1,0.4,2.2,0.9,3,1.2
			c0.8,0.3,1.4,0.5,1.4,0.5c0.1,0,0.1-0.1,0.2-0.2c0.1-0.1,0.1-0.3,0-0.3c0,0-0.5-0.3-1.3-0.7c-0.8-0.4-1.8-1-2.9-1.5
			c-0.5-0.3-1.1-0.5-1.6-0.8c-0.5-0.2-1-0.5-1.4-0.7c-0.4-0.2-0.7-0.4-1-0.5c-0.1,0-0.2-0.1-0.3-0.1c-0.1,0-0.1,0.1-0.2,0.1
			c0,0-0.1,0.1-0.1,0.1c-0.1,0.2-0.2,0.3-0.2,0.5c0,0,0,0.1,0,0.1c0,0.1,0,0.1,0,0.2C0,46.2,0.1,46.2,0.3,46.3z"/>
		<path class="st0" d="M6.3,69.8C6.2,69.9,6.1,70,6.1,70c0,0,0,0,0,0C6,70.2,5.9,70.4,6,70.5c0,0,0.1,0.2,0.2,0.3
			c0.1,0.1,0.4,0.1,0.7,0.2c0.6,0.1,1.4,0.2,2.4,0.3c2,0.3,4.7,0.7,7.4,1.1c2.7,0.4,5.4,0.7,7.4,1c2,0.3,3.3,0.4,3.3,0.4
			c0.1,0,0.1-0.1,0.1-0.2c0-0.1,0-0.2-0.1-0.2c0,0-1.3-0.2-3.3-0.6c-2-0.4-4.7-0.8-7.3-1.3c-2.7-0.5-5.3-0.9-7.3-1.3
			c-1-0.2-1.8-0.3-2.4-0.4C6.7,69.8,6.5,69.7,6.3,69.8z"/>
		<path class="st0" d="M41.6,6.2c0.2,0.4,0.4,0.9,0.7,1.4c0.2,0.5,0.5,1,0.8,1.6c0.6,1.1,1.1,2.1,1.5,2.9c0.4,0.8,0.7,1.3,0.7,1.3
			c0,0,0.1,0,0.3,0c0.1-0.1,0.2-0.2,0.2-0.2c0,0-0.2-0.6-0.5-1.4c-0.3-0.8-0.8-1.9-1.2-3c-0.2-0.6-0.5-1.1-0.7-1.6
			c-0.2-0.5-0.4-1-0.6-1.4c-0.2-0.4-0.3-0.7-0.4-1c-0.1-0.1-0.1-0.2-0.2-0.2c-0.1,0-0.1,0-0.2,0c-0.1,0-0.1,0-0.1,0
			c-0.2,0-0.4,0.1-0.5,0.2c0,0,0,0-0.1,0.1c0,0-0.1,0.1-0.1,0.2c-0.1,0.1,0,0.2,0.1,0.3C41.3,5.4,41.4,5.8,41.6,6.2z"/>
		<path class="st0" d="M43.2,28.2c-0.4-0.6-0.7-1.1-0.9-1.5c-0.1-0.2-0.2-0.3-0.3-0.4c-0.1-0.1-0.3,0-0.3,0c-0.1,0-0.3,0.1-0.4,0.2
			c0,0-0.1,0.1-0.1,0.3c0,0.1,0.1,0.3,0.2,0.4c0.2,0.4,0.6,0.9,1,1.5c0.4,0.6,0.9,1.3,1.4,2.1c0.5,0.8,1,1.6,1.6,2.4
			c1.1,1.6,2.2,3.2,3,4.4c0.8,1.2,1.4,2,1.4,2c0,0,0.1,0,0.2,0c0.1-0.1,0.1-0.1,0.1-0.2c0,0-0.5-0.8-1.2-2.1C48,36,47,34.4,46,32.7
			c-0.5-0.8-1-1.6-1.5-2.4C44,29.5,43.5,28.8,43.2,28.2z"/>
		<path class="st0" d="M47,17.5c0.3,0.6,0.6,1.3,1,2c0.4,0.7,0.7,1.5,1.1,2.3c0.8,1.6,1.5,3.2,2.1,4.3c0.6,1.2,1,2,1,2
			c0,0.1,0.1,0.1,0.2,0c0.1,0,0.2-0.1,0.1-0.2c0,0-0.3-0.8-0.8-2c-0.5-1.2-1.2-2.8-1.9-4.5c-0.3-0.8-0.7-1.6-1-2.4
			c-0.3-0.8-0.6-1.5-0.9-2.1c-0.3-0.6-0.5-1.1-0.6-1.5c-0.1-0.2-0.1-0.3-0.2-0.4c-0.1-0.1-0.3,0-0.3,0c-0.2,0-0.3,0.1-0.5,0.2
			c0,0-0.1,0.1-0.2,0.2c0,0.1,0.1,0.2,0.1,0.4C46.5,16.4,46.7,16.9,47,17.5z"/>
		<path class="st0" d="M31.9,30.1c1.3,1.5,3.1,3.5,4.9,5.6c1.8,2,3.6,4,5,5.5c1.4,1.5,2.3,2.5,2.3,2.5c0,0,0.1,0,0.2,0
			c0.1-0.1,0.1-0.2,0.1-0.2c0,0-0.9-1-2.1-2.6c-1.3-1.6-3-3.6-4.7-5.7c-1.7-2.1-3.5-4.1-4.8-5.7c-0.7-0.8-1.2-1.4-1.6-1.9
			c-0.2-0.2-0.3-0.4-0.5-0.5c-0.2-0.1-0.3,0-0.3,0c0,0,0,0,0,0c-0.1,0.1-0.3,0.2-0.3,0.3c0,0-0.1,0.2,0,0.3c0,0.2,0.2,0.3,0.4,0.6
			C30.6,28.7,31.2,29.4,31.9,30.1z"/>
		<path class="st0" d="M11.2,51.2c0.3,0.2,0.8,0.4,1.4,0.7c0.6,0.3,1.3,0.6,2,0.9c0.8,0.3,1.5,0.7,2.4,1.1c1.6,0.7,3.2,1.4,4.4,1.9
			c1.2,0.5,2,0.9,2,0.9c0.1,0,0.1,0,0.2-0.1c0-0.1,0-0.2,0-0.2c0,0-0.8-0.4-1.9-1c-1.2-0.6-2.7-1.4-4.3-2.2
			c-0.8-0.4-1.6-0.8-2.3-1.1c-0.7-0.4-1.4-0.7-2-1c-0.6-0.3-1.1-0.5-1.4-0.7c-0.2-0.1-0.3-0.2-0.4-0.1c-0.1,0-0.3,0.2-0.3,0.2
			c-0.1,0.1-0.2,0.3-0.2,0.5c0,0,0,0.2,0,0.3C10.9,51.1,11,51.1,11.2,51.2z"/>
		<path class="st0" d="M27.9,39.4c0.1,0.1,0.2,0.2,0.4,0.3c0.3,0.2,0.7,0.6,1.1,0.9c0.4,0.3,0.8,0.6,1.1,0.8
			c0.3,0.2,0.5,0.3,0.5,0.3c0,0,0.1,0,0.2-0.1c0.1-0.1,0.1-0.2,0.1-0.2c0,0-0.2-0.2-0.4-0.5c-0.3-0.3-0.6-0.6-1-1
			c-0.4-0.4-0.7-0.7-1-0.9c-0.1-0.1-0.3-0.2-0.3-0.3c0,0-0.1-0.1-0.1,0c0,0-0.1,0.1-0.1,0.1c0,0-0.1,0-0.1,0
			c-0.1,0.1-0.2,0.2-0.3,0.3c0,0,0,0,0,0.1c0,0-0.1,0.1-0.1,0.1C27.8,39.4,27.8,39.4,27.9,39.4z"/>
		<path class="st0" d="M13.9,41c0.6,0.4,1.4,0.9,2.5,1.6c2,1.3,4.8,3,7.5,4.8c2.7,1.7,5.5,3.5,7.5,4.7c2.1,1.3,3.4,2.1,3.4,2.1
			c0.1,0,0.1,0,0.2-0.1c0.1-0.1,0.1-0.2,0-0.2c0,0-1.3-0.9-3.3-2.3c-2-1.4-4.7-3.2-7.3-5c-2.7-1.8-5.4-3.6-7.4-5
			c-1-0.7-1.8-1.2-2.4-1.6c-0.3-0.2-0.5-0.4-0.7-0.4c-0.2,0-0.4,0.1-0.4,0.1c0,0,0,0-0.1,0c-0.1,0.1-0.2,0.3-0.2,0.4
			c0,0,0,0.2,0.1,0.4C13.4,40.7,13.6,40.8,13.9,41z"/>
	</g>
	<g>
		<g>
			<g>
				<path class="st0" d="M75.3,108.9c-0.9,0-1.9-0.4-2.6-1.1c-0.7-0.7-1.1-1.6-1.1-2.6c0-0.1,0-0.2,0-0.3c-1,0.1-2.1-0.3-2.9-1.1
					c-0.8-0.8-1.1-1.9-1.1-2.9c-1,0.1-2.1-0.3-2.9-1.1c-0.7-0.7-1.1-1.6-1.1-2.6c0-0.1,0-0.2,0-0.3c-1,0.1-2.1-0.3-2.9-1.1
					c-1.4-1.4-1.4-3.8,0-5.2l0.6-0.6l1.3,1.3L62.1,92c-0.4,0.4-0.6,0.8-0.6,1.3s0.2,1,0.6,1.3c0.7,0.7,1.9,0.7,2.7,0l0.6-0.6
					l1.3,1.3L66,96c-0.7,0.7-0.7,1.9,0,2.7c0.7,0.7,1.9,0.7,2.7,0l0.6-0.6l1.3,1.3L70,99.9c-0.7,0.7-0.7,1.9,0,2.7
					c0.7,0.7,1.9,0.7,2.7,0l0.6-0.6l1.3,1.3l-0.6,0.6c-0.4,0.4-0.6,0.8-0.6,1.3c0,0.5,0.2,1,0.6,1.3c0.7,0.7,1.9,0.7,2.7,0l0.6-0.6
					l1.3,1.3l-0.6,0.6C77.2,108.6,76.2,108.9,75.3,108.9z"/>
			</g>
			<g>
				<path class="st0" d="M80.5,109C80.5,109,80.5,109,80.5,109c-1,0-1.9-0.4-2.6-1.1L60.4,90.4c-0.5-0.5-0.8-1.2-0.8-2v-1.3
					c0-0.3-0.1-0.5-0.3-0.7l-4.2-4.2l14.6-14.5L86,67.8l14.5,14.5l-4.2,4.2C96.1,86.8,96,87,96,87.3v1.3c0,0.7-0.3,1.4-0.8,2
					l-0.3,0.3l0.6,0.6c1.4,1.4,1.4,3.8,0,5.2c-0.5,0.5-1.1,0.8-1.8,1c1,1.4,0.8,3.4-0.5,4.7c-0.7,0.7-1.6,1.1-2.6,1.1c0,0,0,0,0,0
					c-0.5,0-1-0.1-1.4-0.3c-0.1,0.7-0.5,1.5-1,2c-1.1,1.1-2.7,1.4-4,0.8c-0.1,0.8-0.5,1.5-1,2C82.4,108.6,81.5,109,80.5,109z
					 M57.6,82.2l3,3c0.5,0.5,0.8,1.2,0.8,2v1.3c0,0.3,0.1,0.5,0.3,0.7l17.5,17.5c0.4,0.4,0.8,0.6,1.3,0.6c0,0,0,0,0,0
					c0.5,0,1-0.2,1.3-0.6c0.4-0.4,0.6-0.8,0.6-1.3c0-0.5-0.2-1-0.5-1.3l-8.2-8.2l1.3-1.3l8.2,8.2c0,0,0,0,0,0l1.1,1.1
					c0.7,0.7,1.9,0.7,2.7,0c0.7-0.7,0.7-1.9,0-2.7l-9.3-9.3l1.3-1.3l9.3,9.3c0,0,0,0,0,0l1.1,1.1c0.7,0.7,1.9,0.7,2.7,0
					c0.7-0.7,0.7-1.9,0-2.7l-1.7-1.7c0,0,0,0,0,0l-8.7-8.8l1.3-1.3l8.8,8.8c0.7,0.7,1.9,0.7,2.7,0c0.7-0.7,0.7-1.9,0-2.7L80.5,78.9
					c-0.5-0.5-0.8-1.2-0.8-2v-1.1c0-0.5-0.4-1-1-1h-0.3c-0.3,0-0.5,0.1-0.7,0.3l-5.1,5.1c-0.7,0.7-1.6,1.1-2.6,1.1c0,0,0,0,0,0
					c-1,0-1.9-0.4-2.6-1.1c-1.4-1.4-1.4-3.8,0-5.2l5.4-5.4l-2.6,0L57.6,82.2z M78.5,73h0.3c1.5,0,2.8,1.2,2.8,2.8v1.1
					c0,0.3,0.1,0.5,0.3,0.7l11.9,11.9l0.3-0.3c0.2-0.2,0.3-0.4,0.3-0.7v-1.3c0-0.7,0.3-1.4,0.8-2l3-3L85.3,69.6l-9.8-0.1l-6.7,6.7
					c-0.7,0.7-0.7,1.9,0,2.7c0.4,0.4,0.8,0.6,1.3,0.6c0,0,0,0,0,0c0.5,0,1-0.2,1.3-0.6l5.1-5.1C77,73.3,77.7,73,78.5,73z"/>
			</g>
			<g>
				<path class="st0" d="M54.1,85.7l-6.3-6.3L67.1,60l6.3,6.3L54.1,85.7z M50.3,79.3l3.8,3.8l16.8-16.8l-3.8-3.8L50.3,79.3z"/>
			</g>
			<g>
				<path class="st0" d="M101.5,85.8L82.2,66.5l6.3-6.3l19.3,19.3L101.5,85.8z M84.7,66.5l16.8,16.8l3.8-3.8L88.5,62.7L84.7,66.5z"
					/>
			</g>
		</g>
		<g>
			<path class="st0" d="M47.8,70.7L46.2,70c0.9-2,1.9-4,3.2-5.8c1.2-1.8,2.6-3.5,4.2-5.1c1.6-1.6,3.3-3,5.1-4.2
				c1.8-1.2,3.8-2.3,5.8-3.2c2.1-0.9,4.2-1.5,6.4-2c4.5-0.9,9.3-0.9,13.8,0c2.2,0.5,4.4,1.1,6.4,2l-0.7,1.6c-2-0.8-4-1.5-6.1-1.9
				c-4.3-0.9-8.8-0.9-13.1,0c-2.1,0.4-4.1,1.1-6.1,1.9c-1.9,0.8-3.8,1.8-5.5,3c-1.7,1.2-3.3,2.5-4.8,4c-1.5,1.5-2.8,3.1-4,4.8
				C49.6,66.9,48.6,68.8,47.8,70.7z"/>
		</g>
		<g>
			<path class="st0" d="M70.9,116.9c-2.2-0.5-4.4-1.1-6.4-2c-2-0.9-4-1.9-5.8-3.2c-1.8-1.2-3.5-2.6-5.1-4.2c-1.6-1.6-3-3.3-4.2-5.1
				l1.5-1c1.2,1.7,2.5,3.3,4,4.8c1.5,1.5,3.1,2.8,4.8,4c1.7,1.2,3.6,2.2,5.5,3c2,0.8,4,1.5,6.1,1.9L70.9,116.9z"/>
		</g>
		<g>
			<path class="st0" d="M102,107.6l-1.3-1.3c1.5-1.5,2.8-3.1,4-4.8c1.2-1.7,2.2-3.6,3-5.5c0.8-2,1.5-4,1.9-6.1
				c0.4-2.1,0.7-4.3,0.7-6.6h1.8c0,2.3-0.2,4.7-0.7,6.9c-0.5,2.2-1.1,4.4-2,6.4c-0.9,2-1.9,4-3.2,5.8C105,104.3,103.6,106,102,107.6
				z"/>
		</g>
		<g>
			<path class="st0" d="M107.3,69.7l-0.4-0.8l1.6-0.7l0.7,1.6l-1.6,0.8C107.3,69.7,107.6,70.5,107.3,69.7z M105.4,66.2l-0.5-0.7
				l1.5-0.9l0.9,1.5l-1.5,0.9C105.4,66.2,105.8,66.9,105.4,66.2z M103.1,62.9l-0.6-0.7l1.4-1.1l1.1,1.4l-1.4,1.1
				C103.1,62.9,103.6,63.6,103.1,62.9z M100.4,60l-0.6-0.6l1.2-1.3l1.3,1.2l-1.2,1.3C100.4,60,101,60.6,100.4,60z M97.3,57.4
				L97.3,57.4l-0.7-0.5l1.1-1.4l0.7,0.5l0,0l0.7,0.5L98,57.9C97.3,57.4,98,57.9,97.3,57.4z M94,55.2l-0.8-0.4l0.9-1.5l1.6,0.9
				l-0.9,1.5C94,55.2,94.8,55.6,94,55.2z M90.4,53.4L89.6,53l0.7-1.6l0.8,0.4l0,0l0.8,0.3l-0.7,1.6C90.4,53.4,91.3,53.7,90.4,53.4z"
				/>
		</g>
		<g>
			<path class="st0" d="M49.3,102.5L49.3,102.5l-0.5-0.7l1.5-1l1,1.5l-1.5,1C49.3,102.5,49.8,103.3,49.3,102.5z M47.2,98.9l-0.4-0.8
				l1.6-0.8l0.4,0.8l0,0l0.4,0.8l-1.6,0.8C47.2,98.9,47.6,99.7,47.2,98.9z M45.5,95l-0.3-0.8l1.7-0.6l0.6,1.7l-1.7,0.6
				C45.5,95,45.8,95.9,45.5,95z M44.3,91l-0.2-0.9l1.7-0.4l0.4,1.7l-1.7,0.4C44.3,91,44.6,91.9,44.3,91z M43.7,86.8L43.7,86.8
				L43.6,86l1.8-0.2l0.2,1.8l-1.8,0.2C43.7,86.8,43.7,87.7,43.7,86.8z"/>
		</g>
		<g>
			<path class="st0" d="M86.3,114.7l1.7-0.5l0.5,1.7l-0.9,0.3l0,0l-0.9,0.2C86.3,114.7,86.9,116.4,86.3,114.7z M90.1,113.4l1.6-0.7
				l0.7,1.6l-1.6,0.7C90.1,113.4,90.9,115.1,90.1,113.4z M93.7,111.7l1.5-0.9l0.9,1.5l-1.5,0.9C93.7,111.7,94.6,113.2,93.7,111.7z
				 M97.1,109.5l1.4-1.1l1.1,1.4l-1.4,1.1C97.1,109.5,98.2,110.9,97.1,109.5z M100.1,107l1.3-1.3l1.2,1.3l-0.6,0.6l0,0l-0.6,0.6
				C100.1,107,101.4,108.2,100.1,107z"/>
		</g>
	</g>
</g>
</svg>
