<svg id="Layer_1" data-name="Layer 1" xmlns="http://www.w3.org/2000/svg" viewBox="0 0 27.88 5.83"><defs><style>.cls-1{fill:#ff593e;}</style></defs><title>dash-graphic-orange</title><path class="cls-1" d="M27.7.5S26,.5,23.4.4,17.3.3,13.9.2C12.2.2,10.4.2,8.8.1H4.4C3.1,0,2,0,1.3,0,.9,0,.6-.1.4.1A.78.78,0,0,0,.1.5a.85.85,0,0,0,0,.7,1.73,1.73,0,0,0,.3.4,2.22,2.22,0,0,0,.9.1c.8,0,1.8,0,3.1-.1s2.8,0,4.4-.1,3.3-.1,5.1-.1c3.5-.1,6.9-.2,9.5-.3S27.7,1,27.7,1s.2-.1.2-.3A.22.22,0,0,0,27.7.5Z" transform="translate(-0.03 0.03)"/><path class="cls-1" d="M27.7,4.5s-1.7,0-4.3-.1-6.1-.1-9.5-.2c-1.7,0-3.5,0-5.1-.1H1.3c-.4,0-.7-.1-.9,0a1.73,1.73,0,0,0-.3.4,1.1,1.1,0,0,0,0,.8,1.73,1.73,0,0,0,.3.4,2.22,2.22,0,0,0,.9.1c.8,0,1.8,0,3.1-.1s2.8,0,4.4-.1,3.3-.1,5.1-.1c3.5-.1,6.9-.2,9.5-.3S27.7,5,27.7,5s.2-.1.2-.3A.22.22,0,0,0,27.7,4.5Z" transform="translate(-0.03 0.03)"/></svg>