<?xml version="1.0" encoding="utf-8"?>
<!-- Generator: Adobe Illustrator 21.1.0, SVG Export Plug-In . SVG Version: 6.00 Build 0)  -->
<svg version="1.1" id="Layer_1" xmlns="http://www.w3.org/2000/svg" xmlns:xlink="http://www.w3.org/1999/xlink" x="0px" y="0px"
	 viewBox="0 0 27.9 5.8" style="enable-background:new 0 0 27.9 5.8;" xml:space="preserve">
<style type="text/css">
	.st0{fill:#FFFFFF;}
</style>
<path class="st0" d="M27.7,0.5c0,0-1.7,0-4.3-0.1c-2.6-0.1-6.1-0.1-9.5-0.2c-1.7,0-3.5,0-5.1-0.1c-1.6,0-3.1,0-4.4,0
	C3.1,0,2,0,1.3,0C0.9,0,0.6-0.1,0.4,0.1C0.2,0.2,0.1,0.5,0.1,0.5C0,0.7,0,1,0.1,1.2c0,0,0.1,0.2,0.3,0.4c0.2,0.1,0.5,0.1,0.9,0.1
	c0.8,0,1.8,0,3.1-0.1c1.3,0,2.8,0,4.4-0.1c1.6,0,3.3-0.1,5.1-0.1c3.5-0.1,6.9-0.2,9.5-0.3C26,1.1,27.7,1,27.7,1
	c0.1,0,0.2-0.1,0.2-0.3C27.9,0.6,27.8,0.5,27.7,0.5z"/>
<path class="st0" d="M27.7,4.5c0,0-1.7,0-4.3-0.1c-2.6-0.1-6.1-0.1-9.5-0.2c-1.7,0-3.5,0-5.1-0.1c-1.6,0-3.1,0-4.4,0
	c-1.3,0-2.4,0-3.1,0C0.9,4.1,0.6,4,0.4,4.1C0.2,4.3,0.1,4.5,0.1,4.5C0,4.7,0,5.1,0.1,5.3c0,0,0.1,0.2,0.3,0.4
	c0.2,0.1,0.5,0.1,0.9,0.1c0.8,0,1.8,0,3.1-0.1c1.3,0,2.8,0,4.4-0.1c1.6,0,3.3-0.1,5.1-0.1c3.5-0.1,6.9-0.2,9.5-0.3
	c2.6-0.1,4.3-0.2,4.3-0.2c0.1,0,0.2-0.1,0.2-0.3C27.9,4.6,27.8,4.5,27.7,4.5z"/>
</svg>
