<?xml version="1.0" encoding="utf-8"?>
<!-- Generator: Adobe Illustrator 21.1.0, SVG Export Plug-In . SVG Version: 6.00 Build 0)  -->
<svg version="1.1" id="Layer_1" xmlns="http://www.w3.org/2000/svg" xmlns:xlink="http://www.w3.org/1999/xlink" x="0px" y="0px"
	 viewBox="0 0 176.3 126.8" style="enable-background:new 0 0 176.3 126.8;" xml:space="preserve">
<style type="text/css">
	.st0{fill:#FFFFFF;}
</style>
<g>
	<g>
		<g>
			<g>
				<path class="st0" d="M116.5,64.1h-6v-0.9c0-1.2-0.9-2.1-2.1-2.1c-0.6,0-1,0.3-1.3,0.5l-0.8,0.6l-0.5-0.8
					c-0.6-0.9-1.7-1.5-2.8-1.5c-1.1,0-2.1,0.5-2.8,1.5l-0.4,0.5l-0.6-0.2c-0.2-0.1-0.3-0.1-0.5-0.1c-0.9,0-1.6,0.7-1.6,1.6v0.9h-3.8
					v-1.8h2.1c0.4-1.5,1.9-2.7,3.6-2.5c1-1.1,2.4-1.8,3.9-1.8c1.4,0,2.8,0.6,3.7,1.6c0.5-0.2,1.1-0.4,1.6-0.4c1.8,0,3.4,1.3,3.8,3
					h4.4V64.1z"/>
			</g>
			<g>
				<rect x="89.5" y="62.3" class="st0" width="2.1" height="1.8"/>
			</g>
			<g>
				<rect x="118.5" y="62.3" class="st0" width="2.1" height="1.8"/>
			</g>
		</g>
		<g>
			<g>
				<path class="st0" d="M73.7,67.1H70v-0.9c0-0.9-0.7-1.6-1.6-1.6c-0.1,0-0.3,0-0.5,0.1l-0.6,0.2l-0.4-0.5
					c-0.6-0.9-1.6-1.5-2.8-1.5c-1.1,0-2.1,0.6-2.8,1.5c-0.3,0.3-0.8,1.1-0.8,1.8v0.9h-4.9v-1.8h3.2c0.3-1.1,1-1.9,1.1-2
					c0.9-1.3,2.5-2.2,4.2-2.2c1.5,0,2.9,0.6,3.8,1.8c1.7-0.2,3.2,0.9,3.6,2.5h2.1V67.1z"/>
			</g>
			<g>
				<rect x="75.7" y="65.3" class="st0" width="2.1" height="1.8"/>
			</g>
		</g>
	</g>
	<g>
		<g>
			<path class="st0" d="M73.5,110.3h-8.1V95.4c0-2.2,1.8-4,4-4c2.2,0,4,1.8,4,4V110.3z M67.2,108.5h4.5V95.4c0-1.2-1-2.3-2.3-2.3
				c-1.2,0-2.3,1-2.3,2.3V108.5z"/>
		</g>
		<g>
			<path class="st0" d="M86.2,110.3h-8.1V95.4c0-2.2,1.8-4,4-4s4,1.8,4,4V110.3z M79.9,108.5h4.5V95.4c0-1.2-1-2.3-2.3-2.3
				s-2.3,1-2.3,2.3V108.5z"/>
		</g>
		<g>
			<path class="st0" d="M98.9,110.3h-8.1V95.4c0-2.2,1.8-4,4-4c2.2,0,4,1.8,4,4V110.3z M92.5,108.5h4.5V95.4c0-1.2-1-2.3-2.3-2.3
				c-1.2,0-2.3,1-2.3,2.3V108.5z"/>
		</g>
		<g>
			<path class="st0" d="M111.5,110.3h-8.1V95.4c0-2.2,1.8-4,4-4c2.2,0,4,1.8,4,4V110.3z M105.2,108.5h4.5V95.4c0-1.2-1-2.3-2.3-2.3
				s-2.3,1-2.3,2.3V108.5z"/>
		</g>
	</g>
	<g>
		<path class="st0" d="M117.6,119.3H58.7v-5.5h58.8V119.3z M60.5,117.5h55.3v-1.9H60.5V117.5z"/>
	</g>
	<g>
		<path class="st0" d="M121.2,123H55v-5.5h66.2V123z M56.8,121.3h62.6v-1.9H56.8V121.3z"/>
	</g>
	<g>
		<path class="st0" d="M125.3,126.8H50.9v-5.5h74.4V126.8z M52.7,125h70.8V123H52.7V125z"/>
	</g>
	<g>
		<path class="st0" d="M125.3,88.1H50.9v-5.5h2.8v-5.1h20l14.4-10.3l14.4,10.3h20v5.1h2.8V88.1z M52.7,86.3h70.8v-1.9h-2.8v-5.1
			h-18.8l-13.8-9.8l-13.8,9.8H55.5v5.1h-2.8V86.3z"/>
	</g>
	<g>
		<rect x="58.7" y="87.2" class="st0" width="1.8" height="27.5"/>
	</g>
	<g>
		<rect x="115.8" y="87.2" class="st0" width="1.8" height="27.5"/>
	</g>
	<g>
		<path class="st0" d="M88.1,83.8c-2.3,0-4.2-1.9-4.2-4.2c0-2.3,1.9-4.2,4.2-4.2c2.3,0,4.2,1.9,4.2,4.2
			C92.4,81.9,90.5,83.8,88.1,83.8z M88.1,77.1c-1.4,0-2.5,1.1-2.5,2.5c0,1.4,1.1,2.5,2.5,2.5c1.4,0,2.5-1.1,2.5-2.5
			C90.6,78.2,89.5,77.1,88.1,77.1z"/>
	</g>
	<g>
		<rect x="54.6" y="82.6" class="st0" width="10.4" height="1.8"/>
	</g>
	<g>
		<rect x="111.3" y="82.6" class="st0" width="10.4" height="1.8"/>
	</g>
</g>
<g>
	<path class="st0" d="M29.9,64.8c2.5,1,5.1,2,7,2.7c1.9,0.7,3.2,1.2,3.2,1.2c0.2,0.1,0.4,0,0.5-0.2c0.1-0.2,0-0.4-0.2-0.5
		c0,0-1.2-0.6-3.1-1.4c-1.8-0.9-4.3-1.9-6.8-3.1c-1.2-0.6-2.5-1.1-3.7-1.6c-1.2-0.5-2.3-1-3.2-1.4c-0.9-0.4-1.7-0.7-2.3-1
		c-0.3-0.1-0.5-0.3-0.7-0.2c-0.1,0-0.2,0.1-0.3,0.2c-0.1,0-0.1,0.1-0.1,0.1C20.1,59.8,20,60,20,60.3c0,0,0,0.1,0,0.1
		c0,0.1,0,0.2,0.1,0.3c0.1,0.2,0.3,0.2,0.6,0.3c0.6,0.2,1.3,0.5,2.3,0.9c0.9,0.4,2,0.8,3.2,1.3C27.4,63.8,28.6,64.3,29.9,64.8z"/>
	<path class="st0" d="M23.5,71.9c0.4,0.1,1,0.3,1.7,0.4c1.4,0.4,3.2,0.9,5,1.3c1.8,0.5,3.7,0.9,5.1,1.2c1.4,0.3,2.3,0.5,2.3,0.5
		c0.3,0.1,0.6-0.1,0.7-0.4c0.1-0.3-0.1-0.6-0.4-0.7c0,0-0.9-0.3-2.3-0.7c-1.4-0.4-3.2-1-5-1.5c-1.8-0.5-3.6-1-5-1.4
		c-0.7-0.2-1.3-0.4-1.7-0.5c-0.2,0-0.3-0.1-0.5-0.1c-0.1,0.1-0.2,0.2-0.2,0.2C23,70.7,22.9,71,23,71.4c0,0,0,0.2,0.1,0.3
		C23.1,71.8,23.3,71.8,23.5,71.9z"/>
	<path class="st0" d="M23.3,80.4c0.1,0.2,0.2,0.1,0.4,0.1c0.4,0,0.9,0.1,1.5,0.2c0.6,0.1,1.4,0.2,2.2,0.3c0.8,0.1,1.6,0.2,2.5,0.3
		c1.7,0.2,3.4,0.3,4.7,0.4c1.3,0.1,2.1,0.1,2.1,0.1c0.2,0,0.3-0.1,0.4-0.3c0-0.2-0.1-0.4-0.3-0.5c0,0-0.8-0.2-2.1-0.4
		c-1.3-0.3-2.9-0.5-4.6-0.8c-0.8-0.2-1.7-0.3-2.5-0.4c-0.8-0.1-1.5-0.2-2.2-0.3c-0.6-0.1-1.2-0.2-1.5-0.2c-0.2,0-0.3-0.1-0.4,0
		c-0.1,0.1-0.1,0.2-0.1,0.2c0,0.1-0.1,0.1-0.1,0.1c-0.1,0.2-0.1,0.5-0.1,0.7c0,0,0,0.1,0,0.1C23.2,80.2,23.3,80.3,23.3,80.4z"/>
	<path class="st0" d="M148.9,62.7c0,0,0-0.1-0.1-0.1c-0.1-0.1-0.1-0.1-0.2-0.2c-0.2-0.1-0.3,0-0.4,0.1c-0.4,0.1-0.9,0.4-1.5,0.6
		c-0.6,0.3-1.3,0.6-2.1,0.9c-0.7,0.3-1.6,0.7-2.3,1c-1.6,0.7-3.2,1.4-4.4,2c-1.2,0.6-2,1-2,1c-0.2,0.1-0.2,0.3-0.2,0.4
		c0.1,0.2,0.3,0.3,0.5,0.2c0,0,0.8-0.3,2.1-0.7c1.2-0.4,2.9-1,4.5-1.6c0.8-0.3,1.6-0.6,2.4-0.9c0.8-0.3,1.5-0.6,2.1-0.8
		c0.6-0.2,1.1-0.5,1.5-0.6c0.2-0.1,0.3-0.1,0.4-0.2c0-0.1,0-0.2,0-0.3c0-0.1,0-0.1,0-0.1C149.1,63.2,149,63,148.9,62.7z"/>
	<path class="st0" d="M120.1,47.4c0,0,0.6-0.6,1.5-1.6c0.9-1,2-2.3,3.1-3.7c0.6-0.7,1.1-1.4,1.6-2c0.5-0.6,1-1.2,1.4-1.8
		c0.4-0.5,0.7-0.9,1-1.3c0.1-0.2,0.3-0.2,0.2-0.4c0-0.1-0.1-0.2-0.1-0.2c0-0.1-0.1-0.1-0.1-0.1c-0.2-0.2-0.4-0.3-0.6-0.5
		c0,0-0.1,0-0.1,0c-0.1,0-0.2-0.1-0.3-0.1c-0.2,0-0.2,0.2-0.3,0.3c-0.2,0.3-0.6,0.7-1,1.3c-0.4,0.5-0.9,1.1-1.3,1.8
		c-0.5,0.7-1,1.4-1.5,2.1c-1,1.4-2,2.8-2.8,3.9c-0.7,1.1-1.2,1.8-1.2,1.8c-0.1,0.2-0.1,0.4,0.1,0.5C119.8,47.6,120,47.6,120.1,47.4z
		"/>
	<path class="st0" d="M143,80.5c-2,0.3-3.4,0.6-3.4,0.6c-0.2,0-0.3,0.2-0.3,0.4c0,0.2,0.2,0.4,0.4,0.3c0,0,1.4-0.1,3.4-0.3
		c2.1-0.2,4.8-0.5,7.6-0.8c1.4-0.1,2.7-0.3,4-0.5c1.3-0.2,2.5-0.3,3.5-0.4c1-0.1,1.9-0.2,2.5-0.3c0.3-0.1,0.5,0,0.7-0.2
		c0.1-0.1,0.1-0.2,0.2-0.3c0-0.1,0-0.1,0-0.1c0-0.2,0-0.5-0.1-0.7c0,0,0-0.1-0.1-0.1c-0.1-0.1-0.1-0.2-0.2-0.2c-0.2-0.1-0.4,0-0.7,0
		c-0.6,0.1-1.5,0.2-2.5,0.3c-1,0.1-2.2,0.3-3.5,0.5c-1.3,0.2-2.7,0.4-4,0.6C147.8,79.7,145.1,80.1,143,80.5z"/>
	<path class="st0" d="M152.6,70.2c-0.1-0.1-0.3,0-0.5,0.1c-0.4,0.1-1,0.3-1.7,0.5c-1.4,0.4-3.2,0.9-5,1.4c-1.8,0.5-3.6,1.1-5,1.5
		c-1.4,0.4-2.3,0.7-2.3,0.7c-0.3,0.1-0.4,0.4-0.4,0.7c0.1,0.3,0.4,0.5,0.7,0.4c0,0,0.9-0.2,2.3-0.5c1.4-0.3,3.2-0.8,5.1-1.2
		c1.8-0.5,3.7-1,5-1.3c0.7-0.2,1.3-0.3,1.7-0.4c0.2-0.1,0.4-0.1,0.5-0.2c0.1-0.1,0.1-0.3,0.1-0.3c0-0.4-0.1-0.8-0.3-1.1
		C152.8,70.4,152.7,70.2,152.6,70.2z"/>
	<path class="st0" d="M140.6,36.1c0,0,0.7-0.6,1.7-1.5c1-0.9,2.3-2.1,3.7-3.3c0.7-0.6,1.3-1.2,1.9-1.8c0.6-0.6,1.2-1.1,1.7-1.6
		c0.5-0.5,0.9-0.9,1.2-1.1c0.1-0.2,0.3-0.2,0.3-0.4c0-0.1,0-0.2-0.1-0.3c0-0.1-0.1-0.1-0.1-0.1c-0.1-0.2-0.3-0.4-0.5-0.5
		c0,0-0.1,0-0.1-0.1c-0.1,0-0.2-0.1-0.3-0.1c-0.2,0-0.2,0.1-0.4,0.3c-0.3,0.3-0.7,0.7-1.2,1.2c-0.5,0.5-1,1-1.6,1.6
		c-0.6,0.6-1.2,1.2-1.8,1.9c-1.2,1.3-2.5,2.6-3.4,3.6c-0.9,1-1.5,1.7-1.5,1.7c-0.1,0.1-0.1,0.3,0,0.5
		C140.2,36.2,140.5,36.2,140.6,36.1z"/>
	<path class="st0" d="M129.2,56.4c-0.1,0.1-0.2,0.3-0.1,0.5c0.1,0.2,0.4,0.2,0.5,0.1c0,0,1.1-0.8,2.8-2c1.7-1.2,3.9-2.8,6.2-4.5
		c1.1-0.8,2.2-1.7,3.3-2.4c1-0.8,2-1.5,2.8-2.1c0.8-0.6,1.5-1.1,2-1.5c0.2-0.2,0.5-0.3,0.5-0.5c0-0.1,0-0.2,0-0.3c0-0.1,0-0.1,0-0.1
		c-0.1-0.2-0.2-0.4-0.5-0.6c0,0-0.1,0-0.1-0.1c-0.1,0-0.2-0.1-0.3-0.1c-0.2,0-0.4,0.2-0.6,0.4c-0.5,0.4-1.2,0.9-2,1.5
		c-0.8,0.6-1.8,1.4-2.8,2.2c-1,0.8-2.1,1.6-3.2,2.5c-2.1,1.7-4.3,3.5-5.9,4.8C130.2,55.5,129.2,56.4,129.2,56.4z"/>
	<path class="st0" d="M137.8,59c-2.9,1.8-4.8,3-4.8,3c-0.2,0.1-0.2,0.3-0.1,0.5c0.1,0.2,0.3,0.3,0.5,0.2c0,0,2-1.1,5-2.7
		c3-1.6,6.9-3.8,10.9-6c2-1.1,3.9-2.2,5.8-3.3c1.8-1.1,3.6-2,5-2.9c1.5-0.8,2.7-1.5,3.6-2c0.4-0.3,0.8-0.4,1-0.6
		c0.1-0.1,0.1-0.3,0.1-0.4c0-0.1,0-0.2,0-0.2c0-0.3-0.1-0.5-0.4-0.7c0,0-0.1,0-0.2-0.1c-0.1,0-0.2-0.1-0.4-0.1c-0.3,0-0.6,0.3-1,0.5
		c-0.9,0.5-2.1,1.2-3.5,2.1c-1.5,0.9-3.2,1.9-5,2.9c-1.8,1.1-3.8,2.2-5.7,3.4C144.5,54.9,140.6,57.2,137.8,59z"/>
	<path class="st0" d="M164.8,87.4c-2.1,0-4.4,0-6.7,0.1c-4.5,0.1-9.1,0.1-12.5,0.2c-3.4,0.1-5.7,0.2-5.7,0.2c0,0-0.1,0-0.1,0.1h36.5
		c0,0,0,0,0-0.1c0,0,0-0.1-0.1-0.1c-0.1-0.1-0.2-0.2-0.3-0.2c-0.3-0.1-0.7-0.1-1.2-0.1c-1,0-2.4,0-4.1,0
		C168.9,87.4,166.9,87.4,164.8,87.4z"/>
	<path class="st0" d="M107,17c0.2,0.1,0.4,0,0.5-0.2c0,0,0.3-0.8,0.7-2.1c0.4-1.3,1-3,1.5-4.7c0.3-0.9,0.5-1.7,0.8-2.5
		c0.2-0.8,0.4-1.6,0.6-2.2c0.2-0.7,0.3-1.2,0.4-1.6c0-0.2,0.2-0.3,0-0.5c0-0.1-0.1-0.1-0.2-0.2c-0.1,0-0.1-0.1-0.1-0.1
		c-0.2-0.1-0.5-0.2-0.7-0.2c0,0-0.1,0-0.1,0c-0.1,0-0.2,0-0.3,0.1C110,2.8,110,3,110,3.1c-0.1,0.4-0.2,0.9-0.4,1.6
		c-0.2,0.7-0.4,1.4-0.6,2.2c-0.2,0.8-0.4,1.7-0.6,2.6c-0.4,1.8-0.8,3.5-1.1,4.8c-0.3,1.3-0.4,2.2-0.4,2.2
		C106.8,16.7,106.9,16.9,107,17z"/>
	<path class="st0" d="M108,39.9c-0.1,0.2,0,0.4,0.2,0.5c0.2,0.1,0.4,0,0.5-0.2c0,0,0.6-1.2,1.4-3.1c0.9-1.8,1.9-4.3,3.1-6.8
		c0.6-1.2,1.1-2.5,1.6-3.7c0.5-1.2,1-2.3,1.4-3.2c0.4-0.9,0.7-1.7,1-2.3c0.1-0.3,0.3-0.5,0.2-0.7c0-0.1-0.1-0.2-0.2-0.3
		c0-0.1-0.1-0.1-0.1-0.1c-0.2-0.2-0.4-0.3-0.7-0.3c0,0-0.1,0-0.1,0c-0.1,0-0.2,0-0.3,0.1c-0.2,0.1-0.2,0.3-0.3,0.6
		c-0.2,0.6-0.5,1.3-0.9,2.3c-0.4,0.9-0.8,2-1.3,3.2c-0.5,1.2-1,2.4-1.5,3.7c-1,2.5-2,5.1-2.7,7C108.4,38.6,108,39.9,108,39.9z"/>
	<path class="st0" d="M113.8,43.1c-0.1,0.2,0,0.4,0.1,0.5c0.2,0.1,0.4,0.1,0.5-0.1l0,0c0,0,1.2-1.9,2.9-4.8
		c1.8-2.9,4.1-6.8,6.4-10.7c1.2-1.9,2.3-3.9,3.4-5.7c1.1-1.8,2.1-3.5,2.9-5c0.9-1.5,1.6-2.7,2.1-3.5c0.2-0.4,0.5-0.7,0.5-1
		c0-0.1,0-0.3-0.1-0.4c0-0.1-0.1-0.2-0.1-0.2c-0.1-0.2-0.4-0.4-0.7-0.4c0,0-0.1,0-0.2,0c-0.1,0-0.2,0.1-0.4,0.1
		c-0.3,0.2-0.4,0.5-0.7,1c-0.5,0.9-1.2,2.1-2,3.6c-0.8,1.5-1.8,3.2-2.9,5c-1.1,1.8-2.2,3.8-3.3,5.8c-2.2,4-4.4,7.9-6,10.9
		C114.9,41.1,113.8,43.1,113.8,43.1z"/>
	<path class="st0" d="M159.5,68.7c-0.2,0.1-0.3,0.2-0.2,0.4c0,0.2,0.2,0.3,0.4,0.3c0,0,0.9-0.2,2.2-0.4c1.3-0.3,3.1-0.7,4.8-1.1
		c0.9-0.2,1.7-0.4,2.6-0.6c0.8-0.2,1.6-0.4,2.2-0.6c0.7-0.2,1.2-0.3,1.6-0.4c0.2-0.1,0.4,0,0.4-0.2c0-0.1,0-0.2,0.1-0.3
		c0-0.1,0-0.1,0-0.1c0-0.2-0.1-0.5-0.2-0.7c0,0,0-0.1-0.1-0.1c0-0.1-0.1-0.2-0.2-0.2c-0.1-0.1-0.3,0-0.5,0c-0.4,0.1-0.9,0.3-1.6,0.4
		c-0.6,0.2-1.4,0.4-2.2,0.6c-0.8,0.2-1.7,0.5-2.5,0.8c-1.7,0.5-3.4,1.1-4.7,1.5C160.3,68.4,159.5,68.7,159.5,68.7z"/>
	<path class="st0" d="M126,49.2c-1,1-1.6,1.7-1.6,1.7c-0.2,0.2-0.2,0.5,0,0.8c0.2,0.2,0.6,0.2,0.8,0c0,0,0.7-0.6,1.7-1.6
		c1.1-1,2.4-2.3,3.8-3.6c1.4-1.3,2.7-2.6,3.7-3.6c0.5-0.5,0.9-0.9,1.2-1.2c0.1-0.2,0.3-0.2,0.3-0.4c0-0.1,0-0.3,0-0.3
		c-0.1-0.3-0.4-0.6-0.8-0.8c0,0-0.1-0.1-0.3,0c-0.1,0-0.2,0.2-0.4,0.3c-0.3,0.3-0.7,0.7-1.2,1.2c-1,1-2.3,2.3-3.7,3.7
		C128.3,46.8,126.9,48.1,126,49.2z"/>
	<path class="st0" d="M101.2,38.4c0.3,0.1,0.6-0.1,0.7-0.4c0,0,0.3-0.9,0.7-2.3c0.4-1.4,1-3.2,1.5-5c0.5-1.8,1-3.6,1.4-5
		c0.2-0.7,0.4-1.3,0.5-1.7c0-0.2,0.1-0.3,0.1-0.5c-0.1-0.1-0.2-0.2-0.2-0.2c-0.3-0.2-0.7-0.3-1.1-0.3c0,0-0.2,0-0.3,0.1
		c-0.1,0.1-0.1,0.3-0.2,0.5c-0.1,0.4-0.3,1-0.4,1.7c-0.4,1.4-0.9,3.2-1.3,5c-0.5,1.8-0.9,3.7-1.2,5.1c-0.3,1.4-0.5,2.3-0.5,2.3
		C100.8,38,100.9,38.3,101.2,38.4z"/>
	<path class="st0" d="M44.8,32.8c0.6,0.8,1.4,1.8,2.2,2.8c0.8,1,1.6,2.1,2.5,3.2c1.7,2.1,3.4,4.3,4.8,5.9c1.3,1.6,2.2,2.6,2.2,2.6
		c0.1,0.1,0.3,0.2,0.5,0.1c0.2-0.1,0.2-0.4,0.1-0.5c0,0-0.8-1.1-2-2.8c-1.2-1.7-2.8-3.9-4.4-6.1c-0.8-1.1-1.6-2.2-2.4-3.2
		c-0.8-1-1.5-2-2.1-2.8c-0.6-0.8-1.1-1.5-1.5-2c-0.2-0.2-0.3-0.5-0.5-0.5c-0.1,0-0.2,0-0.3,0c-0.1,0-0.1,0-0.1,0
		c-0.2,0.1-0.4,0.2-0.6,0.5c0,0,0,0.1-0.1,0.1c0,0.1-0.1,0.2-0.1,0.3c0,0.2,0.2,0.4,0.4,0.6C43.7,31.3,44.2,32,44.8,32.8z"/>
	<path class="st0" d="M25.3,26.7c0.3,0.3,0.7,0.7,1.2,1.2c0.5,0.5,1,1,1.6,1.6c0.6,0.6,1.2,1.2,1.9,1.8c1.3,1.2,2.6,2.5,3.6,3.4
		c1,0.9,1.7,1.5,1.7,1.5c0.1,0.1,0.3,0.1,0.5,0c0.2-0.1,0.2-0.4,0-0.5c0,0-0.6-0.7-1.5-1.7c-0.9-1-2.1-2.3-3.3-3.7
		c-0.6-0.7-1.2-1.3-1.8-1.9c-0.6-0.6-1.1-1.2-1.6-1.7c-0.5-0.5-0.9-0.9-1.1-1.2c-0.2-0.1-0.2-0.3-0.4-0.3c-0.1,0-0.2,0-0.3,0.1
		c-0.1,0-0.1,0.1-0.1,0.1c-0.2,0.1-0.4,0.3-0.5,0.5c0,0,0,0.1-0.1,0.1c0,0.1-0.1,0.2-0.1,0.3C25,26.5,25.2,26.5,25.3,26.7z"/>
	<path class="st0" d="M40.3,41.8c0.3,0.3,0.7,0.7,1.2,1.2c1,1,2.3,2.3,3.7,3.7c1.4,1.3,2.7,2.6,3.8,3.6c1,1,1.7,1.6,1.7,1.6
		c0.2,0.2,0.5,0.2,0.8,0c0.2-0.2,0.2-0.6,0-0.8c0,0-0.6-0.7-1.6-1.7c-1-1.1-2.3-2.4-3.6-3.8c-1.3-1.4-2.6-2.7-3.6-3.7
		c-0.5-0.5-0.9-0.9-1.2-1.2c-0.2-0.1-0.2-0.3-0.4-0.3c-0.1,0-0.3,0-0.3,0c-0.3,0.1-0.6,0.4-0.8,0.8c0,0-0.1,0.1,0,0.3
		C40,41.6,40.2,41.7,40.3,41.8z"/>
	<path class="st0" d="M36.7,87.9c0,0-0.1-0.1-0.1-0.1c0,0-2.3-0.1-5.7-0.2c-3.4-0.1-8-0.1-12.6-0.2c-2.3,0-4.6,0-6.7-0.1
		c-2.1,0-4.1,0-5.9,0c-1.7,0-3.1,0-4.1,0c-0.5,0-0.9-0.1-1.2,0.1c-0.1,0.1-0.2,0.2-0.3,0.2C0,87.8,0,87.9,0,87.8c0,0,0,0,0,0.1H36.7
		z"/>
	<path class="st0" d="M2.5,66.1c0.1,0.2,0.2,0.1,0.4,0.2c0.4,0.1,0.9,0.2,1.6,0.4c0.7,0.2,1.4,0.4,2.2,0.6c0.8,0.2,1.7,0.4,2.6,0.6
		c1.8,0.4,3.5,0.8,4.8,1.1c1.3,0.3,2.2,0.4,2.2,0.4c0.2,0,0.4-0.1,0.4-0.2c0.1-0.2,0-0.4-0.2-0.5c0,0-0.8-0.3-2.1-0.7
		c-1.3-0.4-3-1-4.7-1.5C8.9,66.2,8,66,7.2,65.7c-0.8-0.2-1.6-0.4-2.2-0.6c-0.7-0.2-1.2-0.3-1.6-0.4c-0.2,0-0.3-0.2-0.5,0
		c-0.1,0-0.1,0.1-0.2,0.2c0,0.1-0.1,0.1-0.1,0.1c-0.1,0.2-0.2,0.5-0.2,0.7c0,0,0,0.1,0,0.1C2.5,65.9,2.5,66,2.5,66.1z"/>
	<path class="st0" d="M11.8,45c0.2,0.3,0.5,0.4,1,0.6c0.9,0.5,2.1,1.2,3.6,2c1.5,0.8,3.2,1.8,5,2.9c1.8,1,3.8,2.2,5.8,3.3
		c4,2.2,7.9,4.4,10.9,6c3,1.6,5,2.7,5,2.7c0.2,0.1,0.4,0,0.5-0.1c0.1-0.2,0.1-0.4-0.1-0.5l0,0c0,0-1.9-1.2-4.8-3
		c-2.9-1.8-6.8-4.1-10.7-6.4c-1.9-1.2-3.9-2.3-5.7-3.4c-1.8-1.1-3.5-2.1-5-2.9c-1.5-0.9-2.7-1.6-3.5-2.1c-0.4-0.2-0.7-0.5-1-0.5
		c-0.1,0-0.3,0-0.4,0.1c-0.1,0-0.2,0.1-0.2,0.1c-0.2,0.1-0.4,0.4-0.4,0.7c0,0,0,0.1,0,0.2C11.7,44.8,11.7,44.9,11.8,45z"/>
	<path class="st0" d="M35.9,48.9c0,0.2,0.2,0.2,0.3,0.3c0.3,0.2,0.7,0.6,1.2,0.9c0.5,0.4,1.1,0.8,1.8,1.3c0.7,0.5,1.3,1,2.1,1.5
		c1.4,1,2.8,2,3.9,2.7c1.1,0.7,1.8,1.2,1.8,1.2c0.2,0.1,0.4,0.1,0.5-0.1c0.1-0.2,0.1-0.4,0-0.5c0,0-0.6-0.6-1.6-1.4
		c-1-0.9-2.3-2-3.6-3.1c-0.7-0.6-1.3-1.1-2-1.6c-0.6-0.5-1.2-1-1.7-1.4c-0.5-0.4-0.9-0.7-1.2-1c-0.2-0.1-0.2-0.3-0.4-0.2
		c-0.1,0-0.2,0.1-0.2,0.1c-0.1,0-0.1,0.1-0.1,0.1c-0.2,0.2-0.3,0.4-0.5,0.6c0,0,0,0.1,0,0.1C35.9,48.7,35.9,48.8,35.9,48.9z"/>
	<path class="st0" d="M87.3,5.7c0,1.7,0,3.7,0,5.8c0,2.1,0,4.4,0.1,6.6c0.1,4.5,0.1,9,0.2,12.4c0.1,3.4,0.2,5.7,0.2,5.7
		c0,0.2,0.2,0.4,0.4,0.4c0.2,0,0.4-0.2,0.4-0.4c0,0,0.1-2.3,0.2-5.7c0.1-3.4,0.1-7.9,0.2-12.4c0-2.3,0-4.5,0.1-6.6
		c0-2.1,0-4.1,0-5.8c0-1.7,0-3.1,0-4.1c0-0.5,0.1-0.9-0.1-1.1c-0.1-0.1-0.2-0.2-0.2-0.3c-0.1-0.1-0.1-0.1-0.1-0.1
		C88.3,0,88,0,87.8,0.1c0,0-0.1,0-0.1,0.1c-0.1,0.1-0.2,0.2-0.2,0.3c-0.1,0.3-0.1,0.7-0.1,1.1C87.3,2.6,87.3,4.1,87.3,5.7z"/>
	<path class="st0" d="M95.1,37c0.2,0,0.4-0.1,0.5-0.3c0,0,0.2-0.8,0.4-2.1c0.3-1.3,0.5-2.9,0.8-4.6c0.2-0.8,0.3-1.7,0.4-2.5
		c0.1-0.8,0.2-1.5,0.3-2.2c0.1-0.6,0.2-1.2,0.2-1.5c0-0.2,0.1-0.3,0-0.4c-0.1-0.1-0.2-0.1-0.2-0.1c-0.1,0-0.1-0.1-0.1-0.1
		c-0.2-0.1-0.5-0.1-0.7-0.1c0,0-0.1,0-0.1,0c-0.1,0-0.2,0-0.3,0.1c-0.2,0.1-0.1,0.2-0.1,0.4c0,0.4-0.1,0.9-0.2,1.5
		c-0.1,0.6-0.2,1.4-0.3,2.2c-0.1,0.8-0.2,1.6-0.3,2.5c-0.2,1.7-0.3,3.4-0.4,4.7c-0.1,1.3-0.1,2.1-0.1,2.1
		C94.8,36.8,94.9,36.9,95.1,37z"/>
	<path class="st0" d="M78.4,18.5c0.1,1,0.3,2.2,0.5,3.4c0.2,1.3,0.4,2.6,0.6,4c0.4,2.7,0.8,5.4,1.2,7.4c0.3,2,0.6,3.3,0.6,3.3
		c0,0.2,0.2,0.3,0.4,0.3c0.2,0,0.4-0.2,0.3-0.4c0,0-0.1-1.4-0.3-3.4c-0.2-2-0.5-4.7-0.8-7.4c-0.1-1.4-0.3-2.7-0.5-4
		c-0.2-1.3-0.3-2.4-0.4-3.5c-0.1-1-0.2-1.9-0.3-2.4c-0.1-0.3,0-0.5-0.2-0.7c-0.1-0.1-0.2-0.1-0.3-0.1c-0.1,0-0.1,0-0.1,0
		c-0.2,0-0.5,0-0.7,0.1c0,0-0.1,0-0.1,0.1c-0.1,0.1-0.2,0.1-0.2,0.2c-0.1,0.2,0,0.4,0,0.7C78.1,16.6,78.2,17.5,78.4,18.5z"/>
	<path class="st0" d="M63.3,29.8c0.3,0.6,0.5,1.3,0.9,2c0.3,0.7,0.7,1.5,1,2.3c0.7,1.5,1.4,3.1,2,4.3c0.6,1.2,1,1.9,1,1.9
		c0.1,0.2,0.3,0.2,0.4,0.2c0.2-0.1,0.3-0.3,0.2-0.5c0,0-0.3-0.8-0.7-2c-0.4-1.2-1-2.8-1.6-4.4c-0.3-0.8-0.6-1.6-0.9-2.3
		c-0.3-0.7-0.6-1.4-0.8-2c-0.2-0.6-0.4-1.1-0.6-1.4c-0.1-0.2-0.1-0.3-0.2-0.4c-0.1,0-0.2,0-0.3,0c-0.1,0-0.1,0-0.1,0
		c-0.2,0-0.5,0.1-0.7,0.3c0,0-0.1,0-0.1,0.1c-0.1,0.1-0.1,0.1-0.2,0.2c-0.1,0.1,0,0.3,0.1,0.4C62.8,28.7,63,29.2,63.3,29.8z"/>
	<path class="st0" d="M46.2,17.2c0.8,1.5,1.8,3.2,2.9,5c1.1,1.8,2.2,3.8,3.4,5.7c1.2,1.9,2.3,3.9,3.4,5.7c0.5,0.9,1.1,1.8,1.6,2.6
		c0.5,0.8,1,1.6,1.4,2.4c1.7,2.9,2.9,4.9,2.9,4.9l0,0c0.1,0.2,0.3,0.2,0.5,0.1c0.2-0.1,0.3-0.3,0.2-0.5c0,0-1-2-2.6-5
		c-0.4-0.8-0.8-1.6-1.3-2.4c-0.4-0.9-1-1.7-1.5-2.7c-1-1.8-2.2-3.8-3.3-5.8c-1.1-2-2.3-3.9-3.3-5.7c-1.1-1.8-2.1-3.5-2.9-5
		c-0.8-1.5-1.5-2.7-2-3.6c-0.3-0.4-0.4-0.8-0.6-1c-0.1-0.1-0.3-0.1-0.4-0.1c-0.1,0-0.2,0-0.2,0c-0.3,0-0.5,0.1-0.7,0.4
		c0,0,0,0.1-0.1,0.2c0,0.1-0.1,0.2-0.1,0.4c0,0.3,0.3,0.6,0.5,1C44.6,14.5,45.3,15.7,46.2,17.2z"/>
	<path class="st0" d="M70.4,25.8c0.4,1.4,0.9,3.2,1.4,5c0.5,1.8,1,3.6,1.5,5c0.4,1.4,0.7,2.3,0.7,2.3c0.1,0.3,0.4,0.4,0.7,0.4
		c0.3-0.1,0.5-0.4,0.4-0.7c0,0-0.2-0.9-0.5-2.3c-0.3-1.4-0.8-3.2-1.2-5.1c-0.4-1.8-0.9-3.7-1.3-5c-0.2-0.7-0.3-1.3-0.4-1.7
		c-0.1-0.2-0.1-0.4-0.2-0.5c-0.1-0.1-0.3-0.1-0.3-0.1c-0.4,0-0.8,0-1.1,0.3c0,0-0.1,0.1-0.2,0.2c-0.1,0.1,0,0.3,0.1,0.5
		C70,24.6,70.2,25.1,70.4,25.8z"/>
	<path class="st0" d="M64.9,5.2c0.2,0.7,0.4,1.4,0.6,2.2c0.2,0.8,0.5,1.7,0.7,2.5c0.5,1.7,1,3.5,1.5,4.7c0.4,1.3,0.7,2.1,0.7,2.1
		c0.1,0.2,0.2,0.3,0.4,0.2c0.2,0,0.3-0.2,0.3-0.4c0,0-0.2-0.9-0.4-2.2c-0.2-1.3-0.7-3.1-1.1-4.8c-0.2-0.9-0.4-1.8-0.6-2.6
		c-0.2-0.8-0.4-1.6-0.6-2.2c-0.2-0.7-0.3-1.2-0.4-1.6c-0.1-0.2,0-0.4-0.2-0.4c-0.1,0-0.2,0-0.3-0.1c-0.1,0-0.1,0-0.1,0
		c-0.2,0-0.5,0.1-0.7,0.2c0,0-0.1,0-0.1,0.1c-0.1,0-0.2,0.1-0.2,0.2c-0.1,0.1,0,0.3,0,0.5C64.6,4,64.7,4.5,64.9,5.2z"/>
</g>
</svg>
