<?xml version="1.0" encoding="utf-8"?>
<!-- Generator: Adobe Illustrator 22.0.1, SVG Export Plug-In . SVG Version: 6.00 Build 0)  -->
<svg version="1.1" id="Layer_1" xmlns="http://www.w3.org/2000/svg" xmlns:xlink="http://www.w3.org/1999/xlink" x="0px" y="0px"
	 viewBox="0 0 25.8 34.6" style="enable-background:new 0 0 25.8 34.6;" xml:space="preserve">
<style type="text/css">
	.st0{fill:#FFFFFF;}
</style>
<path id="Yelp_2_" class="st0" d="M4.3,1.6C6,0.2,9.4-0.2,10.8,0.1s2.1,1,2.1,2l0.1,12c0,0.9-0.5,1.8-1.1,1.9
	c-0.6,0.1-1.5-0.4-2-1.2L3.6,4.5C3.1,3.6,2.1,3.3,4.3,1.6z M2.2,24.4l6.3-2.2c0.9-0.3,1.7-1.2,1.8-1.9c0.1-0.8-0.6-1.7-1.4-2
	l-6.7-2.7c-0.9-0.3-1.9,0.5-2.1,1.8c0,0-0.2,4.7,0,5.6C0.2,24,1.4,24.7,2.2,24.4z M13.3,25.5c0-0.9-0.5-1.8-1.1-1.8
	c-0.6-0.1-1.6,0.5-2.2,1.2l-4.4,5.3c-0.6,0.7-0.3,2.4,0.6,2.7l4.6,1.6c0.9,0.3,2.4-0.6,2.4-1.6L13.3,25.5z M24.3,24.3l-5.5-1.6
	c-0.9-0.3-1.9-0.2-2.3,0.1c-0.3,0.3-0.3,1.2,0.2,2l3.5,6.4c0.5,0.8,2.3,0.7,2.8-0.1c0,0,2.1-3.1,2.5-4.3
	C25.8,25.6,25.2,24.6,24.3,24.3z M25.7,15.3c-0.3-0.8-2-3.2-2.9-4s-2-0.7-2.6,0l-3.6,4.3c-0.6,0.7-0.8,1.9-0.4,2.5
	c0.4,0.7,1.5,1,2.4,0.8l6.2-1.1C25.9,17.5,25.9,16.1,25.7,15.3z"/>
</svg>
