<?xml version="1.0" encoding="utf-8"?>
<!-- Generator: Adobe Illustrator 22.0.1, SVG Export Plug-In . SVG Version: 6.00 Build 0)  -->
<svg version="1.1" id="Layer_1" xmlns="http://www.w3.org/2000/svg" xmlns:xlink="http://www.w3.org/1999/xlink" x="0px" y="0px"
	 viewBox="0 0 144 6.9" style="enable-background:new 0 0 144 6.9;" xml:space="preserve">
<style type="text/css">
	.st0{fill:#8E96AC;}
</style>
<path class="st0" d="M23.9,0.6c-1.3,0-2.8,0-4.3,0c-1.6,0-3.3,0-5,0.1c-3.4,0.1-6.8,0.1-9.4,0.2C2.5,0.9,0.8,1,0.8,1
	C0.5,1,0.2,1.1,0.1,1.3C-0.1,1.5,0,1.6,0.2,1.6c0,0,1.6,0.1,4.1,0.1c2.4,0.1,5.8,0.1,9,0.2c1.6,0,3.3,0.1,4.9,0.1s3,0,4.3,0
	c1.3,0,2.3,0,3,0c0.4,0,0.6,0.1,0.9-0.1c0.2-0.1,0.3-0.2,0.5-0.2c0.1-0.1,0.2-0.1,0.2-0.1c0.3-0.2,0.5-0.5,0.6-0.7V0.8
	c0-0.1,0-0.2,0-0.2c-0.1-0.1-0.4-0.1-0.8-0.1C26.2,0.6,25.2,0.6,23.9,0.6z"/>
<path class="st0" d="M142.7,0c-1.1,0-2.7,0-4.6,0.1s-4.1,0.1-6.5,0.1s-4.9,0-7.5,0.1C119,0.4,113.9,0.5,110,0.7
	c-3.9,0.1-6.5,0.2-6.5,0.2c-0.3,0-0.6,0.2-0.9,0.5c-0.2,0.3-0.2,0.5,0,0.5c0,0,2.4,0.1,6.1,0.2c3.6,0.1,8.6,0.2,13.5,0.3
	c2.5,0.1,5,0,7.3,0.1c2.3,0,4.5,0,6.4,0s3.4,0,4.5,0c0.6,0,0.9,0.1,1.4-0.1c0.2-0.1,0.5-0.2,0.7-0.3c0.2-0.1,0.3-0.2,0.3-0.2
	c0.4-0.3,0.8-0.7,1-1.1c0,0,0-0.1,0.1-0.2c0-0.1,0-0.3,0-0.3C143.8-0.1,143.3,0,142.7,0z"/>
<path class="st0" d="M93.6,0.4c-1.6,0-4,0-6.7,0c-2.8,0-6,0-9.5,0.1c-3.5,0-7.2,0-10.9,0.1C59,0.7,51.6,0.8,45.9,0.9
	c-5.7,0-9.5,0.1-9.5,0.1c-0.3,0-0.6,0.2-0.8,0.4s-0.1,0.4,0.1,0.4c0,0,3.6,0.1,9.1,0.2c5.5,0,12.8,0.1,20.1,0.2
	c3.6,0.1,7.3,0.1,10.8,0.1c3.4,0,6.7,0,9.4,0.1c2.8,0,5,0,6.7,0c0.8,0,1.4,0.1,2-0.1c0.6-0.2,1.1-0.5,1.1-0.5
	c0.4-0.3,0.8-0.6,0.8-0.9c0,0,0-0.3-0.3-0.5C95.1,0.3,94.4,0.4,93.6,0.4z"/>
<path class="st0" d="M23.9,5.1c-1.3,0-2.8,0-4.3,0c-1.6,0-3.3,0-5,0.1c-3.4,0.1-6.8,0.1-9.4,0.2c-2.7,0-4.4,0.1-4.4,0.1
	c-0.2,0-0.5,0.1-0.7,0.3C-0.1,6,0,6.1,0.2,6.1c0,0,1.6,0.1,4.1,0.1c2.4,0.1,5.8,0.1,9,0.2c1.6,0,3.3,0.1,4.9,0.1s3,0,4.3,0
	c1.3,0,2.3,0,3,0c0.4,0,0.6,0.1,0.9-0.1c0.2-0.1,0.3-0.2,0.5-0.2c0.1-0.1,0.2-0.1,0.2-0.1c0.3-0.2,0.5-0.5,0.6-0.7V5.3
	c0-0.1,0-0.2,0-0.2c0-0.1-0.4,0-0.7,0C26.2,5.1,25.2,5.1,23.9,5.1z"/>
<path class="st0" d="M142.7,4.5c-1.1,0-2.7,0-4.6,0.1s-4.1,0.1-6.5,0.1s-4.9,0-7.5,0.1C119,4.9,113.9,5,110,5.2
	c-3.9,0.1-6.5,0.2-6.5,0.2c-0.3,0-0.6,0.2-0.9,0.5c-0.2,0.3-0.2,0.5,0,0.5c0,0,2.4,0.1,6.1,0.2c3.6,0.1,8.6,0.2,13.5,0.3
	c2.5,0.1,5,0,7.3,0.1c2.3,0,4.5,0,6.4,0s3.4,0,4.5,0c0.6,0,0.9,0.1,1.4-0.1c0.2-0.1,0.5-0.2,0.7-0.3c0.2-0.1,0.3-0.2,0.3-0.2
	c0.4-0.3,0.8-0.7,1-1.1c0,0,0-0.1,0.1-0.2c0-0.1,0-0.3,0-0.3C143.8,4.4,143.3,4.5,142.7,4.5z"/>
<path class="st0" d="M93.6,4.9c-1.6,0-4,0-6.7,0c-2.8,0-6,0-9.5,0.1c-3.5,0-7.2,0-10.9,0.1C59,5.2,51.6,5.3,45.9,5.4
	c-5.6,0.1-9.4,0.2-9.4,0.2c-0.3,0-0.6,0.2-0.8,0.4c-0.2,0.2-0.1,0.4,0.1,0.4c0,0,3.6,0.1,9.1,0.2C50.3,6.7,57.7,6.8,65,6.9
	C68.6,7,72.3,7,75.8,7c3.4,0,6.7,0,9.4,0.1c2.8,0,5,0,6.7,0c0.8,0,1.4,0.1,2-0.1S95,6.5,95,6.5c0.4-0.3,0.8-0.6,0.8-0.9
	c0,0,0-0.3-0.3-0.5C95.1,4.8,94.4,4.9,93.6,4.9z"/>
</svg>
