<?xml version="1.0" encoding="utf-8"?>
<!-- Generator: Adobe Illustrator 21.1.0, SVG Export Plug-In . SVG Version: 6.00 Build 0)  -->
<svg version="1.1" id="Layer_1" xmlns="http://www.w3.org/2000/svg" xmlns:xlink="http://www.w3.org/1999/xlink" x="0px" y="0px"
	 viewBox="0 0 229.1 16.5" style="enable-background:new 0 0 229.1 16.5;" xml:space="preserve">
<style type="text/css">
	.st0{fill:#FFFFFF;}
</style>
<g>
	<path class="st0" d="M47.6,4.5v7.5c0,0.7,0.4,1.1,1.1,1.1h0.9V3.6h-0.9C48,3.5,47.6,3.9,47.6,4.5z"/>
	<path class="st0" d="M47.6,1.1v1h0.9c0.7,0,1.1-0.4,1.1-1.1V0h-0.9C48,0.1,47.6,0.5,47.6,1.1z"/>
	<path class="st0" d="M53.8,9.9V0.1h-0.9c-0.7,0-1.1,0.4-1.1,1.1V10c0,0.8,0.2,1.4,0.5,1.8c0.3,0.5,0.7,0.9,1.3,1.1
		c0.3,0.2,0.7,0.2,1,0.1c0.4-0.1,0.6-0.4,0.6-0.8v-0.9c-0.4,0-0.7-0.1-1-0.3C54,10.8,53.8,10.4,53.8,9.9z"/>
	<path class="st0" d="M63.8,4.3c-1-0.8-1.9-1.2-3.1-1.2c-1.3,0-2.2,0.4-3.1,1.2c-1,0.8-1.4,1.6-1.4,2.8v2.1c0,1.2,0.5,2,1.4,2.8
		c0.9,0.8,1.8,1.2,3.1,1.2c1.1,0,2.1-0.3,2.9-1.1c0.3,0.5,0.6,0.8,1.1,0.8h0.6V7.1C65.3,6,64.8,5,63.8,4.3z M63.5,9.3
		c0,0.6-0.3,1.1-0.8,1.4c-0.6,0.5-1.3,0.7-1.9,0.7c-0.8,0-1.4-0.2-1.9-0.7C58.3,10.3,58,9.8,58,9.3V7.1c0-0.6,0.3-1.1,0.8-1.4
		C59.4,5.2,60.1,5,60.7,5c0.8,0,1.4,0.2,1.9,0.7c0.5,0.4,0.8,0.9,0.8,1.4V9.3z"/>
	<path class="st0" d="M78.9,4.5L78.9,4.5v4.8c0,0.8-0.2,1.3-0.5,1.5c-0.3,0.3-0.8,0.5-1.4,0.5c-0.6,0-1.1-0.2-1.4-0.5
		c-0.4-0.4-0.6-0.9-0.6-1.5V3.5h-0.9c-0.7,0-1.1,0.4-1.1,1.1v4.8c0,0.7-0.2,1.2-0.6,1.5c-0.4,0.4-0.9,0.5-1.4,0.5
		c-0.7,0-1.2-0.2-1.4-0.5c-0.2-0.3-0.5-0.9-0.5-1.5V3.6h-0.9c-0.7,0-1.1,0.4-1.1,1.1v4.8c0,1.3,0.4,2.1,1.1,2.8
		c0.7,0.8,1.6,1.1,2.8,1.1c1.3,0,2.1-0.4,2.8-1.3c0.8,0.9,1.6,1.3,2.8,1.3c1.3,0,2-0.4,2.8-1.1c0.7-0.7,1.1-1.6,1.1-2.8V3.7h-0.9
		C79.2,3.5,78.9,3.9,78.9,4.5z"/>
	<path class="st0" d="M88.9,4.2l-2.5,7.1l0,0l-2.8-7.8h-1.3c-0.3,0-0.5,0.1-0.6,0.3c-0.1,0.2-0.1,0.4,0,0.6l2.8,7.8
		c0.2,0.5,0.6,0.8,1.2,1l-0.4,1c-0.1,0.2-0.2,0.4-0.5,0.5c-0.2,0.1-0.4,0.2-0.7,0.2v0.8c0,0.5,0.2,0.7,0.6,0.8c0.3,0.1,0.7,0,1-0.1
		c0.5-0.2,0.9-0.6,1.1-1c0.1-0.2,0.2-0.4,0.3-0.7c0.1-0.3,0.2-0.5,0.3-0.8l3.7-10.4l0,0h-1.4C89.4,3.5,89.1,3.8,88.9,4.2z"/>
	<path class="st0" d="M98.6,10.6c-0.1,0.1-0.2,0.2-0.3,0.2c-0.3,0.2-0.6,0.3-1,0.4c-0.5,0.1-1,0.2-1.4,0.1c-0.5,0-1-0.2-1.4-0.4
		c-0.5-0.3-0.7-0.7-0.7-1.1V9.1c0.1,0.1,0.2,0.1,0.3,0.2c0.1,0,0.2,0,0.4,0h2.2c0.5,0,0.9-0.1,1.3-0.2C98.6,9,99,8.8,99.3,8.5
		c0.4-0.3,0.6-0.6,0.9-1c0.2-0.5,0.4-1,0.3-1.4c0-0.6-0.2-1.2-0.6-1.6c-0.3-0.4-0.8-0.8-1.3-1.1c-0.8-0.4-1.6-0.5-2.5-0.5
		c-0.9,0-1.5,0.2-2.1,0.5C93.2,4,92.6,4.5,92.4,5c-0.2,0.5-0.3,1-0.3,1.4v3.1c0,0.6,0.1,1.2,0.4,1.6c0.3,0.6,0.6,1,1.1,1.3
		c0.4,0.3,0.9,0.5,1.4,0.6c0.4,0.1,1,0.2,1.4,0.2c0.7,0,1.4-0.1,1.8-0.3c0.7-0.2,1.3-0.6,1.6-1c0.3-0.3,0.6-0.7,0.8-1.1l-1-0.5
		C99.2,10.2,98.9,10.3,98.6,10.6z M94.1,6.5c0-0.4,0.2-0.7,0.5-1c0.3-0.2,0.6-0.4,1-0.5c0.4-0.1,1-0.1,1.4-0.1
		c0.5,0.1,1.1,0.2,1.4,0.5c0.3,0.2,0.4,0.6,0.4,0.9C98.5,6.7,98.4,7,98,7.1c-0.3,0.2-0.6,0.2-1,0.2H94L94.1,6.5L94.1,6.5z"/>
	<path class="st0" d="M103.4,4.2c-0.8,0.6-1.2,1.5-1.2,2.5l0,0v5.1c0,0.7,0.4,1.1,1.1,1.1h0.9V6.8c0-0.5,0.2-0.9,0.5-1.2
		c0.3-0.2,0.6-0.3,1-0.3h0.3c0.7,0,1-0.4,1-1.1V3.5h-1.3C104.6,3.5,104,3.8,103.4,4.2z"/>
	<path class="st0" d="M117.5,3.2c-1.1,0-1.8,0.3-2.5,0.9c-0.1,0.1-0.2,0.2-0.4,0.4c-0.2-0.2-0.3-0.3-0.4-0.4
		c-0.7-0.6-1.5-0.9-2.4-0.9c-1.3,0-2.1,0.4-2.8,1.2c-0.7,0.8-1.1,1.6-1.1,2.8V12c0,0.7,0.4,1.1,1.1,1.1h0.9V7.3
		c0-0.7,0.2-1.3,0.5-1.6c0.3-0.3,0.8-0.5,1.4-0.5c0.6,0,1.1,0.2,1.4,0.6c0.4,0.4,0.6,1,0.6,1.5v4.8c0,0.7,0.4,1.1,1.1,1.1h0.9V7.4
		c0-0.7,0.2-1.2,0.6-1.5c0.3-0.4,0.8-0.6,1.4-0.6c0.7,0,1.2,0.2,1.4,0.5c0.3,0.4,0.5,0.9,0.5,1.6v4.8c0,0.7,0.4,1.1,1.1,1.1h0.9V7.5
		c0-1.3-0.4-2.1-1.1-2.8C119.6,3.6,118.7,3.2,117.5,3.2z"/>
	<path class="st0" d="M130.8,4.3c-1-0.8-1.9-1.2-3.1-1.2c-1.3,0-2.2,0.4-3.1,1.2c-1,0.8-1.4,1.6-1.4,2.8v2.1c0,1.2,0.5,2,1.4,2.8
		c0.9,0.8,1.8,1.2,3.1,1.2c1.1,0,2.1-0.3,2.9-1.1c0.3,0.5,0.6,0.8,1.1,0.8h0.6V7.1C132.1,6,131.7,5,130.8,4.3z M130.3,9.3
		c0,0.6-0.3,1.1-0.8,1.4c-0.6,0.5-1.3,0.7-1.9,0.7c-0.8,0-1.4-0.2-1.9-0.7c-0.5-0.4-0.8-0.9-0.8-1.4V7.1c0-0.6,0.3-1.1,0.8-1.4
		c0.6-0.5,1.3-0.7,1.9-0.7c0.8,0,1.4,0.2,1.9,0.7c0.5,0.4,0.8,0.9,0.8,1.4V9.3z"/>
	<path class="st0" d="M135.3,4.2c-0.8,0.6-1.2,1.5-1.2,2.5v5.1c0,0.7,0.4,1.1,1.1,1.1h0.9V6.8c0-0.5,0.2-0.9,0.5-1.2
		c0.3-0.2,0.6-0.3,1-0.3h0.3c0.7,0,1-0.4,1-1.1V3.5h-1.3C136.7,3.5,135.9,3.8,135.3,4.2z"/>
	<path class="st0" d="M145.4,7.7c0.1-0.1,0.3-0.3,0.4-0.6l2.2-3.7h-1.5c-0.5,0-0.9,0.2-1.2,0.7L143.7,7c-0.2,0.4-0.6,0.4-1,0.4H142
		V0.1h-0.9c-0.7,0-1.1,0.4-1.1,1.1l0,0V12c0,0.7,0.4,1.1,1.1,1.1h0.9V9.4h2c0.5,0,0.9,0.3,1.1,0.8l1.1,2.3c0.2,0.4,0.6,0.6,1.2,0.6
		h1.3l-1.6-3.7C146.6,8.5,146.1,7.9,145.4,7.7z"/>
	<path class="st0" d="M156,10.6c-0.1,0.1-0.2,0.2-0.3,0.2c-0.3,0.2-0.6,0.3-1,0.4c-0.5,0.1-1,0.2-1.4,0.1c-0.5,0-1-0.2-1.4-0.4
		c-0.5-0.3-0.7-0.7-0.7-1.1V9.1c0.1,0.1,0.2,0.1,0.3,0.2c0.1,0,0.2,0,0.4,0h2.2c0.5,0,0.9-0.1,1.3-0.2c0.5-0.1,0.9-0.3,1.2-0.6
		c0.4-0.3,0.6-0.6,0.9-1c0.2-0.5,0.4-1,0.3-1.4c0-0.6-0.2-1.2-0.6-1.6c-0.3-0.4-0.8-0.8-1.3-1.1c-0.8-0.4-1.6-0.5-2.5-0.5
		s-1.5,0.2-2.1,0.5C150.6,4,150,4.5,149.8,5c-0.2,0.5-0.3,1-0.3,1.4v3.1c0,0.6,0.1,1.2,0.4,1.6c0.3,0.6,0.6,1,1.1,1.3
		c0.4,0.3,0.9,0.5,1.4,0.6c0.4,0.1,1,0.2,1.5,0.2c0.7,0,1.4-0.1,1.8-0.3c0.7-0.2,1.3-0.6,1.6-1c0.3-0.3,0.6-0.7,0.8-1.1l-1-0.5
		C156.6,10.2,156.2,10.3,156,10.6z M151.5,6.5c0-0.4,0.2-0.7,0.5-1c0.3-0.2,0.6-0.4,1-0.5c0.4-0.1,1-0.1,1.4-0.1
		c0.5,0.1,1.1,0.2,1.4,0.5c0.3,0.2,0.4,0.6,0.4,0.9c-0.1,0.4-0.2,0.7-0.6,0.8c-0.3,0.2-0.6,0.2-1,0.2h-3.1L151.5,6.5L151.5,6.5z"/>
	<path class="st0" d="M161.6,0.1h-0.8c-0.7,0-1.1,0.4-1.1,1.1V10c0,0.8,0.2,1.4,0.5,1.8c0.3,0.5,0.7,0.9,1.3,1.1
		c0.4,0.2,0.7,0.2,1,0.1c0.4-0.1,0.6-0.4,0.6-0.8v-0.9c-0.4,0-0.7-0.1-0.9-0.3c-0.3-0.3-0.5-0.7-0.5-1.2V5.4h1.3
		c0.7,0,1.1-0.4,1.1-1.1V3.6h-2.2V0.1H161.6z"/>
	<path class="st0" d="M165.4,4.5v7.5c0,0.7,0.4,1.1,1.1,1.1h0.9V3.6h-0.9C165.8,3.5,165.4,3.9,165.4,4.5z"/>
	<path class="st0" d="M165.4,1.1v1h0.9c0.7,0,1.1-0.4,1.1-1.1V0h-0.9C165.8,0.1,165.4,0.5,165.4,1.1z"/>
	<path class="st0" d="M173.9,3.2c-1.2,0-2.1,0.4-3,1.1c-1,0.8-1.4,1.6-1.4,2.7v4.9c0,0.7,0.4,1.1,1.1,1.1h0.9V6.9
		c0-0.5,0.2-1,0.7-1.4s1.2-0.7,1.7-0.7c0.8,0,1.4,0.2,1.7,0.7c0.5,0.4,0.7,0.8,0.7,1.4v4.9c0,0.7,0.4,1.1,1.1,1.1h0.9v-6
		c0-1.1-0.5-1.9-1.4-2.7C176,3.6,175,3.2,173.9,3.2z"/>
	<path class="st0" d="M187.7,4.3c-1-0.8-1.9-1.2-3.1-1.2c-1.3,0-2.2,0.4-3.1,1.2c-1,0.8-1.4,1.6-1.4,2.8v2.1c0,1.2,0.5,2,1.4,2.8
		c0.9,0.8,1.8,1.2,3.1,1.2c1.1,0,1.8-0.3,2.6-0.8v0.4c0,0.9-0.5,1.4-1.4,1.6c-0.5,0.1-1.1,0.2-1.6,0.2c-0.7,0-1.3-0.1-1.6-0.3
		l-0.2,0.8c-0.1,0.4-0.1,0.6,0,0.8c0.2,0.2,0.5,0.4,0.9,0.5c0.5,0.1,1,0.2,1.5,0.2c0.6,0,1.2-0.1,1.6-0.2c1-0.3,1.8-1,2.3-1.8
		c0.3-0.5,0.4-1.1,0.4-1.6V7.1C189,6,188.5,5,187.7,4.3z M187.2,9.3c0,0.6-0.3,1.1-0.8,1.4c-0.6,0.5-1.3,0.7-1.9,0.7
		c-0.8,0-1.4-0.2-1.9-0.7c-0.5-0.4-0.8-0.9-0.8-1.4V7.1c0-0.6,0.3-1.1,0.8-1.4c0.6-0.5,1.3-0.7,1.9-0.7c0.8,0,1.4,0.2,1.9,0.7
		c0.5,0.4,0.8,0.9,0.8,1.4V9.3z"/>
	<path class="st0" d="M191.2,11.8V13h0.9c0.7,0,1.1-0.4,1.1-1.1v-1.2h-0.9C191.6,10.8,191.2,11.1,191.2,11.8z"/>
	<path class="st0" d="M197.7,5.7c0.5-0.4,1.2-0.7,1.7-0.7c0.8,0,1.4,0.2,1.7,0.7c0.1,0.1,0.1,0.1,0.3,0.3c0.4,0.4,0.8,0.5,1.3,0.2
		l0.9-0.5c-0.2-0.6-0.6-1.1-1.2-1.5c-0.9-0.8-1.8-1.1-3-1.1c-1.2,0-2.1,0.4-3,1.1c-1,0.8-1.4,1.6-1.4,2.7v2.5c0,1.1,0.5,1.9,1.4,2.7
		c0.9,0.7,1.7,1.1,3,1.1c1.3,0,2.1-0.4,3-1.1c0.5-0.5,0.9-1,1.2-1.5l-0.9-0.5c-0.5-0.3-1-0.2-1.3,0.2c-0.1,0.1-0.2,0.2-0.3,0.3
		c-0.5,0.4-1.2,0.6-1.7,0.6c-0.8,0-1.4-0.2-1.7-0.6c-0.5-0.4-0.7-0.8-0.7-1.4V6.8C197.1,6.5,197.3,6.1,197.7,5.7z"/>
	<path class="st0" d="M212.7,4.3c-1-0.8-1.9-1.2-3.1-1.2c-1.3,0-2.2,0.4-3.1,1.2c-1,0.8-1.4,1.6-1.4,2.8v2.1c0,1.2,0.5,2,1.4,2.8
		c0.9,0.8,1.8,1.2,3.1,1.2s2.2-0.4,3.1-1.2c1-0.8,1.4-1.6,1.4-2.8V7.1C214,6,213.5,5,212.7,4.3z M212.2,9.3c0,0.6-0.3,1.1-0.8,1.4
		c-0.6,0.5-1.3,0.7-1.9,0.7c-0.8,0-1.4-0.2-1.9-0.7c-0.5-0.4-0.8-0.9-0.8-1.4V7.1c0-0.6,0.3-1.1,0.8-1.4c0.6-0.5,1.3-0.7,1.9-0.7
		c0.8,0,1.4,0.2,1.9,0.7c0.5,0.4,0.8,0.9,0.8,1.4V9.3z"/>
	<path class="st0" d="M228.2,4.2c-0.7-0.8-1.6-1.2-2.8-1.2c-1.1,0-1.8,0.3-2.5,0.9c-0.1,0.1-0.2,0.2-0.4,0.4
		c-0.2-0.2-0.3-0.3-0.4-0.4c-0.7-0.6-1.5-0.9-2.4-0.9c-1.3,0-2.1,0.4-2.8,1.2c-0.7,0.8-1.1,1.6-1.1,2.8v4.8c0,0.7,0.4,1.1,1.1,1.1
		h0.9V7.1c0-0.7,0.2-1.3,0.5-1.6c0.3-0.3,0.8-0.5,1.4-0.5c0.6,0,1.1,0.2,1.4,0.6c0.4,0.4,0.6,1,0.6,1.5v4.8c0,0.7,0.4,1.1,1.1,1.1
		h0.9V7.2c0-0.7,0.2-1.2,0.6-1.5c0.3-0.4,0.8-0.6,1.4-0.6s1.2,0.2,1.4,0.5c0.3,0.4,0.5,0.9,0.5,1.6V12c0,0.7,0.4,1.1,1.1,1.1h0.9
		V7.3C229.1,5.9,228.8,4.9,228.2,4.2z"/>
	<path class="st0" d="M2.7,7.6c-0.6-0.4-1-0.6-1-1.4c0-0.7,0.4-0.9,1-0.9c1,0,1.1,0.9,1.1,1.6h1.6c0-1,0.1-3-2.6-3
		C1,4.1,0.1,4.8,0.1,6.5c0,0.5,0.2,1,0.5,1.4c0.7,1,1.7,1.4,2.7,2C3.8,10.2,4,10.6,4,11.1c0,0.7-0.4,1.1-1.1,1.1
		c-0.9,0-1.2-0.7-1.1-1.5v-0.6H0v0.7c0,1.6,0.8,2.7,2.7,2.7c1.6,0,2.8-1,2.8-2.6c0-0.8-0.2-1.4-0.8-1.8C4.3,8.6,3.3,7.8,2.7,7.6z"/>
	<rect x="7.5" y="4.3" class="st0" width="1.6" height="9.1"/>
	<polygon class="st0" points="10.7,5.6 12.6,5.6 12.6,13.3 14.3,13.3 14.3,5.6 16.3,5.6 16.3,4.3 10.7,4.3 	"/>
	<polygon class="st0" points="17.7,13.3 22.6,13.3 22.6,12 19.5,12 19.5,9.2 22.3,9.2 22.3,7.8 19.5,7.8 19.5,5.6 22.6,5.6 
		22.6,4.3 17.7,4.3 	"/>
	<path class="st0" d="M31.8,8.5L31.8,8.5c1-0.4,1.2-1.2,1.2-1.9c0-0.7-0.1-1.2-0.5-1.6c-0.5-0.7-1.3-0.7-1.9-0.7h-2.7v9.1h3
		c1.3,0,1.8-0.5,2.2-1.6c0.1-0.4,0.1-0.8,0.1-1.2C33.1,9.5,32.7,8.6,31.8,8.5z M29.5,5.6h0.8c0.8,0,1,0.4,1,1.1c0,0.5,0,0.8-0.2,1
		c-0.3,0.4-0.9,0.3-1.3,0.3h-0.3C29.5,7.9,29.5,5.6,29.5,5.6z M30.9,11.9C30.6,12,30.2,12,29.8,12l0,0h-0.4V9.3h0.7
		c1.1,0,1.3,0.4,1.3,1.4C31.4,11.1,31.3,11.7,30.9,11.9z"/>
	<path class="st0" d="M38.2,6.4C38,6.9,37.7,7.5,37.6,8l0,0c-0.1-0.5-0.2-1-0.4-1.4l-1-2.3h-1.8l2.3,5.2v3.9h1.6V9.6l2.4-5.2h-1.8
		L38.2,6.4z"/>
</g>
</svg>
