<?xml version="1.0" encoding="utf-8"?>
<!-- Generator: Adobe Illustrator 21.1.0, SVG Export Plug-In . SVG Version: 6.00 Build 0)  -->
<svg version="1.1" id="Layer_1" xmlns="http://www.w3.org/2000/svg" xmlns:xlink="http://www.w3.org/1999/xlink" x="0px" y="0px"
	 viewBox="0 0 120 87.9" style="enable-background:new 0 0 120 87.9;" xml:space="preserve">
<style type="text/css">
	.st0{fill:#C0C0C1;}
</style>
<g>
	<path class="st0" d="M117.5,40.2c0.3-0.1,0.5-0.2,0.6-0.3c0.1-0.1,0.1-0.3,0.1-0.3c0,0,0,0,0-0.1c0-0.1-0.1-0.3-0.2-0.3
		c0,0-0.1-0.1-0.3-0.1c-0.2,0-0.4,0.1-0.6,0.3c-0.5,0.3-1.2,0.6-2.1,1.1c-1.8,0.9-4.1,2.1-6.5,3.3c-2.3,1.2-4.7,2.4-6.4,3.3
		c-1.8,0.9-2.9,1.5-2.9,1.5c0,0-0.1,0.1,0,0.2c0,0.1,0.1,0.1,0.1,0.1c0,0,1.2-0.6,3-1.4c1.8-0.8,4.2-1.9,6.6-3
		c2.4-1.1,4.8-2.2,6.6-3.1C116.2,40.8,117,40.5,117.5,40.2z"/>
	<path class="st0" d="M84.3,31.6c0.1-0.2,0.3-0.4,0.5-0.6c0.2-0.2,0.3-0.4,0.4-0.6c0.1-0.1,0.1-0.2,0.1-0.2c0,0,0.1,0,0-0.1
		c0,0-0.1-0.1-0.1-0.1c0,0-0.1,0-0.2,0c-0.1,0-0.1-0.1-0.1-0.2c0,0-0.1,0-0.1-0.1c-0.1,0,0,0-0.1,0c0,0.1-0.1,0.1-0.1,0.2
		c-0.1,0.2-0.2,0.4-0.4,0.7c-0.1,0.2-0.3,0.5-0.3,0.7c-0.1,0.2-0.1,0.3-0.1,0.3c0,0,0,0.1,0.1,0.1c0.1,0,0.1,0.1,0.2,0
		C84.1,31.8,84.2,31.7,84.3,31.6z"/>
	<path class="st0" d="M45.5,10.4c0.6,1.9,1.4,4.4,2.1,6.9c0.8,2.5,1.6,5,2.2,6.9c0.6,1.9,1,3.1,1,3.1c0,0,0.1,0.1,0.2,0
		c0.1,0,0.1-0.1,0.1-0.1c0,0-0.3-1.3-0.9-3.2c-0.5-1.9-1.2-4.4-1.9-7c-0.7-2.5-1.4-5.1-2-7c-0.3-1-0.5-1.7-0.7-2.3
		c-0.1-0.3-0.1-0.5-0.2-0.6c-0.1-0.1-0.3-0.2-0.3-0.2c0,0,0,0-0.1,0c-0.1,0-0.3,0.1-0.3,0.1c0,0-0.1,0.1-0.1,0.3
		c0,0.2,0.1,0.4,0.1,0.7C45,8.7,45.2,9.5,45.5,10.4z"/>
	<path class="st0" d="M100.7,40.9c0-0.1-0.1-0.2-0.2-0.3c0,0,0,0,0,0c0,0-0.1,0-0.1-0.1c-0.1,0-0.1,0-0.2,0.1
		c-0.1,0.1-0.3,0.2-0.5,0.3c-0.2,0.1-0.4,0.3-0.7,0.5c-0.2,0.2-0.5,0.4-0.8,0.6c-0.5,0.4-1.1,0.8-1.4,1.1c-0.4,0.3-0.6,0.5-0.6,0.5
		c0,0,0,0.1,0,0.2c0,0.1,0.1,0.1,0.2,0.1c0,0,0.3-0.2,0.7-0.4c0.4-0.2,1-0.6,1.5-0.9c0.3-0.2,0.6-0.3,0.8-0.5
		c0.3-0.2,0.5-0.3,0.7-0.4c0.2-0.1,0.4-0.2,0.5-0.3c0.1,0,0.1,0,0.1-0.1C100.7,41,100.7,41,100.7,40.9
		C100.7,40.9,100.7,40.9,100.7,40.9z"/>
	<path class="st0" d="M108.7,51.2C108.6,51.2,108.6,51.2,108.7,51.2c-0.1-0.1-0.2-0.1-0.2-0.1c-0.1,0-0.3,0.1-0.5,0.2
		c-0.2,0.1-0.5,0.2-0.7,0.3c-0.3,0.1-0.6,0.2-0.8,0.3c-0.6,0.2-1.1,0.4-1.6,0.6c-0.4,0.2-0.7,0.3-0.7,0.3c0,0-0.1,0.1,0,0.2
		c0,0.1,0.1,0.1,0.1,0.1c0,0,0.3-0.1,0.7-0.2c0.4-0.1,1-0.3,1.6-0.4c0.3-0.1,0.6-0.2,0.9-0.2c0.3-0.1,0.5-0.2,0.7-0.2
		c0.2-0.1,0.4-0.1,0.5-0.2c0.1,0,0.1,0,0.1-0.1c0,0,0-0.1,0-0.1c0,0,0-0.1,0-0.1C108.8,51.5,108.8,51.4,108.7,51.2
		C108.7,51.3,108.7,51.3,108.7,51.2z"/>
	<path class="st0" d="M30.9,39c0.2,0.2,0.4,0.3,0.6,0.4c0.2,0.1,0.3,0.2,0.3,0.2c0,0,0.1,0,0.1,0c0.1-0.1,0.1-0.1,0-0.2
		c0,0-0.1-0.1-0.2-0.3c-0.1-0.2-0.3-0.4-0.5-0.6c-0.2-0.2-0.4-0.4-0.5-0.5c-0.1-0.1-0.1-0.1-0.2-0.2c0,0,0-0.1-0.1,0
		c0,0-0.1,0.1-0.1,0.1c0,0,0,0.1,0,0.2c-0.1,0.1-0.1,0.1-0.2,0.1c0,0-0.1,0.1-0.1,0.1c0,0.1,0,0,0,0.1c0,0,0.1,0.1,0.2,0.2
		C30.4,38.7,30.6,38.9,30.9,39z"/>
	<path class="st0" d="M103.2,52.9C103.2,52.9,103.2,52.9,103.2,52.9c-0.1,0-0.2,0-0.3,0.1c-0.2,0.1-0.5,0.2-0.7,0.3
		c-0.3,0.1-0.5,0.2-0.7,0.3c-0.2,0.1-0.3,0.2-0.3,0.2c0,0-0.1,0.1,0,0.1c0,0.1,0.1,0.1,0.1,0.1c0,0,0.1,0,0.4,0
		c0.2,0,0.5-0.1,0.8-0.1c0.3-0.1,0.5-0.1,0.7-0.2c0.1,0,0.2-0.1,0.2-0.1c0,0,0.1,0,0.1-0.1c0-0.1,0-0.2,0-0.1c0,0-0.1,0-0.1-0.1
		c0-0.1,0-0.2,0-0.2C103.3,53.1,103.3,53,103.2,52.9z"/>
	<path class="st0" d="M10,65.9c0.1,0,0.2,0,0.4,0c0.3,0,0.7,0,1.1,0c0.4,0,0.8-0.1,1.1-0.1c0.3,0,0.5-0.1,0.5-0.1
		c0,0,0.1-0.1,0.1-0.2c0-0.1,0-0.2-0.1-0.2c0,0-0.2,0-0.5-0.1c-0.3,0-0.7-0.1-1.1-0.1c-0.4,0-0.8,0-1.1-0.1c-0.2,0-0.3,0-0.4,0
		c0,0-0.1,0-0.1,0c0,0,0,0.1,0,0.1c0,0,0,0.1,0,0.1c0,0.1,0,0.2,0,0.4c0,0,0,0,0,0.1c0,0,0,0.1,0,0.1C9.9,66,9.9,65.9,10,65.9z"/>
	<path class="st0" d="M14.1,65.9c0.1,0,0.3,0,0.5,0c0.2,0,0.5,0,0.8,0c0.3,0,0.6,0,0.9,0c0.6,0,1.2,0,1.7-0.1c0.5,0,0.8-0.1,0.8-0.1
		c0,0,0.1-0.1,0.1-0.1c0-0.1,0-0.2-0.1-0.2c0,0-0.3,0-0.8-0.1c-0.5-0.1-1.1-0.1-1.7-0.1c-0.3,0-0.6,0-0.9-0.1c-0.3,0-0.5,0-0.8,0
		c-0.2,0-0.4,0-0.5,0c-0.1,0-0.1,0-0.2,0c0,0,0,0.1,0,0.1c0,0,0,0.1,0,0.1c0,0.1,0,0.2,0,0.3c0,0,0,0,0,0.1c0,0,0,0.1,0,0.1
		C14,66,14,65.9,14.1,65.9z"/>
	<path class="st0" d="M109.5,65.2c0.8,0,1.6,0,2.3,0c0.7,0,1.4,0,2,0c0.6,0,1.1,0,1.4,0c0.2,0,0.3,0,0.4-0.1
		c0.1-0.1,0.1-0.2,0.1-0.2c0-0.1,0-0.3,0-0.4c0,0-0.1-0.1-0.1-0.2c-0.1-0.1-0.2,0-0.4,0c-0.3,0-0.8,0-1.4,0.1c-0.6,0-1.3,0.1-2,0.1
		c-0.7,0-1.5,0.1-2.3,0.1c-1.6,0.1-3.1,0.2-4.3,0.3c-1.2,0.1-2,0.1-2,0.1c0,0-0.1,0.1-0.1,0.1c0,0.1,0,0.1,0.1,0.1c0,0,0.8,0,2,0
		C106.3,65.3,107.9,65.2,109.5,65.2z"/>
	<path class="st0" d="M29.7,37.4c0,0-0.2-0.2-0.5-0.6c-0.3-0.3-0.8-0.7-1.2-1.2c-0.2-0.2-0.4-0.4-0.6-0.6c-0.2-0.2-0.4-0.4-0.6-0.5
		c-0.2-0.2-0.3-0.3-0.4-0.4c-0.1,0-0.1-0.1-0.1-0.1c0,0-0.1,0-0.1,0.1c0,0,0,0,0,0c-0.1,0.1-0.2,0.2-0.2,0.3c0,0,0,0,0,0.1
		c0,0,0,0.1,0,0.1c0,0.1,0,0.1,0.1,0.1c0.1,0.1,0.2,0.2,0.4,0.4c0.2,0.1,0.4,0.3,0.6,0.5c0.2,0.2,0.5,0.4,0.7,0.6
		c0.5,0.4,0.9,0.8,1.3,1c0.4,0.3,0.6,0.5,0.6,0.5c0,0,0.1,0,0.2-0.1C29.7,37.6,29.7,37.5,29.7,37.4z"/>
	<path class="st0" d="M15.5,51.5c-0.7-0.2-1.4-0.4-1.9-0.6c-0.6-0.2-1-0.3-1.4-0.4c-0.2,0-0.3-0.1-0.4-0.1c-0.1,0-0.2,0.1-0.2,0.1
		c-0.1,0.1-0.1,0.2-0.1,0.4c0,0,0,0.1,0.1,0.2c0.1,0.1,0.2,0.1,0.4,0.2c0.3,0.1,0.8,0.2,1.4,0.4c0.6,0.2,1.2,0.4,1.9,0.6
		c0.7,0.2,1.5,0.4,2.2,0.6c1.5,0.4,3,0.9,4.2,1.2c1.1,0.3,1.9,0.5,1.9,0.5c0,0,0.1,0,0.1-0.1c0-0.1,0-0.1,0-0.2c0,0-0.7-0.3-1.9-0.6
		c-1.1-0.4-2.6-0.9-4.1-1.4C16.9,52,16.2,51.8,15.5,51.5z"/>
	<path class="st0" d="M19.6,65.8c0,0,0,0.1,0,0.1c0,0.1,0,0,0.1,0c0.1,0,0.1,0,0.3,0c0.2,0,0.5,0,0.8,0c0.3,0,0.6,0,0.8-0.1
		c0.2,0,0.3-0.1,0.3-0.1c0,0,0.1-0.1,0.1-0.1c0-0.1,0-0.2-0.1-0.2c0,0-0.1,0-0.3-0.1c-0.2,0-0.5-0.1-0.8-0.1c-0.3,0-0.6-0.1-0.8-0.1
		c-0.1,0-0.2,0-0.3,0c0,0-0.1,0-0.1,0c0,0.1,0,0.2,0,0.1c0.1,0,0.1,0.1,0.1,0.2C19.7,65.7,19.6,65.8,19.6,65.8z"/>
	<path class="st0" d="M21.5,47.5c0.2,0.1,0.5,0.2,0.8,0.3c0.3,0.1,0.6,0.3,0.9,0.4c0.6,0.3,1.2,0.5,1.7,0.7c0.5,0.2,0.8,0.3,0.8,0.3
		c0,0,0.1,0,0.1-0.1c0-0.1,0-0.1,0-0.2c0,0-0.3-0.2-0.7-0.4c-0.4-0.2-1-0.5-1.6-0.9c-0.3-0.2-0.6-0.3-0.8-0.4
		c-0.3-0.1-0.5-0.3-0.7-0.4c-0.2-0.1-0.4-0.2-0.5-0.3c-0.1,0-0.1-0.1-0.2,0c0,0-0.1,0-0.1,0.1c0,0,0,0,0,0c-0.1,0.1-0.1,0.2-0.1,0.3
		c0,0,0,0,0,0.1c0,0,0,0.1,0,0.1c0,0.1,0.1,0.1,0.1,0.1C21.1,47.3,21.3,47.4,21.5,47.5z"/>
	<path class="st0" d="M79.1,7.6c0.1,0,0.2,0,0.2,0c0,0,0.2-0.5,0.4-1.1c0.2-0.7,0.5-1.6,0.8-2.5C80.7,3.5,80.9,3,81,2.6
		c0.1-0.4,0.2-0.8,0.4-1.2c0.1-0.3,0.2-0.6,0.2-0.8c0-0.1,0.1-0.2,0-0.3c0,0-0.1-0.1-0.1-0.1c0,0-0.1,0-0.1,0
		C81.3,0.1,81.1,0,80.9,0c0,0,0,0-0.1,0c-0.1,0-0.1,0-0.2,0c-0.1,0-0.1,0.1-0.1,0.2c-0.1,0.2-0.1,0.5-0.2,0.9
		c-0.1,0.4-0.2,0.8-0.3,1.2c-0.1,0.4-0.2,0.9-0.3,1.4c-0.2,0.9-0.4,1.9-0.6,2.6C79,7,78.9,7.5,78.9,7.5C78.9,7.5,79,7.6,79.1,7.6z"
		/>
	<path class="st0" d="M68.1,26.1c0,0,0.1-0.8,0.3-1.9c0.2-1.2,0.4-2.7,0.7-4.3c0.1-0.8,0.2-1.6,0.3-2.3c0.1-0.7,0.2-1.4,0.3-2
		c0.1-0.6,0.2-1.1,0.2-1.4c0-0.2,0.1-0.3,0-0.4c-0.1-0.1-0.2-0.2-0.2-0.2c-0.1-0.1-0.3-0.1-0.4,0c0,0-0.1,0-0.2,0.1
		c-0.1,0.1-0.1,0.2-0.1,0.4c0,0.3-0.1,0.8-0.2,1.4c-0.1,0.6-0.1,1.3-0.2,2c-0.1,0.7-0.2,1.5-0.3,2.3c-0.2,1.6-0.3,3.1-0.5,4.3
		c-0.1,1.2-0.2,2-0.2,2c0,0,0.1,0.1,0.1,0.1C68,26.1,68.1,26.1,68.1,26.1z"/>
	<path class="st0" d="M75.5,20.5c0.1,0,0.2,0,0.2,0c0,0,0.2-0.7,0.6-1.7c0.3-1,0.8-2.4,1.2-3.8c0.2-0.7,0.4-1.4,0.6-2
		c0.2-0.6,0.4-1.2,0.5-1.8c0.2-0.5,0.3-0.9,0.4-1.2c0-0.2,0.1-0.3,0.1-0.4c0-0.1-0.2-0.2-0.2-0.2c-0.1-0.1-0.3-0.1-0.4-0.1
		c0,0-0.1,0-0.2,0.1c-0.1,0.1-0.1,0.2-0.1,0.3C78,10,77.9,10.4,77.7,11c-0.1,0.5-0.3,1.1-0.5,1.8c-0.2,0.6-0.4,1.3-0.5,2
		c-0.3,1.4-0.7,2.8-0.9,3.8c-0.2,1-0.4,1.7-0.4,1.7C75.4,20.4,75.4,20.4,75.5,20.5z"/>
	<path class="st0" d="M61.7,10.8c0,1.6,0.1,3.8,0.1,6c0.1,2.2,0.1,4.4,0.2,6c0.1,1.6,0.1,2.7,0.1,2.7c0,0,0.1,0.1,0.1,0.1
		c0.1,0,0.1,0,0.1-0.1c0,0,0-1.1,0-2.7c0-1.6,0.1-3.8,0.1-6c0-2.2,0-4.4,0-6c0-0.8,0-1.5,0-2c0-0.2,0-0.4,0-0.6
		c-0.1-0.1-0.2-0.2-0.2-0.2c0,0,0,0,0,0c-0.1,0-0.3,0-0.4,0c0,0-0.1,0.1-0.2,0.2c-0.1,0.1,0,0.3,0,0.6C61.6,9.3,61.7,10,61.7,10.8z"
		/>
	<path class="st0" d="M73.7,27.3c0,0,0.1-0.3,0.3-0.8c0.2-0.5,0.4-1.1,0.6-1.7c0.1-0.3,0.2-0.6,0.3-0.9c0.1-0.3,0.2-0.6,0.2-0.8
		c0.1-0.2,0.1-0.4,0.2-0.6c0-0.1,0.1-0.1,0-0.2c0,0-0.1-0.1-0.1-0.1c0,0-0.1,0-0.1,0c-0.1,0-0.2-0.1-0.3-0.1c0,0,0,0-0.1,0
		c0,0-0.1,0-0.1,0c-0.1,0-0.1,0.1-0.1,0.1c0,0.1-0.1,0.3-0.2,0.6c-0.1,0.2-0.1,0.5-0.2,0.8c-0.1,0.3-0.2,0.6-0.2,0.9
		c-0.1,0.6-0.3,1.3-0.4,1.7c-0.1,0.5-0.2,0.8-0.2,0.8c0,0,0,0.1,0.1,0.1C73.6,27.3,73.7,27.3,73.7,27.3z"/>
	<path class="st0" d="M54.4,14.9c0.1,0.3,0.1,0.7,0.2,1.1c0.1,0.4,0.2,0.8,0.3,1.1c0.1,0.3,0.2,0.5,0.2,0.5c0,0,0.1,0.1,0.2,0.1
		c0.1,0,0.2-0.1,0.2-0.1c0,0,0-0.2,0-0.5c0-0.3,0-0.7-0.1-1.1c0-0.4-0.1-0.8-0.1-1.1c0-0.2,0-0.3-0.1-0.4c0,0,0-0.1-0.1-0.1
		c0,0-0.1,0-0.1,0c0,0-0.1,0-0.1,0c-0.1,0-0.2,0-0.4,0.1c0,0,0,0-0.1,0c0,0-0.1,0-0.1,0c-0.1,0,0,0.1,0,0.1
		C54.3,14.6,54.3,14.7,54.4,14.9z"/>
	<path class="st0" d="M56,23.9c0,0-0.1,0-0.1,0c-0.1,0,0,0,0,0.1c0,0.1,0,0.1,0,0.2c0,0.2,0.1,0.5,0.1,0.7c0.1,0.3,0.1,0.5,0.2,0.7
		c0.1,0.2,0.1,0.3,0.1,0.3c0,0,0.1,0.1,0.1,0.1c0.1,0,0.1,0,0.1-0.1c0,0,0-0.1,0-0.3c0-0.2,0-0.5,0-0.8c0-0.3,0-0.6-0.1-0.8
		c0-0.1,0-0.2,0-0.2c0,0,0-0.1,0-0.1c-0.1,0-0.2,0-0.2,0c0,0-0.1,0.1-0.1,0.1C56.1,24,56,24,56,23.9z"/>
	<path class="st0" d="M55.1,18.4c0,0-0.1,0-0.1,0.1c-0.1,0,0,0.1,0,0.2c0,0.1,0.1,0.3,0.1,0.5c0,0.2,0.1,0.5,0.1,0.8
		c0.1,0.3,0.1,0.6,0.2,0.9c0.1,0.6,0.2,1.2,0.3,1.6c0.1,0.4,0.2,0.7,0.2,0.7c0,0,0.1,0.1,0.2,0.1c0.1,0,0.2-0.1,0.1-0.1
		c0,0,0-0.3,0-0.8c0-0.5-0.1-1.1-0.1-1.7c0-0.3-0.1-0.6-0.1-0.9c0-0.3-0.1-0.5-0.1-0.8c0-0.2-0.1-0.4-0.1-0.5c0-0.1,0-0.1-0.1-0.1
		c0,0-0.1,0-0.1,0c0,0-0.1,0-0.1,0C55.4,18.3,55.3,18.3,55.1,18.4C55.2,18.3,55.1,18.4,55.1,18.4z"/>
	<path class="st0" d="M119.1,56.1c-0.5,0.1-1.1,0.2-2,0.4c-1.6,0.3-3.8,0.7-5.9,1.1c-2.2,0.4-4.3,0.8-5.9,1.2
		c-1.6,0.3-2.7,0.5-2.7,0.5c0,0-0.1,0.1-0.1,0.2c0,0.1,0.1,0.1,0.1,0.1c0,0,1.1-0.2,2.7-0.4c1.6-0.2,3.8-0.6,6-0.9
		c2.2-0.3,4.3-0.7,6-1c0.8-0.1,1.5-0.2,2-0.3c0.2-0.1,0.4,0,0.5-0.1c0.1-0.1,0.2-0.2,0.2-0.2c0,0,0,0,0,0c0-0.1,0-0.3-0.1-0.4
		c0,0-0.1-0.1-0.2-0.2C119.6,56,119.4,56.1,119.1,56.1z"/>
	<path class="st0" d="M102.1,39.7c0,0.1,0.1,0.1,0.2,0.1c0,0,0.6-0.4,1.5-0.9c0.9-0.6,2.1-1.3,3.3-2.1c0.6-0.4,1.2-0.8,1.8-1.1
		c0.6-0.4,1.1-0.7,1.5-1c0.4-0.3,0.8-0.5,1.1-0.7c0.1-0.1,0.3-0.1,0.3-0.2c0-0.1,0-0.2,0-0.2c0-0.1-0.1-0.3-0.2-0.3
		c0,0-0.1-0.1-0.2-0.1c-0.1,0-0.2,0.1-0.3,0.2c-0.3,0.2-0.6,0.4-1.1,0.7c-0.4,0.3-1,0.7-1.5,1c-0.5,0.4-1.1,0.8-1.7,1.2
		c-1.2,0.8-2.3,1.7-3.2,2.3c-0.9,0.6-1.4,1.1-1.4,1.1C102.1,39.6,102.1,39.7,102.1,39.7z"/>
	<path class="st0" d="M97.2,34.6c-1.1,1.1-2.3,2.2-3.1,3c-0.8,0.8-1.4,1.4-1.4,1.4c0,0,0,0.1,0,0.2c0.1,0.1,0.1,0.1,0.2,0.1
		c0,0,0.6-0.5,1.5-1.3c0.9-0.8,2.1-1.8,3.3-2.8c0.6-0.5,1.2-1,1.7-1.5c0.6-0.5,1.1-0.9,1.5-1.3c0.4-0.4,0.8-0.7,1.1-0.9
		c0.1-0.1,0.2-0.2,0.3-0.3c0-0.1,0-0.2,0-0.2c0-0.1-0.1-0.2-0.2-0.3c0,0-0.1-0.1-0.2,0c-0.1,0-0.2,0.1-0.3,0.2c-0.3,0.2-0.6,0.6-1,1
		c-0.4,0.4-0.9,0.9-1.5,1.4C98.3,33.6,97.7,34.1,97.2,34.6z"/>
	<path class="st0" d="M78.8,29.1c0,0,0,0.1,0.1,0.1c0.1,0,0.1,0,0.2,0c0,0,0.6-1.2,1.4-3c0.8-1.8,1.9-4.2,3-6.6
		c1.1-2.4,2.2-4.8,3-6.6c0.4-0.9,0.8-1.6,1-2.2c0.1-0.3,0.2-0.5,0.2-0.6c0-0.2-0.1-0.3-0.1-0.3c0,0,0,0,0,0
		c-0.1-0.1-0.3-0.1-0.3-0.1c0,0-0.2,0-0.3,0.1c-0.1,0.1-0.2,0.3-0.3,0.6c-0.2,0.5-0.5,1.3-0.9,2.2c-0.8,1.8-1.8,4.2-2.8,6.7
		c-1,2.4-2,4.9-2.8,6.7C79.3,27.9,78.8,29.1,78.8,29.1z"/>
	<path class="st0" d="M113.3,32.4c0,0,0.4-0.2,1.1-0.6c0.6-0.4,1.5-0.9,2.3-1.4c0.4-0.3,0.8-0.5,1.2-0.8c0.4-0.2,0.7-0.5,1-0.7
		c0.3-0.2,0.6-0.4,0.7-0.5c0.1-0.1,0.2-0.1,0.2-0.2c0,0,0-0.1,0-0.2c0,0,0-0.1,0-0.1c-0.1-0.1-0.2-0.3-0.3-0.4c0,0,0,0-0.1-0.1
		c0,0-0.1-0.1-0.1-0.1c-0.1,0-0.1,0-0.2,0.1c-0.2,0.1-0.4,0.3-0.7,0.5c-0.3,0.2-0.6,0.5-1,0.7c-0.4,0.3-0.8,0.5-1.2,0.8
		c-0.8,0.6-1.6,1.2-2.1,1.6c-0.6,0.4-0.9,0.8-0.9,0.8c0,0,0,0.1,0,0.2C113.2,32.4,113.3,32.5,113.3,32.4z"/>
	<path class="st0" d="M87.7,25.1c-0.1,0.1-0.2,0.3-0.3,0.5c-0.1,0.2-0.3,0.4-0.4,0.7c-0.1,0.2-0.3,0.5-0.4,0.8
		c-0.3,0.5-0.6,1.1-0.8,1.5c-0.2,0.4-0.3,0.7-0.3,0.7c0,0,0,0.1,0.1,0.1c0.1,0,0.2,0.1,0.2,0c0,0,0.2-0.2,0.5-0.6
		c0.3-0.4,0.6-0.9,1-1.4c0.2-0.2,0.3-0.5,0.5-0.7c0.2-0.2,0.3-0.5,0.4-0.7c0.1-0.2,0.2-0.4,0.3-0.5c0-0.1,0.1-0.1,0-0.2
		c0,0,0-0.1-0.1-0.1c0,0,0,0,0,0c-0.1-0.1-0.2-0.1-0.3-0.2c0,0,0,0-0.1,0c0,0-0.1,0-0.1,0C87.7,25,87.7,25,87.7,25.1z"/>
	<path class="st0" d="M88.7,24.5c0,0,0.1-0.2,0.3-0.4c0.2-0.2,0.4-0.6,0.7-0.9c0.2-0.3,0.5-0.7,0.6-0.9c0.1-0.1,0.2-0.2,0.2-0.3
		c0,0,0.1-0.1,0-0.1c0,0-0.1-0.1-0.1-0.1c0,0,0,0,0,0c-0.1-0.1-0.2-0.1-0.3-0.2c0,0,0,0-0.1,0c0,0-0.1,0-0.1,0c-0.1,0-0.1,0-0.1,0.1
		c0,0.1-0.1,0.2-0.2,0.3c-0.2,0.3-0.4,0.6-0.5,1c-0.2,0.4-0.4,0.7-0.5,1c-0.1,0.3-0.2,0.5-0.2,0.5c0,0,0,0.1,0.1,0.2
		C88.5,24.5,88.6,24.6,88.7,24.5z"/>
	<path class="st0" d="M88.5,35c0,0,0,0.1,0,0.2c0.1,0.1,0.1,0.1,0.2,0c0,0,0.7-0.8,1.8-2.1c1.1-1.2,2.5-2.9,4-4.6
		c1.4-1.7,2.9-3.3,3.9-4.6c0.5-0.6,1-1.1,1.3-1.5c0.1-0.2,0.3-0.3,0.3-0.5c0-0.1,0-0.3,0-0.3c0,0,0,0,0,0c-0.1-0.1-0.2-0.2-0.3-0.2
		c0,0-0.1,0-0.3,0c-0.1,0-0.2,0.2-0.4,0.4c-0.3,0.4-0.7,0.9-1.3,1.5c-1,1.3-2.4,3-3.8,4.7c-1.4,1.7-2.8,3.4-3.8,4.7
		C89.2,34.2,88.5,35,88.5,35z"/>
	<path class="st0" d="M112.6,50C112.6,50,112.6,49.9,112.6,50c0-0.1-0.1-0.1-0.1-0.2c0-0.1-0.1,0-0.1,0c-0.1,0-0.2,0.1-0.4,0.1
		c-0.3,0.1-0.7,0.3-1.1,0.4c-0.4,0.2-0.8,0.3-1,0.5c-0.3,0.1-0.5,0.2-0.5,0.2c0,0-0.1,0.1,0,0.2c0,0.1,0.1,0.2,0.1,0.2
		c0,0,0.2,0,0.5-0.1c0.3-0.1,0.7-0.2,1.1-0.3c0.4-0.1,0.8-0.2,1.1-0.3c0.1,0,0.3-0.1,0.4-0.1c0,0,0.1,0,0.1-0.1c0,0,0-0.1,0-0.1
		c0,0,0-0.1,0-0.1C112.7,50.2,112.6,50.1,112.6,50z"/>
	<path class="st0" d="M43.5,25.5c0.1,0.2,0.2,0.5,0.4,0.8c0.1,0.3,0.3,0.6,0.4,0.9c0.3,0.6,0.6,1.2,0.8,1.6c0.2,0.4,0.4,0.7,0.4,0.7
		c0,0,0.1,0.1,0.2,0c0.1,0,0.1-0.1,0.1-0.1c0,0-0.1-0.3-0.3-0.8c-0.2-0.5-0.4-1.1-0.7-1.7c-0.1-0.3-0.2-0.6-0.4-0.9
		c-0.1-0.3-0.2-0.5-0.3-0.8c-0.1-0.2-0.2-0.4-0.2-0.5c0-0.1,0-0.1-0.1-0.1c0,0-0.1,0-0.1,0c0,0-0.1,0-0.1,0c-0.1,0-0.2,0.1-0.3,0.1
		c0,0,0,0,0,0c0,0-0.1,0.1-0.1,0.1c0,0.1,0,0.1,0,0.2C43.3,25.1,43.4,25.3,43.5,25.5z"/>
	<path class="st0" d="M0.2,37.7C0.4,37.8,0.7,37.9,1,38c0.3,0.1,0.7,0.3,1.1,0.5c0.4,0.2,0.9,0.4,1.3,0.6c0.9,0.4,1.8,0.7,2.5,1
		c0.7,0.3,1.1,0.4,1.1,0.4c0,0,0.1,0,0.2-0.2c0.1-0.1,0.1-0.2,0-0.2c0,0-0.4-0.2-1.1-0.6c-0.6-0.4-1.5-0.8-2.4-1.2
		C3.4,38,3,37.8,2.6,37.6c-0.4-0.2-0.8-0.4-1.1-0.5c-0.3-0.2-0.6-0.3-0.8-0.4c-0.1,0-0.2-0.1-0.2-0.1c0,0-0.1,0.1-0.1,0.1
		c0,0-0.1,0.1-0.1,0.1C0.1,37,0.1,37.1,0,37.3c0,0,0,0,0,0.1c0,0.1,0,0.1,0,0.2C0,37.6,0.1,37.6,0.2,37.7z"/>
	<path class="st0" d="M5.2,56.9C5,56.9,4.9,57,4.9,57c0,0,0,0,0,0c-0.1,0.1-0.1,0.3-0.1,0.4c0,0,0,0.1,0.2,0.2
		c0.1,0.1,0.3,0.1,0.5,0.1c0.5,0.1,1.2,0.2,2,0.3c1.6,0.2,3.8,0.5,6,0.9c2.2,0.3,4.4,0.6,6,0.8c1.6,0.2,2.7,0.4,2.7,0.4
		c0,0,0.1,0,0.1-0.1c0-0.1,0-0.1-0.1-0.2c0,0-1.1-0.2-2.7-0.5c-1.6-0.3-3.8-0.7-6-1.1c-2.2-0.4-4.3-0.7-6-1c-0.8-0.1-1.5-0.3-2-0.3
		C5.5,56.9,5.3,56.8,5.2,56.9z"/>
	<path class="st0" d="M33.9,5c0.2,0.3,0.3,0.7,0.6,1.1c0.2,0.4,0.4,0.8,0.6,1.3c0.5,0.9,0.9,1.7,1.3,2.4c0.3,0.6,0.6,1.1,0.6,1.1
		c0,0,0.1,0,0.2,0c0.1,0,0.2-0.1,0.2-0.2c0,0-0.2-0.5-0.4-1.1c-0.3-0.7-0.6-1.6-1-2.5c-0.2-0.5-0.4-0.9-0.6-1.3
		c-0.2-0.4-0.4-0.8-0.5-1.1c-0.1-0.3-0.3-0.6-0.4-0.8c-0.1-0.1,0-0.2-0.2-0.2c0,0-0.1,0-0.2,0c0,0-0.1,0-0.1,0
		c-0.1,0-0.3,0.1-0.4,0.2c0,0,0,0-0.1,0.1c0,0-0.1,0.1-0.1,0.1c-0.1,0.1,0,0.1,0.1,0.2C33.6,4.4,33.8,4.7,33.9,5z"/>
	<path class="st0" d="M35.2,23c-0.3-0.5-0.6-0.9-0.8-1.2c-0.1-0.1-0.1-0.3-0.2-0.3c-0.1,0-0.2,0-0.2,0c-0.1,0-0.2,0.1-0.3,0.2
		c0,0-0.1,0.1-0.1,0.2c0,0.1,0.1,0.2,0.2,0.4c0.2,0.3,0.5,0.7,0.8,1.2c0.3,0.5,0.7,1.1,1.1,1.7c0.4,0.6,0.8,1.3,1.3,1.9
		c0.9,1.3,1.8,2.6,2.4,3.6c0.7,1,1.1,1.6,1.1,1.6c0,0,0.1,0,0.2,0c0.1,0,0.1-0.1,0.1-0.2c0,0-0.4-0.7-1-1.7c-0.6-1-1.4-2.4-2.2-3.7
		c-0.4-0.7-0.8-1.3-1.2-2C35.8,24.1,35.5,23.5,35.2,23z"/>
	<path class="st0" d="M38.3,14.3c0.2,0.5,0.5,1,0.8,1.7c0.3,0.6,0.6,1.3,0.9,1.9c0.6,1.3,1.3,2.6,1.7,3.5c0.5,1,0.8,1.6,0.8,1.6
		c0,0,0.1,0,0.2,0c0.1,0,0.1-0.1,0.1-0.2c0,0-0.3-0.7-0.7-1.7c-0.4-1-1-2.3-1.5-3.6c-0.3-0.7-0.6-1.3-0.8-1.9
		c-0.3-0.6-0.5-1.2-0.7-1.7c-0.2-0.5-0.4-0.9-0.5-1.2c-0.1-0.1-0.1-0.3-0.2-0.3c-0.1,0-0.2,0-0.2,0c-0.1,0-0.3,0.1-0.4,0.2
		c0,0-0.1,0.1-0.1,0.2c0,0.1,0.1,0.2,0.1,0.3C37.9,13.4,38.1,13.8,38.3,14.3z"/>
	<path class="st0" d="M26,24.5c1.1,1.2,2.6,2.9,4,4.5c1.5,1.6,2.9,3.3,4,4.5c1.1,1.2,1.8,2,1.8,2c0,0,0.1,0,0.2,0
		c0.1-0.1,0.1-0.1,0.1-0.2c0,0-0.7-0.9-1.7-2.1c-1-1.3-2.4-3-3.8-4.7c-1.4-1.7-2.8-3.4-3.9-4.6c-0.5-0.6-1-1.2-1.3-1.5
		c-0.2-0.2-0.3-0.4-0.4-0.4c-0.1-0.1-0.3,0-0.3,0c0,0,0,0,0,0c-0.1,0-0.2,0.2-0.3,0.3c0,0-0.1,0.1,0,0.3c0,0.1,0.2,0.3,0.3,0.5
		C25,23.4,25.4,23.9,26,24.5z"/>
	<path class="st0" d="M9.1,41.7c0.3,0.1,0.7,0.3,1.2,0.5c0.5,0.2,1.1,0.5,1.7,0.8c0.6,0.3,1.3,0.6,1.9,0.9c1.3,0.6,2.6,1.2,3.6,1.6
		c1,0.4,1.6,0.7,1.6,0.7c0,0,0.1,0,0.1-0.1c0-0.1,0-0.2,0-0.2c0,0-0.6-0.3-1.6-0.8c-0.9-0.5-2.2-1.1-3.5-1.8
		c-0.6-0.3-1.3-0.6-1.9-0.9c-0.6-0.3-1.2-0.6-1.6-0.8c-0.5-0.2-0.9-0.4-1.2-0.6c-0.1-0.1-0.2-0.2-0.3-0.1c-0.1,0-0.2,0.1-0.2,0.1
		c-0.1,0.1-0.2,0.2-0.2,0.4c0,0,0,0.1,0,0.2C8.9,41.6,9,41.6,9.1,41.7z"/>
	<path class="st0" d="M22.7,32.1c0.1,0.1,0.2,0.1,0.3,0.2c0.2,0.2,0.6,0.4,0.9,0.7c0.3,0.2,0.7,0.5,0.9,0.7c0.3,0.2,0.4,0.3,0.4,0.3
		c0,0,0.1,0,0.2-0.1c0.1-0.1,0.1-0.2,0.1-0.2c0,0-0.1-0.2-0.3-0.4c-0.2-0.2-0.5-0.5-0.8-0.8c-0.3-0.3-0.6-0.6-0.8-0.8
		c-0.1-0.1-0.2-0.2-0.3-0.2c0,0,0-0.1-0.1,0c0,0-0.1,0-0.1,0.1c0,0,0,0,0,0c-0.1,0.1-0.2,0.2-0.2,0.3c0,0,0,0,0,0.1
		C22.7,31.9,22.7,32,22.7,32.1C22.6,32.1,22.7,32.1,22.7,32.1z"/>
	<path class="st0" d="M11.3,33.4c0.5,0.3,1.2,0.8,2,1.3c1.7,1.1,3.9,2.5,6.1,3.9c2.2,1.4,4.4,2.8,6.1,3.9c1.7,1,2.8,1.7,2.8,1.7
		c0,0,0.1,0,0.2-0.1c0-0.1,0-0.1,0-0.2c0,0-1.1-0.7-2.7-1.9c-1.6-1.1-3.8-2.6-6-4.1c-2.2-1.5-4.4-2.9-6-4.1c-0.8-0.6-1.5-1-2-1.3
		c-0.2-0.2-0.4-0.3-0.6-0.3c-0.2,0-0.3,0.1-0.3,0.1c0,0,0,0-0.1,0c-0.1,0.1-0.2,0.2-0.2,0.3c0,0,0,0.2,0.1,0.3
		C10.9,33.1,11.1,33.2,11.3,33.4z"/>
</g>
<g>
	<g>
		<path class="st0" d="M82.8,63.9l-11.5,4.2c-0.3,0.1-0.7-0.1-0.9-0.4l-5.8-16c-0.1-0.3,0.1-0.7,0.4-0.9l11.5-4.2
			c0.3-0.1,0.7,0.1,0.9,0.4l5.8,16C83.3,63.4,83.1,63.8,82.8,63.9z M71.5,66.6l10.2-3.7l-5.4-14.8l-10.2,3.7L71.5,66.6z"/>
	</g>
	<g>
		<path class="st0" d="M84.5,69.9l-10.7,3.9c-1.7,0.6-3.5-0.3-4.1-1.9l-0.4-1.1c-0.6-1.7,0.3-3.5,1.9-4.1l10.7-3.9
			c1.7-0.6,3.5,0.3,4.1,1.9l0.4,1.1C87,67.5,86.2,69.3,84.5,69.9z M71.7,67.9c-1,0.3-1.5,1.4-1.1,2.4l0.4,1.1c0.3,1,1.4,1.5,2.4,1.1
			l10.7-3.9c1-0.3,1.5-1.4,1.1-2.4l-0.4-1.1c-0.3-1-1.4-1.5-2.4-1.1L71.7,67.9z"/>
	</g>
	<g>
		<path class="st0" d="M76.6,48l-10.7,3.9c-1.7,0.6-3.5-0.3-4.1-1.9l-0.4-1.1c-0.6-1.7,0.3-3.5,1.9-4.1L74,40.9
			c1.7-0.6,3.5,0.3,4.1,1.9l0.4,1.1C79.1,45.6,78.2,47.4,76.6,48z M63.7,46.1c-1,0.3-1.5,1.4-1.1,2.4l0.4,1.1c0.3,1,1.4,1.5,2.4,1.1
			l10.7-3.9c1-0.3,1.5-1.4,1.1-2.4l-0.4-1.1c-0.3-1-1.4-1.5-2.4-1.1L63.7,46.1z"/>
	</g>
	<g>
		<path class="st0" d="M69.7,63.8c-0.1,0-0.2,0.1-0.3,0l-3.5-0.6c-0.2,0-0.4-0.2-0.5-0.4l-1.5-4.1c-0.1-0.2,0-0.5,0.1-0.7l2.3-2.7
			c0.2-0.2,0.4-0.3,0.6-0.2c0.2,0,0.4,0.2,0.5,0.4l2.7,7.4c0.1,0.2,0,0.5-0.1,0.7C70,63.7,69.9,63.7,69.7,63.8z M66.5,62l2,0.3
			L66.6,57l-1.3,1.5L66.5,62z"/>
	</g>
	<g>
		<rect x="77.4" y="53.8" transform="matrix(0.9397 -0.342 0.342 0.9397 -15.1906 30.2073)" class="st0" width="1.3" height="8.7"/>
	</g>
	<g>
		<rect x="75.2" y="54.6" transform="matrix(0.9397 -0.342 0.342 0.9397 -15.6029 29.4931)" class="st0" width="1.3" height="8.7"/>
	</g>
	<g>
		<rect x="33.5" y="86.5" class="st0" width="58" height="1.3"/>
	</g>
	<g>
		<rect x="74.1" y="70.4" transform="matrix(0.9397 -0.342 0.342 0.9397 -20.0669 29.9237)" class="st0" width="1.3" height="2.9"/>
	</g>
	<g>
		<rect x="78" y="69" transform="matrix(0.9397 -0.342 0.342 0.9397 -19.3546 31.1574)" class="st0" width="1.3" height="2.9"/>
	</g>
	<g>
		<rect x="81.9" y="67.6" transform="matrix(0.9397 -0.342 0.342 0.9397 -18.6423 32.3913)" class="st0" width="1.3" height="2.9"/>
	</g>
	<g>
		<rect x="64.6" y="44.2" transform="matrix(0.9397 -0.342 0.342 0.9397 -11.6716 25.0767)" class="st0" width="1.3" height="2.9"/>
	</g>
	<g>
		<rect x="68.5" y="42.8" transform="matrix(0.9397 -0.342 0.342 0.9397 -10.9593 26.3104)" class="st0" width="1.3" height="2.9"/>
	</g>
	<g>
		<rect x="72.3" y="41.4" transform="matrix(0.9397 -0.342 0.342 0.9397 -10.2469 27.5442)" class="st0" width="1.3" height="2.9"/>
	</g>
	<g>
		<path class="st0" d="M66.2,63.2l-24.2,8.9c-0.2,0.1-0.5,0-0.7-0.1c-0.2-0.2-0.3-0.4-0.2-0.7c0.2-0.6,0.1-1.3-0.1-1.9
			c-0.2-0.6-0.6-1.1-1.2-1.5c-0.2-0.1-0.3-0.4-0.3-0.6c0-0.2,0.2-0.5,0.4-0.5l24.2-8.9c0.3-0.1,0.7,0.1,0.9,0.4l1.5,4.1
			C66.7,62.7,66.6,63.1,66.2,63.2z M42.6,70.4l22.5-8.3l-1-2.9l-22.5,8.3c0.3,0.4,0.6,0.9,0.8,1.4C42.5,69.4,42.6,69.9,42.6,70.4z"
			/>
	</g>
	<g>
		<path class="st0" d="M39.6,74.7c-2.4,0.9-5-0.4-5.8-2.7c-0.9-2.4,0.4-5,2.7-5.8c2.4-0.9,5,0.4,5.8,2.7
			C43.2,71.3,42,73.9,39.6,74.7z M37,67.4c-1.7,0.6-2.5,2.4-1.9,4.1c0.6,1.7,2.4,2.5,4.1,1.9c1.7-0.6,2.5-2.4,1.9-4.1
			C40.5,67.7,38.6,66.8,37,67.4z"/>
	</g>
	<g>
		<rect x="61" y="58.9" transform="matrix(0.9397 -0.342 0.342 0.9397 -17.4176 24.809)" class="st0" width="1.3" height="5.8"/>
	</g>
	<g>
		<rect x="57.9" y="60" transform="matrix(0.9397 -0.342 0.342 0.9397 -17.9777 23.8389)" class="st0" width="1.3" height="5.8"/>
	</g>
	<g>
		<path class="st0" d="M91.5,87.9H65.2v-5.7h26.4V87.9z M66.5,86.5h23.7v-3H66.5V86.5z"/>
	</g>
	<g>
		<path class="st0" d="M88,83.5H68.7V79H88V83.5z M70.1,82.1h16.6v-1.8H70.1V82.1z"/>
	</g>
</g>
</svg>
