<?xml version="1.0" encoding="utf-8"?>
<!-- Generator: Adobe Illustrator 21.1.0, SVG Export Plug-In . SVG Version: 6.00 Build 0)  -->
<!DOCTYPE svg PUBLIC "-//W3C//DTD SVG 1.1//EN" "http://www.w3.org/Graphics/SVG/1.1/DTD/svg11.dtd">
<svg version="1.1" id="Layer_1" xmlns="http://www.w3.org/2000/svg" xmlns:xlink="http://www.w3.org/1999/xlink" x="0px" y="0px"
	 viewBox="0 0 341.5 86.7" style="enable-background:new 0 0 341.5 86.7;" xml:space="preserve">
<style type="text/css">
	.st0{fill:#27577E;}
	.st1{fill-rule:evenodd;clip-rule:evenodd;}
	.st2{fill-rule:evenodd;clip-rule:evenodd;fill:#27577E;}
</style>
<g>
	<path class="st0" d="M119.5,23c-0.1,0-0.1,0-0.1-0.1c0,0-0.1-0.1-0.1-0.2V22c0-1.1,0-2,0-2.8c0-0.8,0-1.4,0-1.9c0-0.5,0-0.9,0-1.3
		c0-0.3,0-0.6,0-0.9c0-0.2,0-0.5,0-0.7c0-0.6,0.1-1.1,0.3-1.4c0.2-0.3,0.5-0.5,1-0.6c0.2,0,0.4-0.1,0.6-0.1c0.2,0,0.3,0,0.5,0
		c0.2,0,0.4,0,0.5-0.1c0.1,0,0.2-0.1,0.2-0.3c0-0.1-0.1-0.2-0.2-0.3c-0.1,0-0.3-0.1-0.6-0.1c-0.4,0-0.7,0-1.2,0c-0.4,0-0.9,0-1.3,0
		c-0.4,0-0.8,0-1.2,0c-0.4,0-0.7,0-0.9,0c-0.3,0-0.8,0-1.3,0c-0.6,0-1.2,0-1.8,0c-0.7,0-1.3,0-2,0c-0.3,0-0.4,0-0.6,0.1
		c-0.1,0-0.2,0.1-0.2,0.3c0,0.1,0.1,0.2,0.2,0.3c0.1,0,0.3,0.1,0.5,0.1c0.3,0,0.5,0,0.8,0c0.3,0,0.5,0,0.6,0.1
		c0.4,0.1,0.7,0.2,0.9,0.4c0.2,0.2,0.4,0.4,0.5,0.7c0.1,0.3,0.1,0.6,0.2,1c0,0.2,0,0.5,0,0.7c0,0.3,0,0.5,0,0.9c0,0.3,0,0.8,0,1.3
		c0,0.5,0,1.2,0,1.9c0,0.8,0,1.7,0,2.8v6.3c0,1.1,0,2.1,0,3.1c0,1,0,1.8,0,2.6c0,0.8-0.1,1.4-0.1,1.9c0,0.3-0.1,0.7-0.2,0.9
		c-0.1,0.3-0.2,0.5-0.3,0.7c-0.1,0.2-0.3,0.3-0.6,0.3c-0.2,0-0.3,0.1-0.6,0.1c-0.2,0-0.5,0-0.7,0c-0.2,0-0.4,0-0.4,0.1
		c-0.1,0-0.1,0.1-0.1,0.2c0,0.1,0.1,0.2,0.2,0.3c0.1,0.1,0.3,0.1,0.5,0.1c0.4,0,0.8,0,1.2,0c0.4,0,0.9,0,1.3,0c0.4,0,0.8,0,1.2,0
		c0.4,0,0.6,0,0.8,0c0.3,0,0.8,0,1.4,0c0.6,0,1.2,0,1.9,0c0.7,0,1.5,0,2.3,0c0.2,0,0.4,0,0.5-0.1c0.1-0.1,0.2-0.1,0.2-0.3
		c0-0.1,0-0.2-0.1-0.2c-0.1-0.1-0.2-0.1-0.4-0.1c-0.2,0-0.4,0-0.6,0c-0.2,0-0.4,0-0.6-0.1c-0.2,0-0.4,0-0.6-0.1
		c-0.4,0-0.6-0.2-0.8-0.3c-0.2-0.2-0.3-0.4-0.4-0.7c-0.1-0.3-0.1-0.6-0.2-0.9c-0.1-0.5-0.1-1.2-0.1-1.9c0-0.8,0-1.6,0-2.6
		c0-1,0-2,0-3.1v-3.1c0-0.1,0-0.1,0.1-0.2c0,0,0.1,0,0.1,0h13.7c0.1,0,0.1,0,0.1,0.1c0,0,0.1,0.1,0.1,0.2v3.1c0,1.1,0,2.1,0,3.1
		c0,1,0,1.8,0,2.6c0,0.8-0.1,1.4-0.1,1.9c0,0.3-0.1,0.7-0.2,0.9c-0.1,0.3-0.2,0.5-0.3,0.7c-0.1,0.2-0.3,0.3-0.6,0.3
		c-0.2,0-0.3,0.1-0.6,0.1c-0.2,0-0.5,0-0.7,0c-0.2,0-0.4,0-0.4,0.1c-0.1,0-0.1,0.1-0.1,0.2c0,0.1,0.1,0.2,0.2,0.3
		c0.1,0.1,0.3,0.1,0.6,0.1c0.4,0,0.7,0,1.2,0c0.4,0,0.9,0,1.3,0c0.4,0,0.8,0,1.2,0c0.4,0,0.6,0,0.8,0c0.3,0,0.8,0,1.4,0
		c0.6,0,1.2,0,2,0c0.7,0,1.5,0,2.3,0c0.2,0,0.4,0,0.5-0.1c0.1-0.1,0.2-0.1,0.2-0.3c0-0.1,0-0.2-0.1-0.2c-0.1-0.1-0.2-0.1-0.4-0.1
		c-0.2,0-0.4,0-0.6,0c-0.2,0-0.4,0-0.6-0.1c-0.2,0-0.4,0-0.6-0.1c-0.4,0-0.6-0.2-0.8-0.3c-0.2-0.2-0.3-0.4-0.4-0.7
		c-0.1-0.3-0.1-0.6-0.2-0.9c-0.1-0.5-0.1-1.2-0.1-1.9c0-0.8,0-1.6,0-2.6c0-1,0-2,0-3.1V22c0-1.1,0-2,0-2.8c0-0.8,0-1.4,0-1.9
		c0-0.5,0-0.9,0-1.3c0-0.3,0-0.6,0-0.9c0-0.2,0-0.5,0-0.7c0-0.6,0.1-1.1,0.3-1.4c0.2-0.3,0.5-0.5,1-0.6c0.2,0,0.4-0.1,0.6-0.1
		c0.2,0,0.3,0,0.5,0c0.2,0,0.4,0,0.5-0.1c0.1,0,0.2-0.1,0.2-0.3c0-0.1-0.1-0.2-0.2-0.3c-0.1,0-0.3-0.1-0.6-0.1c-0.4,0-0.7,0-1.2,0
		c-0.4,0-0.9,0-1.3,0c-0.4,0-0.8,0-1.2,0c-0.4,0-0.7,0-0.9,0c-0.2,0-0.6,0-0.9,0c-0.4,0-0.8,0-1.3,0c-0.5,0-1,0-1.5,0
		c-0.5,0-1,0-1.5,0c-0.3,0-0.4,0-0.6,0.1c-0.1,0-0.2,0.1-0.2,0.3c0,0.1,0.1,0.2,0.2,0.3c0.1,0,0.3,0.1,0.5,0.1c0.3,0,0.5,0,0.8,0
		c0.3,0,0.5,0,0.6,0.1c0.4,0.1,0.7,0.2,0.9,0.4c0.2,0.2,0.4,0.4,0.5,0.7c0.1,0.3,0.1,0.6,0.2,1c0,0.2,0,0.5,0,0.7c0,0.3,0,0.5,0,0.9
		c0,0.3,0,0.8,0,1.3c0,0.5,0,1.2,0,1.9c0,0.8,0,1.7,0,2.8v0.8c0,0.1,0,0.2-0.1,0.2c0,0-0.1,0.1-0.1,0.1H119.5L119.5,23z"/>
	<path class="st0" d="M148.2,29.8c0,0.9,0,1.8,0,2.6c0,0.8,0,1.6,0,2.2c0,0.7-0.1,1.2-0.1,1.6c0,0.4-0.1,0.8-0.3,1.1
		c-0.1,0.3-0.4,0.5-0.7,0.5c-0.1,0-0.3,0.1-0.5,0.1c-0.2,0-0.4,0-0.6,0c-0.2,0-0.3,0-0.4,0.1c-0.1,0.1-0.1,0.1-0.1,0.2
		c0,0.1,0.1,0.2,0.2,0.2c0.1,0.1,0.3,0.1,0.5,0.1c0.3,0,0.7,0,1.1,0c0.4,0,0.8,0,1.1,0c0.4,0,0.7,0,1,0c0.3,0,0.6,0,0.7,0
		c0.5,0,1,0,1.6,0c0.6,0,1.3,0,2.1,0c0.8,0,1.6,0.1,2.6,0.1c1,0,2,0,3.2,0c0.4,0,0.7,0,0.9,0c0.2,0,0.4-0.1,0.5-0.2
		c0.1-0.1,0.2-0.3,0.3-0.6c0-0.2,0.1-0.4,0.1-0.7c0-0.3,0.1-0.6,0.1-1c0-0.4,0.1-0.7,0.1-1c0-0.3,0-0.5,0-0.7c0-0.2,0-0.3,0-0.5
		c0-0.1-0.1-0.2-0.2-0.2c-0.1,0-0.2,0-0.2,0.1c0,0.1-0.1,0.2-0.1,0.4c-0.1,0.6-0.3,1.1-0.5,1.5c-0.2,0.4-0.5,0.6-0.9,0.8
		c-0.3,0.1-0.6,0.2-1,0.3c-0.4,0.1-0.7,0.1-1.1,0.1c-0.4,0-0.7,0-1,0c-1.1,0-1.9-0.1-2.5-0.2c-0.6-0.1-1.1-0.4-1.3-0.8
		c-0.3-0.4-0.4-0.9-0.4-1.6c0-0.2,0-0.5,0-0.9c0-0.4,0-0.8,0-1.3c0-0.5,0-0.9,0-1.3c0-0.4,0-0.7,0-1v-2.4c0-0.1,0-0.2,0-0.2
		c0-0.1,0.1-0.1,0.1-0.1c0.2,0,0.4,0,0.8,0c0.3,0,0.7,0,1.2,0c0.4,0,0.8,0,1.3,0c0.4,0,0.8,0,1.1,0c0.3,0,0.5,0,0.7,0
		c0.4,0,0.7,0.1,0.9,0.2c0.2,0.1,0.4,0.2,0.5,0.4c0.1,0.2,0.2,0.4,0.3,0.6c0,0.2,0.1,0.4,0.1,0.6c0,0.2,0,0.4,0,0.5
		c0,0.1,0,0.1,0.1,0.2c0,0,0.1,0.1,0.2,0.1c0.1,0,0.2,0,0.2-0.1c0-0.1,0.1-0.2,0.1-0.3c0-0.1,0-0.2,0-0.3c0-0.1,0-0.2,0-0.3
		c0-0.2,0-0.3,0-0.5c0-0.2,0-0.4,0-0.6c0-0.2,0-0.4,0.1-0.5c0.1-0.5,0.1-0.9,0.1-1.2c0-0.3,0.1-0.5,0.1-0.7c0-0.1,0-0.3,0-0.3
		c0-0.1,0-0.2-0.1-0.2c0-0.1-0.1-0.1-0.2-0.1c-0.1,0-0.1,0-0.2,0.1c-0.1,0.1-0.2,0.2-0.3,0.3c-0.1,0.2-0.3,0.3-0.6,0.3
		c-0.2,0.1-0.5,0.1-0.9,0.1c-0.1,0-0.4,0-0.8,0c-0.4,0-0.8,0-1.3,0c-0.5,0-1,0-1.4,0c-0.5,0-0.9,0-1.3,0c-0.4,0-0.6,0-0.8,0
		c-0.1,0-0.1,0-0.2-0.1c0-0.1,0-0.1,0-0.2v-7.5c0-0.1,0-0.2,0.1-0.2c0-0.1,0.1-0.1,0.2-0.1c0.1,0,0.4,0,0.7,0c0.3,0,0.7,0,1.2,0
		c0.4,0,0.9,0,1.3,0c0.4,0,0.8,0,1.1,0c0.3,0,0.5,0,0.7,0c0.5,0,0.9,0.1,1.2,0.2c0.3,0.1,0.5,0.2,0.6,0.4c0.1,0.1,0.2,0.3,0.3,0.5
		c0.1,0.1,0.1,0.3,0.1,0.4c0,0.1,0,0.3,0.1,0.4c0,0.1,0,0.2,0,0.3c0,0.1,0,0.2,0,0.3c0,0.1,0.1,0.1,0.2,0.1c0.1,0,0.1,0,0.2-0.1
		c0-0.1,0.1-0.1,0.1-0.2c0-0.1,0-0.1,0.1-0.2c0-0.1,0-0.2,0.1-0.4c0-0.2,0-0.4,0-0.6c0-0.2,0-0.4,0-0.6c0-0.2,0-0.3,0-0.4
		c0-0.5,0.1-0.8,0.1-1.1c0-0.3,0.1-0.5,0.1-0.6c0-0.1,0-0.2,0-0.3c0-0.1,0-0.1,0-0.2c0-0.1-0.1-0.1-0.2-0.1c-0.1,0-0.1,0-0.2,0.1
		c-0.1,0-0.2,0.1-0.3,0.1c-0.1,0-0.3,0-0.5,0.1c-0.2,0-0.5,0.1-0.8,0.1c-0.1,0-0.4,0-0.8,0c-0.4,0-0.9,0-1.5,0c-0.6,0-1.2,0-1.9,0
		c-0.7,0-1.3,0-1.9,0c-0.6,0-1.1,0-1.6,0c-0.5,0-0.8,0-0.9,0c-0.3,0-0.7,0-1.2,0c-0.5,0-1,0-1.6,0c-0.6,0-1.2,0-1.7,0
		c-0.2,0-0.4,0-0.5,0.1c-0.1,0-0.2,0.1-0.2,0.2c0,0.1,0.1,0.2,0.1,0.2c0.1,0.1,0.2,0.1,0.4,0.1c0.2,0,0.5,0,0.7,0
		c0.2,0,0.4,0,0.5,0.1c0.3,0.1,0.6,0.2,0.8,0.3c0.2,0.1,0.3,0.3,0.4,0.5c0.1,0.2,0.1,0.5,0.2,0.8c0,0.2,0,0.4,0,0.6
		c0,0.2,0,0.5,0,0.8c0,0.3,0,0.7,0,1.1c0,0.4,0,1,0,1.6c0,0.7,0,1.4,0,2.4V29.8L148.2,29.8z"/>
	<path class="st0" d="M169.7,22.1h0.1c0.2,0.1,0.5,0.5,0.9,0.9c0.5,0.5,1,1.1,1.7,1.8c0.7,0.7,1.4,1.5,2.2,2.3
		c0.8,0.8,1.7,1.7,2.5,2.5c0.8,0.8,1.7,1.6,2.6,2.5c0.9,0.8,1.7,1.6,2.5,2.4c0.8,0.8,1.6,1.5,2.3,2.2c0.7,0.7,1.3,1.2,1.8,1.7
		c0.2,0.2,0.4,0.3,0.6,0.4c0.2,0.1,0.5,0.2,0.7,0.2c0.1,0,0.2-0.1,0.3-0.2c0.1-0.2,0.1-0.4,0.2-0.7l0.4-19.2c0-0.6,0-1,0.1-1.4
		c0.1-0.3,0.2-0.6,0.4-0.8c0.2-0.2,0.4-0.3,0.7-0.4c0.2-0.1,0.4-0.1,0.5-0.1c0.1,0,0.3,0,0.5,0c0.2,0,0.3,0,0.4-0.1
		c0.1-0.1,0.1-0.1,0.1-0.2c0-0.1-0.1-0.2-0.2-0.2c-0.1,0-0.3-0.1-0.5,0c-0.8,0-1.4,0-2,0c-0.5,0-0.9,0-1.1,0c-0.2,0-0.6,0-1,0
		c-0.4,0-0.9,0-1.4,0c-0.5,0-1.1,0-1.6,0c-0.2,0-0.4,0-0.6,0c-0.1,0-0.2,0.1-0.2,0.2c0,0.1,0,0.2,0.1,0.2c0.1,0.1,0.2,0.1,0.4,0.1
		c0.1,0,0.3,0,0.5,0c0.2,0,0.4,0,0.6,0c0.2,0,0.4,0.1,0.5,0.1c0.3,0.1,0.5,0.2,0.6,0.4c0.1,0.2,0.3,0.5,0.3,0.8
		c0.1,0.4,0.1,0.8,0.1,1.5l0.3,13.5H186c-0.1-0.1-0.3-0.3-0.7-0.7c-0.4-0.4-0.8-0.8-1.3-1.3c-0.5-0.5-1.1-1.1-1.6-1.7
		c-0.6-0.6-1.1-1.2-1.7-1.7c-0.6-0.6-1-1.1-1.5-1.5c-0.9-0.9-1.8-1.8-2.7-2.7c-0.9-0.9-1.7-1.7-2.5-2.5c-0.8-0.8-1.5-1.5-2.2-2.2
		c-0.6-0.6-1.2-1.2-1.5-1.6c-0.4-0.4-0.6-0.6-0.7-0.7c-0.3-0.3-0.5-0.5-0.7-0.7c-0.2-0.2-0.4-0.3-0.6-0.3c-0.2,0-0.3,0.1-0.4,0.3
		c-0.1,0.2-0.1,0.4-0.1,0.7l-0.3,18c0,0.9,0,1.6-0.1,2.1c0,0.5-0.1,0.9-0.3,1.1c-0.1,0.2-0.3,0.4-0.6,0.5c-0.2,0.1-0.5,0.1-0.7,0.1
		c-0.3,0-0.5,0-0.7,0c-0.1,0-0.3,0-0.4,0.1c-0.1,0.1-0.1,0.1-0.1,0.2c0,0.1,0.1,0.2,0.2,0.3c0.1,0,0.3,0.1,0.5,0.1
		c0.5,0,1.1,0,1.5,0c0.5,0,0.9,0,1.2,0c0.3,0,0.5,0,0.6,0c0.3,0,0.8,0,1.5,0.1c0.7,0,1.6,0,2.6,0.1c0.2,0,0.4,0,0.5-0.1
		c0.1,0,0.2-0.1,0.2-0.3c0-0.1,0-0.2-0.1-0.2c-0.1-0.1-0.2-0.1-0.4-0.1c-0.3,0-0.5,0-0.8,0c-0.3,0-0.6-0.1-0.8-0.2
		c-0.2-0.1-0.4-0.2-0.5-0.4c-0.2-0.2-0.3-0.6-0.4-1c-0.1-0.5-0.1-1.1-0.2-1.9L169.7,22.1L169.7,22.1z"/>
	<path class="st0" d="M201.6,39.1c0.6,0,1.2,0,1.8-0.1c0.6-0.1,1.2-0.2,1.8-0.4c0.6-0.2,1.2-0.4,1.7-0.8c0.8-0.5,1.4-1.1,1.8-1.7
		c0.5-0.6,0.8-1.2,1-1.9c0.2-0.7,0.3-1.4,0.3-2.1c0-0.9-0.2-1.8-0.5-2.6c-0.3-0.8-0.9-1.6-1.7-2.4c-0.8-0.8-1.9-1.6-3.3-2.3
		l-1.3-0.7c-0.7-0.4-1.3-0.8-1.7-1.1c-0.4-0.3-0.8-0.7-1-1c-0.2-0.3-0.4-0.6-0.5-0.9c-0.1-0.3-0.1-0.6-0.1-1c0-0.5,0.1-1,0.4-1.4
		c0.2-0.4,0.5-0.7,0.9-1c0.4-0.3,0.9-0.5,1.4-0.6c0.5-0.1,1.1-0.2,1.6-0.2c0.7,0,1.2,0.1,1.7,0.2c0.5,0.2,0.8,0.3,1.1,0.6
		c0.3,0.2,0.5,0.4,0.7,0.6c0.2,0.3,0.4,0.5,0.5,0.8c0.1,0.3,0.2,0.5,0.2,0.7c0,0.2,0.1,0.4,0.1,0.5c0,0.4,0.1,0.5,0.3,0.5
		c0.1,0,0.2-0.1,0.3-0.2c0.1-0.2,0.1-0.4,0.1-0.7c0-0.8,0-1.4,0-1.9c0-0.5,0-0.9,0-1.1c0-0.3,0-0.5,0-0.6c0-0.1,0-0.2-0.1-0.3
		s-0.2-0.1-0.3-0.1c-0.4-0.1-1-0.2-1.8-0.3c-0.8-0.1-1.7-0.2-2.7-0.2c-1.1,0-2.1,0.1-3.1,0.4c-1,0.3-1.8,0.7-2.5,1.2
		c-0.7,0.5-1.3,1.2-1.7,1.9c-0.4,0.8-0.6,1.6-0.6,2.5c0,0.9,0.1,1.7,0.5,2.5c0.3,0.8,0.8,1.5,1.6,2.2c0.7,0.7,1.7,1.4,2.9,2.2
		l1.8,1.1c0.7,0.4,1.2,0.8,1.7,1.2c0.4,0.4,0.7,0.7,0.9,1.1c0.2,0.4,0.3,0.7,0.4,1c0.1,0.3,0.1,0.7,0.1,1c0,0.7-0.2,1.4-0.5,2
		c-0.4,0.6-0.8,1-1.5,1.4c-0.7,0.3-1.4,0.5-2.3,0.5c-0.5,0-1,0-1.5-0.2c-0.5-0.1-1-0.3-1.5-0.5c-0.5-0.2-0.9-0.5-1.2-0.9
		c-0.4-0.4-0.6-0.9-0.8-1.4c-0.1-0.3-0.2-0.6-0.2-0.8c-0.1-0.3-0.1-0.5-0.1-0.7c0-0.1,0-0.2-0.1-0.3c0-0.1-0.1-0.2-0.3-0.2
		c-0.1,0-0.2,0.1-0.3,0.2c-0.1,0.1-0.1,0.3-0.1,0.6c0,0.1,0,0.3,0,0.6c0,0.3,0,0.6-0.1,1c0,0.4,0,0.8-0.1,1.2c0,0.4,0,0.8,0,1.3
		c0,0.2,0,0.4,0,0.5c0,0.1,0.1,0.2,0.2,0.3c0.1,0.1,0.2,0.1,0.4,0.2c0.5,0.2,1,0.4,1.5,0.5c0.6,0.1,1.1,0.2,1.8,0.2
		C200.4,39,201,39.1,201.6,39.1L201.6,39.1z"/>
	<path class="st0" d="M221.3,25.6c-0.1,0-0.1,0-0.1,0s-0.1-0.1-0.1-0.2v-0.6c0-1.1,0-2.1,0-2.9c0-0.8,0-1.4,0-1.9c0-0.5,0-0.9,0-1.2
		c0-0.3,0-0.6,0-0.8c0-0.5,0.1-0.9,0.3-1.2c0.2-0.3,0.5-0.4,0.9-0.5c0.2,0,0.3-0.1,0.5-0.1c0.1,0,0.3,0,0.4,0c0.2,0,0.3,0,0.4-0.1
		c0.1-0.1,0.1-0.1,0.1-0.2c0-0.1-0.1-0.2-0.2-0.2c-0.1,0-0.3-0.1-0.5-0.1c-0.3,0-0.7,0-1.1,0c-0.4,0-0.8,0-1.2,0c-0.4,0-0.8,0-1.1,0
		c-0.3,0-0.6,0-0.8,0c-0.3,0-0.7,0-1.2,0c-0.5,0-1.1,0-1.7,0c-0.6,0-1.2,0-1.8,0c-0.2,0-0.4,0-0.5,0.1c-0.1,0-0.2,0.1-0.2,0.2
		c0,0.1,0.1,0.2,0.1,0.2c0.1,0.1,0.2,0.1,0.4,0.1c0.2,0,0.5,0,0.7,0c0.2,0,0.4,0,0.5,0.1c0.3,0.1,0.6,0.2,0.8,0.3
		c0.2,0.1,0.3,0.3,0.4,0.5c0.1,0.2,0.1,0.5,0.2,0.8c0,0.2,0,0.4,0,0.6c0,0.2,0,0.5,0,0.8c0,0.3,0,0.7,0,1.1c0,0.4,0,1,0,1.6
		c0,0.7,0,1.4,0,2.4v5.4c0,0.9,0,1.8,0,2.6c0,0.8,0,1.6,0,2.2c0,0.7-0.1,1.2-0.1,1.6c0,0.4-0.1,0.8-0.3,1.1
		c-0.1,0.3-0.4,0.5-0.7,0.5c-0.1,0-0.3,0.1-0.5,0.1c-0.2,0-0.4,0-0.6,0c-0.2,0-0.3,0-0.4,0.1c-0.1,0.1-0.1,0.1-0.1,0.2
		c0,0.1,0.1,0.2,0.2,0.2c0.1,0.1,0.3,0.1,0.5,0.1c0.3,0,0.7,0,1.1,0c0.4,0,0.8,0,1.2,0c0.4,0,0.7,0,1.1,0c0.3,0,0.6,0,0.8,0
		c0.3,0,0.7,0,1.3,0c0.5,0,1.1,0,1.8,0c0.7,0,1.3,0,2,0c0.2,0,0.4,0,0.5-0.1c0.1-0.1,0.2-0.1,0.2-0.2c0-0.1,0-0.1-0.1-0.2
		c-0.1-0.1-0.2-0.1-0.4-0.1c-0.2,0-0.3,0-0.5,0c-0.2,0-0.4,0-0.6,0c-0.2,0-0.4,0-0.5-0.1c-0.3,0-0.5-0.1-0.7-0.3
		c-0.2-0.1-0.3-0.3-0.4-0.5c-0.1-0.2-0.1-0.5-0.2-0.8c0-0.4-0.1-1-0.1-1.6c0-0.6,0-1.4-0.1-2.2c0-0.8,0-1.7,0-2.6v-2.3
		c0-0.1,0-0.1,0.1-0.1c0,0,0.1,0,0.1,0h11.9c0,0,0.1,0,0.1,0c0,0,0.1,0.1,0.1,0.1v2.3c0,0.9,0,1.8,0,2.6c0,0.8,0,1.5,0,2.2
		c0,0.6-0.1,1.2-0.1,1.6c0,0.4-0.1,0.8-0.3,1.1c-0.1,0.3-0.4,0.5-0.7,0.5c-0.1,0-0.3,0.1-0.5,0.1c-0.2,0-0.4,0-0.7,0
		c-0.2,0-0.3,0-0.4,0.1c-0.1,0.1-0.1,0.1-0.1,0.2c0,0.1,0.1,0.2,0.2,0.2c0.1,0.1,0.3,0.1,0.5,0.1c0.3,0,0.7,0,1.1,0
		c0.4,0,0.8,0,1.2,0c0.4,0,0.8,0,1.1,0c0.3,0,0.6,0,0.8,0c0.3,0,0.7,0,1.2,0c0.5,0,1.1,0,1.8,0c0.7,0,1.3,0,2,0c0.2,0,0.4,0,0.5-0.1
		c0.1-0.1,0.2-0.1,0.2-0.2c0-0.1,0-0.1-0.1-0.2c-0.1-0.1-0.2-0.1-0.4-0.1c-0.3,0-0.5,0-0.8,0c-0.3,0-0.6,0-0.8-0.1
		c-0.3,0-0.6-0.1-0.7-0.3c-0.2-0.1-0.3-0.3-0.4-0.5c-0.1-0.2-0.1-0.5-0.2-0.8c0-0.4-0.1-1-0.1-1.7c0-0.7,0-1.4,0-2.2
		c0-0.8,0-1.7,0-2.6v-5.4c0-0.9,0-1.7,0-2.4c0-0.7,0-1.2,0-1.6c0-0.4,0-0.8,0-1.1c0-0.3,0-0.5,0-0.8c0-0.2,0-0.4,0-0.6
		c0-0.5,0.1-0.9,0.3-1.2c0.2-0.3,0.4-0.4,0.9-0.5c0.2,0,0.4-0.1,0.5-0.1c0.1,0,0.3,0,0.4,0c0.2,0,0.3,0,0.4-0.1
		c0.1-0.1,0.1-0.1,0.1-0.2c0-0.1-0.1-0.2-0.2-0.2c-0.1,0-0.3-0.1-0.5-0.1c-0.3,0-0.7,0-1,0c-0.4,0-0.8,0-1.2,0c-0.4,0-0.7,0-1.1,0
		c-0.3,0-0.6,0-0.8,0c-0.2,0-0.5,0-0.8,0c-0.4,0-0.8,0-1.2,0c-0.4,0-0.9,0-1.3,0c-0.5,0-0.9,0-1.3,0c-0.2,0-0.4,0-0.5,0.1
		c-0.1,0-0.2,0.1-0.2,0.2c0,0.2,0.2,0.3,0.5,0.3c0.2,0,0.4,0,0.7,0c0.2,0,0.4,0,0.5,0.1c0.3,0.1,0.6,0.2,0.8,0.3
		c0.2,0.1,0.3,0.3,0.4,0.5c0.1,0.2,0.1,0.5,0.2,0.8c0,0.2,0,0.5,0,0.8c0,0.3,0,0.7,0,1.2c0,0.5,0,1.1,0,1.9c0,0.8,0,1.7,0,2.9v0.6
		c0,0.1,0,0.1-0.1,0.2c0,0-0.1,0-0.1,0H221.3L221.3,25.6z"/>
	<path class="st0" d="M256.6,31c0.1,0,0.1,0,0.2,0c0.1,0,0.1,0.1,0.1,0.2l2.4,6.1c0.1,0.2,0.1,0.3,0,0.5c-0.1,0.1-0.2,0.2-0.3,0.2
		c-0.2,0-0.3,0.1-0.3,0.1c-0.1,0.1-0.1,0.1-0.1,0.2c0,0.1,0.1,0.2,0.3,0.2c0.2,0,0.4,0,0.7,0.1c0.9,0,1.7,0,2.5,0c0.8,0,1.5,0,2.1,0
		c0.6,0,1.1,0,1.5,0c0.4,0,0.7,0,0.9,0c0.2,0,0.3,0,0.4-0.1c0.1,0,0.1-0.1,0.1-0.2c0-0.2-0.1-0.3-0.4-0.3c-0.2,0-0.4,0-0.5,0
		c-0.2,0-0.4,0-0.6-0.1c-0.1,0-0.3-0.1-0.5-0.2c-0.2-0.1-0.4-0.3-0.6-0.5c-0.2-0.2-0.5-0.5-0.7-1c-0.3-0.4-0.5-1-0.9-1.7
		c-0.3-0.7-0.6-1.5-1-2.4c-0.4-0.9-0.8-1.9-1.3-3c-0.5-1.1-0.9-2.2-1.4-3.3c-0.5-1.1-1-2.2-1.4-3.3c-0.5-1.1-0.9-2.1-1.3-3
		c-0.4-0.9-0.7-1.7-1-2.3c-0.3-0.6-0.5-1.1-0.6-1.3c-0.1-0.2-0.2-0.4-0.3-0.6c-0.1-0.1-0.2-0.2-0.3-0.3c-0.1-0.1-0.2-0.1-0.4-0.1
		c-0.2,0-0.3,0.1-0.5,0.3c-0.1,0.2-0.3,0.5-0.5,0.9l-8.2,19.2c-0.2,0.5-0.4,1-0.6,1.3c-0.2,0.4-0.5,0.7-0.8,0.9
		c-0.3,0.2-0.7,0.4-1.2,0.4c-0.1,0-0.3,0-0.5,0c-0.2,0-0.3,0-0.5,0c-0.1,0-0.2,0-0.3,0.1c-0.1,0.1-0.1,0.1-0.1,0.2
		c0,0.1,0,0.2,0.1,0.3c0.1,0,0.2,0.1,0.4,0.1c0.6,0,1.1,0,1.6,0c0.5,0,1,0,1.3,0c0.4,0,0.6,0,0.7,0c0.3,0,0.7,0,1.1,0
		c0.4,0,0.8,0,1.2,0c0.4,0,0.8,0,1.1,0c0.2,0,0.3,0,0.4-0.1c0.1,0,0.1-0.1,0.1-0.3c0-0.1,0-0.2-0.1-0.2c-0.1-0.1-0.2-0.1-0.4-0.1
		H248c-0.5,0-0.8-0.1-1-0.2c-0.2-0.1-0.3-0.4-0.3-0.6c0-0.2,0-0.4,0.1-0.8c0.1-0.3,0.2-0.7,0.4-1.1l1.7-4.1c0-0.1,0.1-0.1,0.1-0.2
		c0,0,0.1,0,0.2,0H256.6L256.6,31z M249.9,29.3c-0.1,0-0.1,0-0.1-0.1c0,0,0-0.1,0-0.2l3-7.7c0-0.1,0-0.1,0.1-0.2
		c0-0.1,0.1-0.1,0.1-0.1c0,0,0.1,0,0.1,0.1c0,0.1,0,0.1,0.1,0.2l3,7.7c0,0.1,0,0.1,0,0.1c0,0-0.1,0-0.1,0H249.9L249.9,29.3z"/>
	<path class="st0" d="M272.6,37.9c0.1,0.4,0.3,0.7,0.4,0.8c0.1,0.2,0.3,0.3,0.5,0.3c0.1,0,0.3,0,0.4-0.1c0.1-0.1,0.2-0.3,0.4-0.5
		c0.1-0.2,0.3-0.6,0.5-1c0.2-0.4,0.4-1,0.7-1.6c0.3-0.7,0.6-1.4,1-2.3c0.3-0.9,0.7-1.7,1.1-2.7c0.4-0.9,0.7-1.8,1.1-2.7
		c0.4-0.9,0.7-1.7,1-2.5c0.3-0.8,0.6-1.4,0.8-1.9c0.2-0.5,0.4-0.9,0.4-1.1h0.1l6.4,15c0.2,0.5,0.4,0.9,0.6,1.2
		c0.2,0.2,0.3,0.3,0.5,0.3c0.2,0,0.4-0.1,0.5-0.3c0.1-0.2,0.3-0.6,0.5-1.1c0.3-0.8,0.6-1.6,0.9-2.6c0.3-1,0.7-2.1,1.1-3.2
		c0.4-1.1,0.8-2.3,1.2-3.4c0.4-1.2,0.8-2.3,1.2-3.4c0.4-1.1,0.7-2.1,1.1-3c0.3-0.9,0.6-1.7,0.9-2.4c0.2-0.6,0.4-1.1,0.6-1.5
		c0.2-0.4,0.4-0.8,0.5-1.1c0.2-0.3,0.4-0.5,0.6-0.6c0.2-0.1,0.4-0.1,0.6-0.1c0.2,0,0.4,0,0.5,0c0.1,0,0.3,0,0.3-0.1
		c0.1-0.1,0.1-0.1,0.1-0.3c0-0.1-0.1-0.2-0.1-0.2c-0.1,0-0.2-0.1-0.4-0.1c-0.4,0-0.7,0-1.1,0c-0.4,0-0.7,0-1,0c-0.3,0-0.5,0-0.5,0
		c-0.1,0-0.3,0-0.6,0c-0.3,0-0.7,0-1.2,0c-0.5,0-1,0-1.5,0c-0.3,0-0.4,0-0.6,0.1c-0.1,0-0.2,0.1-0.2,0.2c0,0.1,0.1,0.2,0.2,0.2
		c0.1,0.1,0.2,0.1,0.4,0.1c0.4,0,0.7,0,1,0.1c0.2,0.1,0.4,0.2,0.5,0.3c0.1,0.1,0.1,0.3,0.1,0.4c0,0.2,0,0.5-0.1,0.8
		c-0.1,0.3-0.1,0.6-0.2,1c-0.2,0.6-0.4,1.3-0.6,2.1c-0.2,0.8-0.5,1.6-0.8,2.5c-0.3,0.9-0.5,1.8-0.8,2.7c-0.3,0.9-0.5,1.7-0.8,2.5
		c-0.2,0.8-0.5,1.5-0.7,2.1c-0.2,0.6-0.3,1.1-0.4,1.3h-0.1l-6.3-15c-0.2-0.5-0.4-0.8-0.5-1.1c-0.2-0.2-0.3-0.4-0.5-0.4
		c-0.1,0-0.3,0.1-0.5,0.2c-0.2,0.2-0.3,0.5-0.5,0.9l-6,15.6h-0.1c-0.1-0.2-0.2-0.5-0.3-1c-0.1-0.5-0.3-1.1-0.5-1.7
		c-0.2-0.7-0.4-1.4-0.7-2.2c-0.2-0.8-0.5-1.5-0.7-2.3c-0.2-0.8-0.5-1.5-0.7-2.2c-0.2-0.7-0.4-1.3-0.6-1.9c-0.2-0.5-0.3-1-0.4-1.3
		c-0.2-0.7-0.4-1.3-0.5-1.8c-0.1-0.5-0.2-0.8-0.2-1c0-0.2,0-0.3,0.1-0.4c0-0.1,0.1-0.2,0.3-0.2c0.1,0,0.3-0.1,0.4-0.1
		c0.1,0,0.3,0,0.4,0c0.2,0,0.3,0,0.4-0.1c0.1-0.1,0.2-0.1,0.2-0.2c0-0.1-0.1-0.2-0.2-0.2c-0.1,0-0.3-0.1-0.5-0.1c-0.6,0-1.2,0-1.7,0
		c-0.5,0-0.9,0-1.3,0c-0.3,0-0.6,0-0.7,0c-0.1,0-0.2,0-0.5,0c-0.2,0-0.5,0-0.9,0c-0.3,0-0.7,0-1.1,0c-0.4,0-0.8,0-1.2,0
		c-0.2,0-0.4,0-0.5,0.1c-0.1,0-0.2,0.1-0.2,0.2c0,0.1,0,0.2,0.1,0.2c0.1,0.1,0.2,0.1,0.4,0.1c0.1,0,0.2,0,0.4,0c0.1,0,0.3,0,0.5,0.1
		c0.1,0,0.3,0.1,0.4,0.2c0.2,0.1,0.4,0.4,0.6,0.7c0.2,0.4,0.3,0.8,0.5,1.4L272.6,37.9L272.6,37.9z"/>
	<path class="st0" d="M310.8,31.3c0,0.6,0.1,1.3,0.3,2c0.2,0.7,0.5,1.4,1,2.1c0.5,0.7,1.1,1.3,1.8,1.9c0.8,0.6,1.7,1,2.8,1.4
		c1.1,0.3,2.4,0.5,4,0.5c1.2,0,2.3-0.1,3.2-0.4c0.9-0.2,1.7-0.5,2.4-0.9c0.7-0.3,1.2-0.7,1.7-1.1c0.5-0.4,0.8-0.7,1.1-1
		c0.6,0.5,1.2,0.9,1.7,1.2c0.5,0.3,1,0.6,1.5,0.8c0.5,0.2,1,0.4,1.5,0.5c0.5,0.1,1.1,0.2,1.7,0.2c0.6,0,1.3,0.1,2.1,0.1h2.8
		c0.4,0,0.7,0,0.8-0.1c0.2-0.1,0.2-0.1,0.2-0.2c0-0.1,0-0.2-0.1-0.3c-0.1,0-0.2-0.1-0.4-0.1c-0.2,0-0.4,0-0.7-0.1
		c-0.3-0.1-0.6-0.2-1-0.3c-0.4-0.1-0.7-0.3-1.1-0.4c-0.4-0.1-0.7-0.3-1-0.5c-0.3-0.2-0.7-0.4-1.2-0.7c-0.5-0.3-1-0.7-1.6-1.1
		c-0.6-0.5-1.3-1-2.1-1.7c0.7-0.8,1.3-1.7,1.8-2.7c0.5-1,0.9-1.9,1.2-2.9c0.3-1,0.4-2,0.5-2.9c0-0.2-0.1-0.4-0.4-0.5
		c-0.2-0.1-0.5-0.2-0.9-0.2c-1-0.1-1.9-0.2-2.6-0.2c-0.7,0-1.3,0-1.7,0c-0.1,0-0.3,0-0.4,0.1c-0.1,0-0.2,0.1-0.2,0.3
		c0,0.1,0,0.2,0.1,0.2c0.1,0,0.2,0.1,0.3,0.1c0.2,0,0.4,0,0.6,0c0.2,0,0.4,0.1,0.6,0.2c0.2,0.1,0.4,0.2,0.5,0.3
		c0.3,0.2,0.4,0.5,0.5,0.8c0.1,0.3,0.1,0.6,0.1,0.9c0,0.7-0.1,1.5-0.3,2.2c-0.2,0.7-0.4,1.4-0.7,1.9c-0.3,0.6-0.5,1-0.8,1.4
		c-0.1-0.1-0.4-0.4-0.8-0.7c-0.4-0.4-0.8-0.8-1.4-1.2c-0.5-0.5-1.1-1-1.6-1.5c-0.5-0.5-1-1-1.5-1.4c-0.4-0.4-0.8-0.8-1.1-1.1
		c-0.7-0.8-1.4-1.6-2.1-2.3c-0.7-0.8-1.3-1.5-1.9-2.3c-0.6-0.8-1-1.5-1.4-2.3c-0.3-0.8-0.5-1.6-0.5-2.4c0-0.8,0.1-1.4,0.4-1.9
		c0.3-0.5,0.6-0.9,1-1.3c0.4-0.3,0.8-0.5,1.2-0.7c0.4-0.1,0.9-0.2,1.2-0.2c0.7,0,1.3,0.1,1.8,0.2c0.5,0.1,0.9,0.3,1.3,0.6
		c0.4,0.2,0.7,0.5,0.9,0.8c0.4,0.5,0.7,1,0.8,1.5c0.2,0.5,0.2,1,0.2,1.5c0,0.3,0,0.4,0,0.5c0,0.1,0.1,0.1,0.2,0.1
		c0.1,0,0.2,0,0.3-0.1c0.1-0.1,0.1-0.2,0.2-0.5c0-0.1,0-0.3,0.1-0.6c0-0.3,0.1-0.6,0.1-0.9c0-0.4,0.1-0.7,0.1-1.1
		c0-0.4,0.1-0.7,0.1-1.1c0-0.3,0-0.6,0-0.9c0-0.1,0-0.3,0-0.4c0-0.1-0.1-0.2-0.2-0.3c-0.1-0.1-0.2-0.2-0.4-0.2
		c-0.3-0.1-0.7-0.3-1.2-0.4c-0.4-0.1-0.9-0.2-1.5-0.3c-0.5-0.1-1.1-0.1-1.7-0.1c-1.2,0-2.3,0.1-3.3,0.4c-1,0.3-1.8,0.6-2.5,1.1
		c-0.7,0.5-1.2,1-1.7,1.5c-0.4,0.6-0.8,1.2-1,1.8c-0.2,0.6-0.3,1.2-0.3,1.8c0,0.5,0.1,1.1,0.2,1.6c0.1,0.5,0.3,1.1,0.5,1.6
		c0.3,0.6,0.6,1.2,1.1,1.8c-0.4,0.2-0.9,0.5-1.4,0.9c-0.5,0.4-1,0.8-1.6,1.3c-0.5,0.5-1,1.1-1.4,1.8c-0.4,0.7-0.8,1.4-1,2.1
		C311,29.6,310.8,30.4,310.8,31.3L310.8,31.3z M322,36.9c-0.9,0-1.8-0.2-2.6-0.5c-0.8-0.3-1.6-0.8-2.2-1.5c-0.6-0.6-1.1-1.4-1.5-2.3
		c-0.4-0.9-0.5-1.9-0.5-3c0-1,0.1-1.8,0.4-2.5c0.2-0.7,0.5-1.3,0.9-1.8c0.4-0.5,0.8-0.9,1.2-1.2c0.2,0.2,0.4,0.5,0.7,0.9
		c0.3,0.4,0.7,0.8,1.1,1.3c0.4,0.4,0.8,0.9,1.1,1.3c0.4,0.4,0.7,0.7,0.9,1c0.2,0.2,0.5,0.5,0.8,0.9c0.4,0.4,0.8,0.8,1.2,1.2
		c0.5,0.5,1,0.9,1.5,1.4c0.5,0.5,1,1,1.5,1.4c0.5,0.5,1,0.9,1.4,1.2c-0.2,0.2-0.5,0.4-0.8,0.6c-0.4,0.2-0.8,0.5-1.3,0.7
		c-0.5,0.2-1.1,0.4-1.7,0.6C323.3,36.8,322.7,36.9,322,36.9L322,36.9z"/>
	<path d="M120.1,58.6c-0.1,0-0.1,0-0.1-0.1c0,0-0.1-0.1-0.1-0.2v-0.7c0-1.1,0-2,0-2.7c0-0.8,0-1.4,0-1.9c0-0.5,0-0.9,0-1.3
		c0-0.3,0-0.6,0-0.9c0-0.2,0-0.5,0-0.7c0-0.6,0.1-1.1,0.3-1.4c0.2-0.3,0.5-0.5,1-0.6c0.2,0,0.4-0.1,0.6-0.1c0.2,0,0.3,0,0.5,0
		c0.2,0,0.4,0,0.5-0.1c0.1,0,0.2-0.1,0.2-0.3c0-0.1-0.1-0.2-0.2-0.3c-0.1,0-0.3-0.1-0.6-0.1c-0.3,0-0.7,0-1.2,0c-0.4,0-0.8,0-1.3,0
		c-0.4,0-0.8,0-1.2,0c-0.4,0-0.6,0-0.9,0c-0.3,0-0.8,0-1.3,0c-0.6,0-1.2,0-1.8,0c-0.7,0-1.3,0-2,0c-0.2,0-0.4,0-0.6,0.1
		c-0.1,0-0.2,0.1-0.2,0.3c0,0.1,0.1,0.2,0.2,0.3c0.1,0,0.3,0.1,0.4,0.1c0.3,0,0.5,0,0.8,0c0.3,0,0.5,0,0.6,0.1
		c0.4,0.1,0.7,0.2,0.9,0.4c0.2,0.2,0.4,0.4,0.5,0.6c0.1,0.3,0.1,0.6,0.2,1c0,0.2,0,0.5,0,0.7c0,0.2,0,0.5,0,0.9c0,0.3,0,0.8,0,1.3
		c0,0.5,0,1.1,0,1.9c0,0.8,0,1.7,0,2.7v6.2c0,1.1,0,2.1,0,3.1c0,1,0,1.8,0,2.6c0,0.8-0.1,1.4-0.1,1.9c0,0.3-0.1,0.7-0.2,0.9
		c-0.1,0.3-0.2,0.5-0.3,0.7c-0.1,0.2-0.3,0.3-0.5,0.3c-0.2,0-0.3,0.1-0.6,0.1c-0.2,0-0.5,0-0.7,0c-0.2,0-0.4,0-0.4,0.1
		c-0.1,0-0.1,0.1-0.1,0.2c0,0.1,0.1,0.2,0.2,0.3c0.1,0.1,0.3,0.1,0.5,0.1c0.4,0,0.8,0,1.2,0c0.4,0,0.8,0,1.3,0c0.4,0,0.8,0,1.2,0
		c0.3,0,0.6,0,0.8,0c0.3,0,0.8,0,1.4,0c0.6,0,1.2,0,1.9,0c0.7,0,1.5,0,2.2,0c0.2,0,0.4,0,0.5-0.1c0.1-0.1,0.2-0.1,0.2-0.3
		c0-0.1,0-0.2-0.1-0.2c-0.1-0.1-0.2-0.1-0.4-0.1c-0.2,0-0.4,0-0.6,0c-0.2,0-0.4,0-0.6-0.1c-0.2,0-0.4,0-0.6-0.1
		c-0.3,0-0.6-0.2-0.8-0.3c-0.2-0.2-0.3-0.4-0.4-0.7c-0.1-0.3-0.1-0.6-0.2-0.9c-0.1-0.5-0.1-1.2-0.1-1.9c0-0.8,0-1.6,0-2.6
		c0-1,0-2,0-3.1v-3.1c0-0.1,0-0.1,0.1-0.2c0,0,0.1,0,0.1,0h13.5c0.1,0,0.1,0,0.1,0.1c0,0,0.1,0.1,0.1,0.2v3.1c0,1.1,0,2.1,0,3.1
		c0,1,0,1.8,0,2.6c0,0.8-0.1,1.4-0.1,1.9c0,0.3-0.1,0.7-0.2,0.9c-0.1,0.3-0.2,0.5-0.3,0.7c-0.1,0.2-0.3,0.3-0.5,0.3
		c-0.2,0-0.3,0.1-0.6,0.1c-0.2,0-0.5,0-0.7,0c-0.2,0-0.4,0-0.4,0.1c-0.1,0-0.1,0.1-0.1,0.2c0,0.1,0.1,0.2,0.2,0.3
		c0.1,0.1,0.3,0.1,0.6,0.1c0.4,0,0.7,0,1.2,0c0.4,0,0.8,0,1.3,0c0.4,0,0.8,0,1.2,0c0.3,0,0.6,0,0.8,0c0.3,0,0.8,0,1.4,0
		c0.6,0,1.2,0,1.9,0c0.7,0,1.5,0,2.2,0c0.2,0,0.4,0,0.5-0.1c0.1-0.1,0.2-0.1,0.2-0.3c0-0.1,0-0.2-0.1-0.2c-0.1-0.1-0.2-0.1-0.4-0.1
		c-0.2,0-0.4,0-0.6,0c-0.2,0-0.4,0-0.6-0.1c-0.2,0-0.4,0-0.6-0.1c-0.3,0-0.6-0.2-0.8-0.3c-0.2-0.2-0.3-0.4-0.4-0.7
		c-0.1-0.3-0.1-0.6-0.2-0.9c-0.1-0.5-0.1-1.2-0.1-1.9c0-0.8,0-1.6,0-2.6c0-1,0-2,0-3.1v-6.2c0-1.1,0-2,0-2.7c0-0.8,0-1.4,0-1.9
		c0-0.5,0-0.9,0-1.3c0-0.3,0-0.6,0-0.9c0-0.2,0-0.5,0-0.7c0-0.6,0.1-1.1,0.3-1.4c0.2-0.3,0.5-0.5,1-0.6c0.2,0,0.4-0.1,0.6-0.1
		c0.2,0,0.3,0,0.5,0c0.2,0,0.4,0,0.5-0.1c0.1,0,0.2-0.1,0.2-0.3c0-0.1-0.1-0.2-0.2-0.3c-0.1,0-0.3-0.1-0.6-0.1c-0.3,0-0.7,0-1.2,0
		c-0.4,0-0.8,0-1.3,0c-0.4,0-0.8,0-1.2,0c-0.4,0-0.6,0-0.9,0c-0.2,0-0.6,0-0.9,0c-0.4,0-0.8,0-1.3,0c-0.5,0-0.9,0-1.4,0
		c-0.5,0-1,0-1.5,0c-0.2,0-0.4,0-0.6,0.1c-0.1,0-0.2,0.1-0.2,0.3c0,0.1,0.1,0.2,0.2,0.3c0.1,0,0.3,0.1,0.4,0.1c0.3,0,0.5,0,0.8,0
		c0.3,0,0.5,0,0.6,0.1c0.4,0.1,0.7,0.2,0.9,0.4c0.2,0.2,0.4,0.4,0.5,0.6c0.1,0.3,0.1,0.6,0.2,1c0,0.2,0,0.5,0,0.7c0,0.2,0,0.5,0,0.9
		c0,0.3,0,0.8,0,1.3c0,0.5,0,1.1,0,1.9c0,0.8,0,1.7,0,2.7v0.7c0,0.1,0,0.2-0.1,0.2c0,0-0.1,0.1-0.1,0.1H120.1L120.1,58.6z"/>
	<path d="M148.5,65.4c0,0.9,0,1.8,0,2.6c0,0.8,0,1.5,0,2.2c0,0.6-0.1,1.2-0.1,1.6c0,0.4-0.1,0.8-0.3,1.1s-0.3,0.4-0.7,0.5
		c-0.1,0-0.3,0.1-0.5,0.1c-0.2,0-0.4,0-0.6,0c-0.2,0-0.3,0-0.4,0.1c-0.1,0.1-0.1,0.1-0.1,0.2c0,0.1,0.1,0.2,0.2,0.2
		c0.1,0.1,0.3,0.1,0.4,0.1c0.3,0,0.7,0,1,0c0.4,0,0.7,0,1.1,0c0.4,0,0.7,0,1,0c0.3,0,0.6,0,0.7,0c0.5,0,1,0,1.6,0c0.6,0,1.3,0,2,0
		c0.8,0,1.6,0.1,2.6,0.1c1,0,2,0,3.2,0c0.4,0,0.7,0,0.9,0c0.2,0,0.4-0.1,0.5-0.2c0.1-0.1,0.2-0.3,0.3-0.5c0-0.2,0.1-0.4,0.1-0.7
		c0-0.3,0.1-0.6,0.1-1c0-0.3,0.1-0.7,0.1-1c0-0.3,0-0.5,0-0.7c0-0.2,0-0.3,0-0.5c0-0.1-0.1-0.2-0.2-0.2c-0.1,0-0.2,0-0.2,0.1
		c0,0.1-0.1,0.2-0.1,0.3c-0.1,0.6-0.3,1.1-0.5,1.4c-0.2,0.4-0.5,0.6-0.9,0.8c-0.3,0.1-0.6,0.2-0.9,0.3c-0.3,0.1-0.7,0.1-1.1,0.1
		c-0.4,0-0.7,0-0.9,0c-1.1,0-1.9-0.1-2.5-0.2c-0.6-0.1-1-0.4-1.3-0.8c-0.3-0.4-0.4-0.9-0.4-1.6c0-0.2,0-0.5,0-0.9c0-0.4,0-0.8,0-1.3
		c0-0.4,0-0.9,0-1.3c0-0.4,0-0.7,0-1v-2.4c0-0.1,0-0.2,0-0.2c0-0.1,0.1-0.1,0.1-0.1c0.2,0,0.4,0,0.8,0c0.3,0,0.7,0,1.1,0
		c0.4,0,0.8,0,1.3,0c0.4,0,0.8,0,1.1,0c0.3,0,0.5,0,0.6,0c0.4,0,0.7,0.1,0.9,0.2c0.2,0.1,0.4,0.2,0.5,0.4c0.1,0.2,0.2,0.3,0.3,0.5
		c0,0.2,0.1,0.4,0.1,0.6c0,0.2,0,0.4,0,0.5c0,0.1,0,0.1,0.1,0.2c0,0,0.1,0.1,0.2,0.1c0.1,0,0.2,0,0.2-0.1c0-0.1,0.1-0.2,0.1-0.3
		c0-0.1,0-0.2,0-0.3c0-0.1,0-0.2,0-0.3c0-0.2,0-0.3,0-0.5c0-0.2,0-0.4,0-0.6c0-0.2,0-0.4,0.1-0.5c0.1-0.5,0.1-0.9,0.1-1.2
		c0-0.3,0.1-0.5,0.1-0.7c0-0.1,0-0.3,0-0.3c0-0.1,0-0.2-0.1-0.2c0-0.1-0.1-0.1-0.2-0.1c-0.1,0-0.1,0-0.2,0.1
		c-0.1,0.1-0.2,0.2-0.3,0.3c-0.1,0.2-0.3,0.3-0.6,0.3c-0.2,0.1-0.5,0.1-0.9,0.1c-0.1,0-0.4,0-0.8,0c-0.4,0-0.8,0-1.2,0
		c-0.5,0-0.9,0-1.4,0c-0.5,0-0.9,0-1.3,0c-0.4,0-0.6,0-0.8,0c-0.1,0-0.1,0-0.2-0.1c0-0.1,0-0.1,0-0.2v-7.4c0-0.1,0-0.2,0.1-0.2
		c0-0.1,0.1-0.1,0.2-0.1c0.1,0,0.4,0,0.7,0c0.3,0,0.7,0,1.1,0c0.4,0,0.9,0,1.3,0c0.4,0,0.8,0,1.1,0c0.3,0,0.5,0,0.6,0
		c0.5,0,0.9,0.1,1.2,0.2c0.3,0.1,0.5,0.2,0.6,0.4c0.1,0.1,0.2,0.3,0.3,0.5c0.1,0.1,0.1,0.3,0.1,0.4c0,0.1,0,0.3,0.1,0.4
		c0,0.1,0,0.2,0,0.3c0,0.1,0,0.2,0,0.3c0,0.1,0.1,0.1,0.2,0.1c0.1,0,0.1,0,0.2-0.1c0-0.1,0.1-0.1,0.1-0.2c0-0.1,0-0.1,0.1-0.2
		c0-0.1,0-0.2,0.1-0.4c0-0.2,0-0.4,0-0.6c0-0.2,0-0.4,0-0.6c0-0.2,0-0.3,0-0.4c0-0.5,0.1-0.8,0.1-1.1c0-0.3,0.1-0.5,0.1-0.6
		c0-0.1,0-0.2,0-0.3c0-0.1,0-0.1,0-0.2c0-0.1-0.1-0.1-0.2-0.1c-0.1,0-0.1,0-0.2,0.1c-0.1,0-0.2,0.1-0.3,0.1c-0.1,0-0.3,0-0.5,0.1
		c-0.2,0-0.5,0.1-0.8,0.1c-0.1,0-0.4,0-0.8,0c-0.4,0-0.9,0-1.5,0c-0.6,0-1.2,0-1.9,0c-0.7,0-1.3,0-1.9,0c-0.6,0-1.1,0-1.6,0
		c-0.4,0-0.8,0-0.9,0c-0.3,0-0.7,0-1.2,0c-0.5,0-1,0-1.6,0c-0.6,0-1.1,0-1.7,0c-0.2,0-0.4,0-0.5,0.1c-0.1,0-0.2,0.1-0.2,0.2
		c0,0.1,0.1,0.2,0.1,0.2c0.1,0.1,0.2,0.1,0.4,0.1c0.2,0,0.5,0,0.7,0c0.2,0,0.4,0,0.5,0.1c0.3,0.1,0.6,0.2,0.8,0.3
		c0.2,0.1,0.3,0.3,0.4,0.5c0.1,0.2,0.1,0.5,0.2,0.8c0,0.2,0,0.4,0,0.6c0,0.2,0,0.5,0,0.7c0,0.3,0,0.7,0,1.1c0,0.4,0,1,0,1.6
		c0,0.6,0,1.4,0,2.3V65.4L148.5,65.4z"/>
	<path d="M169.7,57.8h0.1c0.2,0.1,0.5,0.4,0.9,0.9c0.5,0.5,1,1.1,1.7,1.8c0.7,0.7,1.4,1.5,2.2,2.3c0.8,0.8,1.6,1.6,2.5,2.5
		c0.8,0.8,1.7,1.6,2.5,2.4c0.9,0.8,1.7,1.6,2.5,2.4c0.8,0.8,1.6,1.5,2.3,2.2c0.7,0.7,1.3,1.2,1.8,1.7c0.2,0.2,0.3,0.3,0.6,0.4
		c0.2,0.1,0.4,0.2,0.7,0.2c0.1,0,0.2-0.1,0.3-0.2c0.1-0.2,0.1-0.4,0.2-0.7l0.4-19c0-0.6,0-1,0.1-1.3c0.1-0.3,0.2-0.6,0.3-0.8
		c0.2-0.2,0.4-0.3,0.7-0.4c0.2-0.1,0.4-0.1,0.5-0.1c0.1,0,0.3,0,0.4,0c0.2,0,0.3,0,0.4-0.1c0.1-0.1,0.1-0.1,0.1-0.2
		c0-0.1-0.1-0.2-0.2-0.2c-0.1,0-0.3-0.1-0.5,0c-0.8,0-1.4,0-2,0c-0.5,0-0.9,0-1.1,0c-0.2,0-0.5,0-1,0c-0.4,0-0.9,0-1.4,0
		c-0.5,0-1.1,0-1.6,0c-0.2,0-0.4,0-0.6,0c-0.1,0-0.2,0.1-0.2,0.2c0,0.1,0,0.2,0.1,0.2c0.1,0.1,0.2,0.1,0.4,0.1c0.1,0,0.3,0,0.5,0
		c0.2,0,0.4,0,0.6,0c0.2,0,0.4,0.1,0.5,0.1c0.2,0.1,0.4,0.2,0.6,0.4c0.1,0.2,0.3,0.5,0.3,0.8c0.1,0.4,0.1,0.8,0.1,1.4l0.3,13.4h-0.1
		c-0.1-0.1-0.3-0.3-0.7-0.7c-0.3-0.3-0.8-0.8-1.3-1.3c-0.5-0.5-1-1.1-1.6-1.6c-0.6-0.6-1.1-1.1-1.7-1.7c-0.5-0.5-1-1-1.5-1.5
		c-0.9-0.9-1.8-1.8-2.7-2.7c-0.9-0.9-1.7-1.7-2.5-2.5c-0.8-0.8-1.5-1.5-2.1-2.1c-0.6-0.6-1.1-1.2-1.5-1.6c-0.4-0.4-0.6-0.6-0.7-0.7
		c-0.3-0.3-0.5-0.5-0.7-0.7c-0.2-0.2-0.4-0.3-0.6-0.3c-0.2,0-0.3,0.1-0.4,0.3c-0.1,0.2-0.1,0.4-0.1,0.7l-0.3,17.8
		c0,0.9,0,1.6-0.1,2.1c0,0.5-0.1,0.9-0.3,1.1c-0.1,0.2-0.3,0.4-0.6,0.5c-0.2,0.1-0.5,0.1-0.7,0.1c-0.3,0-0.5,0-0.7,0
		c-0.1,0-0.3,0-0.4,0.1c-0.1,0.1-0.1,0.1-0.1,0.2c0,0.1,0.1,0.2,0.2,0.3c0.1,0,0.3,0.1,0.5,0.1c0.5,0,1,0,1.5,0c0.5,0,0.9,0,1.2,0
		c0.3,0,0.5,0,0.6,0c0.3,0,0.8,0,1.5,0.1c0.7,0,1.5,0,2.6,0.1c0.2,0,0.4,0,0.5-0.1c0.1,0,0.2-0.1,0.2-0.3c0-0.1,0-0.2-0.1-0.2
		c-0.1-0.1-0.2-0.1-0.4-0.1c-0.3,0-0.5,0-0.8,0c-0.3,0-0.6-0.1-0.8-0.2c-0.2-0.1-0.4-0.2-0.5-0.4c-0.2-0.2-0.3-0.5-0.4-1
		c-0.1-0.4-0.1-1.1-0.2-1.8L169.7,57.8L169.7,57.8z"/>
	<path d="M197.9,65.4c0,0.9,0,1.8,0,2.6c0,0.8,0,1.5,0,2.2c0,0.6-0.1,1.2-0.1,1.6c0,0.4-0.1,0.8-0.3,1.1c-0.1,0.3-0.3,0.4-0.7,0.5
		c-0.1,0-0.3,0.1-0.5,0.1c-0.2,0-0.4,0-0.6,0c-0.2,0-0.3,0-0.4,0.1c-0.1,0.1-0.1,0.1-0.1,0.2c0,0.1,0.1,0.2,0.2,0.2
		c0.1,0.1,0.3,0.1,0.4,0.1c0.3,0,0.7,0,1,0c0.4,0,0.7,0,1.1,0c0.4,0,0.7,0,1,0c0.3,0,0.5,0,0.7,0c0.1,0,0.4,0,0.7,0
		c0.3,0,0.8,0,1.2,0c0.5,0,1,0,1.5,0c0.5,0,1,0,1.5,0c0.2,0,0.4,0,0.5-0.1c0.1-0.1,0.2-0.1,0.2-0.2c0-0.1,0-0.1-0.1-0.2
		c-0.1-0.1-0.2-0.1-0.3-0.1c-0.1,0-0.3,0-0.5,0c-0.2,0-0.4,0-0.5,0c-0.2,0-0.4,0-0.5-0.1c-0.3,0-0.5-0.1-0.7-0.3
		c-0.2-0.1-0.3-0.3-0.3-0.5c-0.1-0.2-0.1-0.5-0.1-0.8c0-0.4-0.1-1-0.1-1.6c0-0.6,0-1.4-0.1-2.2c0-0.8,0-1.7,0-2.6V65
		c0-0.1,0-0.2,0.1-0.2c0,0,0.1-0.1,0.2-0.1l2.8,0.1c0.1,0,0.2,0,0.3,0c0.1,0,0.2,0.1,0.3,0.2c0.1,0.1,0.2,0.3,0.4,0.6
		c0.2,0.3,0.4,0.6,0.7,1c0.3,0.4,0.6,0.8,0.9,1.2c0.3,0.4,0.6,0.8,0.9,1.3c0.6,0.8,1.1,1.5,1.6,2c0.5,0.6,0.9,1.1,1.4,1.5
		c0.4,0.4,0.9,0.7,1.3,0.9c0.3,0.1,0.6,0.3,0.9,0.3c0.3,0.1,0.7,0.2,1.1,0.2c0.4,0,0.9,0.1,1.5,0.1h3c0.2,0,0.3,0,0.4-0.1
		c0.1,0,0.2-0.1,0.2-0.3c0-0.1,0-0.1-0.1-0.2c-0.1-0.1-0.2-0.1-0.3-0.1c-0.1,0-0.2,0-0.3,0c-0.1,0-0.2,0-0.4-0.1
		c-0.2,0-0.4-0.1-0.7-0.2c-0.3-0.1-0.7-0.3-1.1-0.5c-0.4-0.3-0.9-0.7-1.5-1.3c-0.9-0.9-2-2.1-3.1-3.4c-1.1-1.3-2.4-2.9-3.7-4.6
		c1-0.8,1.8-1.6,2.5-2.3c0.6-0.7,1.1-1.5,1.4-2.2c0.3-0.7,0.4-1.4,0.4-2.2c0-0.5-0.1-1-0.2-1.4c-0.1-0.4-0.3-0.8-0.5-1.2
		c-0.2-0.4-0.5-0.7-0.7-0.9c-0.2-0.3-0.5-0.5-0.7-0.6c-0.6-0.4-1.2-0.6-1.8-0.8c-0.7-0.2-1.3-0.3-2-0.4c-0.7-0.1-1.4-0.1-2-0.1
		c-0.2,0-0.6,0-1,0c-0.4,0-0.9,0-1.4,0c-0.5,0-1,0-1.4,0c-0.4,0-0.8,0-1.1,0c-0.2,0-0.4,0-0.7,0c-0.3,0-0.7,0-1,0
		c-0.4,0-0.8,0-1.2,0c-0.4,0-0.8,0-1.3,0c-0.2,0-0.4,0-0.5,0.1c-0.1,0-0.2,0.1-0.2,0.2c0,0.1,0.1,0.2,0.1,0.2
		c0.1,0.1,0.2,0.1,0.4,0.1c0.2,0,0.5,0,0.7,0c0.2,0,0.4,0,0.5,0.1c0.3,0.1,0.6,0.2,0.8,0.3c0.2,0.1,0.3,0.3,0.4,0.5
		c0.1,0.2,0.1,0.5,0.2,0.8c0,0.2,0,0.4,0,0.6c0,0.2,0,0.5,0,0.7c0,0.3,0,0.7,0,1.1c0,0.4,0,1,0,1.6c0,0.6,0,1.4,0,2.3V65.4
		L197.9,65.4z M201.9,53.5c0-0.1,0-0.2,0.1-0.3c0-0.1,0.1-0.1,0.2-0.1c0.2,0,0.4-0.1,0.7-0.1c0.3,0,0.7,0,1.1,0c0.4,0,0.8,0,1.2,0.1
		c0.4,0.1,0.8,0.3,1.3,0.5c0.4,0.2,0.8,0.6,1.1,1c0.3,0.4,0.6,0.9,0.8,1.5c0.2,0.6,0.3,1.3,0.3,2.2c0,0.8-0.1,1.5-0.3,2.1
		c-0.2,0.6-0.4,1.1-0.8,1.5c-0.3,0.4-0.6,0.7-0.9,0.9c-0.2,0.1-0.3,0.2-0.5,0.3c-0.2,0.1-0.4,0.1-0.7,0.2c-0.3,0-0.6,0-1,0
		c-0.4,0-0.8,0-1.2-0.1c-0.4,0-0.8-0.1-1.1-0.2c-0.1,0-0.2-0.1-0.2-0.2c0-0.1-0.1-0.2-0.1-0.3V53.5L201.9,53.5z"/>
	<path d="M224.8,68.8c0,0.2,0,0.4,0,0.7c0,0.3,0,0.7,0,1.1c0,0.4,0,0.8-0.1,1.2c0,0.4-0.1,0.8-0.3,1.1c-0.1,0.3-0.4,0.4-0.7,0.5
		c-0.1,0-0.3,0.1-0.5,0.1c-0.2,0-0.4,0-0.6,0c-0.2,0-0.3,0-0.4,0.1c-0.1,0.1-0.1,0.1-0.1,0.2c0,0.1,0.1,0.2,0.2,0.3
		c0.1,0,0.3,0.1,0.5,0.1c0.3,0,0.6,0,1,0c0.4,0,0.8,0,1.2,0c0.4,0,0.7,0,1.1,0c0.3,0,0.6,0,0.8,0c0.3,0,0.7,0,1.2,0
		c0.5,0,1.1,0,1.7,0c0.6,0,1.3,0,1.9,0c0.2,0,0.4,0,0.5-0.1c0.1-0.1,0.2-0.1,0.2-0.2c0-0.1,0-0.1-0.1-0.2c-0.1-0.1-0.2-0.1-0.4-0.1
		c-0.2,0-0.5,0-0.8,0c-0.3,0-0.5,0-0.8-0.1c-0.4-0.1-0.8-0.2-1-0.5c-0.2-0.3-0.3-0.6-0.3-1.1c0-0.4,0-0.8,0-1.2c0-0.4,0-0.7,0-1.1
		c0-0.3,0-0.5,0-0.7v-2.4c0-0.3,0-0.7,0-1c0-0.3,0-0.6,0.1-1c0.1-0.3,0.2-0.7,0.3-1.1c0.1-0.2,0.3-0.6,0.6-1.1
		c0.3-0.5,0.6-1.1,1-1.7c0.4-0.7,0.8-1.3,1.3-2c0.4-0.7,0.9-1.4,1.3-2c0.4-0.7,0.8-1.2,1.1-1.7c0.3-0.5,0.6-0.8,0.8-1
		c0.2-0.3,0.4-0.5,0.6-0.7c0.2-0.2,0.3-0.3,0.5-0.4c0.2-0.1,0.4-0.2,0.6-0.3c0.2-0.1,0.5-0.2,0.7-0.3c0.2-0.1,0.5-0.1,0.6-0.1
		c0.2,0,0.3,0,0.4-0.1c0.1-0.1,0.2-0.1,0.2-0.3c0-0.1-0.1-0.2-0.1-0.2c-0.1,0-0.2-0.1-0.4-0.1c-0.2,0-0.4,0-0.7,0c-0.3,0-0.6,0-1,0
		c-0.3,0-0.7,0-1,0c-0.3,0-0.5,0-0.7,0c-0.5,0-1,0-1.5,0c-0.5,0-1,0-1.6,0c-0.2,0-0.3,0-0.4,0.1c-0.1,0-0.1,0.1-0.1,0.2
		c0,0.1,0.1,0.2,0.2,0.2c0.1,0,0.2,0.1,0.4,0.1c0.3,0.1,0.4,0.1,0.5,0.3c0.1,0.1,0.1,0.3,0.1,0.4c0,0.2,0,0.4-0.1,0.7
		c-0.1,0.3-0.2,0.6-0.3,0.9c-0.1,0.2-0.2,0.4-0.5,0.9c-0.2,0.4-0.5,0.9-0.8,1.5c-0.3,0.6-0.7,1.2-1,1.8c-0.4,0.6-0.7,1.2-1,1.8
		c-0.3,0.6-0.6,1-0.8,1.4c-0.2,0.4-0.4,0.6-0.4,0.8c-0.1-0.2-0.3-0.4-0.5-0.9c-0.3-0.4-0.6-1-0.9-1.6c-0.4-0.6-0.7-1.3-1.1-1.9
		c-0.4-0.7-0.8-1.3-1.1-1.9c-0.4-0.6-0.7-1.1-0.9-1.6c-0.3-0.4-0.4-0.8-0.5-0.9c-0.1-0.2-0.2-0.4-0.3-0.6c-0.1-0.2-0.1-0.3-0.1-0.4
		c0-0.1,0-0.2,0.1-0.3c0.1-0.1,0.2-0.1,0.3-0.2c0.2-0.1,0.4-0.1,0.5-0.2c0.1,0,0.2-0.1,0.2-0.2c0-0.1,0-0.2-0.1-0.2
		c-0.1,0-0.2-0.1-0.3-0.1c-0.5,0-0.9,0-1.4,0c-0.5,0-0.9,0-1.2,0c-0.4,0-0.7,0-0.9,0c-0.3,0-0.6,0-1,0c-0.4,0-0.8,0-1.2,0
		c-0.4,0-0.8,0-1.1,0c-0.3,0-0.5,0-0.7,0c-0.2,0-0.3,0-0.4,0.1c-0.1,0-0.2,0.1-0.2,0.2c0,0.1,0,0.2,0.1,0.2c0.1,0.1,0.2,0.1,0.3,0.1
		c0.2,0,0.4,0,0.7,0.1c0.2,0.1,0.5,0.2,0.7,0.3c0.3,0.2,0.6,0.4,0.9,0.8c0.3,0.4,0.7,0.8,1.1,1.4c0.2,0.3,0.4,0.7,0.8,1.2
		c0.3,0.5,0.7,1.1,1.1,1.7c0.4,0.6,0.8,1.3,1.2,1.9c0.4,0.6,0.8,1.3,1.2,1.8c0.4,0.6,0.6,1,0.9,1.4c0.2,0.4,0.4,0.6,0.4,0.7
		c0.1,0.3,0.3,0.6,0.4,0.8c0.1,0.3,0.2,0.6,0.2,1c0.1,0.4,0.1,0.8,0.1,1.3V68.8L224.8,68.8z"/>
	<path d="M239.5,71.5c0,0.1,0.1,0.3,0.2,0.4c0.1,0.1,0.3,0.3,0.5,0.6c0.2,0.2,0.4,0.5,0.5,0.8c0.1,0.3,0.2,0.8,0.2,1.3
		c0,0.4-0.1,0.9-0.2,1.4c-0.2,0.5-0.4,1.1-0.8,1.7c0,0.1-0.1,0.2-0.2,0.3c-0.1,0.1-0.1,0.2-0.1,0.3c0,0.1,0,0.2,0.1,0.2
		c0.1,0.1,0.1,0.1,0.2,0.1c0.1,0,0.2,0,0.3-0.1c0.1-0.1,0.2-0.2,0.3-0.3c0.3-0.3,0.6-0.7,0.9-1.2c0.3-0.4,0.5-0.9,0.8-1.3
		c0.2-0.4,0.5-0.9,0.7-1.2c0.2-0.4,0.3-0.7,0.5-1c0.1-0.2,0.2-0.4,0.2-0.6c0.1-0.2,0.1-0.4,0.2-0.6c0-0.2,0.1-0.3,0.1-0.5
		c0-0.2,0-0.4-0.2-0.7c-0.1-0.3-0.3-0.7-0.6-1.1c-0.1-0.2-0.3-0.4-0.4-0.5c-0.1-0.1-0.2-0.2-0.2-0.3c-0.1,0-0.2-0.1-0.3-0.1
		c-0.3,0-0.6,0.1-0.9,0.2c-0.3,0.1-0.6,0.3-0.9,0.5c-0.3,0.2-0.5,0.5-0.7,0.8C239.6,70.9,239.5,71.2,239.5,71.5L239.5,71.5z"/>
	<path d="M262.5,63.9c0,1.1,0,2.1,0,3.1c0,1,0,1.8,0,2.6c0,0.8-0.1,1.4-0.1,1.9c0,0.3-0.1,0.7-0.2,0.9c-0.1,0.3-0.2,0.5-0.3,0.7
		c-0.1,0.2-0.3,0.3-0.5,0.3c-0.2,0-0.3,0.1-0.6,0.1c-0.2,0-0.5,0-0.7,0c-0.2,0-0.4,0-0.4,0.1c-0.1,0-0.1,0.1-0.1,0.2
		c0,0.1,0.1,0.2,0.2,0.3c0.1,0.1,0.3,0.1,0.5,0.1c0.4,0,0.8,0,1.2,0c0.4,0,0.8,0,1.3,0c0.4,0,0.8,0,1.2,0c0.3,0,0.6,0,0.8,0
		c0.3,0,0.7,0,1.3,0c0.6,0,1.2,0,1.9,0c0.7,0,1.5,0,2.3,0c0.2,0,0.4,0,0.5-0.1c0.1-0.1,0.2-0.1,0.2-0.3c0-0.1,0-0.2-0.1-0.2
		c-0.1-0.1-0.2-0.1-0.4-0.1c-0.2,0-0.4,0-0.6,0c-0.2,0-0.4,0-0.6-0.1c-0.2,0-0.4,0-0.6-0.1c-0.3,0-0.6-0.2-0.8-0.3
		c-0.2-0.2-0.3-0.4-0.4-0.7c-0.1-0.3-0.1-0.6-0.2-0.9c-0.1-0.5-0.1-1.2-0.1-1.9c0-0.8,0-1.6,0-2.6c0-1,0-2,0-3.1V49.7
		c0-0.2,0-0.3,0.1-0.5c0-0.1,0.1-0.2,0.2-0.2c0.2-0.1,0.4-0.1,0.6-0.1c0.2,0,0.5,0,0.8,0c0.3,0,0.6,0,1,0.1c0.4,0.1,0.8,0.2,1.2,0.4
		c0.4,0.2,0.9,0.5,1.3,0.9c0.5,0.4,0.9,0.9,1.2,1.4c0.3,0.5,0.5,1,0.6,1.5c0.1,0.5,0.2,0.9,0.3,1.4c0,0.4,0.1,0.8,0,1.1
		c0,0.9-0.2,1.7-0.5,2.4c-0.3,0.7-0.7,1.3-1.2,1.8c-0.5,0.5-1,0.9-1.5,1.2c-0.5,0.3-1.1,0.4-1.6,0.4c-0.4,0-0.6,0-0.8,0.1
		c-0.2,0.1-0.2,0.2-0.2,0.3c0,0.1,0.1,0.2,0.1,0.2c0.1,0,0.2,0.1,0.3,0.1c0.1,0,0.2,0,0.4,0c0.2,0,0.3,0,0.4,0
		c1.3,0,2.4-0.2,3.5-0.6c1.1-0.4,2-1,2.8-1.8c0.8-0.8,1.4-1.7,1.8-2.7c0.4-1,0.6-2.2,0.7-3.5c0-0.6-0.1-1.2-0.3-1.8
		c-0.2-0.5-0.4-1-0.7-1.4c-0.3-0.4-0.5-0.8-0.8-1c-0.1-0.1-0.4-0.3-0.6-0.5c-0.3-0.2-0.7-0.4-1.2-0.7c-0.5-0.2-1.1-0.4-1.9-0.6
		c-0.8-0.2-1.7-0.2-2.8-0.2c-0.5,0-1.1,0-1.7,0c-0.6,0-1.2,0-1.8,0c-0.6,0-1.1,0-1.6,0c-0.3,0-0.8,0-1.3,0c-0.6,0-1.2,0-1.8,0
		c-0.7,0-1.3,0-1.9,0c-0.3,0-0.5,0-0.6,0.1c-0.1,0-0.2,0.1-0.2,0.3c0,0.1,0.1,0.2,0.2,0.3c0.1,0,0.3,0.1,0.4,0.1c0.3,0,0.5,0,0.8,0
		c0.3,0,0.5,0,0.6,0.1c0.4,0.1,0.7,0.2,0.9,0.4c0.2,0.2,0.4,0.4,0.5,0.6c0.1,0.3,0.1,0.6,0.2,1c0,0.2,0,0.5,0,0.7c0,0.2,0,0.5,0,0.9
		c0,0.3,0,0.8,0,1.3c0,0.5,0,1.1,0,1.9c0,0.8,0,1.7,0,2.7V63.9L262.5,63.9z"/>
	<path d="M298.4,74.6c0.6,0,1.2,0,1.8,0c0.6,0,1.2-0.1,1.8-0.1c0.6-0.1,1.1-0.2,1.6-0.3c0.5-0.1,0.9-0.2,1.3-0.4
		c0.2-0.1,0.4-0.2,0.5-0.2c0.1-0.1,0.2-0.2,0.3-0.3c0.1-0.1,0.1-0.3,0.2-0.5c0.1-0.2,0.1-0.5,0.2-0.9c0.1-0.4,0.1-0.7,0.2-1.1
		c0.1-0.4,0.1-0.8,0.2-1.2c0.1-0.4,0.1-0.7,0.1-1c0-0.3,0-0.4,0-0.5c0-0.1,0-0.3-0.1-0.4c0-0.1-0.1-0.2-0.3-0.2
		c-0.1,0-0.2,0-0.3,0.1c-0.1,0.1-0.1,0.3-0.2,0.6c0,0.2-0.1,0.5-0.2,0.7c-0.1,0.3-0.2,0.6-0.4,0.8c-0.2,0.3-0.3,0.5-0.5,0.8
		c-0.5,0.5-1,0.9-1.6,1.2c-0.6,0.3-1.3,0.5-2.1,0.6c-0.8,0.1-1.7,0.2-2.8,0.2c-0.8,0-1.6-0.1-2.5-0.3c-0.8-0.2-1.7-0.6-2.5-1
		c-0.8-0.5-1.6-1.1-2.4-1.7c-0.7-0.7-1.4-1.5-2-2.5c-0.6-0.9-1-2-1.3-3.1c-0.3-1.2-0.5-2.5-0.5-3.9c0-1.2,0.1-2.3,0.3-3.4
		c0.2-1.1,0.5-2.1,1-3.1c0.5-1,1.1-1.9,2-2.7c0.5-0.5,1.1-0.9,1.7-1.2c0.6-0.3,1.4-0.6,2.2-0.7c0.8-0.2,1.7-0.3,2.7-0.3
		c1.1,0,2.1,0.1,3,0.3c0.9,0.2,1.8,0.4,2.5,0.8c0.7,0.3,1.3,0.7,1.7,1.1c0.4,0.5,0.8,1,1,1.6c0.2,0.6,0.4,1.1,0.4,1.7
		c0,0.2,0,0.4,0.1,0.6c0.1,0.1,0.1,0.2,0.3,0.2c0.2,0,0.3-0.1,0.3-0.2c0.1-0.1,0.1-0.3,0.1-0.6c0-0.2,0-0.4,0-0.7c0-0.3,0-0.6,0-1
		c0-0.4,0-0.7,0-1.1c0-0.4,0-0.7,0-1c0-0.4,0.1-0.7,0.1-1c0-0.3,0.1-0.5,0.1-0.6c0-0.1,0-0.3,0-0.4c0-0.1,0-0.2-0.1-0.3
		c-0.1-0.1-0.2-0.1-0.4-0.1c-0.5-0.1-1.1-0.2-1.7-0.3c-0.6-0.1-1.2-0.2-1.9-0.3c-0.5-0.1-1.1-0.1-1.6-0.2c-0.5-0.1-1.1-0.1-1.6-0.1
		c-0.6,0-1.2,0-1.9,0c-1.8,0-3.3,0.2-4.7,0.5c-1.4,0.3-2.6,0.7-3.6,1.3c-1.1,0.6-2,1.2-2.9,2c-0.8,0.8-1.5,1.6-2.1,2.5
		c-0.5,0.9-1,1.8-1.3,2.6c-0.3,0.9-0.5,1.7-0.6,2.5c-0.1,0.8-0.2,1.5-0.2,2.1c0,0.9,0.1,1.7,0.2,2.6c0.1,0.9,0.4,1.8,0.7,2.7
		c0.3,0.9,0.8,1.8,1.3,2.6c0.6,0.9,1.3,1.7,2.1,2.4c1.1,0.9,2.2,1.7,3.5,2.2c1.3,0.6,2.6,1,4.1,1.2
		C295.2,74.5,296.8,74.7,298.4,74.6L298.4,74.6z"/>
	<path class="st1" d="M43.9,9.1c18.7,0,33.9,15.3,33.9,34.1c0,18.8-15.2,34.1-33.9,34.1c-13.6,0-25.3-8-30.7-19.6
		c0.3,0.5,0.5,0.9,0.8,1.3c5.4,9.1,15.3,15.3,26.7,15.3c17.1,0,30.9-13.9,30.9-30.9c0-17.1-13.9-30.9-30.9-30.9
		c-9.5,0-18,4.3-23.7,11c-1.6,1.8-2.9,3.7-4.1,5.8C18.2,17.4,30.1,9.1,43.9,9.1L43.9,9.1z"/>
	<polygon class="st1" points="72.8,41 48.3,41 48.3,45.4 72.8,45.4 72.8,41 	"/>
	<polygon class="st1" points="52.7,58.7 52.7,27.7 48.3,27.7 48.3,58.7 52.7,58.7 	"/>
	<path class="st2" d="M39.8,3.5c17,0,31.5,10.7,37.2,25.6c-0.8-1.8-1.8-3.6-2.9-5.3c-6.4-10-17.7-16.7-30.4-16.7
		C23.8,7.3,7.6,23.4,7.6,43.4c0,19.9,16.2,36.1,36.1,36.1c15.6,0,28.8-9.8,33.9-23.6c-5.2,15.9-20.2,27.3-37.8,27.3
		C17.8,83.2,0,65.4,0,43.4C0,21.4,17.8,3.5,39.8,3.5L39.8,3.5z"/>
	<polygon class="st2" points="6.6,41 31.1,41 31.1,45.4 6.6,45.4 6.6,41 	"/>
	<polygon class="st2" points="26.7,58.7 26.7,27.7 31.1,27.7 31.1,58.7 26.7,58.7 	"/>
	<polygon class="st1" points="95.1,0 97,0 97,86.7 95.1,86.7 95.1,0 	"/>
</g>
</svg>
