<?xml version="1.0" encoding="utf-8"?>
<!-- Generator: Adobe Illustrator 21.1.0, SVG Export Plug-In . SVG Version: 6.00 Build 0)  -->
<svg version="1.1" id="Layer_1" xmlns="http://www.w3.org/2000/svg" xmlns:xlink="http://www.w3.org/1999/xlink" x="0px" y="0px"
	 viewBox="0 0 340.9 86.6" style="enable-background:new 0 0 340.9 86.6;" xml:space="preserve">
<style type="text/css">
	.st0{fill:#29577D;}
	.st1{fill:#2E5F88;}
	.st2{fill-rule:evenodd;clip-rule:evenodd;}
	.st3{fill-rule:evenodd;clip-rule:evenodd;fill:#29577D;}
</style>
<g>
	<path class="st0" d="M119.3,22.9c-0.1,0-0.1,0-0.1-0.1c0,0-0.1-0.1-0.1-0.2v-0.8c0-1.1,0-2,0-2.8c0-0.8,0-1.4,0-1.9
		c0-0.5,0-0.9,0-1.3c0-0.3,0-0.6,0-0.9c0-0.2,0-0.5,0-0.7c0-0.6,0.1-1.1,0.3-1.4c0.2-0.3,0.5-0.5,1-0.6c0.2,0,0.4-0.1,0.6-0.1
		c0.2,0,0.3,0,0.5,0c0.2,0,0.4,0,0.5-0.1c0.1,0,0.2-0.1,0.2-0.3c0-0.1-0.1-0.2-0.2-0.3c-0.1,0-0.3-0.1-0.6-0.1c-0.4,0-0.7,0-1.2,0
		c-0.4,0-0.9,0-1.3,0c-0.4,0-0.8,0-1.2,0c-0.4,0-0.6,0-0.9,0c-0.3,0-0.8,0-1.3,0c-0.6,0-1.2,0-1.8,0c-0.7,0-1.3,0-2,0
		c-0.2,0-0.4,0-0.6,0.1c-0.1,0-0.2,0.1-0.2,0.3c0,0.1,0.1,0.2,0.2,0.3c0.1,0,0.3,0.1,0.5,0.1c0.3,0,0.5,0,0.8,0c0.3,0,0.5,0,0.6,0.1
		c0.4,0.1,0.7,0.2,0.9,0.4c0.2,0.2,0.4,0.4,0.5,0.7c0.1,0.3,0.1,0.6,0.2,1c0,0.2,0,0.5,0,0.7c0,0.2,0,0.5,0,0.9c0,0.3,0,0.8,0,1.3
		c0,0.5,0,1.2,0,1.9c0,0.8,0,1.7,0,2.8v6.3c0,1.1,0,2.1,0,3.1c0,1,0,1.8,0,2.6c0,0.8-0.1,1.4-0.1,1.9c0,0.3-0.1,0.7-0.2,0.9
		c-0.1,0.3-0.2,0.5-0.3,0.7c-0.1,0.2-0.3,0.3-0.6,0.3c-0.2,0-0.3,0.1-0.6,0.1c-0.2,0-0.5,0-0.7,0c-0.2,0-0.4,0-0.4,0.1
		c-0.1,0-0.1,0.1-0.1,0.2c0,0.1,0.1,0.2,0.2,0.3c0.1,0.1,0.3,0.1,0.5,0.1c0.4,0,0.8,0,1.2,0c0.4,0,0.9,0,1.3,0c0.4,0,0.8,0,1.2,0
		c0.4,0,0.6,0,0.8,0c0.3,0,0.8,0,1.4,0c0.6,0,1.2,0,1.9,0c0.7,0,1.5,0,2.3,0c0.2,0,0.4,0,0.5-0.1c0.1-0.1,0.2-0.1,0.2-0.3
		c0-0.1,0-0.2-0.1-0.2c-0.1-0.1-0.2-0.1-0.4-0.1c-0.2,0-0.4,0-0.6,0c-0.2,0-0.4,0-0.6-0.1c-0.2,0-0.4,0-0.6-0.1
		c-0.4,0-0.6-0.2-0.8-0.3c-0.2-0.2-0.3-0.4-0.4-0.7c-0.1-0.3-0.1-0.6-0.2-0.9c-0.1-0.5-0.1-1.2-0.1-1.9c0-0.8,0-1.6,0-2.6
		c0-1,0-2,0-3.1v-3.1c0-0.1,0-0.1,0.1-0.2c0,0,0.1,0,0.1,0H133c0.1,0,0.1,0,0.1,0.1c0,0,0.1,0.1,0.1,0.2v3.1c0,1.1,0,2.1,0,3.1
		c0,1,0,1.8,0,2.6c0,0.8-0.1,1.4-0.1,1.9c0,0.3-0.1,0.7-0.2,0.9c-0.1,0.3-0.2,0.5-0.3,0.7c-0.1,0.2-0.3,0.3-0.6,0.3
		c-0.2,0-0.3,0.1-0.6,0.1c-0.2,0-0.5,0-0.7,0c-0.2,0-0.4,0-0.4,0.1c-0.1,0-0.1,0.1-0.1,0.2c0,0.1,0.1,0.2,0.2,0.3
		c0.1,0.1,0.3,0.1,0.6,0.1c0.4,0,0.7,0,1.2,0c0.4,0,0.9,0,1.3,0c0.4,0,0.8,0,1.2,0c0.4,0,0.6,0,0.8,0c0.3,0,0.8,0,1.4,0
		c0.6,0,1.2,0,1.9,0c0.7,0,1.5,0,2.3,0c0.2,0,0.4,0,0.5-0.1c0.1-0.1,0.2-0.1,0.2-0.3c0-0.1,0-0.2-0.1-0.2c-0.1-0.1-0.2-0.1-0.4-0.1
		c-0.2,0-0.4,0-0.6,0c-0.2,0-0.4,0-0.6-0.1c-0.2,0-0.4,0-0.6-0.1c-0.4,0-0.6-0.2-0.8-0.3c-0.2-0.2-0.3-0.4-0.4-0.7
		c-0.1-0.3-0.1-0.6-0.2-0.9c-0.1-0.5-0.1-1.2-0.1-1.9c0-0.8,0-1.6,0-2.6c0-1,0-2,0-3.1v-6.3c0-1.1,0-2,0-2.8c0-0.8,0-1.4,0-1.9
		c0-0.5,0-0.9,0-1.3c0-0.3,0-0.6,0-0.9c0-0.2,0-0.5,0-0.7c0-0.6,0.1-1.1,0.3-1.4c0.2-0.3,0.5-0.5,1-0.6c0.2,0,0.4-0.1,0.6-0.1
		c0.2,0,0.3,0,0.5,0c0.2,0,0.4,0,0.5-0.1c0.1,0,0.2-0.1,0.2-0.3c0-0.1-0.1-0.2-0.2-0.3c-0.1,0-0.3-0.1-0.6-0.1c-0.4,0-0.7,0-1.2,0
		c-0.4,0-0.9,0-1.3,0c-0.4,0-0.8,0-1.2,0c-0.4,0-0.6,0-0.9,0c-0.2,0-0.6,0-0.9,0c-0.4,0-0.8,0-1.3,0c-0.5,0-1,0-1.5,0
		c-0.5,0-1,0-1.5,0c-0.2,0-0.4,0-0.6,0.1c-0.1,0-0.2,0.1-0.2,0.3c0,0.1,0.1,0.2,0.2,0.3c0.1,0,0.3,0.1,0.5,0.1c0.3,0,0.5,0,0.8,0
		c0.3,0,0.5,0,0.6,0.1c0.4,0.1,0.7,0.2,0.9,0.4c0.2,0.2,0.4,0.4,0.5,0.7c0.1,0.3,0.1,0.6,0.2,1c0,0.2,0,0.5,0,0.7c0,0.2,0,0.5,0,0.9
		c0,0.3,0,0.8,0,1.3c0,0.5,0,1.2,0,1.9c0,0.8,0,1.7,0,2.8v0.8c0,0.1,0,0.2-0.1,0.2c0,0-0.1,0.1-0.1,0.1H119.3L119.3,22.9z
		 M147.9,29.8c0,0.9,0,1.8,0,2.6c0,0.8,0,1.6,0,2.2c0,0.7-0.1,1.2-0.1,1.6c0,0.4-0.1,0.8-0.3,1.1c-0.1,0.3-0.4,0.5-0.7,0.5
		c-0.1,0-0.3,0.1-0.5,0.1c-0.2,0-0.4,0-0.6,0c-0.2,0-0.3,0-0.4,0.1c-0.1,0.1-0.1,0.1-0.1,0.2c0,0.1,0.1,0.2,0.2,0.2
		c0.1,0.1,0.3,0.1,0.5,0.1c0.3,0,0.7,0,1,0c0.4,0,0.8,0,1.1,0c0.4,0,0.7,0,1,0c0.3,0,0.6,0,0.7,0c0.5,0,1,0,1.6,0c0.6,0,1.3,0,2,0
		c0.8,0,1.6,0.1,2.6,0.1c1,0,2,0,3.2,0c0.4,0,0.7,0,0.9,0c0.2,0,0.4-0.1,0.5-0.2c0.1-0.1,0.2-0.3,0.3-0.6c0-0.2,0.1-0.4,0.1-0.7
		c0-0.3,0.1-0.6,0.1-1c0-0.4,0.1-0.7,0.1-1c0-0.3,0-0.5,0-0.7c0-0.2,0-0.3,0-0.5c0-0.1-0.1-0.2-0.2-0.2c-0.1,0-0.2,0-0.2,0.1
		c0,0.1-0.1,0.2-0.1,0.4c-0.1,0.6-0.3,1.1-0.5,1.5c-0.2,0.4-0.5,0.6-0.9,0.8c-0.3,0.1-0.6,0.2-1,0.3c-0.4,0.1-0.7,0.1-1.1,0.1
		c-0.4,0-0.7,0-1,0c-1.1,0-1.9-0.1-2.5-0.2c-0.6-0.1-1.1-0.4-1.3-0.8c-0.3-0.4-0.4-0.9-0.4-1.6c0-0.2,0-0.5,0-0.9c0-0.4,0-0.8,0-1.3
		c0-0.5,0-0.9,0-1.3c0-0.4,0-0.7,0-1v-2.4c0-0.1,0-0.2,0-0.2c0-0.1,0.1-0.1,0.1-0.1c0.2,0,0.4,0,0.8,0c0.3,0,0.7,0,1.1,0
		c0.4,0,0.8,0,1.3,0c0.4,0,0.8,0,1.1,0c0.3,0,0.5,0,0.7,0c0.4,0,0.7,0.1,0.9,0.2c0.2,0.1,0.4,0.2,0.5,0.4c0.1,0.2,0.2,0.4,0.3,0.6
		c0,0.2,0.1,0.4,0.1,0.6c0,0.2,0,0.4,0,0.5c0,0.1,0,0.1,0.1,0.2c0,0,0.1,0.1,0.2,0.1c0.1,0,0.2,0,0.2-0.1c0-0.1,0.1-0.2,0.1-0.3
		c0-0.1,0-0.2,0-0.3c0-0.1,0-0.2,0-0.3c0-0.2,0-0.3,0-0.5c0-0.2,0-0.4,0-0.6c0-0.2,0-0.4,0.1-0.5c0.1-0.5,0.1-0.9,0.1-1.2
		c0-0.3,0.1-0.5,0.1-0.7c0-0.1,0-0.3,0-0.3c0-0.1,0-0.2-0.1-0.2c0-0.1-0.1-0.1-0.2-0.1c-0.1,0-0.1,0-0.2,0.1
		c-0.1,0.1-0.2,0.2-0.3,0.3c-0.1,0.2-0.3,0.3-0.6,0.3c-0.2,0.1-0.5,0.1-0.9,0.1c-0.1,0-0.4,0-0.8,0c-0.4,0-0.8,0-1.3,0
		c-0.5,0-1,0-1.4,0c-0.5,0-0.9,0-1.3,0c-0.4,0-0.6,0-0.8,0c-0.1,0-0.1,0-0.2-0.1c0-0.1,0-0.1,0-0.2v-7.5c0-0.1,0-0.2,0.1-0.2
		c0-0.1,0.1-0.1,0.2-0.1c0.1,0,0.4,0,0.7,0c0.3,0,0.7,0,1.1,0c0.4,0,0.9,0,1.3,0c0.4,0,0.8,0,1.1,0c0.3,0,0.5,0,0.7,0
		c0.5,0,0.9,0.1,1.2,0.2c0.3,0.1,0.5,0.2,0.6,0.4c0.1,0.1,0.2,0.3,0.3,0.5c0.1,0.1,0.1,0.3,0.1,0.4c0,0.1,0,0.3,0.1,0.4
		c0,0.1,0,0.2,0,0.3c0,0.1,0,0.2,0,0.3c0,0.1,0.1,0.1,0.2,0.1c0.1,0,0.1,0,0.2-0.1c0-0.1,0.1-0.1,0.1-0.2c0-0.1,0-0.1,0.1-0.2
		c0-0.1,0-0.2,0.1-0.4c0-0.2,0-0.4,0-0.6c0-0.2,0-0.4,0-0.6c0-0.2,0-0.3,0-0.4c0-0.5,0.1-0.8,0.1-1.1c0-0.3,0.1-0.5,0.1-0.6
		c0-0.1,0-0.2,0-0.3c0-0.1,0-0.1,0-0.2c0-0.1-0.1-0.1-0.2-0.1c-0.1,0-0.1,0-0.2,0.1c-0.1,0-0.2,0.1-0.3,0.1c-0.1,0-0.3,0-0.5,0.1
		c-0.2,0-0.5,0.1-0.8,0.1c-0.1,0-0.4,0-0.8,0c-0.4,0-0.9,0-1.5,0c-0.6,0-1.2,0-1.9,0c-0.7,0-1.3,0-1.9,0c-0.6,0-1.1,0-1.6,0
		c-0.5,0-0.8,0-0.9,0c-0.3,0-0.7,0-1.2,0c-0.5,0-1,0-1.6,0c-0.6,0-1.1,0-1.7,0c-0.2,0-0.4,0-0.5,0.1c-0.1,0-0.2,0.1-0.2,0.2
		c0,0.1,0.1,0.2,0.1,0.2c0.1,0.1,0.2,0.1,0.4,0.1c0.2,0,0.5,0,0.7,0c0.2,0,0.4,0,0.5,0.1c0.3,0.1,0.6,0.2,0.8,0.3
		c0.2,0.1,0.3,0.3,0.4,0.5c0.1,0.2,0.1,0.5,0.2,0.8c0,0.2,0,0.4,0,0.6c0,0.2,0,0.5,0,0.8c0,0.3,0,0.7,0,1.1c0,0.4,0,1,0,1.6
		c0,0.6,0,1.4,0,2.3V29.8L147.9,29.8z M169.4,22h0.1c0.2,0.1,0.5,0.5,0.9,0.9c0.5,0.5,1,1.1,1.7,1.8c0.7,0.7,1.4,1.5,2.2,2.3
		c0.8,0.8,1.6,1.6,2.5,2.5c0.8,0.8,1.7,1.6,2.5,2.5c0.9,0.8,1.7,1.6,2.5,2.4c0.8,0.8,1.6,1.5,2.3,2.2c0.7,0.7,1.3,1.2,1.8,1.7
		c0.2,0.2,0.4,0.3,0.6,0.4c0.2,0.1,0.5,0.2,0.7,0.2c0.1,0,0.2-0.1,0.3-0.2c0.1-0.2,0.1-0.4,0.2-0.7l0.4-19.2c0-0.6,0-1,0.1-1.4
		c0.1-0.3,0.2-0.6,0.4-0.8c0.2-0.2,0.4-0.3,0.7-0.4c0.2-0.1,0.4-0.1,0.5-0.1c0.1,0,0.3,0,0.5,0c0.2,0,0.3,0,0.4-0.1
		c0.1-0.1,0.1-0.1,0.1-0.2c0-0.1-0.1-0.2-0.2-0.2c-0.1,0-0.3-0.1-0.5,0c-0.8,0-1.4,0-2,0c-0.5,0-0.9,0-1.1,0c-0.2,0-0.6,0-1,0
		c-0.4,0-0.9,0-1.4,0c-0.5,0-1.1,0-1.6,0c-0.2,0-0.4,0-0.6,0c-0.1,0-0.2,0.1-0.2,0.2c0,0.1,0,0.2,0.1,0.2c0.1,0.1,0.2,0.1,0.4,0.1
		c0.1,0,0.3,0,0.5,0c0.2,0,0.4,0,0.6,0c0.2,0,0.4,0.1,0.5,0.1c0.2,0.1,0.5,0.2,0.6,0.4c0.1,0.2,0.3,0.5,0.3,0.8
		c0.1,0.4,0.1,0.8,0.1,1.5l0.3,13.5h-0.1c-0.1-0.1-0.3-0.3-0.7-0.7c-0.4-0.4-0.8-0.8-1.3-1.3c-0.5-0.5-1.1-1.1-1.6-1.7
		c-0.6-0.6-1.1-1.2-1.7-1.7c-0.6-0.6-1-1-1.5-1.5c-0.9-0.9-1.8-1.8-2.7-2.7c-0.9-0.9-1.7-1.7-2.5-2.5c-0.8-0.8-1.5-1.5-2.1-2.2
		c-0.6-0.6-1.1-1.2-1.5-1.6c-0.4-0.4-0.6-0.6-0.7-0.7c-0.3-0.3-0.5-0.5-0.7-0.7c-0.2-0.2-0.4-0.3-0.6-0.3c-0.2,0-0.3,0.1-0.4,0.3
		c-0.1,0.2-0.1,0.4-0.1,0.7l-0.3,18c0,0.9,0,1.6-0.1,2.1c0,0.5-0.1,0.9-0.3,1.1c-0.1,0.2-0.3,0.4-0.6,0.5c-0.2,0.1-0.5,0.1-0.7,0.1
		c-0.3,0-0.5,0-0.7,0c-0.1,0-0.3,0-0.4,0.1c-0.1,0.1-0.1,0.1-0.1,0.2c0,0.1,0.1,0.2,0.2,0.3c0.1,0,0.3,0.1,0.5,0.1
		c0.5,0,1.1,0,1.5,0c0.5,0,0.9,0,1.2,0c0.3,0,0.5,0,0.6,0c0.3,0,0.8,0,1.5,0.1c0.7,0,1.6,0,2.6,0.1c0.2,0,0.4,0,0.5-0.1
		c0.1,0,0.2-0.1,0.2-0.3c0-0.1,0-0.2-0.1-0.2s-0.2-0.1-0.4-0.1c-0.3,0-0.5,0-0.8,0c-0.3,0-0.6-0.1-0.8-0.2c-0.2-0.1-0.4-0.2-0.5-0.4
		c-0.2-0.2-0.3-0.6-0.4-1c-0.1-0.5-0.1-1.1-0.2-1.9L169.4,22L169.4,22z M201.2,39c0.6,0,1.2,0,1.8-0.1c0.6-0.1,1.2-0.2,1.8-0.4
		c0.6-0.2,1.1-0.4,1.7-0.8c0.8-0.5,1.4-1.1,1.8-1.7c0.5-0.6,0.8-1.2,1-1.9c0.2-0.7,0.3-1.4,0.3-2.1c0-0.9-0.2-1.8-0.5-2.6
		c-0.3-0.8-0.9-1.6-1.7-2.4c-0.8-0.8-1.9-1.5-3.3-2.3l-1.3-0.7c-0.7-0.4-1.3-0.8-1.7-1.1c-0.4-0.3-0.8-0.7-1-1
		c-0.2-0.3-0.4-0.6-0.5-0.9c-0.1-0.3-0.1-0.6-0.1-1c0-0.5,0.1-1,0.4-1.4c0.2-0.4,0.5-0.7,0.9-1c0.4-0.3,0.9-0.5,1.4-0.6
		c0.5-0.1,1.1-0.2,1.6-0.2c0.7,0,1.2,0.1,1.7,0.2c0.5,0.2,0.8,0.3,1.1,0.6c0.3,0.2,0.5,0.4,0.7,0.6c0.2,0.3,0.4,0.5,0.5,0.8
		c0.1,0.3,0.2,0.5,0.2,0.7c0,0.2,0.1,0.4,0.1,0.5c0,0.4,0.1,0.5,0.3,0.5c0.1,0,0.2-0.1,0.3-0.2c0.1-0.2,0.1-0.4,0.1-0.7
		c0-0.8,0-1.4,0-1.9c0-0.5,0-0.9,0-1.1c0-0.3,0-0.5,0-0.6c0-0.1,0-0.2-0.1-0.2c-0.1-0.1-0.2-0.1-0.3-0.1c-0.4-0.1-1-0.2-1.8-0.3
		c-0.8-0.1-1.7-0.2-2.7-0.2c-1.1,0-2.1,0.1-3.1,0.4c-1,0.3-1.8,0.7-2.5,1.2c-0.7,0.5-1.3,1.2-1.7,1.9c-0.4,0.8-0.6,1.6-0.6,2.5
		c0,0.9,0.1,1.7,0.5,2.5c0.3,0.8,0.8,1.5,1.5,2.2c0.7,0.7,1.7,1.4,2.9,2.2l1.8,1.1c0.7,0.4,1.2,0.8,1.7,1.2c0.4,0.4,0.7,0.7,0.9,1.1
		c0.2,0.4,0.3,0.7,0.4,1c0.1,0.3,0.1,0.7,0.1,1c0,0.7-0.2,1.4-0.5,2c-0.4,0.6-0.8,1-1.5,1.4c-0.7,0.3-1.4,0.5-2.3,0.5
		c-0.5,0-1,0-1.5-0.2c-0.5-0.1-1-0.3-1.5-0.5c-0.5-0.2-0.9-0.5-1.2-0.9c-0.4-0.4-0.6-0.9-0.8-1.4c-0.1-0.3-0.2-0.6-0.2-0.8
		c-0.1-0.3-0.1-0.5-0.1-0.7c0-0.1,0-0.2-0.1-0.3c0-0.1-0.1-0.2-0.3-0.2c-0.1,0-0.2,0.1-0.3,0.2c-0.1,0.1-0.1,0.3-0.1,0.6
		c0,0.1,0,0.3,0,0.6c0,0.3,0,0.6-0.1,1c0,0.4,0,0.8-0.1,1.2c0,0.4,0,0.8,0,1.3c0,0.2,0,0.4,0,0.5c0,0.1,0.1,0.2,0.2,0.3
		c0.1,0.1,0.2,0.1,0.4,0.2c0.5,0.2,1,0.4,1.5,0.5c0.6,0.1,1.1,0.2,1.8,0.2C200,39,200.6,39,201.2,39L201.2,39z"/>
	<path class="st0" d="M220.9,25.5c-0.1,0-0.1,0-0.1,0c0,0-0.1-0.1-0.1-0.2v-0.6c0-1.1,0-2.1,0-2.9c0-0.8,0-1.4,0-1.9
		c0-0.5,0-0.9,0-1.2c0-0.3,0-0.6,0-0.8c0-0.5,0.1-0.9,0.3-1.2c0.2-0.2,0.5-0.4,0.9-0.5c0.2,0,0.3-0.1,0.5-0.1c0.1,0,0.3,0,0.4,0
		c0.2,0,0.3,0,0.4-0.1c0.1-0.1,0.1-0.1,0.1-0.2c0-0.1-0.1-0.2-0.2-0.2c-0.1,0-0.3-0.1-0.5-0.1c-0.3,0-0.7,0-1.1,0
		c-0.4,0-0.8,0-1.2,0c-0.4,0-0.8,0-1.1,0c-0.3,0-0.6,0-0.8,0c-0.3,0-0.7,0-1.2,0c-0.5,0-1.1,0-1.7,0c-0.6,0-1.2,0-1.8,0
		c-0.2,0-0.4,0-0.5,0.1c-0.1,0-0.2,0.1-0.2,0.2c0,0.1,0.1,0.2,0.1,0.2c0.1,0.1,0.2,0.1,0.4,0.1c0.2,0,0.5,0,0.7,0
		c0.2,0,0.4,0,0.5,0.1c0.3,0.1,0.6,0.2,0.8,0.3c0.2,0.1,0.3,0.3,0.4,0.5c0.1,0.2,0.1,0.5,0.2,0.8c0,0.2,0,0.4,0,0.6
		c0,0.2,0,0.5,0,0.8c0,0.3,0,0.7,0,1.1c0,0.4,0,1,0,1.6c0,0.6,0,1.4,0,2.3v5.4c0,0.9,0,1.8,0,2.6c0,0.8,0,1.6,0,2.2
		c0,0.7-0.1,1.2-0.1,1.6c0,0.4-0.1,0.8-0.3,1.1c-0.1,0.3-0.4,0.5-0.7,0.5c-0.1,0-0.3,0.1-0.5,0.1c-0.2,0-0.4,0-0.6,0
		c-0.2,0-0.3,0-0.4,0.1c-0.1,0.1-0.1,0.1-0.1,0.2c0,0.1,0.1,0.2,0.2,0.2c0.1,0.1,0.3,0.1,0.5,0.1c0.3,0,0.7,0,1.1,0
		c0.4,0,0.8,0,1.2,0c0.4,0,0.7,0,1.1,0c0.3,0,0.6,0,0.8,0c0.3,0,0.7,0,1.3,0c0.5,0,1.1,0,1.8,0c0.7,0,1.3,0,2,0c0.2,0,0.4,0,0.5-0.1
		c0.1-0.1,0.2-0.1,0.2-0.2c0-0.1,0-0.1-0.1-0.2c-0.1-0.1-0.2-0.1-0.4-0.1c-0.2,0-0.3,0-0.5,0c-0.2,0-0.4,0-0.6,0
		c-0.2,0-0.4,0-0.5-0.1c-0.3,0-0.5-0.1-0.7-0.3c-0.2-0.1-0.3-0.3-0.4-0.5c-0.1-0.2-0.1-0.5-0.2-0.8c0-0.4-0.1-1-0.1-1.6
		c0-0.6,0-1.4-0.1-2.2c0-0.8,0-1.7,0-2.6v-2.3c0-0.1,0-0.1,0.1-0.1c0,0,0.1,0,0.1,0h11.9c0,0,0.1,0,0.1,0c0,0,0.1,0.1,0.1,0.1v2.3
		c0,0.9,0,1.8,0,2.6c0,0.8,0,1.5,0,2.2c0,0.6-0.1,1.2-0.1,1.6c0,0.4-0.1,0.8-0.3,1.1c-0.1,0.3-0.4,0.5-0.7,0.5
		c-0.1,0-0.3,0.1-0.5,0.1c-0.2,0-0.4,0-0.7,0c-0.2,0-0.3,0-0.4,0.1c-0.1,0.1-0.1,0.1-0.1,0.2c0,0.1,0.1,0.2,0.2,0.2
		c0.1,0.1,0.3,0.1,0.5,0.1c0.3,0,0.7,0,1.1,0c0.4,0,0.8,0,1.2,0c0.4,0,0.8,0,1.1,0c0.3,0,0.6,0,0.8,0c0.3,0,0.7,0,1.2,0
		c0.5,0,1.1,0,1.8,0c0.6,0,1.3,0,2,0c0.2,0,0.4,0,0.5-0.1c0.1-0.1,0.2-0.1,0.2-0.2c0-0.1,0-0.1-0.1-0.2c-0.1-0.1-0.2-0.1-0.4-0.1
		c-0.3,0-0.5,0-0.8,0c-0.3,0-0.6,0-0.8-0.1c-0.3,0-0.6-0.1-0.7-0.3c-0.2-0.1-0.3-0.3-0.4-0.5c-0.1-0.2-0.1-0.5-0.2-0.8
		c0-0.4-0.1-1-0.1-1.7c0-0.7,0-1.4,0-2.2c0-0.8,0-1.7,0-2.6v-5.4c0-0.9,0-1.7,0-2.3c0-0.6,0-1.2,0-1.6c0-0.4,0-0.8,0-1.1
		c0-0.3,0-0.5,0-0.8c0-0.2,0-0.4,0-0.6c0-0.5,0.1-0.9,0.3-1.2c0.2-0.2,0.4-0.4,0.9-0.5c0.2,0,0.4-0.1,0.5-0.1c0.1,0,0.3,0,0.4,0
		c0.2,0,0.3,0,0.4-0.1c0.1-0.1,0.1-0.1,0.1-0.2c0-0.1-0.1-0.2-0.2-0.2c-0.1,0-0.3-0.1-0.5-0.1c-0.3,0-0.7,0-1,0c-0.4,0-0.8,0-1.2,0
		c-0.4,0-0.7,0-1.1,0c-0.3,0-0.6,0-0.8,0c-0.2,0-0.5,0-0.8,0c-0.4,0-0.8,0-1.2,0c-0.4,0-0.9,0-1.3,0c-0.5,0-0.9,0-1.3,0
		c-0.2,0-0.4,0-0.5,0.1c-0.1,0-0.2,0.1-0.2,0.2c0,0.2,0.2,0.3,0.5,0.3c0.2,0,0.4,0,0.7,0c0.2,0,0.4,0,0.5,0.1
		c0.3,0.1,0.6,0.2,0.8,0.3c0.2,0.1,0.3,0.3,0.4,0.5c0.1,0.2,0.1,0.5,0.2,0.8c0,0.2,0,0.5,0,0.8c0,0.3,0,0.7,0,1.2c0,0.5,0,1.1,0,1.9
		c0,0.8,0,1.7,0,2.9v0.6c0,0.1,0,0.1-0.1,0.2c0,0-0.1,0-0.1,0H220.9L220.9,25.5z M256.2,30.9c0.1,0,0.1,0,0.2,0
		c0.1,0,0.1,0.1,0.1,0.2l2.4,6.1c0.1,0.2,0.1,0.3,0,0.5c-0.1,0.1-0.2,0.2-0.3,0.2c-0.2,0-0.3,0.1-0.3,0.1c-0.1,0.1-0.1,0.1-0.1,0.2
		c0,0.1,0.1,0.2,0.2,0.2c0.2,0,0.4,0,0.7,0.1c0.9,0,1.7,0,2.5,0c0.8,0,1.5,0,2.1,0c0.6,0,1.1,0,1.5,0c0.4,0,0.7,0,0.9,0
		c0.2,0,0.3,0,0.4-0.1c0.1,0,0.1-0.1,0.1-0.2c0-0.2-0.1-0.3-0.4-0.3c-0.2,0-0.4,0-0.5,0c-0.2,0-0.4,0-0.6-0.1
		c-0.1,0-0.3-0.1-0.5-0.2c-0.2-0.1-0.4-0.3-0.6-0.5c-0.2-0.2-0.5-0.5-0.7-1c-0.3-0.4-0.5-1-0.9-1.6c-0.3-0.7-0.6-1.5-1-2.4
		c-0.4-0.9-0.8-1.9-1.3-3c-0.5-1.1-0.9-2.2-1.4-3.3c-0.5-1.1-1-2.2-1.4-3.3c-0.5-1.1-0.9-2.1-1.3-3c-0.4-0.9-0.7-1.7-1-2.3
		c-0.3-0.6-0.5-1.1-0.6-1.3c-0.1-0.2-0.2-0.4-0.3-0.6c-0.1-0.1-0.2-0.2-0.3-0.3c-0.1-0.1-0.2-0.1-0.4-0.1c-0.2,0-0.3,0.1-0.5,0.3
		c-0.1,0.2-0.3,0.5-0.5,0.9l-8.2,19.1c-0.2,0.5-0.4,1-0.6,1.3c-0.2,0.4-0.5,0.7-0.8,0.9c-0.3,0.2-0.7,0.4-1.2,0.4
		c-0.1,0-0.3,0-0.5,0c-0.2,0-0.3,0-0.5,0c-0.1,0-0.2,0-0.3,0.1c-0.1,0.1-0.1,0.1-0.1,0.2c0,0.1,0,0.2,0.1,0.3c0.1,0,0.2,0.1,0.4,0.1
		c0.6,0,1.1,0,1.6,0c0.5,0,1,0,1.3,0c0.4,0,0.6,0,0.7,0c0.3,0,0.7,0,1.1,0c0.4,0,0.8,0,1.2,0c0.4,0,0.8,0,1.1,0c0.2,0,0.3,0,0.4-0.1
		c0.1,0,0.1-0.1,0.1-0.3c0-0.1,0-0.2-0.1-0.2c-0.1-0.1-0.2-0.1-0.4-0.1h-0.5c-0.5,0-0.8-0.1-1-0.2c-0.2-0.1-0.3-0.4-0.3-0.6
		c0-0.2,0-0.4,0.1-0.8c0.1-0.3,0.2-0.7,0.4-1.1l1.7-4.1c0-0.1,0.1-0.1,0.1-0.2c0,0,0.1,0,0.2,0H256.2L256.2,30.9z M249.4,29.3
		c-0.1,0-0.1,0-0.1-0.1c0,0,0-0.1,0-0.2l3-7.7c0-0.1,0-0.1,0.1-0.2c0-0.1,0.1-0.1,0.1-0.1c0,0,0.1,0,0.1,0.1c0,0.1,0,0.1,0.1,0.2
		l3,7.7c0,0.1,0,0.1,0,0.1c0,0-0.1,0-0.1,0H249.4L249.4,29.3z M272.1,37.9c0.1,0.4,0.3,0.7,0.4,0.8c0.1,0.2,0.3,0.3,0.5,0.3
		c0.1,0,0.3,0,0.4-0.1c0.1-0.1,0.2-0.3,0.4-0.5c0.1-0.2,0.3-0.6,0.5-1c0.2-0.4,0.4-1,0.7-1.6c0.3-0.7,0.6-1.4,1-2.3
		c0.3-0.9,0.7-1.7,1.1-2.7c0.4-0.9,0.7-1.8,1.1-2.7c0.4-0.9,0.7-1.7,1-2.5c0.3-0.8,0.6-1.4,0.8-1.9c0.2-0.5,0.4-0.9,0.4-1.1h0.1
		l6.4,15c0.2,0.5,0.4,0.9,0.6,1.1c0.2,0.2,0.3,0.3,0.5,0.3c0.2,0,0.4-0.1,0.5-0.3c0.1-0.2,0.3-0.6,0.5-1.1c0.3-0.8,0.6-1.6,0.9-2.6
		c0.3-1,0.7-2.1,1.1-3.2c0.4-1.1,0.8-2.3,1.2-3.4c0.4-1.2,0.8-2.3,1.2-3.4c0.4-1.1,0.7-2.1,1.1-3c0.3-0.9,0.6-1.7,0.9-2.3
		c0.2-0.6,0.4-1.1,0.6-1.5c0.2-0.4,0.4-0.8,0.5-1.1c0.2-0.3,0.4-0.5,0.6-0.6c0.2-0.1,0.4-0.1,0.6-0.1c0.2,0,0.4,0,0.5,0
		c0.1,0,0.3,0,0.3-0.1c0.1-0.1,0.1-0.1,0.1-0.3c0-0.1-0.1-0.2-0.1-0.2c-0.1,0-0.2-0.1-0.4-0.1c-0.4,0-0.7,0-1.1,0c-0.4,0-0.7,0-1,0
		c-0.3,0-0.5,0-0.5,0c-0.1,0-0.3,0-0.6,0c-0.3,0-0.7,0-1.2,0c-0.5,0-1,0-1.5,0c-0.3,0-0.4,0-0.6,0.1c-0.1,0-0.2,0.1-0.2,0.2
		c0,0.1,0.1,0.2,0.2,0.2c0.1,0.1,0.2,0.1,0.4,0.1c0.4,0,0.7,0,1,0.1c0.2,0.1,0.4,0.2,0.5,0.3c0.1,0.1,0.1,0.3,0.1,0.4
		c0,0.2,0,0.5-0.1,0.8c-0.1,0.3-0.1,0.6-0.2,1c-0.2,0.6-0.4,1.3-0.6,2.1c-0.2,0.8-0.5,1.6-0.8,2.5c-0.3,0.9-0.5,1.8-0.8,2.7
		c-0.3,0.9-0.5,1.7-0.8,2.5c-0.2,0.8-0.5,1.5-0.6,2.1c-0.2,0.6-0.3,1-0.4,1.3h-0.1l-6.3-15c-0.2-0.5-0.4-0.8-0.5-1.1
		c-0.2-0.2-0.3-0.4-0.5-0.4c-0.1,0-0.3,0.1-0.5,0.2c-0.2,0.2-0.3,0.5-0.5,0.9l-6,15.5h-0.1c-0.1-0.2-0.2-0.5-0.3-1
		c-0.1-0.5-0.3-1.1-0.5-1.7c-0.2-0.7-0.4-1.4-0.7-2.2c-0.2-0.8-0.5-1.5-0.7-2.3c-0.2-0.8-0.5-1.5-0.7-2.2c-0.2-0.7-0.4-1.3-0.6-1.9
		c-0.2-0.5-0.3-1-0.4-1.3c-0.2-0.7-0.4-1.3-0.5-1.8c-0.1-0.5-0.2-0.8-0.2-1c0-0.2,0-0.3,0.1-0.4c0-0.1,0.1-0.2,0.3-0.2
		c0.1,0,0.3-0.1,0.4-0.1c0.1,0,0.3,0,0.4,0c0.2,0,0.3,0,0.4-0.1c0.1-0.1,0.2-0.1,0.2-0.2c0-0.1-0.1-0.2-0.2-0.2
		c-0.1,0-0.3-0.1-0.5-0.1c-0.6,0-1.2,0-1.7,0c-0.5,0-0.9,0-1.3,0c-0.3,0-0.6,0-0.7,0c-0.1,0-0.2,0-0.5,0c-0.2,0-0.5,0-0.9,0
		c-0.3,0-0.7,0-1.1,0c-0.4,0-0.8,0-1.2,0c-0.2,0-0.4,0-0.5,0.1c-0.1,0-0.2,0.1-0.2,0.2c0,0.1,0,0.2,0.1,0.2c0.1,0.1,0.2,0.1,0.4,0.1
		c0.1,0,0.2,0,0.4,0c0.1,0,0.3,0,0.5,0.1c0.1,0,0.3,0.1,0.4,0.2c0.2,0.1,0.4,0.4,0.6,0.7c0.2,0.4,0.3,0.8,0.5,1.4L272.1,37.9
		L272.1,37.9z"/>
	<path class="st1" d="M310.3,31.2c0,0.6,0.1,1.3,0.3,2c0.2,0.7,0.5,1.4,1,2.1c0.5,0.7,1.1,1.3,1.8,1.9c0.8,0.6,1.7,1,2.8,1.4
		c1.1,0.3,2.4,0.5,4,0.5c1.2,0,2.3-0.1,3.2-0.4c0.9-0.2,1.7-0.5,2.4-0.9c0.7-0.3,1.2-0.7,1.7-1.1c0.5-0.4,0.8-0.7,1.1-1
		c0.6,0.5,1.2,0.9,1.7,1.2c0.5,0.3,1,0.6,1.5,0.8c0.5,0.2,1,0.4,1.5,0.5c0.5,0.1,1.1,0.2,1.7,0.2c0.6,0,1.3,0.1,2.1,0.1h2.8
		c0.4,0,0.7,0,0.8-0.1c0.2-0.1,0.2-0.1,0.2-0.2c0-0.1,0-0.2-0.1-0.3c-0.1,0-0.2-0.1-0.4-0.1c-0.2,0-0.4,0-0.7-0.1
		c-0.3-0.1-0.6-0.2-1-0.3c-0.4-0.1-0.7-0.2-1.1-0.4c-0.4-0.1-0.7-0.3-1-0.5c-0.3-0.2-0.7-0.4-1.2-0.7c-0.5-0.3-1-0.7-1.6-1.1
		c-0.6-0.5-1.3-1-2.1-1.7c0.7-0.8,1.3-1.7,1.8-2.6c0.5-1,0.9-1.9,1.2-2.9c0.3-1,0.4-2,0.5-2.9c0-0.2-0.1-0.4-0.4-0.5
		c-0.2-0.1-0.5-0.2-0.9-0.2c-1-0.1-1.9-0.2-2.6-0.2c-0.7,0-1.3,0-1.7,0c-0.1,0-0.3,0-0.4,0.1c-0.1,0-0.2,0.1-0.2,0.3
		c0,0.1,0,0.2,0.1,0.2c0.1,0,0.2,0.1,0.3,0.1c0.2,0,0.4,0,0.6,0c0.2,0,0.4,0.1,0.6,0.2c0.2,0.1,0.4,0.2,0.5,0.3
		c0.3,0.2,0.4,0.5,0.5,0.8c0.1,0.3,0.1,0.6,0.1,0.9c0,0.7-0.1,1.5-0.3,2.2c-0.2,0.7-0.4,1.4-0.7,1.9c-0.3,0.6-0.5,1-0.8,1.4
		c-0.1-0.1-0.4-0.4-0.8-0.7c-0.4-0.4-0.8-0.8-1.4-1.2c-0.5-0.5-1-1-1.6-1.5c-0.5-0.5-1-1-1.5-1.4c-0.4-0.4-0.8-0.8-1.1-1.1
		c-0.7-0.8-1.4-1.6-2.1-2.3c-0.7-0.8-1.3-1.5-1.9-2.3c-0.6-0.8-1-1.5-1.4-2.3c-0.3-0.8-0.5-1.6-0.5-2.4c0-0.8,0.1-1.4,0.4-1.9
		c0.2-0.5,0.6-0.9,1-1.3c0.4-0.3,0.8-0.5,1.2-0.7c0.4-0.1,0.9-0.2,1.2-0.2c0.7,0,1.3,0.1,1.8,0.2c0.5,0.1,0.9,0.3,1.3,0.6
		c0.4,0.2,0.7,0.5,0.9,0.8c0.4,0.5,0.7,1,0.8,1.5c0.2,0.5,0.2,1,0.2,1.5c0,0.3,0,0.4,0,0.5c0,0.1,0.1,0.1,0.2,0.1
		c0.1,0,0.2,0,0.3-0.1c0.1-0.1,0.1-0.2,0.2-0.5c0-0.1,0-0.3,0.1-0.6c0-0.3,0.1-0.6,0.1-0.9c0-0.4,0.1-0.7,0.1-1.1
		c0-0.4,0.1-0.7,0.1-1.1c0-0.3,0-0.6,0-0.9c0-0.1,0-0.3,0-0.4c0-0.1-0.1-0.2-0.2-0.3c-0.1-0.1-0.2-0.2-0.4-0.2
		c-0.3-0.1-0.7-0.3-1.2-0.4c-0.4-0.1-0.9-0.2-1.5-0.3c-0.5-0.1-1.1-0.1-1.7-0.1c-1.2,0-2.3,0.1-3.3,0.4c-1,0.3-1.8,0.6-2.5,1.1
		c-0.7,0.5-1.2,1-1.7,1.5c-0.4,0.6-0.8,1.2-1,1.8c-0.2,0.6-0.3,1.2-0.3,1.8c0,0.5,0.1,1.1,0.2,1.6c0.1,0.5,0.3,1.1,0.5,1.6
		c0.3,0.6,0.6,1.2,1.1,1.8c-0.4,0.2-0.9,0.5-1.4,0.9c-0.5,0.4-1,0.8-1.5,1.3c-0.5,0.5-1,1.1-1.4,1.8c-0.4,0.6-0.8,1.4-1,2.1
		C310.4,29.6,310.3,30.4,310.3,31.2L310.3,31.2z M321.4,36.8c-0.9,0-1.8-0.2-2.6-0.5c-0.8-0.3-1.6-0.8-2.2-1.5
		c-0.6-0.6-1.1-1.4-1.5-2.3c-0.4-0.9-0.5-1.9-0.5-3c0-1,0.1-1.8,0.4-2.5c0.2-0.7,0.5-1.3,0.9-1.8c0.4-0.5,0.8-0.9,1.2-1.2
		c0.2,0.2,0.4,0.5,0.7,0.9c0.3,0.4,0.7,0.8,1.1,1.3c0.4,0.4,0.8,0.9,1.1,1.3c0.4,0.4,0.7,0.7,0.9,1c0.2,0.2,0.5,0.5,0.8,0.9
		c0.4,0.4,0.8,0.8,1.2,1.2c0.5,0.5,1,0.9,1.5,1.4c0.5,0.5,1,1,1.5,1.4c0.5,0.5,1,0.9,1.4,1.2c-0.2,0.2-0.5,0.4-0.8,0.6
		c-0.4,0.2-0.8,0.5-1.3,0.7c-0.5,0.2-1.1,0.4-1.7,0.6C322.7,36.8,322.1,36.8,321.4,36.8L321.4,36.8z"/>
	<path d="M119.9,58.5c-0.1,0-0.1,0-0.1-0.1c0,0-0.1-0.1-0.1-0.2v-0.7c0-1.1,0-2,0-2.7c0-0.8,0-1.4,0-1.9c0-0.5,0-0.9,0-1.3
		c0-0.3,0-0.6,0-0.9c0-0.2,0-0.5,0-0.7c0-0.6,0.1-1.1,0.3-1.4c0.2-0.3,0.5-0.5,1-0.6c0.2,0,0.4-0.1,0.6-0.1c0.2,0,0.3,0,0.5,0
		c0.2,0,0.4,0,0.5-0.1c0.1,0,0.2-0.1,0.2-0.3c0-0.1-0.1-0.2-0.2-0.3c-0.1,0-0.3-0.1-0.6-0.1c-0.3,0-0.7,0-1.2,0c-0.4,0-0.8,0-1.3,0
		c-0.4,0-0.8,0-1.2,0c-0.4,0-0.6,0-0.9,0c-0.3,0-0.8,0-1.3,0c-0.6,0-1.2,0-1.8,0c-0.7,0-1.3,0-2,0c-0.2,0-0.4,0-0.6,0.1
		c-0.1,0-0.2,0.1-0.2,0.3c0,0.1,0.1,0.2,0.2,0.3c0.1,0,0.3,0.1,0.4,0.1c0.3,0,0.5,0,0.8,0c0.3,0,0.5,0,0.6,0.1
		c0.4,0.1,0.7,0.2,0.9,0.4c0.2,0.2,0.4,0.4,0.5,0.6c0.1,0.3,0.1,0.6,0.2,1c0,0.2,0,0.5,0,0.7c0,0.2,0,0.5,0,0.9c0,0.3,0,0.8,0,1.3
		c0,0.5,0,1.1,0,1.9c0,0.8,0,1.7,0,2.7v6.2c0,1.1,0,2.1,0,3.1c0,1,0,1.8,0,2.6c0,0.8-0.1,1.4-0.1,1.9c0,0.3-0.1,0.7-0.2,0.9
		c-0.1,0.3-0.2,0.5-0.3,0.7c-0.1,0.2-0.3,0.3-0.5,0.3c-0.2,0-0.3,0.1-0.6,0.1c-0.2,0-0.5,0-0.7,0c-0.2,0-0.4,0-0.4,0.1
		c-0.1,0-0.1,0.1-0.1,0.2c0,0.1,0.1,0.2,0.2,0.3c0.1,0.1,0.3,0.1,0.5,0.1c0.4,0,0.8,0,1.2,0c0.4,0,0.8,0,1.3,0c0.4,0,0.8,0,1.2,0
		c0.3,0,0.6,0,0.8,0c0.3,0,0.8,0,1.4,0c0.6,0,1.2,0,1.9,0c0.7,0,1.5,0,2.2,0c0.2,0,0.4,0,0.5-0.1c0.1-0.1,0.2-0.1,0.2-0.3
		c0-0.1,0-0.2-0.1-0.2c-0.1-0.1-0.2-0.1-0.4-0.1c-0.2,0-0.4,0-0.6,0c-0.2,0-0.4,0-0.6-0.1c-0.2,0-0.4,0-0.6-0.1
		c-0.3,0-0.6-0.2-0.8-0.3c-0.2-0.2-0.3-0.4-0.4-0.7c-0.1-0.3-0.1-0.6-0.2-0.9c-0.1-0.5-0.1-1.1-0.1-1.9c0-0.8,0-1.6,0-2.6
		c0-1,0-2,0-3.1v-3.1c0-0.1,0-0.1,0.1-0.2c0,0,0.1,0,0.1,0h13.5c0.1,0,0.1,0,0.1,0.1c0,0,0.1,0.1,0.1,0.2v3.1c0,1.1,0,2.1,0,3.1
		c0,1,0,1.8,0,2.6c0,0.8-0.1,1.4-0.1,1.9c0,0.3-0.1,0.7-0.2,0.9c-0.1,0.3-0.2,0.5-0.3,0.7c-0.1,0.2-0.3,0.3-0.5,0.3
		c-0.2,0-0.3,0.1-0.6,0.1c-0.2,0-0.5,0-0.7,0c-0.2,0-0.4,0-0.4,0.1c-0.1,0-0.1,0.1-0.1,0.2c0,0.1,0.1,0.2,0.2,0.3
		c0.1,0.1,0.3,0.1,0.6,0.1c0.4,0,0.7,0,1.2,0c0.4,0,0.8,0,1.3,0c0.4,0,0.8,0,1.2,0c0.3,0,0.6,0,0.8,0c0.3,0,0.8,0,1.4,0
		c0.6,0,1.2,0,1.9,0c0.7,0,1.5,0,2.2,0c0.2,0,0.4,0,0.5-0.1c0.1-0.1,0.2-0.1,0.2-0.3c0-0.1,0-0.2-0.1-0.2c-0.1-0.1-0.2-0.1-0.4-0.1
		c-0.2,0-0.4,0-0.6,0c-0.2,0-0.4,0-0.6-0.1c-0.2,0-0.4,0-0.6-0.1c-0.3,0-0.6-0.2-0.8-0.3c-0.2-0.2-0.3-0.4-0.4-0.7
		c-0.1-0.3-0.1-0.6-0.2-0.9c-0.1-0.5-0.1-1.1-0.1-1.9c0-0.8,0-1.6,0-2.6c0-1,0-2,0-3.1v-6.2c0-1.1,0-2,0-2.7c0-0.8,0-1.4,0-1.9
		c0-0.5,0-0.9,0-1.3c0-0.3,0-0.6,0-0.9c0-0.2,0-0.5,0-0.7c0-0.6,0.1-1.1,0.3-1.4c0.2-0.3,0.5-0.5,1-0.6c0.2,0,0.4-0.1,0.6-0.1
		c0.2,0,0.3,0,0.5,0c0.2,0,0.4,0,0.5-0.1c0.1,0,0.2-0.1,0.2-0.3c0-0.1-0.1-0.2-0.2-0.3c-0.1,0-0.3-0.1-0.6-0.1c-0.3,0-0.7,0-1.2,0
		c-0.4,0-0.8,0-1.3,0c-0.4,0-0.8,0-1.2,0c-0.4,0-0.6,0-0.9,0c-0.2,0-0.6,0-0.9,0c-0.4,0-0.8,0-1.3,0c-0.5,0-0.9,0-1.4,0
		c-0.5,0-1,0-1.5,0c-0.2,0-0.4,0-0.6,0.1c-0.1,0-0.2,0.1-0.2,0.3c0,0.1,0.1,0.2,0.2,0.3c0.1,0,0.3,0.1,0.4,0.1c0.3,0,0.5,0,0.8,0
		c0.3,0,0.5,0,0.6,0.1c0.4,0.1,0.7,0.2,0.9,0.4c0.2,0.2,0.4,0.4,0.5,0.6c0.1,0.3,0.1,0.6,0.2,1c0,0.2,0,0.5,0,0.7c0,0.2,0,0.5,0,0.9
		c0,0.3,0,0.8,0,1.3c0,0.5,0,1.1,0,1.9c0,0.8,0,1.7,0,2.7v0.7c0,0.1,0,0.2-0.1,0.2c0,0-0.1,0.1-0.1,0.1H119.9L119.9,58.5z
		 M148.2,65.3c0,0.9,0,1.8,0,2.6c0,0.8,0,1.5,0,2.2c0,0.6-0.1,1.2-0.1,1.6c0,0.4-0.1,0.8-0.3,1.1c-0.1,0.3-0.3,0.4-0.7,0.5
		c-0.1,0-0.3,0.1-0.5,0.1c-0.2,0-0.4,0-0.6,0c-0.2,0-0.3,0-0.4,0.1c-0.1,0.1-0.1,0.1-0.1,0.2c0,0.1,0.1,0.2,0.2,0.2
		c0.1,0.1,0.3,0.1,0.4,0.1c0.3,0,0.7,0,1,0c0.4,0,0.7,0,1.1,0c0.4,0,0.7,0,1,0c0.3,0,0.6,0,0.7,0c0.5,0,1,0,1.6,0c0.6,0,1.3,0,2,0
		c0.8,0,1.6,0.1,2.6,0.1c0.9,0,2,0,3.2,0c0.4,0,0.7,0,0.9,0c0.2,0,0.4-0.1,0.5-0.2c0.1-0.1,0.2-0.3,0.3-0.5c0-0.2,0.1-0.4,0.1-0.7
		c0-0.3,0.1-0.6,0.1-1c0-0.3,0.1-0.7,0.1-1c0-0.3,0-0.5,0-0.7c0-0.2,0-0.3,0-0.5c0-0.1-0.1-0.2-0.2-0.2c-0.1,0-0.2,0-0.2,0.1
		c0,0.1-0.1,0.2-0.1,0.3c-0.1,0.6-0.3,1.1-0.5,1.4c-0.2,0.4-0.5,0.6-0.9,0.8c-0.3,0.1-0.6,0.2-0.9,0.3c-0.3,0.1-0.7,0.1-1,0.1
		c-0.4,0-0.7,0-0.9,0c-1.1,0-1.9-0.1-2.5-0.2c-0.6-0.1-1-0.4-1.3-0.8c-0.3-0.4-0.4-0.9-0.4-1.6c0-0.2,0-0.5,0-0.9c0-0.4,0-0.8,0-1.2
		c0-0.4,0-0.9,0-1.3c0-0.4,0-0.7,0-1V63c0-0.1,0-0.2,0-0.2c0-0.1,0.1-0.1,0.1-0.1c0.2,0,0.4,0,0.8,0c0.3,0,0.7,0,1.1,0
		c0.4,0,0.8,0,1.2,0c0.4,0,0.8,0,1.1,0c0.3,0,0.5,0,0.6,0c0.4,0,0.7,0.1,0.9,0.2c0.2,0.1,0.4,0.2,0.5,0.4c0.1,0.2,0.2,0.3,0.3,0.5
		c0,0.2,0.1,0.4,0.1,0.6c0,0.2,0,0.4,0,0.5c0,0.1,0,0.1,0.1,0.2c0,0,0.1,0.1,0.2,0.1c0.1,0,0.2,0,0.2-0.1c0-0.1,0.1-0.2,0.1-0.3
		c0-0.1,0-0.2,0-0.3c0-0.1,0-0.2,0-0.3c0-0.2,0-0.3,0-0.5c0-0.2,0-0.4,0-0.6c0-0.2,0-0.4,0.1-0.5c0.1-0.5,0.1-0.9,0.1-1.2
		c0-0.3,0.1-0.5,0.1-0.7c0-0.1,0-0.3,0-0.3c0-0.1,0-0.2-0.1-0.2c0-0.1-0.1-0.1-0.2-0.1c-0.1,0-0.1,0-0.2,0.1
		c-0.1,0.1-0.2,0.2-0.3,0.3c-0.1,0.2-0.3,0.3-0.6,0.3c-0.2,0.1-0.5,0.1-0.9,0.1c-0.1,0-0.4,0-0.8,0c-0.4,0-0.8,0-1.2,0
		c-0.5,0-0.9,0-1.4,0c-0.5,0-0.9,0-1.2,0c-0.4,0-0.6,0-0.8,0c-0.1,0-0.1,0-0.2-0.1c0-0.1,0-0.1,0-0.2v-7.4c0-0.1,0-0.2,0.1-0.2
		c0-0.1,0.1-0.1,0.2-0.1c0.1,0,0.4,0,0.7,0c0.3,0,0.7,0,1.1,0c0.4,0,0.9,0,1.3,0c0.4,0,0.8,0,1.1,0c0.3,0,0.5,0,0.6,0
		c0.5,0,0.9,0.1,1.2,0.2c0.3,0.1,0.5,0.2,0.6,0.4c0.1,0.1,0.2,0.3,0.3,0.5c0.1,0.1,0.1,0.3,0.1,0.4c0,0.1,0,0.3,0.1,0.4
		c0,0.1,0,0.2,0,0.3c0,0.1,0,0.2,0,0.3c0,0.1,0.1,0.1,0.2,0.1c0.1,0,0.1,0,0.2-0.1c0-0.1,0.1-0.1,0.1-0.2c0-0.1,0-0.1,0.1-0.2
		c0-0.1,0-0.2,0.1-0.4c0-0.2,0-0.4,0-0.6c0-0.2,0-0.4,0-0.6c0-0.2,0-0.3,0-0.4c0-0.5,0.1-0.8,0.1-1.1c0-0.3,0.1-0.5,0.1-0.6
		c0-0.1,0-0.2,0-0.3c0-0.1,0-0.1,0-0.2c0-0.1-0.1-0.1-0.2-0.1c-0.1,0-0.1,0-0.2,0.1c-0.1,0-0.2,0.1-0.3,0.1c-0.1,0-0.3,0-0.5,0.1
		c-0.2,0-0.5,0.1-0.8,0.1c-0.1,0-0.4,0-0.8,0c-0.4,0-0.9,0-1.5,0c-0.6,0-1.2,0-1.8,0c-0.7,0-1.3,0-1.9,0c-0.6,0-1.1,0-1.6,0
		c-0.4,0-0.8,0-0.9,0c-0.3,0-0.7,0-1.2,0c-0.5,0-1,0-1.6,0c-0.6,0-1.1,0-1.7,0c-0.2,0-0.4,0-0.5,0.1c-0.1,0-0.2,0.1-0.2,0.2
		c0,0.1,0.1,0.2,0.1,0.2c0.1,0.1,0.2,0.1,0.4,0.1c0.2,0,0.5,0,0.7,0c0.2,0,0.4,0,0.5,0.1c0.3,0.1,0.6,0.2,0.8,0.3
		c0.2,0.1,0.3,0.3,0.4,0.5c0.1,0.2,0.1,0.5,0.2,0.8c0,0.2,0,0.4,0,0.6c0,0.2,0,0.5,0,0.7c0,0.3,0,0.7,0,1.1c0,0.4,0,1,0,1.6
		c0,0.6,0,1.4,0,2.3V65.3L148.2,65.3z M169.4,57.7h0.1c0.2,0.1,0.5,0.4,0.9,0.9c0.5,0.5,1,1.1,1.7,1.8c0.7,0.7,1.4,1.5,2.2,2.3
		c0.8,0.8,1.6,1.6,2.5,2.5c0.8,0.8,1.7,1.6,2.5,2.4c0.9,0.8,1.7,1.6,2.5,2.4c0.8,0.8,1.6,1.5,2.3,2.2c0.7,0.7,1.3,1.2,1.8,1.7
		c0.2,0.2,0.3,0.3,0.6,0.4c0.2,0.1,0.4,0.2,0.7,0.2c0.1,0,0.2-0.1,0.3-0.2c0.1-0.2,0.1-0.4,0.2-0.7l0.4-18.9c0-0.6,0-1,0.1-1.3
		c0.1-0.3,0.2-0.6,0.3-0.8c0.2-0.2,0.4-0.3,0.7-0.4c0.2-0.1,0.4-0.1,0.5-0.1c0.1,0,0.3,0,0.4,0c0.2,0,0.3,0,0.4-0.1
		c0.1-0.1,0.1-0.1,0.1-0.2c0-0.1-0.1-0.2-0.2-0.2c-0.1,0-0.3-0.1-0.5,0c-0.8,0-1.4,0-2,0c-0.5,0-0.9,0-1.1,0c-0.2,0-0.5,0-1,0
		c-0.4,0-0.9,0-1.4,0c-0.5,0-1.1,0-1.6,0c-0.2,0-0.4,0-0.6,0c-0.1,0-0.2,0.1-0.2,0.2c0,0.1,0,0.2,0.1,0.2c0.1,0.1,0.2,0.1,0.4,0.1
		c0.1,0,0.3,0,0.5,0c0.2,0,0.4,0,0.6,0c0.2,0,0.4,0.1,0.5,0.1c0.2,0.1,0.4,0.2,0.6,0.4c0.1,0.2,0.3,0.5,0.3,0.8
		c0.1,0.4,0.1,0.8,0.1,1.4l0.3,13.4h-0.1c-0.1-0.1-0.3-0.3-0.7-0.7c-0.3-0.3-0.8-0.8-1.3-1.3c-0.5-0.5-1-1.1-1.6-1.6
		c-0.6-0.6-1.1-1.1-1.7-1.7c-0.5-0.5-1-1-1.5-1.5c-0.9-0.9-1.8-1.8-2.7-2.7c-0.9-0.9-1.7-1.7-2.5-2.5c-0.8-0.8-1.5-1.5-2.1-2.1
		c-0.6-0.6-1.1-1.1-1.5-1.5c-0.4-0.4-0.6-0.6-0.7-0.7c-0.3-0.3-0.5-0.5-0.7-0.7c-0.2-0.2-0.4-0.3-0.6-0.3c-0.2,0-0.3,0.1-0.4,0.3
		c-0.1,0.2-0.1,0.4-0.1,0.7L167,69.6c0,0.9,0,1.5-0.1,2.1c0,0.5-0.1,0.9-0.3,1.1c-0.1,0.2-0.3,0.4-0.6,0.5c-0.2,0.1-0.5,0.1-0.7,0.1
		c-0.3,0-0.5,0-0.7,0c-0.1,0-0.3,0-0.4,0.1c-0.1,0.1-0.1,0.1-0.1,0.2c0,0.1,0.1,0.2,0.2,0.3c0.1,0,0.3,0.1,0.5,0.1c0.5,0,1,0,1.5,0
		c0.5,0,0.9,0,1.2,0c0.3,0,0.5,0,0.6,0c0.3,0,0.8,0,1.5,0.1c0.7,0,1.5,0,2.6,0.1c0.2,0,0.4,0,0.5-0.1c0.1,0,0.2-0.1,0.2-0.3
		c0-0.1,0-0.2-0.1-0.2c-0.1-0.1-0.2-0.1-0.4-0.1c-0.3,0-0.5,0-0.8,0c-0.3,0-0.6-0.1-0.8-0.2c-0.2-0.1-0.4-0.2-0.5-0.4
		c-0.2-0.2-0.3-0.5-0.4-1c-0.1-0.4-0.1-1.1-0.2-1.8L169.4,57.7L169.4,57.7z M197.5,65.3c0,0.9,0,1.8,0,2.6c0,0.8,0,1.5,0,2.2
		c0,0.6-0.1,1.2-0.1,1.6c0,0.4-0.1,0.8-0.3,1.1c-0.1,0.3-0.3,0.4-0.7,0.5c-0.1,0-0.3,0.1-0.5,0.1c-0.2,0-0.4,0-0.6,0
		c-0.2,0-0.3,0-0.4,0.1c-0.1,0.1-0.1,0.1-0.1,0.2c0,0.1,0.1,0.2,0.2,0.2c0.1,0.1,0.3,0.1,0.4,0.1c0.3,0,0.7,0,1,0c0.4,0,0.7,0,1.1,0
		c0.4,0,0.7,0,1,0c0.3,0,0.5,0,0.7,0c0.1,0,0.4,0,0.7,0c0.3,0,0.8,0,1.2,0c0.5,0,1,0,1.5,0c0.5,0,1,0,1.4,0c0.2,0,0.4,0,0.5-0.1
		c0.1-0.1,0.2-0.1,0.2-0.2c0-0.1,0-0.1-0.1-0.2c-0.1-0.1-0.2-0.1-0.3-0.1c-0.1,0-0.3,0-0.5,0c-0.2,0-0.4,0-0.5,0
		c-0.2,0-0.4,0-0.5-0.1c-0.3,0-0.5-0.1-0.7-0.3c-0.2-0.1-0.3-0.3-0.3-0.5c-0.1-0.2-0.1-0.5-0.1-0.8c0-0.4-0.1-1-0.1-1.6
		c0-0.6,0-1.4-0.1-2.2c0-0.8,0-1.7,0-2.6v-0.4c0-0.1,0-0.2,0.1-0.2c0,0,0.1-0.1,0.2-0.1l2.8,0.1c0.1,0,0.2,0,0.3,0
		c0.1,0,0.2,0.1,0.3,0.2c0.1,0.1,0.2,0.3,0.4,0.6c0.2,0.3,0.4,0.6,0.7,1c0.3,0.4,0.6,0.8,0.9,1.2c0.3,0.4,0.6,0.8,0.9,1.3
		c0.6,0.8,1.1,1.5,1.6,2c0.5,0.6,0.9,1.1,1.4,1.5c0.4,0.4,0.9,0.7,1.3,0.9c0.3,0.1,0.6,0.3,0.9,0.3c0.3,0.1,0.7,0.2,1.1,0.2
		c0.4,0,0.9,0.1,1.5,0.1h3c0.2,0,0.3,0,0.4-0.1c0.1,0,0.2-0.1,0.2-0.3c0-0.1,0-0.1-0.1-0.2c-0.1-0.1-0.2-0.1-0.3-0.1
		c-0.1,0-0.2,0-0.3,0c-0.1,0-0.2,0-0.4-0.1c-0.2,0-0.4-0.1-0.7-0.2c-0.3-0.1-0.7-0.3-1.1-0.5c-0.4-0.3-0.9-0.7-1.5-1.3
		c-0.9-0.9-2-2.1-3.1-3.4c-1.1-1.3-2.4-2.9-3.7-4.6c1-0.8,1.8-1.6,2.5-2.3c0.6-0.7,1.1-1.5,1.4-2.2c0.3-0.7,0.4-1.4,0.4-2.2
		c0-0.5-0.1-1-0.2-1.4c-0.1-0.4-0.3-0.8-0.5-1.2c-0.2-0.4-0.5-0.7-0.7-0.9c-0.2-0.3-0.5-0.5-0.7-0.6c-0.6-0.4-1.2-0.6-1.8-0.8
		c-0.7-0.2-1.3-0.3-2-0.4c-0.7-0.1-1.4-0.1-2-0.1c-0.2,0-0.6,0-1,0c-0.4,0-0.9,0-1.4,0c-0.5,0-1,0-1.4,0c-0.4,0-0.8,0-1.1,0
		c-0.2,0-0.4,0-0.7,0c-0.3,0-0.7,0-1,0c-0.4,0-0.8,0-1.2,0c-0.4,0-0.8,0-1.3,0c-0.2,0-0.4,0-0.5,0.1c-0.1,0-0.2,0.1-0.2,0.2
		c0,0.1,0.1,0.2,0.1,0.2c0.1,0.1,0.2,0.1,0.4,0.1c0.2,0,0.5,0,0.7,0c0.2,0,0.4,0,0.5,0.1c0.3,0.1,0.6,0.2,0.8,0.3
		c0.2,0.1,0.3,0.3,0.4,0.5c0.1,0.2,0.1,0.5,0.2,0.8c0,0.2,0,0.4,0,0.6c0,0.2,0,0.5,0,0.7c0,0.3,0,0.7,0,1.1c0,0.4,0,1,0,1.6
		c0,0.6,0,1.4,0,2.3V65.3L197.5,65.3z M201.5,53.4c0-0.1,0-0.2,0.1-0.3c0-0.1,0.1-0.1,0.2-0.1c0.2,0,0.4-0.1,0.7-0.1
		c0.3,0,0.7,0,1.1,0c0.4,0,0.8,0,1.2,0.1c0.4,0.1,0.8,0.3,1.3,0.5c0.4,0.2,0.8,0.6,1.1,1c0.3,0.4,0.6,0.9,0.8,1.5
		c0.2,0.6,0.3,1.3,0.3,2.2c0,0.8-0.1,1.5-0.3,2.1c-0.2,0.6-0.4,1.1-0.8,1.4c-0.3,0.4-0.6,0.7-0.9,0.9c-0.2,0.1-0.3,0.2-0.5,0.3
		c-0.2,0.1-0.4,0.1-0.7,0.2c-0.3,0-0.6,0-1,0c-0.4,0-0.8,0-1.2-0.1c-0.4,0-0.8-0.1-1.1-0.2c-0.1,0-0.2-0.1-0.2-0.2
		c0-0.1-0.1-0.2-0.1-0.3V53.4L201.5,53.4z"/>
	<path d="M224.4,68.7c0,0.2,0,0.4,0,0.7c0,0.3,0,0.7,0,1c0,0.4,0,0.8-0.1,1.2c0,0.4-0.1,0.8-0.3,1.1c-0.1,0.3-0.4,0.4-0.7,0.5
		c-0.1,0-0.3,0.1-0.5,0.1c-0.2,0-0.4,0-0.6,0c-0.2,0-0.3,0-0.4,0.1c-0.1,0.1-0.1,0.1-0.1,0.2c0,0.1,0.1,0.2,0.2,0.3
		c0.1,0,0.3,0.1,0.5,0.1c0.3,0,0.6,0,1,0c0.4,0,0.8,0,1.1,0c0.4,0,0.7,0,1.1,0c0.3,0,0.6,0,0.8,0c0.3,0,0.7,0,1.2,0
		c0.5,0,1.1,0,1.7,0c0.6,0,1.3,0,1.9,0c0.2,0,0.4,0,0.5-0.1c0.1-0.1,0.2-0.1,0.2-0.2c0-0.1,0-0.1-0.1-0.2c-0.1-0.1-0.2-0.1-0.4-0.1
		c-0.2,0-0.5,0-0.8,0c-0.3,0-0.5,0-0.8-0.1c-0.4-0.1-0.8-0.2-1-0.5c-0.2-0.3-0.3-0.6-0.3-1.1c0-0.4,0-0.8,0-1.2c0-0.4,0-0.7,0-1
		c0-0.3,0-0.5,0-0.7v-2.4c0-0.3,0-0.7,0-1c0-0.3,0-0.6,0.1-1c0.1-0.3,0.2-0.7,0.3-1c0.1-0.2,0.3-0.6,0.6-1.1c0.3-0.5,0.6-1.1,1-1.7
		c0.4-0.7,0.8-1.3,1.3-2c0.4-0.7,0.9-1.4,1.3-2c0.4-0.7,0.8-1.2,1.1-1.7c0.3-0.5,0.6-0.8,0.8-1c0.2-0.3,0.4-0.5,0.6-0.7
		c0.2-0.2,0.3-0.3,0.5-0.4c0.2-0.1,0.4-0.2,0.6-0.3c0.2-0.1,0.5-0.2,0.7-0.3c0.2-0.1,0.5-0.1,0.6-0.1c0.2,0,0.3,0,0.4-0.1
		c0.1-0.1,0.2-0.1,0.2-0.3c0-0.1-0.1-0.2-0.1-0.2c-0.1,0-0.2-0.1-0.4-0.1c-0.2,0-0.4,0-0.7,0c-0.3,0-0.6,0-1,0c-0.3,0-0.7,0-1,0
		c-0.3,0-0.5,0-0.7,0c-0.5,0-1,0-1.5,0c-0.5,0-1,0-1.6,0c-0.2,0-0.3,0-0.4,0.1c-0.1,0-0.1,0.1-0.1,0.2c0,0.1,0.1,0.2,0.2,0.2
		c0.1,0,0.2,0.1,0.4,0.1c0.3,0.1,0.4,0.1,0.5,0.3c0.1,0.1,0.1,0.3,0.1,0.4c0,0.2,0,0.4-0.1,0.7c-0.1,0.3-0.2,0.6-0.3,0.9
		c-0.1,0.2-0.2,0.4-0.5,0.9c-0.2,0.4-0.5,0.9-0.8,1.5c-0.3,0.6-0.7,1.2-1,1.8c-0.4,0.6-0.7,1.2-1,1.8c-0.3,0.6-0.6,1-0.8,1.4
		c-0.2,0.4-0.4,0.6-0.4,0.8c-0.1-0.2-0.3-0.4-0.5-0.9c-0.3-0.4-0.6-1-0.9-1.6c-0.4-0.6-0.7-1.2-1.1-1.9c-0.4-0.7-0.8-1.3-1.1-1.9
		c-0.4-0.6-0.7-1.1-0.9-1.6c-0.3-0.4-0.4-0.8-0.5-0.9c-0.1-0.2-0.2-0.4-0.3-0.6c-0.1-0.2-0.1-0.3-0.1-0.4c0-0.1,0-0.2,0.1-0.3
		c0.1-0.1,0.2-0.1,0.3-0.2c0.2-0.1,0.4-0.1,0.5-0.2c0.1,0,0.2-0.1,0.2-0.2c0-0.1,0-0.2-0.1-0.2c-0.1,0-0.2-0.1-0.3-0.1
		c-0.5,0-0.9,0-1.4,0c-0.5,0-0.9,0-1.2,0c-0.4,0-0.7,0-0.9,0c-0.3,0-0.6,0-1,0c-0.4,0-0.8,0-1.2,0c-0.4,0-0.8,0-1.1,0
		c-0.3,0-0.5,0-0.7,0c-0.2,0-0.3,0-0.4,0.1c-0.1,0-0.2,0.1-0.2,0.2c0,0.1,0,0.2,0.1,0.2c0.1,0.1,0.2,0.1,0.3,0.1
		c0.2,0,0.4,0,0.7,0.1c0.2,0.1,0.5,0.2,0.7,0.3c0.3,0.2,0.6,0.4,0.9,0.8c0.3,0.4,0.7,0.8,1.1,1.4c0.2,0.3,0.4,0.7,0.8,1.2
		c0.3,0.5,0.7,1.1,1.1,1.7c0.4,0.6,0.8,1.3,1.2,1.9c0.4,0.6,0.8,1.2,1.2,1.8c0.4,0.6,0.6,1,0.9,1.4c0.2,0.4,0.4,0.6,0.4,0.7
		c0.1,0.3,0.3,0.6,0.4,0.8c0.1,0.3,0.2,0.6,0.2,1c0.1,0.4,0.1,0.8,0.1,1.3V68.7L224.4,68.7z M253.2,63.8c0,1.1,0,2.1,0,3.1
		c0,1,0,1.8,0,2.6c0,0.8-0.1,1.4-0.1,1.9c0,0.3-0.1,0.7-0.2,0.9c-0.1,0.3-0.2,0.5-0.3,0.7c-0.1,0.2-0.3,0.3-0.5,0.3
		c-0.2,0-0.3,0.1-0.6,0.1c-0.2,0-0.5,0-0.7,0c-0.2,0-0.4,0-0.4,0.1c-0.1,0-0.1,0.1-0.1,0.2c0,0.1,0.1,0.2,0.2,0.3
		c0.1,0.1,0.3,0.1,0.5,0.1c0.4,0,0.8,0,1.2,0c0.4,0,0.8,0,1.3,0c0.4,0,0.8,0,1.2,0c0.3,0,0.6,0,0.8,0c0.3,0,0.7,0,1.3,0
		c0.6,0,1.2,0,1.9,0c0.7,0,1.5,0,2.2,0c0.2,0,0.4,0,0.5-0.1c0.1-0.1,0.2-0.1,0.2-0.3c0-0.1,0-0.2-0.1-0.2c-0.1-0.1-0.2-0.1-0.4-0.1
		c-0.2,0-0.4,0-0.6,0c-0.2,0-0.4,0-0.6-0.1c-0.2,0-0.4,0-0.6-0.1c-0.3,0-0.6-0.2-0.8-0.3c-0.2-0.2-0.3-0.4-0.4-0.7
		c-0.1-0.3-0.1-0.6-0.2-0.9c-0.1-0.5-0.1-1.1-0.1-1.9c0-0.8,0-1.6,0-2.6c0-1,0-2,0-3.1V49.6c0-0.2,0-0.3,0.1-0.5
		c0-0.1,0.1-0.2,0.2-0.2c0.2-0.1,0.4-0.1,0.6-0.1c0.2,0,0.5,0,0.8,0c0.3,0,0.6,0,1,0.1c0.4,0.1,0.8,0.2,1.2,0.4
		c0.4,0.2,0.9,0.5,1.3,0.9c0.5,0.4,0.9,0.9,1.2,1.4c0.3,0.5,0.5,1,0.6,1.5c0.1,0.5,0.2,0.9,0.3,1.4c0,0.4,0.1,0.8,0,1.1
		c0,0.9-0.2,1.7-0.5,2.4c-0.3,0.7-0.7,1.3-1.2,1.8c-0.5,0.5-1,0.9-1.5,1.2c-0.5,0.3-1.1,0.4-1.6,0.4c-0.4,0-0.6,0-0.8,0.1
		c-0.2,0.1-0.2,0.2-0.2,0.3c0,0.1,0.1,0.2,0.1,0.2c0.1,0,0.2,0.1,0.3,0.1c0.1,0,0.2,0,0.4,0c0.2,0,0.3,0,0.4,0
		c1.3,0,2.4-0.2,3.5-0.6c1.1-0.4,2-1,2.8-1.8c0.8-0.8,1.4-1.7,1.8-2.7c0.4-1,0.6-2.2,0.7-3.5c0-0.6-0.1-1.2-0.3-1.8
		c-0.2-0.5-0.4-1-0.7-1.4c-0.3-0.4-0.5-0.8-0.8-1c-0.1-0.1-0.4-0.3-0.6-0.5c-0.3-0.2-0.7-0.4-1.2-0.7c-0.5-0.2-1.1-0.4-1.9-0.6
		c-0.8-0.2-1.7-0.2-2.8-0.2c-0.5,0-1.1,0-1.7,0c-0.6,0-1.2,0-1.8,0c-0.6,0-1.1,0-1.6,0c-0.3,0-0.8,0-1.3,0c-0.6,0-1.2,0-1.8,0
		c-0.7,0-1.3,0-1.9,0c-0.3,0-0.5,0-0.6,0.1c-0.1,0-0.2,0.1-0.2,0.3c0,0.1,0.1,0.2,0.2,0.3c0.1,0,0.3,0.1,0.4,0.1c0.3,0,0.5,0,0.8,0
		c0.3,0,0.5,0,0.6,0.1c0.4,0.1,0.7,0.2,0.9,0.4c0.2,0.2,0.4,0.4,0.5,0.6c0.1,0.3,0.1,0.6,0.2,1c0,0.2,0,0.5,0,0.7c0,0.2,0,0.5,0,0.9
		c0,0.3,0,0.8,0,1.3c0,0.5,0,1.1,0,1.9c0,0.8,0,1.7,0,2.7V63.8L253.2,63.8z M289,74.5c0.6,0,1.2,0,1.7,0c0.6,0,1.2-0.1,1.7-0.1
		c0.6-0.1,1.1-0.2,1.6-0.3c0.5-0.1,0.9-0.2,1.3-0.4c0.2-0.1,0.4-0.2,0.5-0.2c0.1-0.1,0.2-0.2,0.3-0.3c0.1-0.1,0.1-0.3,0.2-0.5
		c0.1-0.2,0.1-0.5,0.2-0.9c0.1-0.4,0.1-0.7,0.2-1.1c0.1-0.4,0.1-0.8,0.2-1.2c0.1-0.4,0.1-0.7,0.1-1c0-0.3,0-0.4,0-0.5
		c0-0.1,0-0.3-0.1-0.4c0-0.1-0.1-0.2-0.3-0.2c-0.1,0-0.2,0-0.3,0.1c-0.1,0.1-0.1,0.3-0.2,0.6c0,0.2-0.1,0.5-0.2,0.7
		c-0.1,0.3-0.2,0.6-0.4,0.8c-0.2,0.3-0.3,0.5-0.5,0.8c-0.5,0.5-1,0.9-1.6,1.2c-0.6,0.3-1.3,0.5-2.1,0.6c-0.8,0.1-1.7,0.2-2.8,0.2
		c-0.8,0-1.6-0.1-2.5-0.3c-0.8-0.2-1.7-0.6-2.5-1c-0.8-0.5-1.6-1-2.3-1.7c-0.7-0.7-1.4-1.5-2-2.4c-0.6-0.9-1-2-1.3-3.1
		c-0.3-1.2-0.5-2.4-0.5-3.9c0-1.1,0.1-2.3,0.3-3.4c0.2-1.1,0.5-2.1,1-3.1c0.5-1,1.1-1.9,2-2.7c0.5-0.5,1.1-0.9,1.7-1.2
		c0.6-0.3,1.4-0.6,2.2-0.7c0.8-0.2,1.7-0.3,2.7-0.3c1.1,0,2.1,0.1,3,0.3c0.9,0.2,1.8,0.4,2.5,0.8c0.7,0.3,1.3,0.7,1.7,1.1
		c0.4,0.5,0.8,1,1,1.6c0.2,0.6,0.4,1.1,0.4,1.7c0,0.2,0,0.4,0.1,0.6c0.1,0.1,0.1,0.2,0.3,0.2c0.2,0,0.3-0.1,0.3-0.2
		c0.1-0.1,0.1-0.3,0.1-0.6c0-0.2,0-0.4,0-0.7c0-0.3,0-0.6,0-1c0-0.4,0-0.7,0-1.1c0-0.4,0-0.7,0-1c0-0.4,0.1-0.7,0.1-1
		c0-0.3,0.1-0.5,0.1-0.6c0-0.1,0-0.3,0-0.4c0-0.1,0-0.2-0.1-0.3c-0.1-0.1-0.2-0.1-0.4-0.1c-0.5-0.1-1.1-0.2-1.7-0.3
		c-0.6-0.1-1.2-0.2-1.9-0.3c-0.5-0.1-1.1-0.1-1.6-0.2c-0.5-0.1-1-0.1-1.6-0.1c-0.6,0-1.2,0-1.9,0c-1.7,0-3.3,0.2-4.7,0.5
		c-1.4,0.3-2.6,0.7-3.6,1.3c-1.1,0.6-2,1.2-2.9,2c-0.8,0.8-1.5,1.6-2.1,2.5c-0.5,0.9-1,1.7-1.3,2.6c-0.3,0.9-0.5,1.7-0.6,2.5
		c-0.1,0.8-0.2,1.5-0.2,2.1c0,0.9,0.1,1.7,0.2,2.6c0.1,0.9,0.4,1.8,0.7,2.7c0.3,0.9,0.8,1.8,1.3,2.6c0.6,0.9,1.3,1.7,2.1,2.4
		c1.1,0.9,2.2,1.7,3.5,2.2c1.3,0.6,2.6,1,4,1.2C285.9,74.4,287.4,74.5,289,74.5L289,74.5z"/>
	<path class="st2" d="M43.8,9.1c18.7,0,33.9,15.2,33.9,34.1c0,18.8-15.2,34.1-33.9,34.1c-13.6,0-25.3-8-30.7-19.6
		c0.3,0.5,0.5,0.9,0.8,1.3c5.4,9.1,15.3,15.2,26.6,15.2c17.1,0,30.9-13.8,30.9-30.9c0-17.1-13.8-30.9-30.9-30.9
		c-9.5,0-18,4.3-23.6,11c-1.6,1.8-2.9,3.7-4,5.8C18.2,17.3,30,9.1,43.8,9.1L43.8,9.1z"/>
	<polygon class="st2" points="72.6,41 48.2,41 48.2,45.3 72.6,45.3 72.6,41 	"/>
	<polygon class="st2" points="52.6,58.6 52.6,27.6 48.2,27.6 48.2,58.6 52.6,58.6 	"/>
	<path class="st3" d="M39.8,3.5c17,0,31.4,10.6,37.2,25.6c-0.8-1.8-1.8-3.6-2.9-5.2c-6.4-10-17.6-16.6-30.4-16.6
		c-19.9,0-36,16.1-36,36s16.1,36,36,36c15.5,0,28.8-9.8,33.8-23.6C72.3,71.6,57.3,83,39.8,83C17.8,83,0,65.2,0,43.3
		C0,21.3,17.8,3.5,39.8,3.5L39.8,3.5z"/>
	<polygon class="st3" points="6.6,41 31,41 31,45.3 6.6,45.3 6.6,41 	"/>
	<polygon class="st3" points="26.7,58.6 26.7,27.6 31,27.6 31,58.6 26.7,58.6 	"/>
	<polygon class="st2" points="94.9,0 96.8,0 96.8,86.6 94.9,86.6 94.9,0 	"/>
</g>
</svg>
