<?xml version="1.0" encoding="utf-8"?>
<!-- Generator: Adobe Illustrator 21.1.0, SVG Export Plug-In . SVG Version: 6.00 Build 0)  -->
<svg version="1.1" id="Layer_1" xmlns="http://www.w3.org/2000/svg" xmlns:xlink="http://www.w3.org/1999/xlink" x="0px" y="0px"
	 viewBox="0 0 22 29.5" style="enable-background:new 0 0 22 29.5;" xml:space="preserve">
<style type="text/css">
	.st0{fill:#FFFFFF;}
</style>
<path id="Yelp_2_" class="st0" d="M3.7,1.3C5.2,0.2,8-0.2,9.2,0.1C10.4,0.3,11,1,11,1.8L11.1,12c0,0.8-0.4,1.5-0.9,1.6
	c-0.5,0.1-1.3-0.4-1.7-1.1L3.1,3.8C2.7,3.1,1.8,2.8,3.7,1.3z M1.9,20.8l5.4-1.9c0.8-0.3,1.4-1,1.5-1.7c0.1-0.6-0.5-1.4-1.2-1.7
	l-5.7-2.3c-0.7-0.3-1.6,0.4-1.8,1.5c0,0-0.1,4,0,4.8C0.2,20.4,1.2,21.1,1.9,20.8z M11.3,21.8c0-0.8-0.4-1.5-1-1.6
	c-0.5-0.1-1.4,0.4-1.9,1l-3.8,4.5c-0.5,0.6-0.3,2.1,0.5,2.3l3.9,1.4c0.8,0.3,2.1-0.5,2.1-1.3L11.3,21.8z M20.7,20.7L16,19.4
	c-0.8-0.2-1.6-0.2-1.9,0c-0.3,0.2-0.2,1,0.2,1.7l3,5.5c0.4,0.7,1.9,0.6,2.4-0.1c0,0,1.8-2.7,2.1-3.7C22,21.9,21.5,20.9,20.7,20.7z
	 M21.9,13c-0.2-0.7-1.7-2.7-2.5-3.4c-0.8-0.7-1.7-0.6-2.2,0l-3,3.6c-0.5,0.6-0.7,1.6-0.3,2.2c0.3,0.6,1.3,0.9,2,0.7l5.3-1
	C22.1,14.9,22.1,13.7,21.9,13z"/>
</svg>
