<?xml version="1.0" encoding="utf-8"?>
<!-- Generator: Adobe Illustrator 21.1.0, SVG Export Plug-In . SVG Version: 6.00 Build 0)  -->
<svg version="1.1" id="Layer_1" xmlns="http://www.w3.org/2000/svg" xmlns:xlink="http://www.w3.org/1999/xlink" x="0px" y="0px"
	 viewBox="0 0 14 29.9" style="enable-background:new 0 0 14 29.9;" xml:space="preserve">
<style type="text/css">
	.st0{fill:#103B99;}
</style>
<path id="Facebook_3_" class="st0" d="M3,5.9c0,0.8,0,4,0,4H0v5h3v15h6.3V15h4.1c0,0,0.4-2.3,0.6-5c-0.5,0-4.6,0-4.6,0s0-2.9,0-3.4
	c0-0.5,0.6-1.3,1.3-1.3c0.7,0,2,0,3.4,0c0-0.7,0-3,0-5.3c-1.7,0-3.7,0-4.6,0C2.9,0,3,5.2,3,5.9z"/>
</svg>
