<?xml version="1.0" encoding="utf-8"?>
<!-- Generator: Adobe Illustrator 21.1.0, SVG Export Plug-In . SVG Version: 6.00 Build 0)  -->
<svg version="1.1" id="Layer_1" xmlns="http://www.w3.org/2000/svg" xmlns:xlink="http://www.w3.org/1999/xlink" x="0px" y="0px"
	 viewBox="0 0 13 27.9" style="enable-background:new 0 0 13 27.9;" xml:space="preserve">
<style type="text/css">
	.st0{fill:#FFFFFF;}
</style>
<path id="Facebook_3_" class="st0" d="M2.8,5.5c0,0.7,0,3.8,0,3.8H0v4.6h2.8v13.9h5.9V13.9h3.8c0,0,0.4-2.2,0.5-4.6
	c-0.5,0-4.3,0-4.3,0s0-2.7,0-3.2C8.7,5.7,9.2,5,9.9,5c0.6,0,1.9,0,3.1,0c0-0.6,0-2.8,0-5c-1.5,0-3.5,0-4.3,0C2.7,0,2.8,4.8,2.8,5.5z
	"/>
</svg>
