<?xml version="1.0" encoding="utf-8"?>
<!-- Generator: Adobe Illustrator 21.1.0, SVG Export Plug-In . SVG Version: 6.00 Build 0)  -->
<svg version="1.1" id="Layer_1" xmlns="http://www.w3.org/2000/svg" xmlns:xlink="http://www.w3.org/1999/xlink" x="0px" y="0px"
	 viewBox="0 0 27.8 26.5" style="enable-background:new 0 0 27.8 26.5;" xml:space="preserve">
<style type="text/css">
	.st0{fill:#103B99;}
</style>
<path class="st0" d="M24.3,0C24.3,0,24.4,0,24.3,0c1.1,0.3,1.2,0.5,1.3,1.6c0.2,2.3,0.4,4.6,0.6,7c0.2,2.3,0.4,4.6,0.6,6.9
	c0.2,2.6,0.5,5.2,0.7,7.8c0.1,1,0.2,2.1,0.3,3.2c-2.4,0-4.8,0-7.1,0c-0.1-0.7-0.1-1.3-0.2-2c-0.1-0.7-0.1-1.5-0.2-2.2
	c0-0.2-0.1-0.3-0.3-0.3c-3.5,0-7,0-10.5,0c-0.2,0-0.3,0.1-0.4,0.3c-0.6,1.3-1.2,2.6-1.8,3.9c-0.1,0.2-0.1,0.3-0.3,0.3
	c-2.3,0-4.6,0-7,0c0,0,0-0.1,0-0.1c0.1-0.3,0.2-0.5,0.3-0.8c2-5.2,4.9-9.9,8.3-14.3c2.3-2.9,4.8-5.7,7.8-7.9c1.8-1.3,3.8-2.5,6-3
	c0.4-0.1,0.9-0.2,1.3-0.3C23.9,0,24.1,0,24.3,0z M19.9,16.2c0-0.1,0-0.2,0-0.3c-0.1-1.5-0.2-3-0.3-4.5c-0.1-0.9-0.1-1.9-0.2-2.8
	c0-0.1-0.1-0.2-0.1-0.3c-0.1,0-0.2,0.1-0.3,0.1c-0.1,0-0.1,0.1-0.1,0.1c-2.3,2-4.1,4.5-5.9,7c-0.1,0.2-0.3,0.4-0.4,0.6
	C15,16.2,17.4,16.2,19.9,16.2z"/>
</svg>
