<?xml version="1.0" encoding="utf-8"?>
<!-- Generator: Adobe Illustrator 21.1.0, SVG Export Plug-In . SVG Version: 6.00 Build 0)  -->
<svg version="1.1" id="Layer_1" xmlns="http://www.w3.org/2000/svg" xmlns:xlink="http://www.w3.org/1999/xlink" x="0px" y="0px"
	 viewBox="0 0 147.4 113.3" style="enable-background:new 0 0 147.4 113.3;" xml:space="preserve">
<style type="text/css">
	.st0{fill:#FFFFFF;}
</style>
<g>
	<g>
		<path class="st0" d="M144.3,49.4c0.3-0.2,0.6-0.2,0.7-0.4c0.1-0.2,0.2-0.4,0.2-0.4c0,0,0-0.1,0-0.1c0-0.2-0.1-0.3-0.2-0.4
			c0,0-0.2-0.1-0.4-0.1c-0.2,0-0.4,0.2-0.8,0.3c-0.6,0.3-1.5,0.8-2.6,1.3c-2.2,1.1-5.1,2.5-7.9,4c-2.9,1.5-5.8,2.9-7.9,4
			c-2.2,1.1-3.6,1.8-3.6,1.8c-0.1,0-0.1,0.1,0,0.2c0,0.1,0.1,0.1,0.2,0.1c0,0,1.5-0.7,3.7-1.7c2.2-1,5.1-2.4,8.1-3.7
			c2.9-1.4,5.8-2.8,8-3.8C142.7,50.1,143.6,49.7,144.3,49.4z"/>
		<path class="st0" d="M103.5,38.8c0.2-0.2,0.4-0.5,0.6-0.7c0.2-0.3,0.4-0.5,0.5-0.8c0.1-0.1,0.1-0.2,0.2-0.3c0,0,0.1,0,0-0.1
			c0-0.1-0.1-0.1-0.1-0.1c0,0.1-0.1,0-0.2,0c-0.1-0.1-0.1-0.1-0.1-0.2c0,0-0.1-0.1-0.2-0.1c-0.1,0-0.1,0-0.1,0
			c0,0.1-0.1,0.2-0.2,0.3c-0.1,0.2-0.3,0.5-0.5,0.8c-0.2,0.3-0.3,0.6-0.4,0.8c-0.1,0.2-0.2,0.4-0.2,0.4c0,0,0,0.1,0.1,0.2
			c0.1,0.1,0.2,0.1,0.2,0C103.2,39.1,103.3,39,103.5,38.8z"/>
		<path class="st0" d="M55.9,12.8c0.7,2.3,1.7,5.4,2.6,8.5c1,3.1,1.9,6.2,2.7,8.5c0.7,2.3,1.2,3.9,1.2,3.9c0,0.1,0.1,0.1,0.2,0.1
			c0.1,0,0.2-0.1,0.1-0.2c0,0-0.4-1.6-1.1-3.9c-0.6-2.3-1.5-5.5-2.4-8.6c-0.9-3.1-1.8-6.2-2.4-8.6c-0.3-1.2-0.6-2.1-0.8-2.8
			C56,9.3,56,9,55.9,8.9c-0.1-0.2-0.3-0.2-0.3-0.2c0,0-0.1,0-0.1,0c-0.2,0-0.3,0.1-0.4,0.2c0,0-0.1,0.1-0.2,0.4
			c0,0.2,0.1,0.5,0.2,0.8C55.2,10.6,55.5,11.6,55.9,12.8z"/>
		<path class="st0" d="M123.6,50.2c0-0.1-0.1-0.2-0.2-0.3c0,0,0,0-0.1,0c0,0-0.1-0.1-0.1-0.1c-0.1,0-0.1,0-0.2,0.1
			c-0.1,0.1-0.3,0.2-0.6,0.4c-0.2,0.2-0.5,0.4-0.8,0.6c-0.3,0.2-0.6,0.4-1,0.7c-0.6,0.5-1.3,0.9-1.8,1.3c-0.5,0.4-0.8,0.6-0.8,0.6
			c0,0,0,0.1,0,0.2c0,0.1,0.1,0.1,0.2,0.1c0,0,0.4-0.2,0.9-0.5c0.5-0.3,1.2-0.7,1.9-1.1c0.3-0.2,0.7-0.4,1-0.6
			c0.3-0.2,0.6-0.4,0.9-0.6c0.3-0.2,0.5-0.3,0.6-0.4c0.1-0.1,0.1-0.1,0.1-0.1C123.7,50.4,123.7,50.3,123.6,50.2
			C123.7,50.2,123.6,50.2,123.6,50.2z"/>
		<path class="st0" d="M133.4,62.9c0,0-0.1-0.1-0.1-0.1c-0.1-0.1-0.1,0-0.2,0c-0.2,0.1-0.4,0.1-0.6,0.2c-0.3,0.1-0.6,0.2-0.9,0.3
			c-0.3,0.1-0.7,0.2-1,0.4c-0.7,0.3-1.4,0.5-1.9,0.7c-0.5,0.2-0.9,0.4-0.9,0.4c-0.1,0-0.1,0.1,0,0.2c0,0.1,0.1,0.2,0.2,0.2
			c0,0,0.4-0.1,0.9-0.2c0.5-0.1,1.3-0.3,2-0.5c0.4-0.1,0.7-0.2,1.1-0.3c0.3-0.1,0.6-0.2,0.9-0.3c0.3-0.1,0.5-0.1,0.6-0.2
			c0.1,0,0.1,0,0.2-0.1c0,0,0-0.1,0-0.1c0,0,0-0.1,0-0.1C133.6,63.2,133.5,63.1,133.4,62.9C133.5,63,133.4,62.9,133.4,62.9z"/>
		<path class="st0" d="M37.9,47.9c0.3,0.2,0.5,0.4,0.8,0.5c0.2,0.1,0.4,0.2,0.4,0.2c0,0,0.1,0,0.2,0c0.1-0.1,0.1-0.2,0.1-0.2
			c0,0-0.1-0.1-0.3-0.3c-0.2-0.2-0.4-0.5-0.6-0.7c-0.2-0.2-0.5-0.5-0.7-0.7c-0.1-0.1-0.2-0.2-0.2-0.2c0,0,0-0.1-0.1,0
			c-0.1,0-0.1,0.1-0.1,0.1c0,0,0,0.1,0,0.2c-0.1,0.1-0.2,0.1-0.2,0.1c0,0-0.1,0.1-0.1,0.2c0,0.1,0,0.1,0,0.1c0.1,0,0.1,0.1,0.2,0.2
			C37.3,47.5,37.6,47.7,37.9,47.9z"/>
		<path class="st0" d="M126.8,65C126.7,64.9,126.7,65,126.8,65c-0.2,0-0.3,0-0.4,0.1c-0.2,0.1-0.6,0.2-0.9,0.3
			c-0.3,0.1-0.6,0.3-0.9,0.4c-0.2,0.1-0.4,0.2-0.4,0.2c0,0-0.1,0.1,0,0.2c0,0.1,0.1,0.2,0.2,0.2c0,0,0.2,0,0.4-0.1
			c0.3,0,0.6-0.1,0.9-0.2c0.3-0.1,0.7-0.2,0.9-0.2c0.1,0,0.2-0.1,0.3-0.1c0,0,0.1,0,0.1-0.1c0-0.1,0-0.2,0-0.2c-0.1,0-0.1,0-0.2-0.1
			c0-0.1,0-0.2,0-0.2C126.9,65.1,126.8,65,126.8,65z"/>
		<path class="st0" d="M12.2,81c0.1,0,0.3,0,0.5,0c0.4,0,0.9,0,1.4-0.1c0.5,0,1-0.1,1.4-0.1c0.4,0,0.6-0.1,0.6-0.1
			c0.1,0,0.1-0.1,0.1-0.2c0-0.1,0-0.2-0.1-0.2c0,0-0.3,0-0.6-0.1c-0.4-0.1-0.9-0.1-1.4-0.1c-0.5,0-1-0.1-1.4-0.1c-0.2,0-0.3,0-0.5,0
			c-0.1,0-0.1,0-0.1,0.1c0,0,0,0.1,0,0.2c0,0,0,0.1,0,0.1c0,0.1,0,0.3,0,0.5c0,0,0,0,0,0.1c0,0.1,0,0.1,0,0.2
			C12.1,81,12.2,81,12.2,81z"/>
		<path class="st0" d="M17.3,81c0.2,0,0.4,0,0.7,0c0.3,0,0.6,0,1,0c0.3,0,0.7,0,1.1,0c0.7,0,1.5,0,2.1-0.1c0.6,0,0.9-0.1,0.9-0.1
			c0.1,0,0.1-0.1,0.1-0.2c0-0.1,0-0.2-0.1-0.2c0,0-0.4,0-0.9-0.1c-0.6-0.1-1.3-0.1-2-0.2c-0.4,0-0.7,0-1.1-0.1c-0.3,0-0.7,0-1,0
			c-0.3,0-0.5,0-0.7,0c-0.1,0-0.1,0-0.2,0c0,0,0,0.1-0.1,0.1c0,0,0,0.1,0,0.1c0,0.1,0,0.3,0,0.4c0,0,0,0,0,0.1c0,0,0,0.1,0,0.1
			C17.2,81,17.2,80.9,17.3,81z"/>
		<path class="st0" d="M134.4,80.1c1,0,1.9,0,2.8,0c0.9,0,1.7,0,2.5,0c0.7,0,1.3,0,1.7,0c0.2,0,0.4,0,0.5-0.1
			c0.1-0.1,0.2-0.2,0.2-0.2c0-0.1,0-0.3,0-0.5c0,0-0.1-0.1-0.2-0.2c-0.1-0.1-0.3,0-0.5,0c-0.4,0-1,0-1.7,0.1c-0.7,0-1.6,0.1-2.5,0.1
			c-0.9,0-1.9,0.1-2.8,0.1c-1.9,0.1-3.9,0.2-5.3,0.3c-1.4,0.1-2.4,0.2-2.4,0.2c-0.1,0-0.1,0.1-0.1,0.2c0,0.1,0.1,0.2,0.1,0.2
			c0,0,1,0,2.4,0C130.6,80.1,132.5,80.1,134.4,80.1z"/>
		<path class="st0" d="M36.5,46c0,0-0.3-0.3-0.6-0.7c-0.4-0.4-0.9-0.9-1.5-1.4c-0.3-0.3-0.5-0.5-0.8-0.8c-0.3-0.2-0.5-0.5-0.7-0.6
			c-0.2-0.2-0.4-0.3-0.5-0.5c-0.1,0-0.1-0.1-0.2-0.1c0,0-0.1,0-0.1,0.1c0,0-0.1,0-0.1,0c-0.1,0.1-0.2,0.2-0.3,0.3c0,0,0,0,0,0.1
			c0,0,0,0.1-0.1,0.1c0,0.1,0.1,0.1,0.1,0.2c0.1,0.1,0.3,0.3,0.5,0.4c0.2,0.2,0.5,0.4,0.7,0.6c0.3,0.2,0.6,0.5,0.8,0.7
			c0.6,0.5,1.2,0.9,1.6,1.3c0.4,0.3,0.8,0.6,0.8,0.6c0,0,0.1,0,0.2-0.1C36.5,46.1,36.5,46,36.5,46z"/>
		<path class="st0" d="M19,63.3c-0.9-0.3-1.7-0.5-2.4-0.8c-0.7-0.2-1.3-0.4-1.7-0.5c-0.2-0.1-0.3-0.1-0.5-0.1
			c-0.1,0-0.2,0.2-0.2,0.2c-0.1,0.1-0.2,0.3-0.1,0.4c0,0,0,0.2,0.1,0.3c0.1,0.1,0.3,0.1,0.5,0.2c0.4,0.1,1,0.3,1.7,0.5
			c0.7,0.2,1.5,0.4,2.4,0.7c0.9,0.2,1.8,0.5,2.7,0.8c1.9,0.5,3.7,1,5.1,1.4c1.4,0.4,2.3,0.6,2.3,0.6c0.1,0,0.1,0,0.2-0.1
			c0-0.1,0-0.2,0-0.2c0,0-0.9-0.3-2.3-0.8c-1.4-0.5-3.2-1.1-5-1.7C20.8,63.9,19.8,63.6,19,63.3z"/>
		<path class="st0" d="M24,80.8c0,0,0,0.1,0,0.2c0,0.1,0,0,0.1,0c0.1,0,0.2,0,0.3,0c0.3,0,0.6,0,0.9,0c0.3,0,0.7,0,0.9-0.1
			c0.3,0,0.4-0.1,0.4-0.1c0,0,0.1-0.1,0.1-0.1c0-0.1,0-0.2-0.1-0.2c0,0-0.2,0-0.4-0.1c-0.3,0-0.6-0.1-0.9-0.1
			c-0.3,0-0.7-0.1-0.9-0.1c-0.1,0-0.2,0-0.3,0c0,0-0.1,0-0.1,0c0,0.1,0,0.2,0,0.2c0.1,0,0.1,0.1,0.1,0.2
			C24.1,80.7,24.1,80.8,24,80.8z"/>
		<path class="st0" d="M26.4,58.3c0.3,0.1,0.6,0.3,0.9,0.4c0.3,0.2,0.7,0.3,1.1,0.5c0.7,0.3,1.5,0.6,2,0.8c0.6,0.2,0.9,0.4,0.9,0.4
			c0.1,0,0.1,0,0.2-0.1c0-0.1,0-0.2,0-0.2c0,0-0.3-0.2-0.9-0.5c-0.5-0.3-1.2-0.7-1.9-1c-0.4-0.2-0.7-0.4-1-0.5
			c-0.3-0.2-0.6-0.3-0.9-0.5c-0.3-0.1-0.5-0.2-0.6-0.3c-0.1,0-0.1-0.1-0.2,0c0,0-0.1,0.1-0.1,0.1c0,0,0,0.1,0,0.1
			c-0.1,0.1-0.1,0.2-0.2,0.4c0,0,0,0,0,0.1c0,0,0,0.1,0,0.1c0,0.1,0.1,0.1,0.2,0.1C25.9,58,26.2,58.2,26.4,58.3z"/>
		<path class="st0" d="M97.1,9.4c0.1,0,0.3,0,0.3,0c0,0,0.2-0.6,0.5-1.4c0.3-0.8,0.7-2,1-3.1c0.2-0.6,0.3-1.1,0.5-1.7
			c0.2-0.5,0.3-1,0.4-1.5c0.1-0.4,0.2-0.8,0.3-1c0-0.1,0.1-0.2,0-0.3c0,0-0.1-0.1-0.2-0.1c0,0-0.1-0.1-0.1-0.1
			C99.8,0.1,99.6,0,99.4,0c0,0-0.1,0-0.1,0c-0.1,0-0.1,0-0.2,0c-0.1,0-0.1,0.2-0.1,0.3c-0.1,0.3-0.2,0.6-0.3,1
			c-0.1,0.4-0.2,0.9-0.4,1.5C98.2,3.4,98,4,97.9,4.5c-0.3,1.2-0.5,2.3-0.7,3.2c-0.2,0.9-0.3,1.5-0.3,1.5C96.9,9.3,97,9.3,97.1,9.4z"
			/>
		<path class="st0" d="M83.6,32c0,0,0.2-1,0.4-2.4c0.2-1.4,0.5-3.3,0.8-5.2c0.1-1,0.3-1.9,0.4-2.8c0.1-0.9,0.3-1.7,0.4-2.4
			c0.1-0.7,0.2-1.3,0.3-1.7c0-0.2,0.1-0.4,0-0.5c-0.1-0.1-0.2-0.2-0.2-0.2c-0.1-0.1-0.3-0.1-0.5-0.1c0,0-0.2,0-0.2,0.1
			c-0.1,0.1-0.1,0.3-0.1,0.5c0,0.4-0.1,1-0.2,1.7c-0.1,0.7-0.2,1.6-0.3,2.5c-0.1,0.9-0.2,1.9-0.3,2.8c-0.2,1.9-0.4,3.8-0.6,5.3
			C83.3,31,83.2,32,83.2,32c0,0.1,0.1,0.1,0.2,0.1C83.5,32.1,83.6,32.1,83.6,32z"/>
		<path class="st0" d="M92.7,25.1c0.1,0,0.2,0,0.2,0c0,0,0.3-0.8,0.7-2.1c0.4-1.3,0.9-2.9,1.5-4.6c0.3-0.8,0.5-1.7,0.7-2.5
			c0.2-0.8,0.5-1.5,0.6-2.2c0.2-0.6,0.3-1.2,0.5-1.5c0-0.2,0.1-0.3,0.1-0.4c-0.1-0.1-0.2-0.2-0.2-0.2c-0.1-0.1-0.3-0.1-0.5-0.1
			c0,0-0.2,0-0.3,0.1c-0.1,0.1-0.1,0.2-0.2,0.4c-0.1,0.4-0.2,0.9-0.4,1.5c-0.2,0.6-0.4,1.4-0.6,2.2c-0.2,0.8-0.4,1.6-0.7,2.5
			c-0.4,1.7-0.9,3.4-1.2,4.7c-0.3,1.3-0.5,2.1-0.5,2.1C92.5,25,92.6,25.1,92.7,25.1z"/>
		<path class="st0" d="M75.7,13.3c0,2,0.1,4.7,0.2,7.4c0.1,2.7,0.1,5.4,0.2,7.4c0.1,2,0.1,3.4,0.1,3.4c0,0.1,0.1,0.1,0.2,0.1
			c0.1,0,0.2,0,0.2-0.1c0,0,0-1.3,0.1-3.4c0.1-2,0.1-4.7,0.1-7.4c0-2.7,0-5.4,0-7.4c0-1,0-1.9,0-2.4c0-0.3,0-0.5-0.1-0.7
			c-0.1-0.2-0.3-0.2-0.3-0.2c0,0,0,0,0,0c-0.1-0.1-0.3-0.1-0.5,0c0,0-0.2,0.1-0.2,0.3c-0.1,0.2,0,0.4,0,0.7
			C75.7,11.4,75.7,12.3,75.7,13.3z"/>
		<path class="st0" d="M90.5,33.5c0,0,0.1-0.4,0.3-0.9c0.2-0.6,0.5-1.3,0.7-2.1c0.1-0.4,0.2-0.8,0.4-1.1c0.1-0.4,0.2-0.7,0.3-1
			c0.1-0.3,0.2-0.5,0.2-0.7c0-0.1,0.1-0.1,0-0.2c0,0-0.1-0.1-0.1-0.1c0,0-0.1,0-0.1,0c-0.1-0.1-0.2-0.1-0.4-0.1c0,0,0,0-0.1,0
			c0,0-0.1,0-0.1,0c-0.1,0-0.1,0.1-0.1,0.2c0,0.2-0.1,0.4-0.2,0.7c-0.1,0.3-0.2,0.6-0.3,1c-0.1,0.4-0.2,0.7-0.3,1.1
			c-0.2,0.8-0.4,1.6-0.5,2.1c-0.1,0.6-0.2,1-0.2,1c0,0.1,0,0.1,0.1,0.1C90.4,33.5,90.5,33.5,90.5,33.5z"/>
		<path class="st0" d="M66.8,18.2c0.1,0.4,0.2,0.9,0.3,1.4c0.1,0.5,0.2,1,0.4,1.4c0.1,0.4,0.2,0.6,0.2,0.6c0,0.1,0.1,0.1,0.2,0.1
			c0.1,0,0.2-0.1,0.2-0.1c0,0,0-0.3,0-0.6c0-0.4,0-0.9-0.1-1.4c0-0.5-0.1-1-0.2-1.4c0-0.2,0-0.3-0.1-0.5c0-0.1,0-0.1-0.1-0.1
			c0,0-0.1,0-0.2,0c0,0-0.1,0-0.1,0c-0.1,0-0.3,0-0.4,0.1c0,0,0,0-0.1,0c-0.1,0-0.1,0-0.1,0.1c-0.1,0,0,0.1,0,0.1
			C66.7,17.9,66.7,18.1,66.8,18.2z"/>
		<path class="st0" d="M68.8,29.4c0,0-0.1,0-0.2,0.1c-0.1,0,0,0.1,0,0.1c0,0.1,0,0.2,0,0.3c0,0.3,0.1,0.6,0.2,0.9
			c0.1,0.3,0.2,0.7,0.2,0.9c0.1,0.2,0.1,0.4,0.1,0.4c0,0,0.1,0.1,0.2,0.1c0.1,0,0.2-0.1,0.2-0.1c0,0,0-0.2,0-0.4c0-0.3,0-0.6,0-0.9
			c0-0.3,0-0.7-0.1-0.9c0-0.1,0-0.2,0-0.3c0,0,0-0.1-0.1-0.1c-0.1,0-0.2,0-0.2,0c0,0.1-0.1,0.1-0.2,0.1
			C68.9,29.5,68.8,29.5,68.8,29.4z"/>
		<path class="st0" d="M67.7,22.6c0,0-0.1,0-0.1,0.1c-0.1,0.1,0,0.1,0,0.2c0,0.2,0.1,0.4,0.1,0.7c0,0.3,0.1,0.6,0.2,0.9
			c0.1,0.3,0.1,0.7,0.2,1.1c0.2,0.7,0.3,1.5,0.4,2c0.1,0.5,0.2,0.9,0.2,0.9c0,0.1,0.1,0.1,0.2,0.1c0.1,0,0.2-0.1,0.2-0.1
			c0,0,0-0.4-0.1-0.9c0-0.6-0.1-1.3-0.2-2c0-0.4-0.1-0.7-0.1-1.1c0-0.3-0.1-0.7-0.1-0.9c0-0.3-0.1-0.5-0.1-0.7c0-0.1,0-0.1-0.1-0.2
			c0,0-0.1,0-0.1,0c0,0-0.1,0-0.1,0C68,22.5,67.9,22.5,67.7,22.6C67.7,22.5,67.7,22.5,67.7,22.6z"/>
		<path class="st0" d="M146.3,68.9c-0.6,0.1-1.4,0.3-2.4,0.5c-2,0.4-4.6,0.9-7.3,1.4c-2.7,0.5-5.3,1-7.3,1.4c-2,0.4-3.3,0.7-3.3,0.7
			c-0.1,0-0.1,0.1-0.1,0.2c0,0.1,0.1,0.2,0.1,0.2c0,0,1.3-0.2,3.3-0.5c2-0.3,4.7-0.7,7.3-1.1c2.7-0.4,5.3-0.9,7.3-1.2
			c1-0.2,1.8-0.3,2.4-0.4c0.3-0.1,0.5,0,0.7-0.2c0.1-0.1,0.2-0.3,0.2-0.3c0,0,0,0,0,0c0-0.1,0-0.3-0.1-0.5c0,0-0.1-0.1-0.3-0.2
			C146.8,68.7,146.6,68.8,146.3,68.9z"/>
		<path class="st0" d="M125.4,48.8c0.1,0.1,0.2,0.1,0.2,0.1c0,0,0.7-0.5,1.9-1.1c1.1-0.7,2.6-1.6,4.1-2.6c0.7-0.5,1.5-1,2.2-1.4
			c0.7-0.4,1.3-0.9,1.9-1.2c0.6-0.4,1-0.7,1.3-0.9c0.2-0.1,0.3-0.2,0.3-0.3c0-0.1,0-0.3,0-0.3c0-0.2-0.2-0.3-0.3-0.4
			c0,0-0.1-0.1-0.3-0.1c-0.1,0-0.2,0.1-0.4,0.2c-0.3,0.2-0.8,0.5-1.3,0.9s-1.2,0.8-1.8,1.3c-0.7,0.5-1.4,1-2.1,1.5
			c-1.4,1-2.9,2-3.9,2.8c-1.1,0.8-1.8,1.3-1.8,1.3C125.3,48.6,125.3,48.7,125.4,48.8z"/>
		<path class="st0" d="M119.3,42.5c-1.4,1.3-2.8,2.6-3.8,3.7c-1,1-1.7,1.7-1.7,1.7c0,0,0,0.1,0,0.2c0.1,0.1,0.2,0.1,0.2,0.1
			c0,0,0.7-0.6,1.8-1.6c1.1-0.9,2.6-2.2,4-3.5c0.7-0.6,1.5-1.3,2.1-1.9c0.7-0.6,1.3-1.2,1.9-1.6c0.5-0.5,1-0.9,1.3-1.2
			c0.1-0.1,0.3-0.2,0.3-0.4c0-0.1,0-0.3,0-0.3c0-0.1-0.2-0.3-0.3-0.3c0,0-0.1-0.1-0.3-0.1c-0.1,0-0.2,0.2-0.4,0.3
			c-0.3,0.3-0.7,0.7-1.3,1.2c-0.5,0.5-1.1,1.1-1.8,1.7C120.7,41.2,120,41.9,119.3,42.5z"/>
		<path class="st0" d="M96.8,35.7c0,0.1,0,0.1,0.1,0.2c0.1,0,0.2,0,0.2,0c0,0,0.7-1.5,1.7-3.7c1-2.2,2.4-5.1,3.7-8.1
			c1.3-2.9,2.7-5.9,3.7-8.1c0.5-1.1,0.9-2,1.2-2.7c0.1-0.3,0.3-0.6,0.3-0.8c0-0.2-0.1-0.4-0.1-0.4c0,0,0,0-0.1-0.1
			c-0.1-0.1-0.3-0.2-0.4-0.2c0,0-0.2,0-0.4,0.2c-0.2,0.1-0.2,0.4-0.4,0.7c-0.3,0.7-0.7,1.6-1.1,2.7c-0.9,2.2-2.2,5.2-3.5,8.2
			c-1.2,3-2.5,6-3.4,8.2C97.4,34.2,96.8,35.7,96.8,35.7z"/>
		<path class="st0" d="M139.2,39.8c0,0,0.5-0.3,1.3-0.7c0.8-0.4,1.8-1.1,2.8-1.7c0.5-0.3,1-0.6,1.5-0.9c0.5-0.3,0.9-0.6,1.3-0.8
			c0.4-0.2,0.7-0.4,0.9-0.6c0.1-0.1,0.2-0.1,0.2-0.2c0-0.1,0-0.1,0-0.2c0-0.1,0-0.1,0-0.1c-0.1-0.2-0.2-0.4-0.3-0.5c0,0,0,0-0.1-0.1
			c-0.1,0-0.1-0.1-0.2-0.1c-0.1-0.1-0.2,0.1-0.3,0.1c-0.2,0.2-0.5,0.4-0.9,0.6c-0.4,0.3-0.8,0.6-1.2,0.9c-0.5,0.3-0.9,0.7-1.4,1
			c-0.9,0.7-1.9,1.4-2.6,2c-0.7,0.6-1.2,0.9-1.2,0.9c0,0,0,0.2,0,0.3C139,39.8,139.1,39.9,139.2,39.8z"/>
		<path class="st0" d="M107.7,30.8c-0.1,0.1-0.2,0.3-0.3,0.6c-0.1,0.2-0.3,0.5-0.5,0.8c-0.2,0.3-0.4,0.6-0.5,1
			c-0.4,0.7-0.7,1.3-1,1.8c-0.3,0.5-0.4,0.8-0.4,0.8c0,0,0,0.1,0.1,0.2c0.1,0.1,0.2,0.1,0.2,0c0,0,0.2-0.3,0.6-0.7
			c0.3-0.4,0.8-1.1,1.2-1.7c0.2-0.3,0.4-0.6,0.6-0.9c0.2-0.3,0.4-0.6,0.5-0.8c0.2-0.2,0.3-0.4,0.4-0.6c0-0.1,0.1-0.1,0.1-0.2
			c0,0-0.1-0.1-0.1-0.1c0,0-0.1-0.1-0.1-0.1c-0.1-0.1-0.2-0.2-0.3-0.2c0,0,0,0-0.1,0c0,0-0.1,0-0.1,0
			C107.7,30.6,107.7,30.7,107.7,30.8z"/>
		<path class="st0" d="M108.9,30.1c0,0,0.2-0.2,0.4-0.5c0.2-0.3,0.5-0.7,0.8-1.1c0.3-0.4,0.6-0.8,0.8-1.2c0.1-0.2,0.2-0.3,0.2-0.4
			c0-0.1,0.1-0.1,0-0.1c0,0-0.1-0.1-0.1-0.1c0,0-0.1,0-0.1,0c-0.1-0.1-0.2-0.2-0.4-0.2c0,0,0,0-0.1,0c0,0-0.1,0-0.1-0.1
			c-0.1,0-0.1,0-0.1,0.1c-0.1,0.1-0.1,0.2-0.2,0.4c-0.2,0.3-0.4,0.8-0.7,1.2c-0.2,0.5-0.5,0.9-0.6,1.3c-0.2,0.3-0.3,0.6-0.3,0.6
			c0,0,0,0.1,0.1,0.2C108.7,30.1,108.8,30.1,108.9,30.1z"/>
		<path class="st0" d="M108.6,43c0,0,0,0.1,0.1,0.2c0.1,0.1,0.2,0.1,0.2,0c0,0,0.9-1,2.2-2.5c1.3-1.5,3.1-3.6,4.9-5.6
			c1.8-2.1,3.5-4.1,4.8-5.6c0.7-0.8,1.2-1.4,1.6-1.9c0.2-0.2,0.4-0.4,0.4-0.6c0-0.2,0-0.3,0-0.3c0,0,0,0,0,0
			c-0.1-0.1-0.2-0.3-0.4-0.3c0,0-0.2,0-0.3,0c-0.2,0.1-0.3,0.3-0.5,0.5c-0.4,0.5-0.9,1.1-1.5,1.9c-1.3,1.6-3,3.7-4.7,5.8
			c-1.7,2.1-3.4,4.2-4.6,5.8C109.5,42,108.6,43,108.6,43z"/>
		<path class="st0" d="M138.2,61.3C138.2,61.3,138.2,61.3,138.2,61.3c-0.1-0.1-0.1-0.2-0.1-0.2c-0.1-0.1-0.1,0-0.1,0
			c-0.1,0-0.3,0.1-0.4,0.2c-0.4,0.1-0.8,0.3-1.3,0.5c-0.5,0.2-0.9,0.4-1.3,0.6c-0.3,0.2-0.6,0.3-0.6,0.3c0,0-0.1,0.1,0,0.2
			c0,0.1,0.1,0.2,0.2,0.2c0,0,0.3,0,0.6-0.1c0.4-0.1,0.9-0.2,1.4-0.3c0.5-0.1,1-0.3,1.3-0.4c0.2-0.1,0.3-0.1,0.4-0.1
			c0,0,0.1,0,0.1-0.1c0,0,0-0.1,0-0.2c0,0,0-0.1,0-0.1C138.3,61.6,138.3,61.5,138.2,61.3z"/>
		<path class="st0" d="M53.4,31.3c0.1,0.3,0.3,0.6,0.4,0.9c0.2,0.3,0.3,0.7,0.5,1.1c0.4,0.7,0.7,1.4,1,2c0.3,0.5,0.5,0.9,0.5,0.9
			c0,0,0.1,0.1,0.2,0c0.1,0,0.1-0.1,0.1-0.2c0,0-0.1-0.4-0.3-0.9c-0.2-0.6-0.5-1.3-0.8-2.1c-0.1-0.4-0.3-0.7-0.4-1.1
			c-0.1-0.3-0.3-0.7-0.4-0.9c-0.1-0.3-0.2-0.5-0.3-0.7c0-0.1,0-0.2-0.1-0.2c0,0-0.1,0-0.1,0c0,0-0.1,0-0.1,0c-0.1,0-0.2,0.1-0.4,0.2
			c0,0,0,0-0.1,0c0,0-0.1,0.1-0.1,0.1c-0.1,0.1,0,0.1,0,0.2C53.2,30.8,53.3,31,53.4,31.3z"/>
		<path class="st0" d="M0.3,46.3c0.2,0.1,0.6,0.3,1,0.4c0.4,0.2,0.9,0.4,1.4,0.6c0.5,0.2,1.1,0.5,1.6,0.7c1.1,0.4,2.2,0.9,3,1.2
			c0.8,0.3,1.4,0.5,1.4,0.5c0.1,0,0.1-0.1,0.2-0.2c0.1-0.1,0.1-0.3,0-0.3c0,0-0.5-0.3-1.3-0.7c-0.8-0.4-1.8-1-2.9-1.5
			c-0.5-0.3-1.1-0.5-1.6-0.8c-0.5-0.2-1-0.5-1.4-0.7c-0.4-0.2-0.7-0.4-1-0.5c-0.1,0-0.2-0.1-0.3-0.1c-0.1,0-0.1,0.1-0.2,0.1
			c0,0-0.1,0.1-0.1,0.1c-0.1,0.2-0.2,0.3-0.2,0.5c0,0,0,0.1,0,0.1c0,0.1,0,0.1,0,0.2C0,46.2,0.1,46.2,0.3,46.3z"/>
		<path class="st0" d="M6.3,69.8C6.2,69.9,6.1,70,6.1,70c0,0,0,0,0,0C6,70.2,5.9,70.4,6,70.5c0,0,0.1,0.2,0.2,0.3
			c0.1,0.1,0.4,0.1,0.7,0.2c0.6,0.1,1.4,0.2,2.4,0.3c2,0.3,4.7,0.7,7.4,1.1c2.7,0.4,5.4,0.7,7.4,1c2,0.3,3.3,0.4,3.3,0.4
			c0.1,0,0.1-0.1,0.1-0.2c0-0.1,0-0.2-0.1-0.2c0,0-1.3-0.2-3.3-0.6c-2-0.4-4.7-0.8-7.3-1.3c-2.7-0.5-5.3-0.9-7.3-1.3
			c-1-0.2-1.8-0.3-2.4-0.4C6.7,69.8,6.5,69.7,6.3,69.8z"/>
		<path class="st0" d="M41.6,6.2c0.2,0.4,0.4,0.9,0.7,1.4c0.2,0.5,0.5,1,0.8,1.6c0.6,1.1,1.1,2.1,1.5,2.9c0.4,0.8,0.7,1.3,0.7,1.3
			c0,0,0.1,0,0.3,0c0.1-0.1,0.2-0.2,0.2-0.2c0,0-0.2-0.6-0.5-1.4c-0.3-0.8-0.8-1.9-1.2-3c-0.2-0.6-0.5-1.1-0.7-1.6
			c-0.2-0.5-0.4-1-0.6-1.4c-0.2-0.4-0.3-0.7-0.4-1c-0.1-0.1-0.1-0.2-0.2-0.2c-0.1,0-0.1,0-0.2,0c-0.1,0-0.1,0-0.1,0
			c-0.2,0-0.4,0.1-0.5,0.2c0,0,0,0-0.1,0.1c0,0-0.1,0.1-0.1,0.2c-0.1,0.1,0,0.2,0.1,0.3C41.3,5.4,41.4,5.8,41.6,6.2z"/>
		<path class="st0" d="M43.2,28.2c-0.4-0.6-0.7-1.1-0.9-1.5c-0.1-0.2-0.2-0.3-0.3-0.4c-0.1-0.1-0.3,0-0.3,0c-0.1,0-0.3,0.1-0.4,0.2
			c0,0-0.1,0.1-0.1,0.3c0,0.1,0.1,0.3,0.2,0.4c0.2,0.4,0.6,0.9,1,1.5c0.4,0.6,0.9,1.3,1.4,2.1c0.5,0.8,1,1.6,1.6,2.4
			c1.1,1.6,2.2,3.2,3,4.4c0.8,1.2,1.4,2,1.4,2c0,0,0.1,0,0.2,0c0.1-0.1,0.1-0.1,0.1-0.2c0,0-0.5-0.8-1.2-2.1C48,36,47,34.4,46,32.7
			c-0.5-0.8-1-1.6-1.5-2.4C44,29.5,43.5,28.8,43.2,28.2z"/>
		<path class="st0" d="M47,17.5c0.3,0.6,0.6,1.3,1,2c0.4,0.7,0.7,1.5,1.1,2.3c0.8,1.6,1.5,3.2,2.1,4.3c0.6,1.2,1,2,1,2
			c0,0.1,0.1,0.1,0.2,0c0.1,0,0.2-0.1,0.1-0.2c0,0-0.3-0.8-0.8-2c-0.5-1.2-1.2-2.8-1.9-4.5c-0.3-0.8-0.7-1.6-1-2.4
			c-0.3-0.8-0.6-1.5-0.9-2.1c-0.3-0.6-0.5-1.1-0.6-1.5c-0.1-0.2-0.1-0.3-0.2-0.4c-0.1-0.1-0.3,0-0.3,0c-0.2,0-0.3,0.1-0.5,0.2
			c0,0-0.1,0.1-0.2,0.2c0,0.1,0.1,0.2,0.1,0.4C46.5,16.4,46.7,16.9,47,17.5z"/>
		<path class="st0" d="M31.9,30.1c1.3,1.5,3.1,3.5,4.9,5.6c1.8,2,3.6,4,5,5.5c1.4,1.5,2.3,2.5,2.3,2.5c0,0,0.1,0,0.2,0
			c0.1-0.1,0.1-0.2,0.1-0.2c0,0-0.9-1-2.1-2.6c-1.3-1.6-3-3.6-4.7-5.7c-1.7-2.1-3.5-4.1-4.8-5.7c-0.7-0.8-1.2-1.4-1.6-1.9
			c-0.2-0.2-0.3-0.4-0.5-0.5c-0.2-0.1-0.3,0-0.3,0c0,0,0,0,0,0c-0.1,0.1-0.3,0.2-0.3,0.3c0,0-0.1,0.2,0,0.3c0,0.2,0.2,0.3,0.4,0.6
			C30.6,28.7,31.2,29.4,31.9,30.1z"/>
		<path class="st0" d="M11.2,51.2c0.3,0.2,0.8,0.4,1.4,0.7c0.6,0.3,1.3,0.6,2,0.9c0.8,0.3,1.5,0.7,2.4,1.1c1.6,0.7,3.2,1.4,4.4,1.9
			c1.2,0.5,2,0.9,2,0.9c0.1,0,0.1,0,0.2-0.1c0-0.1,0-0.2,0-0.2c0,0-0.8-0.4-1.9-1c-1.2-0.6-2.7-1.4-4.3-2.2
			c-0.8-0.4-1.6-0.8-2.3-1.1c-0.7-0.4-1.4-0.7-2-1c-0.6-0.3-1.1-0.5-1.4-0.7c-0.2-0.1-0.3-0.2-0.4-0.1c-0.1,0-0.3,0.2-0.3,0.2
			c-0.1,0.1-0.2,0.3-0.2,0.5c0,0,0,0.2,0,0.3C10.9,51.1,11,51.1,11.2,51.2z"/>
		<path class="st0" d="M27.9,39.4c0.1,0.1,0.2,0.2,0.4,0.3c0.3,0.2,0.7,0.6,1.1,0.9c0.4,0.3,0.8,0.6,1.1,0.8
			c0.3,0.2,0.5,0.3,0.5,0.3c0,0,0.1,0,0.2-0.1c0.1-0.1,0.1-0.2,0.1-0.2c0,0-0.2-0.2-0.4-0.5c-0.3-0.3-0.6-0.6-1-1
			c-0.4-0.4-0.7-0.7-1-0.9c-0.1-0.1-0.3-0.2-0.3-0.3c0,0-0.1-0.1-0.1,0c0,0-0.1,0.1-0.1,0.1c0,0-0.1,0-0.1,0
			c-0.1,0.1-0.2,0.2-0.3,0.3c0,0,0,0,0,0.1c0,0-0.1,0.1-0.1,0.1C27.8,39.4,27.8,39.4,27.9,39.4z"/>
		<path class="st0" d="M13.9,41c0.6,0.4,1.4,0.9,2.5,1.6c2,1.3,4.8,3,7.5,4.8c2.7,1.7,5.5,3.5,7.5,4.7c2.1,1.3,3.4,2.1,3.4,2.1
			c0.1,0,0.1,0,0.2-0.1c0.1-0.1,0.1-0.2,0-0.2c0,0-1.3-0.9-3.3-2.3c-2-1.4-4.7-3.2-7.3-5c-2.7-1.8-5.4-3.6-7.4-5
			c-1-0.7-1.8-1.2-2.4-1.6c-0.3-0.2-0.5-0.4-0.7-0.4c-0.2,0-0.4,0.1-0.4,0.1c0,0,0,0-0.1,0c-0.1,0.1-0.2,0.3-0.2,0.4
			c0,0,0,0.2,0.1,0.4C13.4,40.7,13.6,40.8,13.9,41z"/>
	</g>
	<g>
		<g>
			<path class="st0" d="M77.1,63.6L77.1,63.6c-3.4,0-6.1-2.7-6.1-6.1v-1.1c0-3.4,2.7-6.1,6.1-6.1c1.6,0,3.2,0.6,4.3,1.8
				c1.2,1.2,1.8,2.7,1.8,4.3v1.1C83.2,60.9,80.4,63.6,77.1,63.6z M77.1,52c-2.5,0-4.4,2-4.4,4.4v1.1c0,2.5,2,4.4,4.4,4.5
				c2.5,0,4.4-2,4.4-4.4v-1.1c0-1.2-0.5-2.3-1.3-3.1C79.4,52.4,78.3,52,77.1,52z"/>
		</g>
		<g>
			<rect x="70.5" y="74" class="st0" width="1.7" height="4.9"/>
		</g>
		<g>
			<rect x="82" y="74" class="st0" width="1.7" height="4.9"/>
		</g>
		<g>
			<path class="st0" d="M88.5,78.9h-1.7l0-7.5c0-1.7-1.1-3.3-2.8-3.8c-4.5-1.5-9.5-1.5-14,0c-1.7,0.5-2.8,2.1-2.8,3.8l0,7.5h-1.7
				l0-7.5c0-2.5,1.6-4.6,3.9-5.4c4.9-1.6,10.2-1.6,15.1,0c2.3,0.8,3.9,2.9,3.9,5.4L88.5,78.9z"/>
		</g>
	</g>
	<g>
		<g>
			<path class="st0" d="M55.9,68.2c-1.6,0-3.2-0.6-4.3-1.8c-1.2-1.2-1.8-2.7-1.8-4.3V61c0-3.4,2.7-6.1,6.1-6.1
				c3.4,0,6.1,2.7,6.1,6.1v1.1C62.1,65.4,59.3,68.2,55.9,68.2z M55.9,56.5c-2.5,0-4.4,2-4.4,4.4v1.1c0,1.2,0.5,2.3,1.3,3.1
				c0.8,0.8,2,1.3,3.1,1.3c2.5,0,4.4-2,4.4-4.4V61C60.4,58.5,58.4,56.5,55.9,56.5z"/>
		</g>
		<g>
			<path class="st0" d="M67.5,113.3l-4.3-12.2c-0.2-0.6-0.8-1.1-1.5-1.1H55c-4.3,0-7.8-3.5-7.8-7.8V75.4c0-3,2.5-5.5,5.5-5.5h2.3
				c1.5,0,3,0.6,4.1,1.7l5.5,5.5c0.6,0.6,1.4,0.9,2.3,0.9h4c2,0,3.7,1.7,3.7,3.7c0,2-1.7,3.7-3.7,3.7h-9.5c-1.3,0-2.5-0.5-3.5-1.4
				l-4.4-4.4l1.2-1.2l4.4,4.4c0.6,0.6,1.4,0.9,2.3,0.9H71c1.1,0,2.1-0.9,2.1-2.1c0-1.1-0.9-2.1-2.1-2.1h-4c-1.3,0-2.5-0.5-3.5-1.4
				L58,72.7c-0.8-0.8-1.8-1.2-2.9-1.2h-2.3c-2.1,0-3.9,1.7-3.9,3.9v16.9c0,3.4,2.7,6.1,6.1,6.1h6.7c1.4,0,2.6,0.9,3.1,2.2l4.3,12.2
				L67.5,113.3z"/>
		</g>
		<g>
			<path class="st0" d="M73.8,113.2L69.9,95c-0.5-2.2-2.5-3.8-4.7-3.8h-5.5c-1.4,0-2.6-1.2-2.6-2.6v-5.8h1.7v5.8
				c0,0.5,0.4,0.9,0.9,0.9h5.5c3,0,5.7,2.2,6.4,5.1l3.9,18.2L73.8,113.2z"/>
		</g>
		<g>
			<path class="st0" d="M61.2,104.5h-7.1c-6.2,0-11.3-5.1-11.3-11.3V70.7h1.7v22.5c0,5.3,4.3,9.7,9.7,9.7h7.1V104.5z"/>
		</g>
	</g>
	<g>
		<g>
			<path class="st0" d="M98.2,68.2c-3.4,0-6.1-2.7-6.1-6.1V61c0-3.4,2.7-6.1,6.1-6.1c3.4,0,6.1,2.7,6.1,6.1v1.1
				c0,1.6-0.6,3.2-1.8,4.3C101.4,67.5,99.8,68.2,98.2,68.2z M98.2,56.5c-2.5,0-4.4,2-4.4,4.5v1.1c0,2.5,2,4.4,4.4,4.4
				c1.2,0,2.3-0.5,3.1-1.3c0.8-0.8,1.3-2,1.3-3.1V61C102.6,58.5,100.6,56.5,98.2,56.5z"/>
		</g>
		<g>
			<path class="st0" d="M86.7,113.3l-1.6-0.5l4.3-12.2c0.5-1.3,1.7-2.2,3.1-2.2h6.7c3.4,0,6.1-2.7,6.1-6.1V75.4
				c0-2.1-1.7-3.9-3.9-3.9h-2.3c-1.1,0-2.1,0.4-2.9,1.2l-5.5,5.5c-0.9,0.9-2.1,1.4-3.5,1.4h-4c-1.1,0-2.1,0.9-2.1,2.1
				c0,1.1,0.9,2.1,2.1,2.1h9.5c0.9,0,1.7-0.3,2.3-0.9l4.4-4.4l1.2,1.2L96.2,84c-0.9,0.9-2.1,1.4-3.5,1.4h-9.5c-2,0-3.7-1.7-3.7-3.7
				c0-2,1.7-3.7,3.7-3.7h4c0.9,0,1.7-0.3,2.3-0.9l5.5-5.5c1.1-1.1,2.5-1.7,4.1-1.7h2.3c3,0,5.5,2.5,5.5,5.5v16.9
				c0,4.3-3.5,7.8-7.8,7.8h-6.7c-0.7,0-1.3,0.4-1.5,1.1L86.7,113.3z"/>
		</g>
		<g>
			<path class="st0" d="M80.3,113.2l-1.6-0.3l3.9-18.2c0.6-3,3.3-5.1,6.4-5.1h5.5c0.5,0,0.9-0.4,0.9-0.9v-5.8h1.7v5.8
				c0,1.4-1.2,2.6-2.6,2.6H89c-2.3,0-4.3,1.6-4.7,3.8L80.3,113.2z"/>
		</g>
		<g>
			<path class="st0" d="M100,104.5h-7.1v-1.7h7.1c5.3,0,9.7-4.3,9.7-9.7V70.7h1.7v22.5C111.3,99.4,106.3,104.5,100,104.5z"/>
		</g>
	</g>
	<g>
		<rect x="71" y="83.7" class="st0" width="12.2" height="1.7"/>
	</g>
</g>
</svg>
