<?xml version="1.0" encoding="utf-8"?>
<!-- Generator: Adobe Illustrator 21.1.0, SVG Export Plug-In . SVG Version: 6.00 Build 0)  -->
<svg version="1.1" id="Layer_1" xmlns="http://www.w3.org/2000/svg" xmlns:xlink="http://www.w3.org/1999/xlink" x="0px" y="0px"
	 viewBox="0 0 119.6 21.5" style="enable-background:new 0 0 119.6 21.5;" xml:space="preserve">
<style type="text/css">
	.st0{fill-rule:evenodd;clip-rule:evenodd;fill:#FC5A45;}
</style>
<g>
	<polygon class="st0" points="35.9,16.6 28.9,21.5 31.4,13.3 24.6,8.2 33.1,8.1 35.9,0 38.6,8.1 47.2,8.2 40.4,13.3 42.9,21.5 	"/>
	<polygon class="st0" points="59.7,16.6 52.7,21.5 55.2,13.3 48.4,8.2 56.9,8.1 59.7,0 62.5,8.1 71,8.2 64.2,13.3 66.7,21.5 	"/>
	<polygon class="st0" points="11.3,16.6 4.3,21.5 6.8,13.3 0,8.2 8.5,8.1 11.3,0 14.1,8.1 22.6,8.2 15.8,13.3 18.3,21.5 	"/>
	<polygon class="st0" points="83.8,16.6 76.9,21.5 79.4,13.3 72.5,8.2 81.1,8.1 83.8,0 86.6,8.1 95.1,8.2 88.3,13.3 90.8,21.5 	"/>
	<polygon class="st0" points="108.3,16.6 101.3,21.5 103.8,13.3 97,8.2 105.5,8.1 108.3,0 111.1,8.1 119.6,8.2 112.8,13.3 
		115.3,21.5 	"/>
</g>
</svg>
