<svg xmlns="http://www.w3.org/2000/svg" viewBox="0 0 273.39 222.18"><defs><style>.cls-1{isolation:isolate;}.cls-2{fill:#fff;mix-blend-mode:multiply;}</style></defs><title>Asset 1</title><g class="cls-1"><g id="Layer_2" data-name="Layer 2"><g id="Icons"><path class="cls-2" d="M273.39,26.3a112,112,0,0,1-32.22,8.83,56.22,56.22,0,0,0,24.67-31,112.12,112.12,0,0,1-35.62,13.61,56.15,56.15,0,0,0-95.58,51.16A159.28,159.28,0,0,1,19,10.27,56.16,56.16,0,0,0,36.39,85.15a55.73,55.73,0,0,1-25.4-7c0,.24,0,.47,0,.71a56.12,56.12,0,0,0,45,55,56.08,56.08,0,0,1-25.33,1A56.16,56.16,0,0,0,83,173.75a112.51,112.51,0,0,1-69.66,24A113.66,113.66,0,0,1,0,197a158.78,158.78,0,0,0,86,25.2c103.17,0,159.58-85.47,159.58-159.59q0-3.65-.16-7.25A114,114,0,0,0,273.39,26.3Z"/></g></g></g></svg>