<?xml version="1.0" encoding="utf-8"?>
<!-- Generator: Adobe Illustrator 21.1.0, SVG Export Plug-In . SVG Version: 6.00 Build 0)  -->
<svg version="1.1" id="Layer_1" xmlns="http://www.w3.org/2000/svg" xmlns:xlink="http://www.w3.org/1999/xlink" x="0px" y="0px"
	 viewBox="0 0 2.5 143.9" style="enable-background:new 0 0 2.5 143.9;" xml:space="preserve">
<style type="text/css">
	.st0{fill:#103B99;}
</style>
<path class="st0" d="M0.6,120c0,1.3,0,2.8,0,4.3c0,1.6,0,3.3,0.1,5c0.1,3.4,0.1,6.8,0.2,9.4c0,2.7,0.1,4.4,0.1,4.4
	c0,0.3,0.1,0.6,0.3,0.7c0.2,0.2,0.3,0.1,0.3-0.1c0,0,0.1-1.6,0.1-4.1c0.1-2.4,0.1-5.8,0.2-9c0-1.6,0.1-3.3,0.1-4.9c0-1.6,0-3,0-4.3
	s0-2.3,0-3c0-0.4,0.1-0.6-0.1-0.9c-0.1-0.2-0.2-0.3-0.2-0.5c-0.1-0.1-0.1-0.2-0.1-0.2c-0.2-0.3-0.5-0.5-0.7-0.6H0.8
	c-0.1,0-0.2,0-0.2,0c-0.1,0.1-0.1,0.4-0.1,0.8C0.6,117.7,0.6,118.7,0.6,120z"/>
<path class="st0" d="M0,1.2c0,1.1,0,2.7,0.1,4.6s0.1,4.1,0.1,6.5s0,4.9,0.1,7.5C0.4,24.9,0.5,30,0.7,33.9c0.1,3.9,0.2,6.5,0.2,6.5
	c0,0.3,0.2,0.6,0.5,0.9c0.3,0.2,0.5,0.2,0.5,0c0,0,0.1-2.4,0.2-6.1c0.1-3.6,0.2-8.6,0.3-13.5c0.1-2.5,0-5,0.1-7.3c0-2.3,0-4.5,0-6.4
	s0-3.4,0-4.5c0-0.6,0.1-0.9-0.1-1.4C2.3,1.9,2.2,1.6,2.1,1.4S1.9,1.1,1.9,1.1c-0.3-0.4-0.7-0.8-1.1-1c0,0-0.1,0-0.2-0.1
	C0.5,0,0.3,0,0.3,0C-0.1,0.1,0,0.6,0,1.2z"/>
<path class="st0" d="M0.4,50.3c0,1.6,0,4,0,6.7c0,2.8,0,6,0.1,9.5c0,3.5,0,7.2,0.1,10.9C0.7,84.9,0.8,92.3,0.9,98
	c0,5.7,0.1,9.5,0.1,9.5c0,0.3,0.2,0.6,0.4,0.8c0.2,0.2,0.4,0.1,0.4-0.1c0,0,0.1-3.6,0.2-9.1C2,93.6,2.1,86.3,2.2,79
	c0.1-3.6,0.1-7.3,0.1-10.8c0-3.4,0-6.7,0.1-9.4c0-2.8,0-5,0-6.7c0-0.8,0.1-1.4-0.1-2C2.1,49.5,1.8,49,1.8,49
	c-0.3-0.4-0.6-0.8-0.9-0.8c0,0-0.3,0-0.5,0.3C0.3,48.8,0.4,49.5,0.4,50.3z"/>
</svg>
